<?xml version="1.0" encoding="utf-8"?>
<svg version="1.1" id="Layer_1" xmlns="http://www.w3.org/2000/svg" xmlns:xlink="http://www.w3.org/1999/xlink" x="0px" y="0px"
	 viewBox="0 0 561 252" style="enable-background:new 0 0 561 252;" xml:space="preserve">
<style type="text/css">
	.st0{fill:#36699A;}
	.st1{font-family:'Lato';font-weight:400;}
	.st2{font-size:12px;}
	.st3{fill:#35A7B2;}
	.st4{fill:#EFDB99;}
	.st5{fill:#F8B668;}
	.st6{fill:#CF7178;}
	.st7{fill:none;stroke:#D9D9D8;stroke-width:0.72;stroke-linejoin:round;stroke-miterlimit:10;}
	.st8{fill:none;stroke:#6D6E71;stroke-width:0.5;stroke-linejoin:round;stroke-miterlimit:10;}
	.st9{fill:#414042;}
	.st10{font-family:'Lato';font-weight:700;}
	.st11{font-size:10px;}
	.st12{fill:#27679D;}
	.st13{fill:#00A7B4;}
	.st14{fill:#F2DD94;}
	.st15{fill:#FCB763;}
	.st16{fill:#DB7278;}
	.st17{font-family:'Lato';font-weight:700;}
</style>
<text transform="matrix(0.9524 0 0 1 365.0074 24.6555)" class="st0 st1 st2">0-19 </text>
<text transform="matrix(0.9524 0 0 1 397.0101 24.6555)" class="st3 st1 st2">20-34 </text>
<text transform="matrix(0.9524 0 0 1 437.3278 24.6555)" class="st4 st1 st2">35-54 </text>
<text transform="matrix(0.9524 0 0 1 479.6444 24.6555)" class="st5 st1 st2">55-64 </text>
<text transform="matrix(0.9524 0 0 1 520.4132 24.6555)" class="st6 st1 st2">65+ </text>
<path class="st7" d="M37.9,199H552 M37.9,167H552 M37.9,135.1H552 M37.9,103.1H552 M37.9,71.1H552 M37.9,39.2H552 M37.9,7.2H552"/>
<line class="st8" x1="37.9" y1="231" x2="552" y2="231"/>
<g>
	<text transform="matrix(0.9524 0 0 1 14.9175 235.4824)"><tspan x="0" y="0" class="st9 st10 st11">0</tspan><tspan x="5.8" y="0" class="st9 st10 st11">%</tspan></text>
</g>
<g>
	<text transform="matrix(0.9524 0 0 1 14.9175 203.5215)"><tspan x="0" y="0" class="st9 st10 st11">5</tspan><tspan x="5.8" y="0" class="st9 st10 st11">%</tspan></text>
</g>
<g>
	<text transform="matrix(0.9524 0 0 1 9.4219 171.5547)"><tspan x="0" y="0" class="st9 st10 st11">10</tspan><tspan x="11.5" y="0" class="st9 st10 st11">%</tspan></text>
</g>
<g>
	<text transform="matrix(0.9524 0 0 1 9.4219 139.5977)"><tspan x="0" y="0" class="st9 st10 st11">15</tspan><tspan x="11.5" y="0" class="st9 st10 st11">%</tspan></text>
</g>
<g>
	<text transform="matrix(0.9524 0 0 1 9.4219 107.6357)"><tspan x="0" y="0" class="st9 st10 st11">20</tspan><tspan x="11.5" y="0" class="st9 st10 st11">%</tspan></text>
</g>
<g>
	<text transform="matrix(0.9524 0 0 1 9.4219 75.669)"><tspan x="0" y="0" class="st9 st10 st11">25</tspan><tspan x="11.5" y="0" class="st9 st10 st11">%</tspan></text>
</g>
<g>
	<text transform="matrix(0.9524 0 0 1 9.4219 43.7022)"><tspan x="0" y="0" class="st9 st10 st11">30</tspan><tspan x="11.5" y="0" class="st9 st10 st11">%</tspan></text>
</g>
<g>
	<text transform="matrix(0.9524 0 0 1 9.4219 11.7407)"><tspan x="0" y="0" class="st9 st10 st11">35</tspan><tspan x="11.5" y="0" class="st9 st10 st11">%</tspan></text>
</g>
<g>
	<polygon class="st12" points="49.2,64 59.6,64 59.6,231 49.2,231 49.2,64 	"/>
	<polygon class="st13" points="62.3,76.5 72.7,76.5 72.7,231 62.3,231 62.3,76.5 	"/>
	<polygon class="st14" points="75.5,57.7 85.9,57.7 85.9,231 75.5,231 75.5,57.7 	"/>
	<polygon class="st15" points="88.6,161.2 99.1,161.2 99.1,231 88.6,231 88.6,161.2 	"/>
	<polygon class="st16" points="101.8,156 112.2,156 112.2,231 101.8,231 101.8,156 	"/>
	<g>
		<text transform="matrix(0.9524 0 0 1 57.016 245.1718)"><tspan x="0" y="0" class="st9 st17 st11">San Diego</tspan></text>
	</g>
</g>
<g>
	<polygon class="st12" points="156.3,21.2 166.6,21.2 166.6,231 156.3,231 156.3,21.2 	"/>
	<polygon class="st13" points="169.5,85.8 179.8,85.8 179.8,231 169.5,231 169.5,85.8 	"/>
	<polygon class="st14" points="182.6,75 193,75 193,231 182.6,231 182.6,75 	"/>
	<polygon class="st15" points="195.8,168.7 206.1,168.7 206.1,231 195.8,231 195.8,168.7 	"/>
	<polygon class="st16" points="209,164.9 219.3,164.9 219.3,231 209,231 209,164.9 	"/>
	<g>
		<text transform="matrix(0.9524 0 0 1 171.9924 245.1721)"><tspan x="0" y="0" class="st9 st10 st11">Fresno</tspan></text>
	</g>
</g>
<g>
	<polygon class="st12" points="263.4,58.6 273.8,58.6 273.8,231 263.4,231 263.4,58.6 	"/>
	<polygon class="st13" points="276.6,87 287,87 287,231 276.6,231 276.6,87 	"/>
	<polygon class="st14" points="289.7,49.4 300.1,49.4 300.1,231 289.7,231 289.7,49.4 	"/>
	<polygon class="st15" points="302.9,162.4 313.3,162.4 313.3,231 302.9,231 302.9,162.4 	"/>
	<polygon class="st16" points="316,157.9 326.4,157.9 326.4,231 316,231 316,157.9 	"/>
	<g>
		<text transform="matrix(0.9524 0 0 1 269.4228 245.1721)"><tspan x="0" y="0" class="st9 st10 st11">Los Angeles</tspan></text>
	</g>
</g>
<g>
	<polygon class="st12" points="370.5,81.7 380.9,81.7 380.9,231 370.5,231 370.5,81.7 	"/>
	<polygon class="st13" points="383.7,93.5 394.1,93.5 394.1,231 383.7,231 383.7,93.5 	"/>
	<polygon class="st14" points="396.8,40.7 407.2,40.7 407.2,231 396.8,231 396.8,40.7 	"/>
	<polygon class="st15" points="410,151.8 420.4,151.8 420.4,231 410,231 410,151.8 	"/>
	<polygon class="st16" points="423.1,147.8 433.6,147.8 433.6,231 423.1,231 423.1,147.8 	"/>
	<g>
		<text transform="matrix(0.9524 0 0 1 374.4344 245.1721)"><tspan x="0" y="0" class="st9 st10 st11">San Francisco</tspan></text>
	</g>
</g>
<g>
	<polygon class="st12" points="477.7,61.9 488.1,61.9 488.1,231 477.7,231 477.7,61.9 	"/>
	<polygon class="st13" points="490.8,94.1 501.2,94.1 501.2,231 490.8,231 490.8,94.1 	"/>
	<polygon class="st14" points="504,38.8 514.4,38.8 514.4,231 504,231 504,38.8 	"/>
	<polygon class="st15" points="517.1,162.4 527.6,162.4 527.6,231 517.1,231 517.1,162.4 	"/>
	<polygon class="st16" points="530.3,158.3 540.6,158.3 540.6,231 530.3,231 530.3,158.3 	"/>
	<g>
		<text transform="matrix(0.9524 0 0 1 493.589 245.1721)"><tspan x="0" y="0" class="st9 st10 st11">San Jose</tspan></text>
	</g>
</g>
</svg>
