<svg id="Layer_1" xmlns="http://www.w3.org/2000/svg" viewBox="0 0 561 252"><style>.st0{fill:#36699A;} .st1{font-family:&apos;Lato&apos;;font-weight:400;} .st2{font-size:12px;} .st3{fill:#35A7B2;} .st4{fill:#EFDB99;} .st5{fill:#F8B668;} .st6{fill:#CF7178;} .st7{fill:none;stroke:#D9D9D8;stroke-width:0.72;stroke-linejoin:round;stroke-miterlimit:10;} .st8{fill:none;stroke:#6D6E71;stroke-width:0.5;stroke-linejoin:round;stroke-miterlimit:10;} .st9{fill:#414042;} .st10{font-family:&apos;Lato&apos;;font-weight:700;} .st11{font-size:10px;} .st12{fill:#27679D;} .st13{fill:#00A7B4;} .st14{fill:#F2DD94;} .st15{fill:#FCB763;} .st16{fill:#DB7278;} .st17{font-family:&apos;Lato&apos;;font-weight:700;}</style><text transform="matrix(.9524 0 0 1 365.007 24.655)" class="st0 st1 st2">0-19</text><text transform="matrix(.9524 0 0 1 397.01 24.655)" class="st3 st1 st2">20-34</text><text transform="matrix(.9524 0 0 1 437.328 24.655)" class="st4 st1 st2">35-54</text><text transform="matrix(.9524 0 0 1 479.644 24.655)" class="st5 st1 st2">55-64</text><text transform="matrix(.9524 0 0 1 520.413 24.655)" class="st6 st1 st2">65+</text><path class="st7" d="M37.9 199H552M37.9 167H552M37.9 135.1H552m-514.1-32H552m-514.1-32H552M37.9 39.2H552M37.9 7.2H552"/><path class="st8" d="M37.9 231H552"/><text transform="matrix(.9524 0 0 1 14.918 235.482)"><tspan x="0" y="0" class="st9 st10 st11">0</tspan><tspan x="5.8" y="0" class="st9 st10 st11">%</tspan></text><text transform="matrix(.9524 0 0 1 14.918 203.52)"><tspan x="0" y="0" class="st9 st10 st11">5</tspan><tspan x="5.8" y="0" class="st9 st10 st11">%</tspan></text><text transform="matrix(.9524 0 0 1 9.422 171.555)"><tspan x="0" y="0" class="st9 st10 st11">10</tspan><tspan x="11.5" y="0" class="st9 st10 st11">%</tspan></text><text transform="matrix(.9524 0 0 1 9.422 139.598)"><tspan x="0" y="0" class="st9 st10 st11">15</tspan><tspan x="11.5" y="0" class="st9 st10 st11">%</tspan></text><text transform="matrix(.9524 0 0 1 9.422 107.636)"><tspan x="0" y="0" class="st9 st10 st11">20</tspan><tspan x="11.5" y="0" class="st9 st10 st11">%</tspan></text><text transform="matrix(.9524 0 0 1 9.422 75.67)"><tspan x="0" y="0" class="st9 st10 st11">25</tspan><tspan x="11.5" y="0" class="st9 st10 st11">%</tspan></text><text transform="matrix(.9524 0 0 1 9.422 43.702)"><tspan x="0" y="0" class="st9 st10 st11">30</tspan><tspan x="11.5" y="0" class="st9 st10 st11">%</tspan></text><text transform="matrix(.9524 0 0 1 9.422 11.74)"><tspan x="0" y="0" class="st9 st10 st11">35</tspan><tspan x="11.5" y="0" class="st9 st10 st11">%</tspan></text><path class="st12" d="M49.2 64h10.4v167H49.2V64z"/><path class="st13" d="M62.3 76.5h10.4V231H62.3V76.5z"/><path class="st14" d="M75.5 57.7h10.4V231H75.5V57.7z"/><path class="st15" d="M88.6 161.2h10.5V231H88.6v-69.8z"/><path class="st16" d="M101.8 156h10.4v75h-10.4v-75z"/><text transform="matrix(.9524 0 0 1 57.016 245.172)"><tspan x="0" y="0" class="st9 st17 st11">San Diego</tspan></text><g><path class="st12" d="M156.3 21.2h10.3V231h-10.3V21.2z"/><path class="st13" d="M169.5 85.8h10.3V231h-10.3V85.8z"/><path class="st14" d="M182.6 75H193v156h-10.4V75z"/><path class="st15" d="M195.8 168.7h10.3V231h-10.3v-62.3z"/><path class="st16" d="M209 164.9h10.3V231H209v-66.1z"/><text transform="matrix(.9524 0 0 1 171.992 245.172)"><tspan x="0" y="0" class="st9 st10 st11">Fresno</tspan></text></g><g><path class="st12" d="M263.4 58.6h10.4V231h-10.4V58.6z"/><path class="st13" d="M276.6 87H287v144h-10.4V87z"/><path class="st14" d="M289.7 49.4h10.4V231h-10.4V49.4z"/><path class="st15" d="M302.9 162.4h10.4V231h-10.4v-68.6z"/><path class="st16" d="M316 157.9h10.4V231H316v-73.1z"/><text transform="matrix(.9524 0 0 1 269.423 245.172)"><tspan x="0" y="0" class="st9 st10 st11">Los Angeles</tspan></text></g><g><path class="st12" d="M370.5 81.7h10.4V231h-10.4V81.7z"/><path class="st13" d="M383.7 93.5h10.4V231h-10.4V93.5z"/><path class="st14" d="M396.8 40.7h10.4V231h-10.4V40.7z"/><path class="st15" d="M410 151.8h10.4V231H410v-79.2z"/><path class="st16" d="M423.1 147.8h10.5V231h-10.5v-83.2z"/><text transform="matrix(.9524 0 0 1 374.434 245.172)"><tspan x="0" y="0" class="st9 st10 st11">San Francisco</tspan></text></g><g><path class="st12" d="M477.7 61.9h10.4V231h-10.4V61.9z"/><path class="st13" d="M490.8 94.1h10.4V231h-10.4V94.1z"/><path class="st14" d="M504 38.8h10.4V231H504V38.8z"/><path class="st15" d="M517.1 162.4h10.5V231h-10.5v-68.6z"/><path class="st16" d="M530.3 158.3h10.3V231h-10.3v-72.7z"/><text transform="matrix(.9524 0 0 1 493.59 245.172)"><tspan x="0" y="0" class="st9 st10 st11">San Jose</tspan></text></g></svg>