<?xml version="1.0" encoding="utf-8"?>
<!-- Generator: Adobe Illustrator 19.1.0, SVG Export Plug-In . SVG Version: 6.00 Build 0)  -->
<svg version="1.1" id="Layer_1" xmlns="http://www.w3.org/2000/svg" xmlns:xlink="http://www.w3.org/1999/xlink" x="0px" y="0px"
	 viewBox="0 0 375 367" style="enable-background:new 0 0 375 367;" xml:space="preserve">
<style type="text/css">
	.st0{fill:#414042;}
	.st1{font-family:'Lato-Regular';}
	.st2{font-size:10px;}
	.st3{fill:none;stroke:#D9D9D8;stroke-width:0.72;stroke-linejoin:round;stroke-miterlimit:10;}
	.st4{fill:#DB7278;}
	.st5{fill:#58C0E7;}
	.st6{font-size:8px;}
	.st7{font-family:'Lato-Heavy';}
	.st8{font-size:12px;}
	.st9{fill:#6D6E71;}
	.st10{font-family:'Lato-Bold';}
	.st11{font-size:6px;}
</style>
<g>
	<text transform="matrix(1 0 0 1 123.3857 12.1092)"><tspan x="0" y="0" class="st0 st1 st2">0</tspan><tspan x="5.8" y="0" class="st0 st1 st2">%</tspan></text>
</g>
<g>
	<text transform="matrix(1 0 0 1 168.8857 12.1093)"><tspan x="0" y="0" class="st0 st1 st2">5</tspan><tspan x="5.8" y="0" class="st0 st1 st2">%</tspan></text>
</g>
<g>
	<text transform="matrix(1 0 0 1 211.501 12.1093)"><tspan x="0" y="0" class="st0 st1 st2">10</tspan><tspan x="11.5" y="0" class="st0 st1 st2">%</tspan></text>
</g>
<g>
	<text transform="matrix(1 0 0 1 257.0007 12.1093)"><tspan x="0" y="0" class="st0 st1 st2">15</tspan><tspan x="11.5" y="0" class="st0 st1 st2">%</tspan></text>
</g>
<g>
	<text transform="matrix(1 0 0 1 302.5012 12.1093)"><tspan x="0" y="0" class="st0 st1 st2">20</tspan><tspan x="11.5" y="0" class="st0 st1 st2">%</tspan></text>
</g>
<g>
	<text transform="matrix(1 0 0 1 348.0009 12.1095)"><tspan x="0" y="0" class="st0 st1 st2">25</tspan><tspan x="11.5" y="0" class="st0 st1 st2">%</tspan></text>
</g>
<path class="st3" d="M173.6,18.8V365 M219.3,18.8V365 M265.1,18.8V365 M310.8,18.8V365 M356.5,18.8V365"/>
<g>
	<polygon class="st4" points="127.9,358.3 147.8,358.3 147.8,363.8 127.9,363.8 127.9,358.3 	"/>
	<polygon class="st5" points="127.9,352.9 129.9,352.9 129.9,358.3 127.9,358.3 127.9,352.9 	"/>
</g>
<g>
	<polygon class="st4" points="127.9,340.9 135.5,340.9 135.5,346.4 127.9,346.4 127.9,340.9 	"/>
	<polygon class="st5" points="127.9,335.4 132.3,335.4 132.3,340.9 127.9,340.9 127.9,335.4 	"/>
</g>
<g>
	<polygon class="st4" points="127.9,323.5 154.1,323.5 154.1,329 127.9,329 127.9,323.5 	"/>
	<polygon class="st5" points="127.9,318 137.4,318 137.4,323.6 127.9,323.6 127.9,318 	"/>
</g>
<g>
	<polygon class="st4" points="127.9,306.1 137.2,306.1 137.2,311.6 127.9,311.6 127.9,306.1 	"/>
	<polygon class="st5" points="127.9,300.6 137.5,300.6 137.5,306.1 127.9,306.1 127.9,300.6 	"/>
</g>
<g>
	<polygon class="st4" points="127.9,288.7 138.7,288.7 138.7,294.2 127.9,294.2 127.9,288.7 	"/>
	<polygon class="st5" points="127.9,283.2 137.8,283.2 137.8,288.7 127.9,288.7 127.9,283.2 	"/>
</g>
<g>
	<polygon class="st4" points="127.9,271.2 147.2,271.2 147.2,276.7 127.9,276.7 127.9,271.2 	"/>
	<polygon class="st5" points="127.9,265.8 144.6,265.8 144.6,271.2 127.9,271.2 127.9,265.8 	"/>
</g>
<g>
	<polygon class="st4" points="127.9,253.8 142.6,253.8 142.6,259.3 127.9,259.3 127.9,253.8 	"/>
	<polygon class="st5" points="127.9,248.3 145.9,248.3 145.9,253.8 127.9,253.8 127.9,248.3 	"/>
</g>
<g>
	<polygon class="st4" points="127.9,236.4 147.3,236.4 147.3,241.9 127.9,241.9 127.9,236.4 	"/>
	<polygon class="st5" points="127.9,230.9 146.6,230.9 146.6,236.4 127.9,236.4 127.9,230.9 	"/>
</g>
<g>
	<polygon class="st4" points="127.9,219 156.7,219 156.7,224.5 127.9,224.5 127.9,219 	"/>
	<polygon class="st5" points="127.9,213.5 155.1,213.5 155.1,219 127.9,219 127.9,213.5 	"/>
</g>
<g>
	<polygon class="st4" points="127.9,201.6 153.1,201.6 153.1,207.1 127.9,207.1 127.9,201.6 	"/>
	<polygon class="st5" points="127.9,196.1 156.7,196.1 156.7,201.6 127.9,201.6 127.9,196.1 	"/>
</g>
<g>
	<polygon class="st4" points="127.9,184.1 161.1,184.1 161.1,189.7 127.9,189.7 127.9,184.1 	"/>
	<polygon class="st5" points="127.9,178.6 158.8,178.6 158.8,184.1 127.9,184.1 127.9,178.6 	"/>
</g>
<g>
	<polygon class="st4" points="127.9,166.7 175,166.7 175,172.2 127.9,172.2 127.9,166.7 	"/>
	<polygon class="st5" points="127.9,161.2 161.4,161.2 161.4,166.7 127.9,166.7 127.9,161.2 	"/>
</g>
<g>
	<polygon class="st4" points="127.9,149.3 192.6,149.3 192.6,154.8 127.9,154.8 127.9,149.3 	"/>
	<polygon class="st5" points="127.9,143.8 165.6,143.8 165.6,149.3 127.9,149.3 127.9,143.8 	"/>
</g>
<g>
	<polygon class="st4" points="127.9,131.9 184.3,131.9 184.3,137.4 127.9,137.4 127.9,131.9 	"/>
	<polygon class="st5" points="127.9,126.4 173.2,126.4 173.2,132 127.9,132 127.9,126.4 	"/>
</g>
<g>
	<polygon class="st4" points="127.9,114.5 179.2,114.5 179.2,120 127.9,120 127.9,114.5 	"/>
	<polygon class="st5" points="127.9,109 176.2,109 176.2,114.5 127.9,114.5 127.9,109 	"/>
</g>
<g>
	<polygon class="st4" points="127.9,97.1 194.2,97.1 194.2,102.5 127.9,102.5 127.9,97.1 	"/>
	<polygon class="st5" points="127.9,91.6 177.9,91.6 177.9,97.1 127.9,97.1 127.9,91.6 	"/>
</g>
<g>
	<polygon class="st4" points="127.9,79.6 236.6,79.6 236.6,85.1 127.9,85.1 127.9,79.6 	"/>
	<polygon class="st5" points="127.9,74.1 210.5,74.1 210.5,79.6 127.9,79.6 127.9,74.1 	"/>
</g>
<g>
	<polygon class="st4" points="127.9,62.2 196.7,62.2 196.7,67.7 127.9,67.7 127.9,62.2 	"/>
	<polygon class="st5" points="127.9,56.7 229.2,56.7 229.2,62.2 127.9,62.2 127.9,56.7 	"/>
</g>
<g>
	<polygon class="st4" points="127.9,44.8 254,44.8 254,50.3 127.9,50.3 127.9,44.8 	"/>
	<polygon class="st5" points="127.9,39.3 307,39.3 307,44.8 127.9,44.8 127.9,39.3 	"/>
</g>
<g>
	<polygon class="st4" points="127.9,27.4 239.2,27.4 239.2,32.9 127.9,32.9 127.9,27.4 	"/>
	<polygon class="st5" points="127.9,21.9 323.8,21.9 323.8,27.4 127.9,27.4 127.9,21.9 	"/>
</g>
<line class="st3" x1="127.9" y1="365.4" x2="127.9" y2="19.2"/>
<g>
	<text transform="matrix(1 0 0 1 97.7319 359.3945)"><tspan x="0" y="0" class="st0 st1 st6">M</tspan><tspan x="7.5" y="0" class="st0 st1 st6">i</tspan><tspan x="9.4" y="0" class="st0 st1 st6">n</tspan><tspan x="13.9" y="0" class="st0 st1 st6">i</tspan><tspan x="15.8" y="0" class="st0 st1 st6">n</tspan><tspan x="20.2" y="0" class="st0 st1 st6">g</tspan></text>
</g>
<g>
	<text transform="matrix(1 0 0 1 9.9292 342.082)"><tspan x="0" y="0" class="st0 st1 st6">A</tspan><tspan x="5.5" y="0" class="st0 st1 st6">g</tspan><tspan x="9.6" y="0" class="st0 st1 st6">r</tspan><tspan x="12.6" y="0" class="st0 st1 st6">i</tspan><tspan x="14.5" y="0" class="st0 st1 st6">c</tspan><tspan x="18.2" y="0" class="st0 st1 st6">u</tspan><tspan x="22.8" y="0" class="st0 st1 st6">l</tspan><tspan x="24.6" y="0" class="st0 st1 st6">t</tspan><tspan x="27.5" y="0" class="st0 st1 st6">u</tspan><tspan x="32" y="0" class="st0 st1 st6">r</tspan><tspan x="34.9" y="0" class="st0 st1 st6">e</tspan><tspan x="39.1" y="0" class="st0 st1 st6"> </tspan><tspan x="41.2" y="0" class="st0 st1 st6">&amp;</tspan><tspan x="46.9" y="0" class="st0 st1 st6"> </tspan><tspan x="48.9" y="0" class="st0 st1 st6">R</tspan><tspan x="54" y="0" class="st0 st1 st6">e</tspan><tspan x="58.2" y="0" class="st0 st1 st6">l</tspan><tspan x="60" y="0" class="st0 st1 st6">a</tspan><tspan x="64.1" y="0" class="st0 st1 st6">t</tspan><tspan x="66.9" y="0" class="st0 st1 st6">e</tspan><tspan x="71.2" y="0" class="st0 st1 st6">d</tspan><tspan x="75.6" y="0" class="st0 st1 st6"> </tspan><tspan x="77.7" y="0" class="st0 st1 st6">I</tspan><tspan x="79.9" y="0" class="st0 st1 st6">n</tspan><tspan x="84.4" y="0" class="st0 st1 st6">d</tspan><tspan x="88.9" y="0" class="st0 st1 st6">u</tspan><tspan x="93.4" y="0" class="st0 st1 st6">s</tspan><tspan x="96.8" y="0" class="st0 st1 st6">t</tspan><tspan x="99.7" y="0" class="st0 st1 st6">r</tspan><tspan x="102.7" y="0" class="st0 st1 st6">i</tspan><tspan x="104.6" y="0" class="st0 st1 st6">e</tspan><tspan x="108.7" y="0" class="st0 st1 st6">s</tspan></text>
</g>
<g>
	<text transform="matrix(1 0 0 1 13.1011 324.7832)"><tspan x="0" y="0" class="st0 st1 st6">T</tspan><tspan x="4.8" y="0" class="st0 st1 st6">r</tspan><tspan x="7.7" y="0" class="st0 st1 st6">a</tspan><tspan x="11.6" y="0" class="st0 st1 st6">n</tspan><tspan x="16.1" y="0" class="st0 st1 st6">s</tspan><tspan x="19.5" y="0" class="st0 st1 st6">p</tspan><tspan x="24.1" y="0" class="st0 st1 st6">o</tspan><tspan x="28.7" y="0" class="st0 st1 st6">r</tspan><tspan x="31.5" y="0" class="st0 st1 st6">t</tspan><tspan x="34.4" y="0" class="st0 st1 st6">a</tspan><tspan x="38.4" y="0" class="st0 st1 st6">ti</tspan><tspan x="43.3" y="0" class="st0 st1 st6">o</tspan><tspan x="47.8" y="0" class="st0 st1 st6">n</tspan><tspan x="52.3" y="0" class="st0 st1 st6"> </tspan><tspan x="54.3" y="0" class="st0 st1 st6">&amp;</tspan><tspan x="60" y="0" class="st0 st1 st6"> </tspan><tspan x="62.1" y="0" class="st0 st1 st6">W</tspan><tspan x="70.4" y="0" class="st0 st1 st6">a</tspan><tspan x="74.4" y="0" class="st0 st1 st6">r</tspan><tspan x="77.3" y="0" class="st0 st1 st6">e</tspan><tspan x="81.5" y="0" class="st0 st1 st6">h</tspan><tspan x="86" y="0" class="st0 st1 st6">o</tspan><tspan x="90.5" y="0" class="st0 st1 st6">u</tspan><tspan x="95.1" y="0" class="st0 st1 st6">s</tspan><tspan x="98.5" y="0" class="st0 st1 st6">i</tspan><tspan x="100.4" y="0" class="st0 st1 st6">n</tspan><tspan x="104.9" y="0" class="st0 st1 st6">g</tspan></text>
</g>
<g>
	<text transform="matrix(1 0 0 1 3.313 307.4785)"><tspan x="0" y="0" class="st0 st1 st6">A</tspan><tspan x="5.5" y="0" class="st0 st1 st6">r</tspan><tspan x="8.3" y="0" class="st0 st1 st6">t</tspan><tspan x="11.2" y="0" class="st0 st1 st6">s</tspan><tspan x="14.7" y="0" class="st0 st1 st6">,</tspan><tspan x="16.5" y="0" class="st0 st1 st6"> </tspan><tspan x="18.5" y="0" class="st0 st1 st6">E</tspan><tspan x="23.2" y="0" class="st0 st1 st6">n</tspan><tspan x="27.6" y="0" class="st0 st1 st6">t</tspan><tspan x="30.6" y="0" class="st0 st1 st6">e</tspan><tspan x="34.7" y="0" class="st0 st1 st6">r</tspan><tspan x="37.7" y="0" class="st0 st1 st6">t</tspan><tspan x="40.6" y="0" class="st0 st1 st6">a</tspan><tspan x="44.5" y="0" class="st0 st1 st6">i</tspan><tspan x="46.5" y="0" class="st0 st1 st6">n</tspan><tspan x="50.9" y="0" class="st0 st1 st6">m</tspan><tspan x="57.5" y="0" class="st0 st1 st6">e</tspan><tspan x="61.7" y="0" class="st0 st1 st6">n</tspan><tspan x="66.2" y="0" class="st0 st1 st6">t</tspan><tspan x="69.1" y="0" class="st0 st1 st6">,</tspan><tspan x="70.9" y="0" class="st0 st1 st6"> </tspan><tspan x="73" y="0" class="st0 st1 st6">&amp;</tspan><tspan x="78.7" y="0" class="st0 st1 st6"> </tspan><tspan x="80.7" y="0" class="st0 st1 st6">R</tspan><tspan x="85.7" y="0" class="st0 st1 st6">ec</tspan><tspan x="93.8" y="0" class="st0 st1 st6">r</tspan><tspan x="96.7" y="0" class="st0 st1 st6">e</tspan><tspan x="100.9" y="0" class="st0 st1 st6">a</tspan><tspan x="104.9" y="0" class="st0 st1 st6">ti</tspan><tspan x="109.8" y="0" class="st0 st1 st6">o</tspan><tspan x="114.4" y="0" class="st0 st1 st6">n</tspan></text>
</g>
<g>
	<text transform="matrix(1 0 0 1 49.8687 290.167)"><tspan x="0" y="0" class="st0 st1 st6">E</tspan><tspan x="4.7" y="0" class="st0 st1 st6">d</tspan><tspan x="9.1" y="0" class="st0 st1 st6">u</tspan><tspan x="13.6" y="0" class="st0 st1 st6">c</tspan><tspan x="17.4" y="0" class="st0 st1 st6">a</tspan><tspan x="21.4" y="0" class="st0 st1 st6">ti</tspan><tspan x="26.3" y="0" class="st0 st1 st6">o</tspan><tspan x="30.8" y="0" class="st0 st1 st6">n</tspan><tspan x="35.3" y="0" class="st0 st1 st6">a</tspan><tspan x="39.3" y="0" class="st0 st1 st6">l</tspan><tspan x="41.2" y="0" class="st0 st1 st6"> </tspan><tspan x="43.2" y="0" class="st0 st1 st6">S</tspan><tspan x="47.6" y="0" class="st0 st1 st6">er</tspan><tspan x="54.7" y="0" class="st0 st1 st6">v</tspan><tspan x="58.8" y="0" class="st0 st1 st6">i</tspan><tspan x="60.7" y="0" class="st0 st1 st6">ce</tspan><tspan x="68.8" y="0" class="st0 st1 st6">s</tspan></text>
</g>
<g>
	<text transform="matrix(1 0 0 1 75.7319 272.8545)"><tspan x="0" y="0" class="st0 st1 st6">M</tspan><tspan x="7.5" y="0" class="st0 st1 st6">a</tspan><tspan x="11.4" y="0" class="st0 st1 st6">n</tspan><tspan x="15.9" y="0" class="st0 st1 st6">a</tspan><tspan x="19.9" y="0" class="st0 st1 st6">g</tspan><tspan x="24.1" y="0" class="st0 st1 st6">e</tspan><tspan x="28.3" y="0" class="st0 st1 st6">m</tspan><tspan x="34.8" y="0" class="st0 st1 st6">e</tspan><tspan x="39.1" y="0" class="st0 st1 st6">n</tspan><tspan x="43.5" y="0" class="st0 st1 st6">t</tspan></text>
</g>
<g>
	<text transform="matrix(1 0 0 1 95.0439 255.5508)"><tspan x="0" y="0" class="st0 st1 st6">U</tspan><tspan x="5.9" y="0" class="st0 st1 st6">ti</tspan><tspan x="10.8" y="0" class="st0 st1 st6">l</tspan><tspan x="12.6" y="0" class="st0 st1 st6">iti</tspan><tspan x="19.5" y="0" class="st0 st1 st6">e</tspan><tspan x="23.6" y="0" class="st0 st1 st6">s</tspan></text>
</g>
<g>
	<text transform="matrix(1 0 0 1 18.3809 238.251)"><tspan x="0" y="0" class="st0 st1 st6">O</tspan><tspan x="6.4" y="0" class="st0 st1 st6">t</tspan><tspan x="9.3" y="0" class="st0 st1 st6">h</tspan><tspan x="13.8" y="0" class="st0 st1 st6">er</tspan><tspan x="21" y="0" class="st0 st1 st6"> </tspan><tspan x="23" y="0" class="st0 st1 st6">P</tspan><tspan x="27.7" y="0" class="st0 st1 st6">r</tspan><tspan x="30.7" y="0" class="st0 st1 st6">i</tspan><tspan x="32.6" y="0" class="st0 st1 st6">v</tspan><tspan x="36.7" y="0" class="st0 st1 st6">a</tspan><tspan x="40.7" y="0" class="st0 st1 st6">t</tspan><tspan x="43.6" y="0" class="st0 st1 st6">e</tspan><tspan x="47.9" y="0" class="st0 st1 st6"> </tspan><tspan x="49.9" y="0" class="st0 st1 st6">S</tspan><tspan x="54.3" y="0" class="st0 st1 st6">e</tspan><tspan x="58.5" y="0" class="st0 st1 st6">c</tspan><tspan x="62.3" y="0" class="st0 st1 st6">t</tspan><tspan x="65.2" y="0" class="st0 st1 st6">o</tspan><tspan x="69.7" y="0" class="st0 st1 st6">r</tspan><tspan x="72.6" y="0" class="st0 st1 st6"> </tspan><tspan x="74.7" y="0" class="st0 st1 st6">S</tspan><tspan x="79" y="0" class="st0 st1 st6">e</tspan><tspan x="83.2" y="0" class="st0 st1 st6">r</tspan><tspan x="86.1" y="0" class="st0 st1 st6">v</tspan><tspan x="90.3" y="0" class="st0 st1 st6">i</tspan><tspan x="92.2" y="0" class="st0 st1 st6">ce</tspan><tspan x="100.3" y="0" class="st0 st1 st6">s</tspan></text>
</g>
<g>
	<text transform="matrix(1 0 0 1 0.9814 220.9395)"><tspan x="0" y="0" class="st0 st1 st6">A</tspan><tspan x="5.5" y="0" class="st0 st1 st6">d</tspan><tspan x="9.9" y="0" class="st0 st1 st6">mi</tspan><tspan x="18.4" y="0" class="st0 st1 st6">n</tspan><tspan x="22.9" y="0" class="st0 st1 st6">i</tspan><tspan x="24.8" y="0" class="st0 st1 st6">s</tspan><tspan x="28.3" y="0" class="st0 st1 st6">t</tspan><tspan x="31.2" y="0" class="st0 st1 st6">r</tspan><tspan x="34.1" y="0" class="st0 st1 st6">a</tspan><tspan x="38.1" y="0" class="st0 st1 st6">ti</tspan><tspan x="43" y="0" class="st0 st1 st6">o</tspan><tspan x="47.5" y="0" class="st0 st1 st6">n</tspan><tspan x="52" y="0" class="st0 st1 st6"> </tspan><tspan x="54.1" y="0" class="st0 st1 st6">&amp;</tspan><tspan x="59.8" y="0" class="st0 st1 st6"> </tspan><tspan x="61.8" y="0" class="st0 st1 st6">S</tspan><tspan x="66.2" y="0" class="st0 st1 st6">u</tspan><tspan x="70.6" y="0" class="st0 st1 st6">p</tspan><tspan x="75.2" y="0" class="st0 st1 st6">p</tspan><tspan x="79.6" y="0" class="st0 st1 st6">o</tspan><tspan x="84.2" y="0" class="st0 st1 st6">r</tspan><tspan x="87.1" y="0" class="st0 st1 st6">t</tspan><tspan x="90" y="0" class="st0 st1 st6"> </tspan><tspan x="92.1" y="0" class="st0 st1 st6">S</tspan><tspan x="96.4" y="0" class="st0 st1 st6">er</tspan><tspan x="103.5" y="0" class="st0 st1 st6">v</tspan><tspan x="107.7" y="0" class="st0 st1 st6">i</tspan><tspan x="109.6" y="0" class="st0 st1 st6">ce</tspan><tspan x="117.7" y="0" class="st0 st1 st6">s</tspan></text>
</g>
<g>
	<text transform="matrix(1 0 0 1 5.3491 203.6328)"><tspan x="0" y="0" class="st0 st1 st6">A</tspan><tspan x="5.5" y="0" class="st0 st1 st6">c</tspan><tspan x="9.2" y="0" class="st0 st1 st6">c</tspan><tspan x="13.1" y="0" class="st0 st1 st6">o</tspan><tspan x="17.6" y="0" class="st0 st1 st6">mm</tspan><tspan x="30.8" y="0" class="st0 st1 st6">o</tspan><tspan x="35.3" y="0" class="st0 st1 st6">d</tspan><tspan x="39.9" y="0" class="st0 st1 st6">a</tspan><tspan x="43.8" y="0" class="st0 st1 st6">ti</tspan><tspan x="48.8" y="0" class="st0 st1 st6">o</tspan><tspan x="53.3" y="0" class="st0 st1 st6">n</tspan><tspan x="57.8" y="0" class="st0 st1 st6"> </tspan><tspan x="59.9" y="0" class="st0 st1 st6">&amp;</tspan><tspan x="65.6" y="0" class="st0 st1 st6"> </tspan><tspan x="67.6" y="0" class="st0 st1 st6">F</tspan><tspan x="72.1" y="0" class="st0 st1 st6">oo</tspan><tspan x="81.2" y="0" class="st0 st1 st6">d</tspan><tspan x="85.7" y="0" class="st0 st1 st6"> </tspan><tspan x="87.7" y="0" class="st0 st1 st6">S</tspan><tspan x="92.1" y="0" class="st0 st1 st6">er</tspan><tspan x="99.3" y="0" class="st0 st1 st6">v</tspan><tspan x="103.4" y="0" class="st0 st1 st6">i</tspan><tspan x="105.3" y="0" class="st0 st1 st6">c</tspan><tspan x="109.1" y="0" class="st0 st1 st6">e</tspan><tspan x="113.3" y="0" class="st0 st1 st6">s</tspan></text>
</g>
<g>
	<text transform="matrix(1 0 0 1 76.3003 186.3203)"><tspan x="0" y="0" class="st0 st1 st6">Co</tspan><tspan x="9.9" y="0" class="st0 st1 st6">n</tspan><tspan x="14.4" y="0" class="st0 st1 st6">s</tspan><tspan x="17.8" y="0" class="st0 st1 st6">t</tspan><tspan x="20.7" y="0" class="st0 st1 st6">r</tspan><tspan x="23.6" y="0" class="st0 st1 st6">u</tspan><tspan x="28.1" y="0" class="st0 st1 st6">c</tspan><tspan x="31.9" y="0" class="st0 st1 st6">ti</tspan><tspan x="36.8" y="0" class="st0 st1 st6">o</tspan><tspan x="41.4" y="0" class="st0 st1 st6">n</tspan></text>
</g>
<g>
	<text transform="matrix(1 0 0 1 80.6562 169.0151)"><tspan x="0" y="0" class="st0 st1 st6">In</tspan><tspan x="6.7" y="0" class="st0 st1 st6">f</tspan><tspan x="9.5" y="0" class="st0 st1 st6">o</tspan><tspan x="14.1" y="0" class="st0 st1 st6">r</tspan><tspan x="17" y="0" class="st0 st1 st6">m</tspan><tspan x="23.6" y="0" class="st0 st1 st6">a</tspan><tspan x="27.5" y="0" class="st0 st1 st6">ti</tspan><tspan x="32.5" y="0" class="st0 st1 st6">o</tspan><tspan x="37" y="0" class="st0 st1 st6">n</tspan></text>
</g>
<g>
	<text transform="matrix(1 0 0 1 50.7686 151.71)"><tspan x="0" y="0" class="st0 st1 st6">F</tspan><tspan x="4.6" y="0" class="st0 st1 st6">i</tspan><tspan x="6.5" y="0" class="st0 st1 st6">n</tspan><tspan x="10.9" y="0" class="st0 st1 st6">a</tspan><tspan x="14.9" y="0" class="st0 st1 st6">n</tspan><tspan x="19.3" y="0" class="st0 st1 st6">ce</tspan><tspan x="27.4" y="0" class="st0 st1 st6"> </tspan><tspan x="29.5" y="0" class="st0 st1 st6">&amp;</tspan><tspan x="35.2" y="0" class="st0 st1 st6"> </tspan><tspan x="37.3" y="0" class="st0 st1 st6">In</tspan><tspan x="44" y="0" class="st0 st1 st6">s</tspan><tspan x="47.5" y="0" class="st0 st1 st6">u</tspan><tspan x="52" y="0" class="st0 st1 st6">r</tspan><tspan x="54.8" y="0" class="st0 st1 st6">a</tspan><tspan x="58.8" y="0" class="st0 st1 st6">n</tspan><tspan x="63.3" y="0" class="st0 st1 st6">c</tspan><tspan x="67.1" y="0" class="st0 st1 st6">e</tspan></text>
</g>
<g>
	<text transform="matrix(1 0 0 1 62.7363 134.4053)"><tspan x="0" y="0" class="st0 st1 st6">W</tspan><tspan x="8.3" y="0" class="st0 st1 st6">h</tspan><tspan x="12.8" y="0" class="st0 st1 st6">o</tspan><tspan x="17.3" y="0" class="st0 st1 st6">l</tspan><tspan x="19.2" y="0" class="st0 st1 st6">e</tspan><tspan x="23.4" y="0" class="st0 st1 st6">s</tspan><tspan x="26.9" y="0" class="st0 st1 st6">a</tspan><tspan x="30.9" y="0" class="st0 st1 st6">l</tspan><tspan x="32.8" y="0" class="st0 st1 st6">e</tspan><tspan x="37" y="0" class="st0 st1 st6"> </tspan><tspan x="39.1" y="0" class="st0 st1 st6">T</tspan><tspan x="43.8" y="0" class="st0 st1 st6">r</tspan><tspan x="46.7" y="0" class="st0 st1 st6">a</tspan><tspan x="50.7" y="0" class="st0 st1 st6">d</tspan><tspan x="55.2" y="0" class="st0 st1 st6">e</tspan></text>
</g>
<g>
	<text transform="matrix(1 0 0 1 79.8442 117.1001)"><tspan x="0" y="0" class="st0 st1 st6">R</tspan><tspan x="5.1" y="0" class="st0 st1 st6">e</tspan><tspan x="9.2" y="0" class="st0 st1 st6">t</tspan><tspan x="12.1" y="0" class="st0 st1 st6">a</tspan><tspan x="16.1" y="0" class="st0 st1 st6">i</tspan><tspan x="18" y="0" class="st0 st1 st6">l</tspan><tspan x="19.9" y="0" class="st0 st1 st6"> </tspan><tspan x="22" y="0" class="st0 st1 st6">T</tspan><tspan x="26.7" y="0" class="st0 st1 st6">r</tspan><tspan x="29.7" y="0" class="st0 st1 st6">ad</tspan><tspan x="38.1" y="0" class="st0 st1 st6">e</tspan></text>
</g>
<g>
	<text transform="matrix(1 0 0 1 14.125 99.7876)"><tspan x="0" y="0" class="st0 st1 st6">H</tspan><tspan x="6.1" y="0" class="st0 st1 st6">e</tspan><tspan x="10.3" y="0" class="st0 st1 st6">a</tspan><tspan x="14.4" y="0" class="st0 st1 st6">l</tspan><tspan x="16.2" y="0" class="st0 st1 st6">t</tspan><tspan x="19.1" y="0" class="st0 st1 st6">h</tspan><tspan x="23.6" y="0" class="st0 st1 st6">c</tspan><tspan x="27.4" y="0" class="st0 st1 st6">a</tspan><tspan x="31.4" y="0" class="st0 st1 st6">re</tspan><tspan x="38.6" y="0" class="st0 st1 st6"> </tspan><tspan x="40.6" y="0" class="st0 st1 st6">&amp;</tspan><tspan x="46.3" y="0" class="st0 st1 st6"> </tspan><tspan x="48.3" y="0" class="st0 st1 st6">S</tspan><tspan x="52.7" y="0" class="st0 st1 st6">o</tspan><tspan x="57.2" y="0" class="st0 st1 st6">c</tspan><tspan x="61.1" y="0" class="st0 st1 st6">i</tspan><tspan x="63" y="0" class="st0 st1 st6">a</tspan><tspan x="66.9" y="0" class="st0 st1 st6">l</tspan><tspan x="68.8" y="0" class="st0 st1 st6"> </tspan><tspan x="70.9" y="0" class="st0 st1 st6">A</tspan><tspan x="76.3" y="0" class="st0 st1 st6">ss</tspan><tspan x="83.2" y="0" class="st0 st1 st6">i</tspan><tspan x="85.2" y="0" class="st0 st1 st6">s</tspan><tspan x="88.7" y="0" class="st0 st1 st6">t</tspan><tspan x="91.5" y="0" class="st0 st1 st6">a</tspan><tspan x="95.5" y="0" class="st0 st1 st6">n</tspan><tspan x="100" y="0" class="st0 st1 st6">c</tspan><tspan x="103.8" y="0" class="st0 st1 st6">e</tspan></text>
</g>
<g>
	<text transform="matrix(1 0 0 1 70.2881 82.4756)"><tspan x="0" y="0" class="st0 st1 st6">M</tspan><tspan x="7.5" y="0" class="st0 st1 st6">a</tspan><tspan x="11.4" y="0" class="st0 st1 st6">n</tspan><tspan x="15.9" y="0" class="st0 st1 st6">u</tspan><tspan x="20.4" y="0" class="st0 st1 st6">f</tspan><tspan x="23.2" y="0" class="st0 st1 st6">a</tspan><tspan x="27.1" y="0" class="st0 st1 st6">c</tspan><tspan x="31" y="0" class="st0 st1 st6">t</tspan><tspan x="33.8" y="0" class="st0 st1 st6">u</tspan><tspan x="38.4" y="0" class="st0 st1 st6">r</tspan><tspan x="41.2" y="0" class="st0 st1 st6">i</tspan><tspan x="43.1" y="0" class="st0 st1 st6">n</tspan><tspan x="47.7" y="0" class="st0 st1 st6">g</tspan></text>
</g>
<g>
	<text transform="matrix(1 0 0 1 42.5386 59.812)"><tspan x="0" y="0" class="st0 st1 st6">P</tspan><tspan x="4.9" y="0" class="st0 st1 st6">r</tspan><tspan x="7.7" y="0" class="st0 st1 st6">o</tspan><tspan x="12.3" y="0" class="st0 st1 st6">fe</tspan><tspan x="19.3" y="0" class="st0 st1 st6">ss</tspan><tspan x="26.2" y="0" class="st0 st1 st6">i</tspan><tspan x="28.1" y="0" class="st0 st1 st6">o</tspan><tspan x="32.7" y="0" class="st0 st1 st6">n</tspan><tspan x="37.2" y="0" class="st0 st1 st6">a</tspan><tspan x="41.2" y="0" class="st0 st1 st6">l</tspan><tspan x="43" y="0" class="st0 st1 st6">,</tspan><tspan x="44.8" y="0" class="st0 st1 st6"> </tspan><tspan x="47" y="0" class="st0 st1 st6">S</tspan><tspan x="51.3" y="0" class="st0 st1 st6">c</tspan><tspan x="55.1" y="0" class="st0 st1 st6">i</tspan><tspan x="57" y="0" class="st0 st1 st6">e</tspan><tspan x="61.2" y="0" class="st0 st1 st6">n</tspan><tspan x="65.7" y="0" class="st0 st1 st6">tifi</tspan><tspan x="75.2" y="0" class="st0 st1 st6">c</tspan><tspan x="79" y="0" class="st0 st1 st6">, </tspan><tspan x="22.7" y="9.6" class="st0 st1 st6">&amp;</tspan><tspan x="28.5" y="9.6" class="st0 st1 st6"> </tspan><tspan x="30.5" y="9.6" class="st0 st1 st6">T</tspan><tspan x="35.3" y="9.6" class="st0 st1 st6">e</tspan><tspan x="39.5" y="9.6" class="st0 st1 st6">c</tspan><tspan x="43.3" y="9.6" class="st0 st1 st6">h</tspan><tspan x="47.8" y="9.6" class="st0 st1 st6">.</tspan><tspan x="49.7" y="9.6" class="st0 st1 st6"> </tspan><tspan x="51.8" y="9.6" class="st0 st1 st6">S</tspan><tspan x="56" y="9.6" class="st0 st1 st6">er</tspan><tspan x="63.2" y="9.6" class="st0 st1 st6">v</tspan><tspan x="67.4" y="9.6" class="st0 st1 st6">i</tspan><tspan x="69.3" y="9.6" class="st0 st1 st6">ce</tspan><tspan x="77.4" y="9.6" class="st0 st1 st6">s</tspan></text>
</g>
<g>
	<text transform="matrix(1 0 0 1 82.8804 47.8721)"><tspan x="0" y="0" class="st0 st1 st6">R</tspan><tspan x="5.1" y="0" class="st0 st1 st6">e</tspan><tspan x="9.2" y="0" class="st0 st1 st6">a</tspan><tspan x="13.3" y="0" class="st0 st1 st6">l</tspan><tspan x="15.1" y="0" class="st0 st1 st6"> </tspan><tspan x="17.2" y="0" class="st0 st1 st6">E</tspan><tspan x="21.8" y="0" class="st0 st1 st6">s</tspan><tspan x="25.3" y="0" class="st0 st1 st6">t</tspan><tspan x="28.1" y="0" class="st0 st1 st6">a</tspan><tspan x="32.1" y="0" class="st0 st1 st6">t</tspan><tspan x="35" y="0" class="st0 st1 st6">e</tspan></text>
</g>
<g>
	<text transform="matrix(1 0 0 1 28.4048 30.5596)"><tspan x="0" y="0" class="st0 st1 st6">G</tspan><tspan x="5.9" y="0" class="st0 st1 st6">ov</tspan><tspan x="14.6" y="0" class="st0 st1 st6">e</tspan><tspan x="18.7" y="0" class="st0 st1 st6">r</tspan><tspan x="21.7" y="0" class="st0 st1 st6">n</tspan><tspan x="26.1" y="0" class="st0 st1 st6">m</tspan><tspan x="32.7" y="0" class="st0 st1 st6">e</tspan><tspan x="36.9" y="0" class="st0 st1 st6">n</tspan><tspan x="41.4" y="0" class="st0 st1 st6">t</tspan><tspan x="44.3" y="0" class="st0 st1 st6"> </tspan><tspan x="46.4" y="0" class="st0 st1 st6">(</tspan><tspan x="48.5" y="0" class="st0 st1 st6">i</tspan><tspan x="50.4" y="0" class="st0 st1 st6">n</tspan><tspan x="54.9" y="0" class="st0 st1 st6">c</tspan><tspan x="58.7" y="0" class="st0 st1 st6">l</tspan><tspan x="60.6" y="0" class="st0 st1 st6">.</tspan><tspan x="62.4" y="0" class="st0 st1 st6"> </tspan><tspan x="64.6" y="0" class="st0 st1 st6">M</tspan><tspan x="72" y="0" class="st0 st1 st6">i</tspan><tspan x="73.9" y="0" class="st0 st1 st6">l</tspan><tspan x="75.8" y="0" class="st0 st1 st6">i</tspan><tspan x="77.7" y="0" class="st0 st1 st6">t</tspan><tspan x="80.6" y="0" class="st0 st1 st6">a</tspan><tspan x="84.6" y="0" class="st0 st1 st6">r</tspan><tspan x="87.4" y="0" class="st0 st1 st6">y</tspan><tspan x="91.6" y="0" class="st0 st1 st6">)</tspan></text>
</g>
<text transform="matrix(1 0 0 1 234.0918 197.1948)"><tspan x="0" y="0" class="st5 st7 st8">S</tspan><tspan x="6.6" y="0" class="st5 st7 st8">a</tspan><tspan x="12.7" y="0" class="st5 st7 st8">n</tspan><tspan x="19.6" y="0" class="st5 st7 st8"> </tspan><tspan x="22.5" y="0" class="st5 st7 st8">Di</tspan><tspan x="34.7" y="0" class="st5 st7 st8">e</tspan><tspan x="41.2" y="0" class="st5 st7 st8">g</tspan><tspan x="47.6" y="0" class="st5 st7 st8">o</tspan><tspan x="54.5" y="0" class="st5 st7 st8"> </tspan><tspan x="57.3" y="0" class="st5 st7 st8">M</tspan><tspan x="68.7" y="0" class="st5 st7 st8">e</tspan><tspan x="75.2" y="0" class="st5 st7 st8">t</tspan><tspan x="79.7" y="0" class="st5 st7 st8">r</tspan><tspan x="84.3" y="0" class="st5 st7 st8">o</tspan><tspan x="91.2" y="0" class="st5 st7 st8"> </tspan><tspan x="94" y="0" class="st5 st7 st8">A</tspan><tspan x="102.4" y="0" class="st5 st7 st8">r</tspan><tspan x="107" y="0" class="st5 st7 st8">e</tspan><tspan x="113.4" y="0" class="st5 st7 st8">a</tspan></text>
<text transform="matrix(1 0 0 1 234.0918 213.0708)"><tspan x="0" y="0" class="st4 st7 st8">U.S. </tspan><tspan x="24.1" y="0" class="st4 st7 st8">M</tspan><tspan x="35.5" y="0" class="st4 st7 st8">e</tspan><tspan x="42" y="0" class="st4 st7 st8">t</tspan><tspan x="46.6" y="0" class="st4 st7 st8">r</tspan><tspan x="51.1" y="0" class="st4 st7 st8">o</tspan><tspan x="58.1" y="0" class="st4 st7 st8"> </tspan><tspan x="60.8" y="0" class="st4 st7 st8">A</tspan><tspan x="69.3" y="0" class="st4 st7 st8">v</tspan><tspan x="75.6" y="0" class="st4 st7 st8">e</tspan><tspan x="82.1" y="0" class="st4 st7 st8">r</tspan><tspan x="86.7" y="0" class="st4 st7 st8">ag</tspan><tspan x="99.2" y="0" class="st4 st7 st8">e</tspan></text>
<text transform="matrix(0.9994 0 0 1 151.2169 363.2448)"><tspan x="0" y="0" class="st9 st10 st11">2</tspan><tspan x="3.2" y="0" class="st9 st10 st11">.</tspan><tspan x="4.7" y="0" class="st9 st10 st11">2</tspan><tspan x="8" y="0" class="st9 st10 st11">%</tspan></text>
<text transform="matrix(0.9994 0 0 1 138.6271 345.7006)"><tspan x="0" y="0" class="st9 st10 st11">0</tspan><tspan x="3.2" y="0" class="st9 st10 st11">.</tspan><tspan x="4.7" y="0" class="st9 st10 st11">8</tspan><tspan x="8" y="0" class="st9 st10 st11">%</tspan></text>
<text transform="matrix(0.9994 0 0 1 156.592 328.078)"><tspan x="0" y="0" class="st9 st10 st11">2</tspan><tspan x="3.2" y="0" class="st9 st10 st11">.</tspan><tspan x="4.7" y="0" class="st9 st10 st11">9</tspan><tspan x="8" y="0" class="st9 st10 st11">%</tspan></text>
<text transform="matrix(0.9994 0 0 1 141.5921 310.7708)"><tspan x="0" y="0" class="st9 st10 st11">1</tspan><tspan x="3.2" y="0" class="st9 st10 st11">.</tspan><tspan x="4.7" y="0" class="st9 st10 st11">0</tspan><tspan x="8" y="0" class="st9 st10 st11">%</tspan></text>
<text transform="matrix(0.9994 0 0 1 141.7338 293.789)"><tspan x="0" y="0" class="st9 st10 st11">1</tspan><tspan x="3.2" y="0" class="st9 st10 st11">.</tspan><tspan x="4.7" y="0" class="st9 st10 st11">2</tspan><tspan x="8" y="0" class="st9 st10 st11">%</tspan></text>
<text transform="matrix(0.9994 0 0 1 149.8002 276.3068)"><tspan x="0" y="0" class="st9 st10 st11">2</tspan><tspan x="3.2" y="0" class="st9 st10 st11">.</tspan><tspan x="4.7" y="0" class="st9 st10 st11">1</tspan><tspan x="8" y="0" class="st9 st10 st11">%</tspan></text>
<text transform="matrix(0.9994 0 0 1 144.9252 258.8749)"><tspan x="0" y="0" class="st9 st10 st11">1</tspan><tspan x="3.2" y="0" class="st9 st10 st11">.</tspan><tspan x="4.7" y="0" class="st9 st10 st11">6</tspan><tspan x="8" y="0" class="st9 st10 st11">%</tspan></text>
<text transform="matrix(0.9994 0 0 1 150.4665 241.3738)"><tspan x="0" y="0" class="st9 st10 st11">2</tspan><tspan x="3.2" y="0" class="st9 st10 st11">.</tspan><tspan x="4.7" y="0" class="st9 st10 st11">1</tspan><tspan x="8" y="0" class="st9 st10 st11">%</tspan></text>
<text transform="matrix(0.9994 0 0 1 160.1751 223.6617)"><tspan x="0" y="0" class="st9 st10 st11">3</tspan><tspan x="3.2" y="0" class="st9 st10 st11">.</tspan><tspan x="4.7" y="0" class="st9 st10 st11">1</tspan><tspan x="8" y="0" class="st9 st10 st11">%</tspan></text>
<text transform="matrix(0.9994 0 0 1 157.2585 206.3797)"><tspan x="0" y="0" class="st9 st10 st11">2</tspan><tspan x="3.2" y="0" class="st9 st10 st11">.</tspan><tspan x="4.7" y="0" class="st9 st10 st11">7</tspan><tspan x="8" y="0" class="st9 st10 st11">%</tspan></text>
<text transform="matrix(0.9994 0 0 1 163.6747 188.9479)"><tspan x="0" y="0" class="st9 st10 st11">3</tspan><tspan x="3.2" y="0" class="st9 st10 st11">.</tspan><tspan x="4.7" y="0" class="st9 st10 st11">6</tspan><tspan x="8" y="0" class="st9 st10 st11">%</tspan></text>
<text transform="matrix(0.9994 0 0 1 177.5296 171.7239)"><tspan x="0" y="0" class="st9 st10 st11">5</tspan><tspan x="3.2" y="0" class="st9 st10 st11">.</tspan><tspan x="4.7" y="0" class="st9 st10 st11">1</tspan><tspan x="8" y="0" class="st9 st10 st11">%</tspan></text>
<text transform="matrix(0.9994 0 0 1 195.342 154.3176)"><tspan x="0" y="0" class="st9 st10 st11">7</tspan><tspan x="3.2" y="0" class="st9 st10 st11">.</tspan><tspan x="4.7" y="0" class="st9 st10 st11">1</tspan><tspan x="8" y="0" class="st9 st10 st11">%</tspan></text>
<text transform="matrix(0.9994 0 0 1 188.3833 136.8018)"><tspan x="0" y="0" class="st9 st10 st11">6</tspan><tspan x="3.2" y="0" class="st9 st10 st11">.</tspan><tspan x="4.7" y="0" class="st9 st10 st11">2</tspan><tspan x="8" y="0" class="st9 st10 st11">%</tspan></text>
<text transform="matrix(0.9994 0 0 1 182.7171 119.1042)"><tspan x="0" y="0" class="st9 st10 st11">5</tspan><tspan x="3.2" y="0" class="st9 st10 st11">.</tspan><tspan x="4.7" y="0" class="st9 st10 st11">6</tspan><tspan x="8" y="0" class="st9 st10 st11">%</tspan></text>
<text transform="matrix(0.9994 0 0 1 196.717 102.0051)"><tspan x="0" y="0" class="st9 st10 st11">7</tspan><tspan x="3.2" y="0" class="st9 st10 st11">.</tspan><tspan x="4.7" y="0" class="st9 st10 st11">2</tspan><tspan x="8" y="0" class="st9 st10 st11">%</tspan></text>
<text transform="matrix(0.9994 0 0 1 239.5083 84.6466)"><tspan x="0" y="0" class="st9 st10 st11">11</tspan><tspan x="6.5" y="0" class="st9 st10 st11">.</tspan><tspan x="8" y="0" class="st9 st10 st11">9</tspan><tspan x="11.2" y="0" class="st9 st10 st11">%</tspan></text>
<text transform="matrix(0.9994 0 0 1 199.0919 67.2915)"><tspan x="0" y="0" class="st9 st10 st11">7</tspan><tspan x="3.2" y="0" class="st9 st10 st11">.</tspan><tspan x="4.7" y="0" class="st9 st10 st11">5</tspan><tspan x="8" y="0" class="st9 st10 st11">%</tspan></text>
<text transform="matrix(0.9994 0 0 1 255.946 49.8176)"><tspan x="0" y="0" class="st9 st10 st11">13</tspan><tspan x="6.5" y="0" class="st9 st10 st11">.</tspan><tspan x="8" y="0" class="st9 st10 st11">8</tspan><tspan x="11.2" y="0" class="st9 st10 st11">%</tspan></text>
<text transform="matrix(0.9994 0 0 1 241.1543 32.0442)"><tspan x="0" y="0" class="st9 st10 st11">12</tspan><tspan x="6.5" y="0" class="st9 st10 st11">.</tspan><tspan x="8" y="0" class="st9 st10 st11">2</tspan><tspan x="11.2" y="0" class="st9 st10 st11">%</tspan></text>
<g>
	<text transform="matrix(0.9994 0 0 1 133.2793 356.3877)"><tspan x="0" y="0" class="st9 st10 st11">0</tspan><tspan x="3.2" y="0" class="st9 st10 st11">.</tspan><tspan x="4.7" y="0" class="st9 st10 st11">2</tspan><tspan x="8" y="0" class="st9 st10 st11">%</tspan></text>
</g>
<g>
	<text transform="matrix(0.9994 0 0 1 135.731 339.2968)"><tspan x="0" y="0" class="st9 st10 st11">0</tspan><tspan x="3.2" y="0" class="st9 st10 st11">.</tspan><tspan x="4.7" y="0" class="st9 st10 st11">5</tspan><tspan x="8" y="0" class="st9 st10 st11">%</tspan></text>
</g>
<g>
	<text transform="matrix(0.9994 0 0 1 140.1751 321.3408)"><tspan x="0" y="0" class="st9 st10 st11">1</tspan><tspan x="3.2" y="0" class="st9 st10 st11">.</tspan><tspan x="4.7" y="0" class="st9 st10 st11">0</tspan><tspan x="8" y="0" class="st9 st10 st11">%</tspan></text>
</g>
<g>
	<text transform="matrix(0.9994 0 0 1 140.1751 304.2419)"><tspan x="0" y="0" class="st9 st10 st11">1</tspan><tspan x="3.2" y="0" class="st9 st10 st11">.</tspan><tspan x="4.7" y="0" class="st9 st10 st11">0</tspan><tspan x="8" y="0" class="st9 st10 st11">%</tspan></text>
</g>
<g>
	<text transform="matrix(0.9994 0 0 1 141.0257 286.9684)"><tspan x="0" y="0" class="st9 st10 st11">1</tspan><tspan x="3.2" y="0" class="st9 st10 st11">.</tspan><tspan x="4.7" y="0" class="st9 st10 st11">0</tspan><tspan x="8" y="0" class="st9 st10 st11">%</tspan></text>
</g>
<g>
	<text transform="matrix(0.9994 0 0 1 149.1751 269.195)"><tspan x="0" y="0" class="st9 st10 st11">1</tspan><tspan x="3.2" y="0" class="st9 st10 st11">.</tspan><tspan x="4.7" y="0" class="st9 st10 st11">8</tspan><tspan x="8" y="0" class="st9 st10 st11">%</tspan></text>
</g>
<g>
	<text transform="matrix(0.9994 0 0 1 149.1752 251.7627)"><tspan x="0" y="0" class="st9 st10 st11">1</tspan><tspan x="3.2" y="0" class="st9 st10 st11">.</tspan><tspan x="4.7" y="0" class="st9 st10 st11">9</tspan><tspan x="8" y="0" class="st9 st10 st11">%</tspan></text>
</g>
<g>
	<text transform="matrix(0.9994 0 0 1 149.8001 234.3148)"><tspan x="0" y="0" class="st9 st10 st11">2</tspan><tspan x="3.2" y="0" class="st9 st10 st11">.</tspan><tspan x="4.7" y="0" class="st9 st10 st11">0</tspan><tspan x="8" y="0" class="st9 st10 st11">%</tspan></text>
</g>
<g>
	<text transform="matrix(0.9994 0 0 1 157.8419 217.2159)"><tspan x="0" y="0" class="st9 st10 st11">2</tspan><tspan x="3.2" y="0" class="st9 st10 st11">.</tspan><tspan x="4.7" y="0" class="st9 st10 st11">9</tspan><tspan x="8" y="0" class="st9 st10 st11">%</tspan></text>
</g>
<g>
	<text transform="matrix(0.9994 0 0 1 159.6752 199.7679)"><tspan x="0" y="0" class="st9 st10 st11">3</tspan><tspan x="3.2" y="0" class="st9 st10 st11">.</tspan><tspan x="4.7" y="0" class="st9 st10 st11">0</tspan><tspan x="8" y="0" class="st9 st10 st11">%</tspan></text>
</g>
<g>
	<text transform="matrix(0.9994 0 0 1 162.5501 182.2106)"><tspan x="0" y="0" class="st9 st10 st11">3</tspan><tspan x="3.2" y="0" class="st9 st10 st11">.</tspan><tspan x="4.7" y="0" class="st9 st10 st11">2</tspan><tspan x="8" y="0" class="st9 st10 st11">%</tspan></text>
</g>
<g>
	<text transform="matrix(0.9994 0 0 1 163.675 164.9034)"><tspan x="0" y="0" class="st9 st10 st11">3</tspan><tspan x="3.2" y="0" class="st9 st10 st11">.</tspan><tspan x="4.7" y="0" class="st9 st10 st11">5</tspan><tspan x="8" y="0" class="st9 st10 st11">%</tspan></text>
</g>
<g>
	<text transform="matrix(0.9994 0 0 1 167.5083 147.6221)"><tspan x="0" y="0" class="st9 st10 st11">4</tspan><tspan x="3.2" y="0" class="st9 st10 st11">.</tspan><tspan x="4.7" y="0" class="st9 st10 st11">0</tspan><tspan x="8" y="0" class="st9 st10 st11">%</tspan></text>
</g>
<g>
	<text transform="matrix(0.9994 0 0 1 176.7793 130.2315)"><tspan x="0" y="0" class="st9 st10 st11">4</tspan><tspan x="3.2" y="0" class="st9 st10 st11">.</tspan><tspan x="4.7" y="0" class="st9 st10 st11">8</tspan><tspan x="8" y="0" class="st9 st10 st11">%</tspan></text>
</g>
<g>
	<text transform="matrix(0.9994 0 0 1 179.467 112.3252)"><tspan x="0" y="0" class="st9 st10 st11">5</tspan><tspan x="3.2" y="0" class="st9 st10 st11">.</tspan><tspan x="4.7" y="0" class="st9 st10 st11">1</tspan><tspan x="8" y="0" class="st9 st10 st11">%</tspan></text>
</g>
<g>
	<text transform="matrix(0.9994 0 0 1 181.0919 95.6846)"><tspan x="0" y="0" class="st9 st10 st11">5</tspan><tspan x="3.2" y="0" class="st9 st10 st11">.</tspan><tspan x="4.7" y="0" class="st9 st10 st11">3</tspan><tspan x="8" y="0" class="st9 st10 st11">%</tspan></text>
</g>
<g>
	<text transform="matrix(0.9994 0 0 1 213.8414 78.0361)"><tspan x="0" y="0" class="st9 st10 st11">8</tspan><tspan x="3.2" y="0" class="st9 st10 st11">.</tspan><tspan x="4.7" y="0" class="st9 st10 st11">7</tspan><tspan x="8" y="0" class="st9 st10 st11">%</tspan></text>
</g>
<g>
	<text transform="matrix(0.9994 0 0 1 232.3418 60.687)"><tspan x="0" y="0" class="st9 st10 st11">10</tspan><tspan x="6.5" y="0" class="st9 st10 st11">.</tspan><tspan x="8" y="0" class="st9 st10 st11">7</tspan><tspan x="11.2" y="0" class="st9 st10 st11">%</tspan></text>
</g>
<g>
	<text transform="matrix(0.9994 0 0 1 310.4043 43.2471)"><tspan x="0" y="0" class="st9 st10 st11">18</tspan><tspan x="6.5" y="0" class="st9 st10 st11">.</tspan><tspan x="8" y="0" class="st9 st10 st11">9</tspan><tspan x="11.2" y="0" class="st9 st10 st11">%</tspan></text>
</g>
<g>
	<text transform="matrix(0.9994 0 0 1 327.2793 26.5164)"><tspan x="0" y="0" class="st9 st10 st11">20</tspan><tspan x="6.5" y="0" class="st9 st10 st11">.</tspan><tspan x="8" y="0" class="st9 st10 st11">6</tspan><tspan x="11.2" y="0" class="st9 st10 st11">%</tspan></text>
</g>
</svg>
