<?xml version="1.0" encoding="utf-8"?>
<svg version="1.1" id="Layer_1" xmlns="http://www.w3.org/2000/svg" xmlns:xlink="http://www.w3.org/1999/xlink" x="0px" y="0px"
	 viewBox="0 0 375 367" style="enable-background:new 0 0 375 367;" xml:space="preserve">
<style type="text/css">
	.st0{fill:#414042;}
	.st1{font-family:'Lato';font-weight:400;}
	.st2{font-size:10px;}
	.st3{fill:none;stroke:#D9D9D8;stroke-width:0.72;stroke-linejoin:round;stroke-miterlimit:10;}
	.st4{fill:#DB7278;}
	.st5{fill:#58C0E7;}
	.st6{font-size:8px;}
	.st7{font-family:'Lato';font-weight:700;}
	.st8{font-size:12px;}
	.st9{fill:#6D6E71;}
	.st10{font-family:'Lato';font-weight:700;}
	.st11{font-size:6px;}
</style>
<g>
	<text transform="matrix(1 0 0 1 123.3857 12.1092)"><tspan x="0" y="0" class="st0 st1 st2">0%</tspan></text>
</g>
<g>
	<text transform="matrix(1 0 0 1 168.8857 12.1093)"><tspan x="0" y="0" class="st0 st1 st2">5%</tspan></text>
</g>
<g>
	<text transform="matrix(1 0 0 1 211.501 12.1093)"><tspan x="0" y="0" class="st0 st1 st2">10%</tspan></text>
</g>
<g>
	<text transform="matrix(1 0 0 1 257.0007 12.1093)"><tspan x="0" y="0" class="st0 st1 st2">15%</tspan></text>
</g>
<g>
	<text transform="matrix(1 0 0 1 302.5012 12.1093)"><tspan x="0" y="0" class="st0 st1 st2">20%</tspan></text>
</g>
<g>
	<text transform="matrix(1 0 0 1 348.0009 12.1095)"><tspan x="0" y="0" class="st0 st1 st2">25%</tspan></text>
</g>
<path class="st3" d="M173.6,18.8V365 M219.3,18.8V365 M265.1,18.8V365 M310.8,18.8V365 M356.5,18.8V365"/>
<g>
	<polygon class="st4" points="127.9,358.3 147.8,358.3 147.8,363.8 127.9,363.8 127.9,358.3 	"/>
	<polygon class="st5" points="127.9,352.9 129.9,352.9 129.9,358.3 127.9,358.3 127.9,352.9 	"/>
</g>
<g>
	<polygon class="st4" points="127.9,340.9 135.5,340.9 135.5,346.4 127.9,346.4 127.9,340.9 	"/>
	<polygon class="st5" points="127.9,335.4 132.3,335.4 132.3,340.9 127.9,340.9 127.9,335.4 	"/>
</g>
<g>
	<polygon class="st4" points="127.9,323.5 154.1,323.5 154.1,329 127.9,329 127.9,323.5 	"/>
	<polygon class="st5" points="127.9,318 137.4,318 137.4,323.6 127.9,323.6 127.9,318 	"/>
</g>
<g>
	<polygon class="st4" points="127.9,306.1 137.2,306.1 137.2,311.6 127.9,311.6 127.9,306.1 	"/>
	<polygon class="st5" points="127.9,300.6 137.5,300.6 137.5,306.1 127.9,306.1 127.9,300.6 	"/>
</g>
<g>
	<polygon class="st4" points="127.9,288.7 138.7,288.7 138.7,294.2 127.9,294.2 127.9,288.7 	"/>
	<polygon class="st5" points="127.9,283.2 137.8,283.2 137.8,288.7 127.9,288.7 127.9,283.2 	"/>
</g>
<g>
	<polygon class="st4" points="127.9,271.2 147.2,271.2 147.2,276.7 127.9,276.7 127.9,271.2 	"/>
	<polygon class="st5" points="127.9,265.8 144.6,265.8 144.6,271.2 127.9,271.2 127.9,265.8 	"/>
</g>
<g>
	<polygon class="st4" points="127.9,253.8 142.6,253.8 142.6,259.3 127.9,259.3 127.9,253.8 	"/>
	<polygon class="st5" points="127.9,248.3 145.9,248.3 145.9,253.8 127.9,253.8 127.9,248.3 	"/>
</g>
<g>
	<polygon class="st4" points="127.9,236.4 147.3,236.4 147.3,241.9 127.9,241.9 127.9,236.4 	"/>
	<polygon class="st5" points="127.9,230.9 146.6,230.9 146.6,236.4 127.9,236.4 127.9,230.9 	"/>
</g>
<g>
	<polygon class="st4" points="127.9,219 156.7,219 156.7,224.5 127.9,224.5 127.9,219 	"/>
	<polygon class="st5" points="127.9,213.5 155.1,213.5 155.1,219 127.9,219 127.9,213.5 	"/>
</g>
<g>
	<polygon class="st4" points="127.9,201.6 153.1,201.6 153.1,207.1 127.9,207.1 127.9,201.6 	"/>
	<polygon class="st5" points="127.9,196.1 156.7,196.1 156.7,201.6 127.9,201.6 127.9,196.1 	"/>
</g>
<g>
	<polygon class="st4" points="127.9,184.1 161.1,184.1 161.1,189.7 127.9,189.7 127.9,184.1 	"/>
	<polygon class="st5" points="127.9,178.6 158.8,178.6 158.8,184.1 127.9,184.1 127.9,178.6 	"/>
</g>
<g>
	<polygon class="st4" points="127.9,166.7 175,166.7 175,172.2 127.9,172.2 127.9,166.7 	"/>
	<polygon class="st5" points="127.9,161.2 161.4,161.2 161.4,166.7 127.9,166.7 127.9,161.2 	"/>
</g>
<g>
	<polygon class="st4" points="127.9,149.3 192.6,149.3 192.6,154.8 127.9,154.8 127.9,149.3 	"/>
	<polygon class="st5" points="127.9,143.8 165.6,143.8 165.6,149.3 127.9,149.3 127.9,143.8 	"/>
</g>
<g>
	<polygon class="st4" points="127.9,131.9 184.3,131.9 184.3,137.4 127.9,137.4 127.9,131.9 	"/>
	<polygon class="st5" points="127.9,126.4 173.2,126.4 173.2,132 127.9,132 127.9,126.4 	"/>
</g>
<g>
	<polygon class="st4" points="127.9,114.5 179.2,114.5 179.2,120 127.9,120 127.9,114.5 	"/>
	<polygon class="st5" points="127.9,109 176.2,109 176.2,114.5 127.9,114.5 127.9,109 	"/>
</g>
<g>
	<polygon class="st4" points="127.9,97.1 194.2,97.1 194.2,102.5 127.9,102.5 127.9,97.1 	"/>
	<polygon class="st5" points="127.9,91.6 177.9,91.6 177.9,97.1 127.9,97.1 127.9,91.6 	"/>
</g>
<g>
	<polygon class="st4" points="127.9,79.6 236.6,79.6 236.6,85.1 127.9,85.1 127.9,79.6 	"/>
	<polygon class="st5" points="127.9,74.1 210.5,74.1 210.5,79.6 127.9,79.6 127.9,74.1 	"/>
</g>
<g>
	<polygon class="st4" points="127.9,62.2 196.7,62.2 196.7,67.7 127.9,67.7 127.9,62.2 	"/>
	<polygon class="st5" points="127.9,56.7 229.2,56.7 229.2,62.2 127.9,62.2 127.9,56.7 	"/>
</g>
<g>
	<polygon class="st4" points="127.9,44.8 254,44.8 254,50.3 127.9,50.3 127.9,44.8 	"/>
	<polygon class="st5" points="127.9,39.3 307,39.3 307,44.8 127.9,44.8 127.9,39.3 	"/>
</g>
<g>
	<polygon class="st4" points="127.9,27.4 239.2,27.4 239.2,32.9 127.9,32.9 127.9,27.4 	"/>
	<polygon class="st5" points="127.9,21.9 323.8,21.9 323.8,27.4 127.9,27.4 127.9,21.9 	"/>
</g>
<line class="st3" x1="127.9" y1="365.4" x2="127.9" y2="19.2"/>
<g>
	<text transform="matrix(1 0 0 1 97.7319 359.3945)"><tspan x="0" y="0" class="st0 st1 st6">Mining</tspan></text>
</g>
<g>
	<text transform="matrix(1 0 0 1 9.9292 342.082)"><tspan x="0" y="0" class="st0 st1 st6">Agriculture &amp; Related Industries</tspan></text>
</g>
<g>
	<text transform="matrix(1 0 0 1 13.1011 324.7832)"><tspan x="0" y="0" class="st0 st1 st6">Transportation &amp; Warehousing</tspan></text>
</g>
<g>
	<text transform="matrix(1 0 0 1 3.313 307.4785)"><tspan x="0" y="0" class="st0 st1 st6">Arts, Entertainment, &amp; Recreation</tspan></text>
</g>
<g>
	<text transform="matrix(1 0 0 1 49.8687 290.167)"><tspan x="0" y="0" class="st0 st1 st6">Educational Services</tspan></text>
</g>
<g>
	<text transform="matrix(1 0 0 1 75.7319 272.8545)"><tspan x="0" y="0" class="st0 st1 st6">Management</tspan></text>
</g>
<g>
	<text transform="matrix(1 0 0 1 95.0439 255.5508)"><tspan x="0" y="0" class="st0 st1 st6">Utilities</tspan></text>
</g>
<g>
	<text transform="matrix(1 0 0 1 18.3809 238.251)"><tspan x="0" y="0" class="st0 st1 st6">Other Private Sector Services</tspan></text>
</g>
<g>
	<text transform="matrix(1 0 0 1 0.9814 220.9395)"><tspan x="0" y="0" class="st0 st1 st6">Administration &amp; Support Services</tspan></text>
</g>
<g>
	<text transform="matrix(1 0 0 1 5.3491 203.6328)"><tspan x="0" y="0" class="st0 st1 st6">Accommodation &amp; Food Services</tspan></text>
</g>
<g>
	<text transform="matrix(1 0 0 1 76.3003 186.3203)"><tspan x="0" y="0" class="st0 st1 st6">Construction</tspan></text>
</g>
<g>
	<text transform="matrix(1 0 0 1 80.6562 169.0151)"><tspan x="0" y="0" class="st0 st1 st6">Information</tspan></text>
</g>
<g>
	<text transform="matrix(1 0 0 1 50.7686 151.71)"><tspan x="0" y="0" class="st0 st1 st6">Finance &amp; Insurance</tspan></text>
</g>
<g>
	<text transform="matrix(1 0 0 1 62.7363 134.4053)"><tspan x="0" y="0" class="st0 st1 st6">Wholesale Trade</tspan></text>
</g>
<g>
	<text transform="matrix(1 0 0 1 79.8442 117.1001)"><tspan x="0" y="0" class="st0 st1 st6">Retail Trade</tspan></text>
</g>
<g>
	<text transform="matrix(1 0 0 1 14.125 99.7876)"><tspan x="0" y="0" class="st0 st1 st6">Healthcare &amp; Social Assistance</tspan></text>
</g>
<g>
	<text transform="matrix(1 0 0 1 70.2881 82.4756)"><tspan x="0" y="0" class="st0 st1 st6">Manufacturing</tspan></text>
</g>
<g>
	<text transform="matrix(1 0 0 1 42.5386 59.812)"><tspan x="0" y="0" class="st0 st1 st6">Professional, Scientific,</tspan><tspan x="22.7" y="9.6" class="st0 st1 st6">&amp; Tech. Services</tspan></text>
</g>
<g>
	<text transform="matrix(1 0 0 1 82.8804 47.8721)"><tspan x="0" y="0" class="st0 st1 st6">Real Estate</tspan></text>
</g>
<g>
	<text transform="matrix(1 0 0 1 28.4048 30.5596)"><tspan x="0" y="0" class="st0 st1 st6">Government (incl. Military)</tspan></text>
</g>
<text transform="matrix(1 0 0 1 234.0918 197.1948)"><tspan x="0" y="0" class="st5 st7 st8">San Diego Metro Average</tspan></text>
<text transform="matrix(1 0 0 1 234.0918 213.0708)"><tspan x="0" y="0" class="st4 st7 st8">U.S. Metro Average</tspan></text>
<text transform="matrix(0.9994 0 0 1 151.2169 363.2448)"><tspan x="0" y="0" class="st9 st10 st11">2.2%</tspan></text>
<text transform="matrix(0.9994 0 0 1 138.6271 345.7006)"><tspan x="0" y="0" class="st9 st10 st11">0.8%</tspan></text>
<text transform="matrix(0.9994 0 0 1 156.592 328.078)"><tspan x="0" y="0" class="st9 st10 st11">2.9%</tspan></text>
<text transform="matrix(0.9994 0 0 1 141.5921 310.7708)"><tspan x="0" y="0" class="st9 st10 st11">1.0%</tspan></text>
<text transform="matrix(0.9994 0 0 1 141.7338 293.789)"><tspan x="0" y="0" class="st9 st10 st11">1.2%</tspan></text>
<text transform="matrix(0.9994 0 0 1 149.8002 276.3068)"><tspan x="0" y="0" class="st9 st10 st11">2.1%</tspan></text>
<text transform="matrix(0.9994 0 0 1 144.9252 258.8749)"><tspan x="0" y="0" class="st9 st10 st11">1.6%</tspan></text>
<text transform="matrix(0.9994 0 0 1 150.4665 241.3738)"><tspan x="0" y="0" class="st9 st10 st11">2.1%</tspan></text>
<text transform="matrix(0.9994 0 0 1 160.1751 223.6617)"><tspan x="0" y="0" class="st9 st10 st11">3.1%</tspan></text>
<text transform="matrix(0.9994 0 0 1 157.2585 206.3797)"><tspan x="0" y="0" class="st9 st10 st11">2.7%</tspan></text>
<text transform="matrix(0.9994 0 0 1 163.6747 188.9479)"><tspan x="0" y="0" class="st9 st10 st11">3.6%</tspan></text>
<text transform="matrix(0.9994 0 0 1 177.5296 171.7239)"><tspan x="0" y="0" class="st9 st10 st11">5.1%</tspan></text>
<text transform="matrix(0.9994 0 0 1 195.342 154.3176)"><tspan x="0" y="0" class="st9 st10 st11">7.1%</tspan></text>
<text transform="matrix(0.9994 0 0 1 188.3833 136.8018)"><tspan x="0" y="0" class="st9 st10 st11">6.2%</tspan></text>
<text transform="matrix(0.9994 0 0 1 182.7171 119.1042)"><tspan x="0" y="0" class="st9 st10 st11">5.6%</tspan></text>
<text transform="matrix(0.9994 0 0 1 196.717 102.0051)"><tspan x="0" y="0" class="st9 st10 st11">7.2%</tspan></text>
<text transform="matrix(0.9994 0 0 1 239.5083 84.6466)"><tspan x="0" y="0" class="st9 st10 st11">11.9%</tspan></text>
<text transform="matrix(0.9994 0 0 1 199.0919 67.2915)"><tspan x="0" y="0" class="st9 st10 st11">7.5%</tspan></text>
<text transform="matrix(0.9994 0 0 1 255.946 49.8176)"><tspan x="0" y="0" class="st9 st10 st11">13.8%</tspan></text>
<text transform="matrix(0.9994 0 0 1 241.1543 32.0442)"><tspan x="0" y="0" class="st9 st10 st11">12.2%</tspan></text>
<g>
	<text transform="matrix(0.9994 0 0 1 133.2793 356.3877)"><tspan x="0" y="0" class="st9 st10 st11">0.2%</tspan></text>
</g>
<g>
	<text transform="matrix(0.9994 0 0 1 135.731 339.2968)"><tspan x="0" y="0" class="st9 st10 st11">0.5%</tspan></text>
</g>
<g>
	<text transform="matrix(0.9994 0 0 1 140.1751 321.3408)"><tspan x="0" y="0" class="st9 st10 st11">1.0%</tspan></text>
</g>
<g>
	<text transform="matrix(0.9994 0 0 1 140.1751 304.2419)"><tspan x="0" y="0" class="st9 st10 st11">1.0%</tspan></text>
</g>
<g>
	<text transform="matrix(0.9994 0 0 1 141.0257 286.9684)"><tspan x="0" y="0" class="st9 st10 st11">1.0%</tspan></text>
</g>
<g>
	<text transform="matrix(0.9994 0 0 1 149.1751 269.195)"><tspan x="0" y="0" class="st9 st10 st11">1.8%</tspan></text>
</g>
<g>
	<text transform="matrix(0.9994 0 0 1 149.1752 251.7627)"><tspan x="0" y="0" class="st9 st10 st11">1.9%</tspan></text>
</g>
<g>
	<text transform="matrix(0.9994 0 0 1 149.8001 234.3148)"><tspan x="0" y="0" class="st9 st10 st11">2.0%</tspan></text>
</g>
<g>
	<text transform="matrix(0.9994 0 0 1 157.8419 217.2159)"><tspan x="0" y="0" class="st9 st10 st11">2.9%</tspan></text>
</g>
<g>
	<text transform="matrix(0.9994 0 0 1 159.6752 199.7679)"><tspan x="0" y="0" class="st9 st10 st11">3.0%</tspan></text>
</g>
<g>
	<text transform="matrix(0.9994 0 0 1 162.5501 182.2106)"><tspan x="0" y="0" class="st9 st10 st11">3.2%</tspan></text>
</g>
<g>
	<text transform="matrix(0.9994 0 0 1 163.675 164.9034)"><tspan x="0" y="0" class="st9 st10 st11">3.5%</tspan></text>
</g>
<g>
	<text transform="matrix(0.9994 0 0 1 167.5083 147.6221)"><tspan x="0" y="0" class="st9 st10 st11">4.0%</tspan></text>
</g>
<g>
	<text transform="matrix(0.9994 0 0 1 176.7793 130.2315)"><tspan x="0" y="0" class="st9 st10 st11">4.8%</tspan></text>
</g>
<g>
	<text transform="matrix(0.9994 0 0 1 179.467 112.3252)"><tspan x="0" y="0" class="st9 st10 st11">5.1%</tspan></text>
</g>
<g>
	<text transform="matrix(0.9994 0 0 1 181.0919 95.6846)"><tspan x="0" y="0" class="st9 st10 st11">5.3%</tspan></text>
</g>
<g>
	<text transform="matrix(0.9994 0 0 1 213.8414 78.0361)"><tspan x="0" y="0" class="st9 st10 st11">8.7%</tspan></text>
</g>
<g>
	<text transform="matrix(0.9994 0 0 1 232.3418 60.687)"><tspan x="0" y="0" class="st9 st10 st11">10.7%</tspan></text>
</g>
<g>
	<text transform="matrix(0.9994 0 0 1 310.4043 43.2471)"><tspan x="0" y="0" class="st9 st10 st11">18.9%</tspan></text>
</g>
<g>
	<text transform="matrix(0.9994 0 0 1 327.2793 26.5164)"><tspan x="0" y="0" class="st9 st10 st11">20.6%</tspan></text>
</g>
</svg>
