<svg id="Layer_1" xmlns="http://www.w3.org/2000/svg" viewBox="0 0 375 367"><style>.st0{fill:#414042;} .st1{font-family:&apos;Lato&apos;;font-weight:400;} .st2{font-size:10px;} .st3{fill:none;stroke:#D9D9D8;stroke-width:0.72;stroke-linejoin:round;stroke-miterlimit:10;} .st4{fill:#DB7278;} .st5{fill:#58C0E7;} .st6{font-size:8px;} .st7{font-family:&apos;Lato&apos;;font-weight:700;} .st8{font-size:12px;} .st9{fill:#6D6E71;} .st10{font-family:&apos;Lato&apos;;font-weight:700;} .st11{font-size:6px;}</style><text transform="translate(123.386 12.11)"><tspan x="0" y="0" class="st0 st1 st2">0%</tspan></text><text transform="translate(168.886 12.11)"><tspan x="0" y="0" class="st0 st1 st2">5%</tspan></text><text transform="translate(211.5 12.11)"><tspan x="0" y="0" class="st0 st1 st2">10%</tspan></text><text transform="translate(257 12.11)"><tspan x="0" y="0" class="st0 st1 st2">15%</tspan></text><text transform="translate(302.5 12.11)"><tspan x="0" y="0" class="st0 st1 st2">20%</tspan></text><text transform="translate(348 12.11)"><tspan x="0" y="0" class="st0 st1 st2">25%</tspan></text><path class="st3" d="M173.6 18.8V365m45.7-346.2V365m45.8-346.2V365m45.7-346.2V365m45.7-346.2V365"/><path class="st4" d="M127.9 358.3h19.9v5.5h-19.9v-5.5z"/><path class="st5" d="M127.9 352.9h2v5.4h-2v-5.4z"/><path class="st4" d="M127.9 340.9h7.6v5.5h-7.6v-5.5z"/><path class="st5" d="M127.9 335.4h4.4v5.5h-4.4v-5.5z"/><path class="st4" d="M127.9 323.5h26.2v5.5h-26.2v-5.5z"/><path class="st5" d="M127.9 318h9.5v5.6h-9.5V318z"/><path class="st4" d="M127.9 306.1h9.3v5.5h-9.3v-5.5z"/><path class="st5" d="M127.9 300.6h9.6v5.5h-9.6v-5.5z"/><path class="st4" d="M127.9 288.7h10.8v5.5h-10.8v-5.5z"/><path class="st5" d="M127.9 283.2h9.9v5.5h-9.9v-5.5z"/><path class="st4" d="M127.9 271.2h19.3v5.5h-19.3v-5.5z"/><path class="st5" d="M127.9 265.8h16.7v5.4h-16.7v-5.4z"/><path class="st4" d="M127.9 253.8h14.7v5.5h-14.7v-5.5z"/><path class="st5" d="M127.9 248.3h18v5.5h-18v-5.5z"/><path class="st4" d="M127.9 236.4h19.4v5.5h-19.4v-5.5z"/><path class="st5" d="M127.9 230.9h18.7v5.5h-18.7v-5.5z"/><path class="st4" d="M127.9 219h28.8v5.5h-28.8V219z"/><path class="st5" d="M127.9 213.5h27.2v5.5h-27.2v-5.5z"/><path class="st4" d="M127.9 201.6h25.2v5.5h-25.2v-5.5z"/><path class="st5" d="M127.9 196.1h28.8v5.5h-28.8v-5.5z"/><path class="st4" d="M127.9 184.1h33.2v5.6h-33.2v-5.6z"/><path class="st5" d="M127.9 178.6h30.9v5.5h-30.9v-5.5z"/><path class="st4" d="M127.9 166.7H175v5.5h-47.1v-5.5z"/><path class="st5" d="M127.9 161.2h33.5v5.5h-33.5v-5.5z"/><path class="st4" d="M127.9 149.3h64.7v5.5h-64.7v-5.5z"/><path class="st5" d="M127.9 143.8h37.7v5.5h-37.7v-5.5z"/><path class="st4" d="M127.9 131.9h56.4v5.5h-56.4v-5.5z"/><path class="st5" d="M127.9 126.4h45.3v5.6h-45.3v-5.6z"/><path class="st4" d="M127.9 114.5h51.3v5.5h-51.3v-5.5z"/><path class="st5" d="M127.9 109h48.3v5.5h-48.3V109z"/><path class="st4" d="M127.9 97.1h66.3v5.4h-66.3v-5.4z"/><path class="st5" d="M127.9 91.6h50v5.5h-50v-5.5z"/><path class="st4" d="M127.9 79.6h108.7v5.5H127.9v-5.5z"/><path class="st5" d="M127.9 74.1h82.6v5.5h-82.6v-5.5z"/><path class="st4" d="M127.9 62.2h68.8v5.5h-68.8v-5.5z"/><path class="st5" d="M127.9 56.7h101.3v5.5H127.9v-5.5z"/><path class="st4" d="M127.9 44.8H254v5.5H127.9v-5.5z"/><path class="st5" d="M127.9 39.3H307v5.5H127.9v-5.5z"/><path class="st4" d="M127.9 27.4h111.3v5.5H127.9v-5.5z"/><path class="st5" d="M127.9 21.9h195.9v5.5H127.9v-5.5z"/><path class="st3" d="M127.9 365.4V19.2"/><text transform="translate(97.732 359.394)"><tspan x="0" y="0" class="st0 st1 st6">Mining</tspan></text><text transform="translate(9.93 342.082)"><tspan x="0" y="0" class="st0 st1 st6">Agriculture &amp; Related Industries</tspan></text><text transform="translate(13.1 324.783)"><tspan x="0" y="0" class="st0 st1 st6">Transportation &amp; Warehousing</tspan></text><text transform="translate(3.313 307.478)"><tspan x="0" y="0" class="st0 st1 st6">Arts, Entertainment, &amp; Recreation</tspan></text><text transform="translate(49.87 290.167)"><tspan x="0" y="0" class="st0 st1 st6">Educational Services</tspan></text><text transform="translate(75.732 272.854)"><tspan x="0" y="0" class="st0 st1 st6">Management</tspan></text><text transform="translate(95.044 255.55)"><tspan x="0" y="0" class="st0 st1 st6">Utilities</tspan></text><text transform="translate(18.38 238.25)"><tspan x="0" y="0" class="st0 st1 st6">Other Private Sector Services</tspan></text><text transform="translate(.98 220.94)"><tspan x="0" y="0" class="st0 st1 st6">Administration &amp; Support Services</tspan></text><text transform="translate(5.35 203.633)"><tspan x="0" y="0" class="st0 st1 st6">Accommodation &amp; Food Services</tspan></text><text transform="translate(76.3 186.32)"><tspan x="0" y="0" class="st0 st1 st6">Construction</tspan></text><text transform="translate(80.656 169.015)"><tspan x="0" y="0" class="st0 st1 st6">Information</tspan></text><text transform="translate(50.77 151.71)"><tspan x="0" y="0" class="st0 st1 st6">Finance &amp; Insurance</tspan></text><text transform="translate(62.736 134.405)"><tspan x="0" y="0" class="st0 st1 st6">Wholesale Trade</tspan></text><text transform="translate(79.844 117.1)"><tspan x="0" y="0" class="st0 st1 st6">Retail Trade</tspan></text><text transform="translate(14.125 99.788)"><tspan x="0" y="0" class="st0 st1 st6">Healthcare &amp; Social Assistance</tspan></text><text transform="translate(70.288 82.476)"><tspan x="0" y="0" class="st0 st1 st6">Manufacturing</tspan></text><text transform="translate(42.54 59.812)"><tspan x="0" y="0" class="st0 st1 st6">Professional, Scientific,</tspan><tspan x="22.7" y="9.6" class="st0 st1 st6">&amp; Tech. Services</tspan></text><text transform="translate(82.88 47.872)"><tspan x="0" y="0" class="st0 st1 st6">Real Estate</tspan></text><text transform="translate(28.405 30.56)"><tspan x="0" y="0" class="st0 st1 st6">Government (incl. Military)</tspan></text><text transform="translate(234.092 197.195)"><tspan x="0" y="0" class="st5 st7 st8">San Diego Metro Average</tspan></text><text transform="translate(234.092 213.07)"><tspan x="0" y="0" class="st4 st7 st8">U.S. Metro Average</tspan></text><text transform="matrix(.9994 0 0 1 151.217 363.245)"><tspan x="0" y="0" class="st9 st10 st11">2.2%</tspan></text><text transform="matrix(.9994 0 0 1 138.627 345.7)"><tspan x="0" y="0" class="st9 st10 st11">0.8%</tspan></text><text transform="matrix(.9994 0 0 1 156.592 328.078)"><tspan x="0" y="0" class="st9 st10 st11">2.9%</tspan></text><text transform="matrix(.9994 0 0 1 141.592 310.77)"><tspan x="0" y="0" class="st9 st10 st11">1.0%</tspan></text><text transform="matrix(.9994 0 0 1 141.734 293.79)"><tspan x="0" y="0" class="st9 st10 st11">1.2%</tspan></text><text transform="matrix(.9994 0 0 1 149.8 276.307)"><tspan x="0" y="0" class="st9 st10 st11">2.1%</tspan></text><text transform="matrix(.9994 0 0 1 144.925 258.875)"><tspan x="0" y="0" class="st9 st10 st11">1.6%</tspan></text><text transform="matrix(.9994 0 0 1 150.466 241.374)"><tspan x="0" y="0" class="st9 st10 st11">2.1%</tspan></text><text transform="matrix(.9994 0 0 1 160.175 223.662)"><tspan x="0" y="0" class="st9 st10 st11">3.1%</tspan></text><text transform="matrix(.9994 0 0 1 157.26 206.38)"><tspan x="0" y="0" class="st9 st10 st11">2.7%</tspan></text><text transform="matrix(.9994 0 0 1 163.675 188.948)"><tspan x="0" y="0" class="st9 st10 st11">3.6%</tspan></text><text transform="matrix(.9994 0 0 1 177.53 171.724)"><tspan x="0" y="0" class="st9 st10 st11">5.1%</tspan></text><text transform="matrix(.9994 0 0 1 195.342 154.318)"><tspan x="0" y="0" class="st9 st10 st11">7.1%</tspan></text><text transform="matrix(.9994 0 0 1 188.383 136.802)"><tspan x="0" y="0" class="st9 st10 st11">6.2%</tspan></text><text transform="matrix(.9994 0 0 1 182.717 119.104)"><tspan x="0" y="0" class="st9 st10 st11">5.6%</tspan></text><text transform="matrix(.9994 0 0 1 196.717 102.005)"><tspan x="0" y="0" class="st9 st10 st11">7.2%</tspan></text><text transform="matrix(.9994 0 0 1 239.508 84.647)"><tspan x="0" y="0" class="st9 st10 st11">11.9%</tspan></text><text transform="matrix(.9994 0 0 1 199.092 67.29)"><tspan x="0" y="0" class="st9 st10 st11">7.5%</tspan></text><text transform="matrix(.9994 0 0 1 255.946 49.818)"><tspan x="0" y="0" class="st9 st10 st11">13.8%</tspan></text><text transform="matrix(.9994 0 0 1 241.154 32.044)"><tspan x="0" y="0" class="st9 st10 st11">12.2%</tspan></text><g><text transform="matrix(.9994 0 0 1 133.28 356.388)"><tspan x="0" y="0" class="st9 st10 st11">0.2%</tspan></text></g><g><text transform="matrix(.9994 0 0 1 135.73 339.297)"><tspan x="0" y="0" class="st9 st10 st11">0.5%</tspan></text></g><g><text transform="matrix(.9994 0 0 1 140.175 321.34)"><tspan x="0" y="0" class="st9 st10 st11">1.0%</tspan></text></g><g><text transform="matrix(.9994 0 0 1 140.175 304.242)"><tspan x="0" y="0" class="st9 st10 st11">1.0%</tspan></text></g><g><text transform="matrix(.9994 0 0 1 141.026 286.968)"><tspan x="0" y="0" class="st9 st10 st11">1.0%</tspan></text></g><g><text transform="matrix(.9994 0 0 1 149.175 269.195)"><tspan x="0" y="0" class="st9 st10 st11">1.8%</tspan></text></g><g><text transform="matrix(.9994 0 0 1 149.175 251.763)"><tspan x="0" y="0" class="st9 st10 st11">1.9%</tspan></text></g><g><text transform="matrix(.9994 0 0 1 149.8 234.315)"><tspan x="0" y="0" class="st9 st10 st11">2.0%</tspan></text></g><g><text transform="matrix(.9994 0 0 1 157.842 217.216)"><tspan x="0" y="0" class="st9 st10 st11">2.9%</tspan></text></g><g><text transform="matrix(.9994 0 0 1 159.675 199.768)"><tspan x="0" y="0" class="st9 st10 st11">3.0%</tspan></text></g><g><text transform="matrix(.9994 0 0 1 162.55 182.21)"><tspan x="0" y="0" class="st9 st10 st11">3.2%</tspan></text></g><g><text transform="matrix(.9994 0 0 1 163.675 164.903)"><tspan x="0" y="0" class="st9 st10 st11">3.5%</tspan></text></g><g><text transform="matrix(.9994 0 0 1 167.508 147.622)"><tspan x="0" y="0" class="st9 st10 st11">4.0%</tspan></text></g><g><text transform="matrix(.9994 0 0 1 176.78 130.232)"><tspan x="0" y="0" class="st9 st10 st11">4.8%</tspan></text></g><g><text transform="matrix(.9994 0 0 1 179.467 112.325)"><tspan x="0" y="0" class="st9 st10 st11">5.1%</tspan></text></g><g><text transform="matrix(.9994 0 0 1 181.092 95.685)"><tspan x="0" y="0" class="st9 st10 st11">5.3%</tspan></text></g><g><text transform="matrix(.9994 0 0 1 213.84 78.036)"><tspan x="0" y="0" class="st9 st10 st11">8.7%</tspan></text></g><g><text transform="matrix(.9994 0 0 1 232.342 60.687)"><tspan x="0" y="0" class="st9 st10 st11">10.7%</tspan></text></g><g><text transform="matrix(.9994 0 0 1 310.404 43.247)"><tspan x="0" y="0" class="st9 st10 st11">18.9%</tspan></text></g><g><text transform="matrix(.9994 0 0 1 327.28 26.516)"><tspan x="0" y="0" class="st9 st10 st11">20.6%</tspan></text></g></svg>