<svg id="Layer_1" xmlns="http://www.w3.org/2000/svg" viewBox="0 0 375 367"><style>.st0{fill-rule:evenodd;clip-rule:evenodd;fill:#6EC1E4;stroke:#FFFFFF;stroke-miterlimit:10;} .st1{fill-rule:evenodd;clip-rule:evenodd;fill:#58B78D;stroke:#FFFFFF;stroke-miterlimit:10;} .st2{fill-rule:evenodd;clip-rule:evenodd;fill:#F8B668;stroke:#FFFFFF;stroke-miterlimit:10;} .st3{fill-rule:evenodd;clip-rule:evenodd;fill:#CF7178;stroke:#FFFFFF;stroke-miterlimit:10;} .st4{fill:#FFFFFF;} .st5{font-family:&apos;Lato&apos;;font-weight:400;} .st6{font-size:21.0089px;} .st7{font-family:&apos;Lato&apos;;font-weight:700;} .st8{font-size:12px;} .st9{fill:#58595B;} .st10{fill:none;stroke:#6D6E71;stroke-width:0.5;stroke-miterlimit:10;} .st11{fill:#6D6E71;}</style><path class="st0" d="M193.4 60c82.8 0 150 67.2 150 150s-67.2 150-150 150c-80.9 0-147.3-64.2-149.9-145.1l149.9-4.9V60z"/><path class="st1" d="M43.5 214.9c-1.3-38.7 12.5-76.3 38.3-105.1L193.4 210l-149.9 4.9z"/><path class="st2" d="M81.9 109.8c17.5-19.4 39.7-34 64.5-42.2l47 142.4L81.9 109.8z"/><path class="st3" d="M146.4 67.6c15.2-5 31.1-7.6 47.1-7.6v150L146.4 67.6z"/><text transform="translate(200.58 253.456)" class="st4 st5 st6">74%</text><text transform="translate(65.095 169.417)" class="st4 st5 st6">12%</text><text transform="translate(107.48 109.624)" class="st4 st5 st6">8%</text><text transform="translate(160.47 87.922)" class="st4 st5 st6">5%</text><text transform="translate(205.616 269.17)"><tspan x="0" y="0" class="st4 st7 st8">1 to 9</tspan><tspan x="-13.4" y="14.4" class="st4 st7 st8">employees</tspan></text><text transform="translate(65.17 187)"><tspan x="0" y="0" class="st4 st7 st8">10 to 19</tspan><tspan x="-6.5" y="14.4" class="st4 st7 st8">employees</tspan></text><text transform="translate(25.214 57.777)"><tspan x="0" y="0" class="st9 st7 st8">20 to 49</tspan><tspan x="-6.5" y="14.4" class="st9 st7 st8">employees</tspan></text><text transform="translate(92.525 23.345)"><tspan x="0" y="0" class="st9 st7 st8">50 or more</tspan><tspan x=".5" y="14.4" class="st9 st7 st8">employees</tspan></text><path class="st10" d="M153.8 36.5s8.2 1.5 11.8 7.2c2.9 4.7 3.9 9.5 4.3 12.7"/><path class="st11" d="M167.2 55.9l2.7 4.1 2.3-4.4z"/><g><path class="st10" d="M78.8 70.2s6.5 0 15.6 1.5c5.9 1 10.6 4.7 13.2 7.3"/><path class="st11" d="M105.2 80.2l4.8 1.6-1.1-4.9z"/></g></svg>