<svg id="Layer_1" xmlns="http://www.w3.org/2000/svg" viewBox="0 0 561 252"><style>.st0{fill:#414042;} .st1{font-family:&apos;Lato&apos;;font-weight:400;} .st2{font-size:9.6767px;} .st3{fill:none;stroke:#D9D9D8;stroke-width:0.72;stroke-linejoin:round;stroke-miterlimit:10;} .st4{fill:none;stroke:#414042;stroke-width:0.5;stroke-linejoin:round;stroke-miterlimit:10;} .st5{fill:none;stroke:#28B88C;stroke-width:2.16;stroke-linecap:round;stroke-linejoin:round;stroke-miterlimit:10;} .st6{fill:none;stroke:#F8981D;stroke-width:2.16;stroke-linecap:round;stroke-linejoin:round;stroke-miterlimit:10;} .st7{fill:none;stroke:#963D97;stroke-width:2.16;stroke-linecap:round;stroke-linejoin:round;stroke-miterlimit:10;} .st8{fill:#00A7E2;} .st9{font-family:&apos;Lato&apos;;font-weight:700;} .st10{font-size:12px;} .st11{fill:#28B88C;} .st12{fill:#F8981D;} .st13{fill:#DB7278;} .st14{fill:#963D97;} .st15{fill:none;stroke:#00A7E2;stroke-width:2.16;stroke-linecap:round;stroke-linejoin:round;stroke-miterlimit:10;} .st16{fill:none;stroke:#DB7278;stroke-width:2.16;stroke-linecap:round;stroke-linejoin:round;stroke-miterlimit:10;}</style><text transform="translate(22.79 248.506)" class="st0 st1 st2">1969</text><text transform="translate(81.026 248.506)" class="st0 st1 st2">1974</text><text transform="translate(139.262 248.506)" class="st0 st1 st2">1979</text><text transform="translate(197.498 248.506)" class="st0 st1 st2">1984</text><text transform="translate(255.733 248.506)" class="st0 st1 st2">1989</text><text transform="translate(313.97 248.506)" class="st0 st1 st2">1994</text><text transform="translate(372.205 248.506)" class="st0 st1 st2">1999</text><text transform="translate(430.44 248.506)" class="st0 st1 st2">2004</text><text transform="translate(488.677 248.506)" class="st0 st1 st2">2009</text><path class="st3" d="M35 205.2h522.9M35 177.1h522.9M35 148.9h522.9M35 120.7h522.9M35 92.6h522.9M35 64.4h522.9M35 36.2h522.9M35 8.1h522.9"/><path class="st4" d="M35 233.4h522.9M35 231.6v3.8m58-3.8v3.8m58.1-3.8v3.8m58.1-3.8v3.8m58.1-3.8v3.8m58.2-3.8v3.8m58.1-3.8v3.8m58.1-3.8v3.8m58.1-3.8v3.8m58.1-3.8v3.8"/><path class="st5" d="M35 91.2l11.6.9 11.6 3.3 11.7-2.3 11.6-4.2L93 86.2l11.7-1.8 11.6-.7 11.7-2.9 11.6-6.7 11.6-6.1 11.6-3.5 11.6.4 11.7 2.9 11.6-.4 11.6-3.8 11.7-1.8 11.5-1.7 11.7-2.7 11.6-4.6 11.6-.5 11.7-.5 11.6 2.7 11.5 5.2 11.7.7 11.6-1 11.7-2.7 11.6-2.2 11.6-1.3 11.6-3.8 11.6-2.2 11.7-3 11.6 3.4 11.6 3.4 11.7 1.1 11.5-1 11.6-1.5 11.7-3 11.6-2.9 11.7 2.8 11.6 8.7 11.5 3.8 11.7-1.4 11.6-3 11.7-5.9"/><path class="st6" d="M35 110.1l11.6 2.9 11.6 2.6 11.7-4 11.6-7.8L93 96.5l11.7 2.7 11.6-7.1 11.7-5.7 11.6-8.4 11.6-12 11.6-5.6 11.6-.6 11.7-.6 11.6-2.5 11.6-8.3 11.7.6 11.5 1.9 11.7-3.7 11.6-5 11.6 1 11.7-2.9 11.6 4.2 11.5 6.4 11.7 1.2 11.6-.9 11.7-4.5 11.6-6.1 11.6-3.8L372 32l11.6.7 11.7-7.6 11.6 6.5 11.6 13.2 11.7 6.3 11.5.7 11.6-1.7 11.7-3.2 11.6-3.8 11.7 2.4 11.6 10.9 11.5 3.2 11.7-2.7 11.6-2.8 11.7-5.9"/><path class="st7" d="M35 112.7l11.6-1.7 11.6-.9 11.7-5.9 11.6-3.3L93 98.1l11.7.4 11.6-1.5 11.7-1.3 11.6-3.8 11.6-7.1 11.6-1.1 11.6 3 11.7 2.4 11.6-.1 11.6 2 11.7 1.3 11.5.6 11.7-2.2 11.6-1.2 11.6 1.6 11.7-1.2 11.6.4 11.5 5.2 11.7-.4 11.6-.5 11.7-3.2h11.6l11.6 3.4 11.6-3.4 11.6.7 11.7.3 11.6 2.1 11.6-1.1 11.7 2.3 11.5.6 11.6-1.2 11.7-1.7 11.6-1.3 11.7 2.9 11.6 6.7 11.5 3 11.7-.5 11.6-.5 11.7-5.9"/><text transform="translate(13.438 235.872)"><tspan x="0" y="0" class="st0 st1 st2">0%</tspan></text><text transform="translate(8.055 207.72)"><tspan x="0" y="0" class="st0 st1 st2">10%</tspan></text><text transform="translate(8.055 179.564)"><tspan x="0" y="0" class="st0 st1 st2">20%</tspan></text><text transform="translate(8.055 151.406)"><tspan x="0" y="0" class="st0 st1 st2">30%</tspan></text><text transform="translate(8.055 123.25)"><tspan x="0" y="0" class="st0 st1 st2">40%</tspan></text><text transform="translate(8.055 95.092)"><tspan x="0" y="0" class="st0 st1 st2">50%</tspan></text><text transform="translate(8.055 66.935)"><tspan x="0" y="0" class="st0 st1 st2">60%</tspan></text><text transform="translate(8.055 38.778)"><tspan x="0" y="0" class="st0 st1 st2">70%</tspan></text><text transform="translate(8.055 10.626)"><tspan x="0" y="0" class="st0 st1 st2">80%</tspan></text><text transform="translate(450 174.43)"><tspan x="0" y="0" class="st8 st9 st10">San Diego</tspan></text><text transform="translate(450 146.25)"><tspan x="0" y="0" class="st11 st9 st10">San Francisco</tspan></text><text transform="translate(450 132.158)"><tspan x="0" y="0" class="st12 st9 st10">San Jose</tspan></text><text transform="translate(450 160.34)"><tspan x="0" y="0" class="st13 st9 st10">Los Angeles</tspan></text><text transform="translate(450 188.52)"><tspan x="0" y="0" class="st14 st9 st10">Fresno</tspan></text><path class="st15" d="M35 97.8l11.6 2 11.6 2.2 11.6-.7 11.7-.8 11.6-2 11.6 3.3 11.7-3.3 11.5-2.7 11.7-5.3 11.6-3.7 11.6-1.8 11.7 3.1 11.6 2.2 11.5-1.5 11.7-5.3 11.6-3.8 11.7-2.1 11.6-2.3 11.6-2.6 11.6-.2 11.6 1 11.7 1.4 11.6 5.8 11.6.7 11.7.3 11.5-3 11.6-2.4 11.7-2.1 11.6-6.5 11.7-1.8 11.6-1.9 11.5.2 11.7-1.6 11.6-2.8 11.7-1.6 11.6-2.2 11.6-2 11.6-1.2 11.6 3.4 11.7 7.5 11.6 4.5 11.6-.6 11.7-1.1 11.5-2.8"/><path class="st16" d="M35 100.1l11.6 2.4 11.6 3.3 11.7-4.7 11.6-6.4L93 92.8l11.7 1.5 11.6-2.6 11.7-5.4 11.6-7.3 11.6-6.7 11.6.1 11.6.2 11.7 5.9 11.6.3 11.6-5.3 11.7-2.4 11.5-.9 11.7-2.9 11.6-4.4 11.6-.2 11.7-.9 11.6 6.1 11.5 7.8 11.7 2.8 11.6.3 11.7-3.2 11.6-1.5 11.6.1 11.6-4.5 11.6-.3 11.7-.5 11.6.5 11.6 1.5h11.7l11.5-1.8 11.6-2.6 11.7-4 11.6-3.5 11.7 3.7 11.6 7.8 11.5 2.6 11.7-2.2 11.6-2.1 11.7-6.2"/></svg>