<?xml version="1.0" encoding="utf-8"?>
<!-- Generator: Adobe Illustrator 19.1.0, SVG Export Plug-In . SVG Version: 6.00 Build 0)  -->
<svg version="1.1" id="Layer_1" xmlns="http://www.w3.org/2000/svg" xmlns:xlink="http://www.w3.org/1999/xlink" x="0px" y="0px"
	 viewBox="0 0 561 252" style="enable-background:new 0 0 561 252;" xml:space="preserve">
<style type="text/css">
	.st0{fill:#414042;}
	.st1{font-family:'Lato';font-weight:400;}
	.st2{font-size:9.6767px;}
	.st3{fill:none;stroke:#D9D9D8;stroke-width:0.72;stroke-linejoin:round;stroke-miterlimit:10;}
	.st4{fill:none;stroke:#414042;stroke-width:0.5;stroke-linejoin:round;stroke-miterlimit:10;}
	.st5{fill:none;stroke:#28B88C;stroke-width:2.16;stroke-linecap:round;stroke-linejoin:round;stroke-miterlimit:10;}
	.st6{fill:none;stroke:#F8981D;stroke-width:2.16;stroke-linecap:round;stroke-linejoin:round;stroke-miterlimit:10;}
	.st7{fill:none;stroke:#963D97;stroke-width:2.16;stroke-linecap:round;stroke-linejoin:round;stroke-miterlimit:10;}
	.st8{fill:#00A7E2;}
	.st9{font-family:'Lato';font-weight:700;}
	.st10{font-size:12px;}
	.st11{fill:#28B88C;}
	.st12{fill:#F8981D;}
	.st13{fill:#DB7278;}
	.st14{fill:#963D97;}
	.st15{fill:none;stroke:#00A7E2;stroke-width:2.16;stroke-linecap:round;stroke-linejoin:round;stroke-miterlimit:10;}
	.st16{fill:none;stroke:#DB7278;stroke-width:2.16;stroke-linecap:round;stroke-linejoin:round;stroke-miterlimit:10;}
</style>
<text transform="matrix(1 0 0 1 22.79 248.5059)" class="st0 st1 st2">1969</text>
<text transform="matrix(1 0 0 1 81.0259 248.5059)" class="st0 st1 st2">1974</text>
<text transform="matrix(1 0 0 1 139.2617 248.5059)" class="st0 st1 st2">1979</text>
<text transform="matrix(1 0 0 1 197.4976 248.5059)" class="st0 st1 st2">1984</text>
<text transform="matrix(1 0 0 1 255.7334 248.5059)" class="st0 st1 st2">1989</text>
<text transform="matrix(1 0 0 1 313.9692 248.5059)" class="st0 st1 st2">1994</text>
<text transform="matrix(1 0 0 1 372.2051 248.5059)" class="st0 st1 st2">1999</text>
<text transform="matrix(1 0 0 1 430.4409 248.5059)" class="st0 st1 st2">2004</text>
<text transform="matrix(1 0 0 1 488.6771 248.5059)" class="st0 st1 st2">2009</text>
<path class="st3" d="M35,205.2h522.9 M35,177.1h522.9 M35,148.9h522.9 M35,120.7h522.9 M35,92.6h522.9 M35,64.4h522.9 M35,36.2
	h522.9 M35,8.1h522.9"/>
<line class="st4" x1="35" y1="233.4" x2="557.9" y2="233.4"/>
<path class="st4" d="M35,231.6v3.8 M93,231.6v3.8 M151.1,231.6v3.8 M209.2,231.6v3.8 M267.3,231.6v3.8 M325.5,231.6v3.8
	 M383.6,231.6v3.8 M441.7,231.6v3.8 M499.8,231.6v3.8 M557.9,231.6v3.8"/>
<polyline class="st5" points="35,91.2 46.6,92.1 58.2,95.4 69.9,93.1 81.5,88.9 93,86.2 104.7,84.4 116.3,83.7 128,80.8 139.6,74.1
	151.2,68 162.8,64.5 174.4,64.9 186.1,67.8 197.7,67.4 209.3,63.6 221,61.8 232.5,60.1 244.2,57.4 255.8,52.8 267.4,52.3
	279.1,51.8 290.7,54.5 302.2,59.7 313.9,60.4 325.5,59.4 337.2,56.7 348.8,54.5 360.4,53.2 372,49.4 383.6,47.2 395.3,44.2
	406.9,47.6 418.5,51 430.2,52.1 441.7,51.1 453.3,49.6 465,46.6 476.6,43.7 488.3,46.5 499.9,55.2 511.4,59 523.1,57.6 534.7,54.6
	546.4,48.7 "/>
<polyline class="st6" points="35,110.1 46.6,113 58.2,115.6 69.9,111.6 81.5,103.8 93,96.5 104.7,99.2 116.3,92.1 128,86.4
	139.6,78 151.2,66 162.8,60.4 174.4,59.8 186.1,59.2 197.7,56.7 209.3,48.4 221,49 232.5,50.9 244.2,47.2 255.8,42.2 267.4,43.2
	279.1,40.3 290.7,44.5 302.2,50.9 313.9,52.1 325.5,51.2 337.2,46.7 348.8,40.6 360.4,36.8 372,32 383.6,32.7 395.3,25.1
	406.9,31.6 418.5,44.8 430.2,51.1 441.7,51.8 453.3,50.1 465,46.9 476.6,43.1 488.3,45.5 499.9,56.4 511.4,59.6 523.1,56.9
	534.7,54.1 546.4,48.2 "/>
<polyline class="st7" points="35,112.7 46.6,111 58.2,110.1 69.9,104.2 81.5,100.9 93,98.1 104.7,98.5 116.3,97 128,95.7
	139.6,91.9 151.2,84.8 162.8,83.7 174.4,86.7 186.1,89.1 197.7,89 209.3,91 221,92.3 232.5,92.9 244.2,90.7 255.8,89.5 267.4,91.1
	279.1,89.9 290.7,90.3 302.2,95.5 313.9,95.1 325.5,94.6 337.2,91.4 348.8,91.4 360.4,94.8 372,91.4 383.6,92.1 395.3,92.4
	406.9,94.5 418.5,93.4 430.2,95.7 441.7,96.3 453.3,95.1 465,93.4 476.6,92.1 488.3,95 499.9,101.7 511.4,104.7 523.1,104.2
	534.7,103.7 546.4,97.8 "/>
<g>
	<text transform="matrix(1 0 0 1 13.4385 235.8721)"><tspan x="0" y="0" class="st0 st1 st2">0%</tspan></text>
</g>
<g>
	<text transform="matrix(1 0 0 1 8.0552 207.7207)"><tspan x="0" y="0" class="st0 st1 st2">10%</tspan></text>
</g>
<g>
	<text transform="matrix(1 0 0 1 8.0552 179.5635)"><tspan x="0" y="0" class="st0 st1 st2">20%</tspan></text>
</g>
<g>
	<text transform="matrix(1 0 0 1 8.0552 151.4062)"><tspan x="0" y="0" class="st0 st1 st2">30%</tspan></text>
</g>
<g>
	<text transform="matrix(1 0 0 1 8.0552 123.2495)"><tspan x="0" y="0" class="st0 st1 st2">40%</tspan></text>
</g>
<g>
	<text transform="matrix(1 0 0 1 8.0552 95.0923)"><tspan x="0" y="0" class="st0 st1 st2">50%</tspan></text>
</g>
<g>
	<text transform="matrix(1 0 0 1 8.0552 66.9351)"><tspan x="0" y="0" class="st0 st1 st2">60%</tspan></text>
</g>
<g>
	<text transform="matrix(1 0 0 1 8.0552 38.7783)"><tspan x="0" y="0" class="st0 st1 st2">70%</tspan></text>
</g>
<g>
	<text transform="matrix(1 0 0 1 8.0552 10.626)"><tspan x="0" y="0" class="st0 st1 st2">80%</tspan></text>
</g>
<text transform="matrix(1 0 0 1 450 174.4306)"><tspan x="0" y="0" class="st8 st9 st10">San Diego</tspan></text>
<text transform="matrix(1 0 0 1 450 146.2492)"><tspan x="0" y="0" class="st11 st9 st10">San Francisco</tspan></text>
<text transform="matrix(1 0 0 1 450 132.1584)"><tspan x="0" y="0" class="st12 st9 st10">San Jose</tspan></text>
<text transform="matrix(1 0 0 1 450 160.3398)"><tspan x="0" y="0" class="st13 st9 st10">Los Angeles</tspan></text>
<text transform="matrix(1 0 0 1 450 188.5211)"><tspan x="0" y="0" class="st14 st9 st10">Fresno</tspan></text>
<polyline class="st15" points="35,97.8 46.6,99.8 58.2,102 69.8,101.3 81.5,100.5 93.1,98.5 104.7,101.8 116.4,98.5 127.9,95.8
	139.6,90.5 151.2,86.8 162.8,85 174.5,88.1 186.1,90.3 197.6,88.8 209.3,83.5 220.9,79.7 232.6,77.6 244.2,75.3 255.8,72.7
	267.4,72.5 279,73.5 290.7,74.9 302.3,80.7 313.9,81.4 325.6,81.7 337.1,78.7 348.7,76.3 360.4,74.2 372,67.7 383.7,65.9 395.3,64
	406.8,64.2 418.5,62.6 430.1,59.8 441.8,58.2 453.4,56 465,54 476.6,52.8 488.2,56.2 499.9,63.7 511.5,68.2 523.1,67.6 534.8,66.5
	546.3,63.7 "/>
<polyline class="st16" points="35,100.1 46.6,102.5 58.2,105.8 69.9,101.1 81.5,94.7 93,92.8 104.7,94.3 116.3,91.7 128,86.3
	139.6,79 151.2,72.3 162.8,72.4 174.4,72.6 186.1,78.5 197.7,78.8 209.3,73.5 221,71.1 232.5,70.2 244.2,67.3 255.8,62.9
	267.4,62.7 279.1,61.8 290.7,67.9 302.2,75.7 313.9,78.5 325.5,78.8 337.2,75.6 348.8,74.1 360.4,74.2 372,69.7 383.6,69.4
	395.3,68.9 406.9,69.4 418.5,70.9 430.2,70.9 441.7,69.1 453.3,66.5 465,62.5 476.6,59 488.3,62.7 499.9,70.5 511.4,73.1
	523.1,70.9 534.7,68.8 546.4,62.6 "/>
</svg>
