<svg id="Layer_1" xmlns="http://www.w3.org/2000/svg" viewBox="0 0 561 252"><style>.st0{fill:#29AAE2;} .st1{font-family:&apos;Lato&apos;;font-weight:700;} .st2{font-size:12px;} .st3{fill:#414042;} .st4{font-size:10px;} .st5{fill:#E8989F;} .st6{fill:none;stroke:#D9D9D8;stroke-width:0.72;stroke-linejoin:round;stroke-miterlimit:10;} .st7{fill:none;stroke:#6D6E71;stroke-width:0.5;stroke-linejoin:round;stroke-miterlimit:10;} .st8{font-family:&apos;Lato&apos;;font-weight:400;}</style><text transform="translate(58.573 26.468)"><tspan x="0" y="0" class="st0 st1 st2">San Diego</tspan></text><text transform="rotate(-90 78.492 67.77)" class="st3 st1 st4">Thousands</text><text transform="translate(122.302 26.468)"><tspan x="0" y="0" class="st5 st1 st2">U.S. Average</tspan></text><path class="st6" d="M49 200.3h505.6M49 162.4h505.6M49 124.5h505.6M49 86.7h505.6M49 48.8h505.6M49 10.9h505.6"/><path class="st5" d="M51.6 75.6h2.6v162.6h-2.6V75.6zm11.3-.8h2.6v163.4h-2.6V74.8zm11.3-3h2.6v166.4h-2.6V71.8zm11.2-5H88v171.4h-2.6V66.8zm11.2.1h2.6v171.3h-2.6V66.9zm11.3 5.9h2.6v165.4h-2.6V72.8zm11.2 2.9h2.6v162.5h-2.6V75.7zm11.2-2.4h2.6v164.9h-2.6V73.3zm11.2-.5h2.6v165.4h-2.6V72.8zm11.3.3h2.6v165.1h-2.6V73.1zm11.3 4.7h2.6v160.4h-2.6V77.8zm11.2 6h2.6v154.4h-2.6V83.8zm11.2 1.6h2.6v152.8h-2.6V85.4zm11.3-.9h2.6v153.7h-2.6V84.5zm11.2-2.6h2.6v156.3H209V81.9zm11.2-1.4h2.6v157.7h-2.6V80.5zm11.2-2h2.6v159.7h-2.6V78.5zm11.3-3.8h2.6v163.5h-2.6V74.7zm11.3-1.5h2.6v165H254v-165zm11.2-1.9h2.6v166.9h-2.6V71.3zm11.2 2.1h2.6v164.8h-2.6V73.4zm11.3.8h2.6v164h-2.6v-164zm11.2.4h2.6v163.6h-2.6V74.6zm11.2-3.5h2.6v167.1h-2.6V71.1zm11.2 1.5h2.6v165.6h-2.6V72.6zm11.3 0h2.6v165.6h-2.6V72.6zm11.3-.8h2.6v166.4h-2.6V71.8zm11.2-1.6h2.6v168h-2.6v-168zm11.2-4.1h2.6v172.1h-2.6V66.1zm11.3-6.2h2.6v178.3h-2.6V59.9zm11.2-4.1h2.6v182.4h-2.6V55.8zm11.2-4.9h2.6v187.3H400V50.9zm11.2.2h2.6v187.1h-2.6V51.1zm11.3.3h2.6v186.8h-2.6V51.4zm11.2-1.4h2.6v188.2h-2.6V50zm11.3-3.2h2.6v191.4H445V46.8zm11.2-.2h2.6v191.6h-2.6V46.6zm11.3-2.6h2.6v194.2h-2.6V44zm11.2-3h2.6v197.2h-2.6V41zm11.2 2.7h2.6v194.4h-2.6V43.7zm11.2-.4h2.6v194.9h-2.6V43.3zm11.3-2.6h2.6v197.5h-2.6V40.7zm11.2.7h2.6v196.8h-2.6V41.4zm11.3-1.1h2.6v197.9h-2.6V40.3zm11.2 1.5h2.6v196.4h-2.6V41.8z"/><path class="st0" d="M55 81.6h2.5v156.6H55V81.6zm11.2-2.8h2.6v159.4h-2.6V78.8zm11.2-3.6H80v163h-2.6v-163zm11.3-6.7h2.6v169.7h-2.6V68.5zm11.3 1.6h2.5v168.1H100V70.1zm11.2 7.9h2.6v160.2h-2.6V78zm11.2 4.1h2.6v156.1h-2.6V82.1zm11.2-1.3h2.6v157.4h-2.6V80.8zm11.3 1h2.5v156.4h-2.5V81.8zm11.2 1.3h2.6v155.1h-2.6V83.1zm11.2 5h2.6v150.1h-2.6V88.1zm11.3 5.1h2.6v145h-2.6v-145zm11.3-.6h2.5v145.6h-2.5V92.6zm11.2-2.6h2.6v148.2h-2.6V90zm11.2-1.2h2.6v149.4h-2.6V88.8zm11.2-2.1h2.6v151.5h-2.6V86.7zm11.3-2.9h2.5v154.4h-2.5V83.8zm11.2-4.7h2.6v159.1H246V79.1zm11.2-1.1h2.6v160.2h-2.6V78zm11.3-2.7h2.6v162.9h-2.6V75.3zm11.3.6h2.5v162.3h-2.5V75.9zm11.2 1.3h2.6v161H291v-161zm11.2.7h2.6v160.3h-2.6V77.9zm11.2-3h2.6v163.3h-2.6V74.9zm11.3 2.8h2.5v160.5h-2.5V77.7zm11.2-1.6h2.6v162.1h-2.6V76.1zm11.2 1.4h2.6v160.7h-2.6V77.5zm11.2-.7h2.6v161.4h-2.6V76.8zm11.4-5h2.5v166.4h-2.5V71.8zm11.2-6.5h2.6v172.9h-2.6V65.3zm11.2-9h2.6v181.9h-2.6V56.3zm11.2-8.3h2.6v190.2h-2.6V48zm11.3-.4h2.5v190.6h-2.5V47.6zm11.2-1.1h2.6v191.7h-2.6V46.5zm11.2-2.1h2.6v193.8H437V44.4zm11.2-5.7h2.6v199.5h-2.6V38.7zm11.4-.6h2.5v200.1h-2.5V38.1zm11.2-3.4h2.6v203.5h-2.6V34.7zm11.2-3.3h2.6v206.8H482V31.4zm11.2.9h2.6v205.9h-2.6V32.3zm11.3-2.3h2.5v208.2h-2.5V30zm11.2-3.9h2.6v212.1h-2.6V26.1zm11.2-.3h2.6v212.4h-2.6V25.8zm11.2-1.9h2.6v214.3h-2.6V23.9zm11.4 2.5h2.5v211.8h-2.5V26.4z"/><path class="st7" d="M49 238.2h505.7M49 236.4v3.7m56.2-3.7v3.7m56.1-3.7v3.7m56.3-3.7v3.7m56.2-3.7v3.7m56.1-3.7v3.7m56.2-3.7v3.7m56.2-3.7v3.7m56.2-3.7v3.7m56.2-3.7v3.7"/><text transform="translate(29.342 241.814)" class="st3 st8 st4">$0</text><text transform="translate(23.542 203.936)" class="st3 st8 st4">$10</text><text transform="translate(23.542 166.048)" class="st3 st8 st4">$20</text><text transform="translate(23.542 128.165)" class="st3 st8 st4">$30</text><text transform="translate(23.542 90.282)" class="st3 st8 st4">$40</text><text transform="translate(23.542 52.4)" class="st3 st8 st4">$50</text><text transform="translate(23.542 14.516)" class="st3 st8 st4">$60</text><text transform="translate(37.282 252)" class="st3 st8 st4">1969</text><text transform="translate(93.468 252)" class="st3 st8 st4">1974</text><text transform="translate(149.653 252)" class="st3 st8 st4">1979</text><text transform="translate(205.84 252)" class="st3 st8 st4">1984</text><text transform="translate(262.024 252)" class="st3 st8 st4">1989</text><text transform="translate(318.21 252)" class="st3 st8 st4">1994</text><text transform="translate(374.39 252)" class="st3 st8 st4">1999</text><text transform="translate(430.58 252)" class="st3 st8 st4">2004</text><text transform="translate(486.767 252)" class="st3 st8 st4">2009</text></svg>