<?xml version="1.0" encoding="utf-8"?>
<!-- Generator: Adobe Illustrator 19.1.0, SVG Export Plug-In . SVG Version: 6.00 Build 0)  -->
<svg version="1.1" id="Layer_1" xmlns="http://www.w3.org/2000/svg" xmlns:xlink="http://www.w3.org/1999/xlink" x="0px" y="0px"
	 viewBox="0 0 561 252" style="enable-background:new 0 0 561 252;" xml:space="preserve">
<style type="text/css">
	.st0{fill:#29AAE2;}
	.st1{font-family:'Lato-Heavy';}
	.st2{font-size:12px;}
	.st3{fill:#414042;}
	.st4{font-size:10px;}
	.st5{fill:#E8989F;}
	.st6{fill:none;stroke:#D9D9D8;stroke-width:0.72;stroke-linejoin:round;stroke-miterlimit:10;}
	.st7{fill:none;stroke:#6D6E71;stroke-width:0.5;stroke-linejoin:round;stroke-miterlimit:10;}
	.st8{font-family:'Lato-Regular';}
</style>
<text transform="matrix(1 0 0 1 58.5732 26.4683)"><tspan x="0" y="0" class="st0 st1 st2">San Dieg</tspan><tspan x="47.5" y="0" class="st0 st1 st2">o</tspan><tspan x="54.3" y="0" class="st0 st1 st2"> </tspan></text>
<text transform="matrix(0 -1 1 0 10.7222 146.2617)" class="st3 st1 st4">Thousands</text>
<text transform="matrix(1 0 0 1 122.3018 26.4683)"><tspan x="0" y="0" class="st5 st1 st2">U</tspan><tspan x="8.7" y="0" class="st5 st1 st2">.S</tspan><tspan x="18.1" y="0" class="st5 st1 st2">.</tspan><tspan x="20.6" y="0" class="st5 st1 st2"> Met</tspan><tspan x="45.9" y="0" class="st5 st1 st2">r</tspan><tspan x="50.2" y="0" class="st5 st1 st2">o</tspan><tspan x="57.1" y="0" class="st5 st1 st2"> </tspan><tspan x="59.8" y="0" class="st5 st1 st2">Average</tspan></text>
<path class="st6" d="M49,200.3h505.6 M49,162.4h505.6 M49,124.5h505.6 M49,86.7h505.6 M49,48.8h505.6 M49,10.9h505.6"/>
<path class="st5" d="M51.6,75.6h2.6v162.6h-2.6V75.6L51.6,75.6z M62.9,74.8h2.6v163.4h-2.6V74.8L62.9,74.8z M74.2,71.8h2.6v166.4
	h-2.6V71.8L74.2,71.8z M85.4,66.8H88v171.4h-2.6V66.8L85.4,66.8z M96.6,66.9h2.6v171.3h-2.6V66.9L96.6,66.9z M107.9,72.8h2.6v165.4
	h-2.6V72.8L107.9,72.8z M119.1,75.7h2.6v162.5h-2.6V75.7L119.1,75.7z M130.3,73.3h2.6v164.9h-2.6V73.3L130.3,73.3z M141.5,72.8h2.6
	v165.4h-2.6V72.8L141.5,72.8z M152.8,73.1h2.6v165.1h-2.6V73.1L152.8,73.1z M164.1,77.8h2.6v160.4h-2.6V77.8L164.1,77.8z
	 M175.3,83.8h2.6v154.4h-2.6V83.8L175.3,83.8z M186.5,85.4h2.6v152.8h-2.6V85.4L186.5,85.4z M197.8,84.5h2.6v153.7h-2.6V84.5
	L197.8,84.5z M209,81.9h2.6v156.3H209V81.9L209,81.9z M220.2,80.5h2.6v157.7h-2.6V80.5L220.2,80.5z M231.4,78.5h2.6v159.7h-2.6V78.5
	L231.4,78.5z M242.7,74.7h2.6v163.5h-2.6V74.7L242.7,74.7z M254,73.2h2.6v165H254V73.2L254,73.2z M265.2,71.3h2.6v166.9h-2.6V71.3
	L265.2,71.3z M276.4,73.4h2.6v164.8h-2.6V73.4L276.4,73.4z M287.7,74.2h2.6v164h-2.6V74.2L287.7,74.2z M298.9,74.6h2.6v163.6h-2.6
	V74.6L298.9,74.6z M310.1,71.1h2.6v167.1h-2.6V71.1L310.1,71.1z M321.3,72.6h2.6v165.6h-2.6V72.6L321.3,72.6z M332.6,72.6h2.6v165.6
	h-2.6V72.6L332.6,72.6z M343.9,71.8h2.6v166.4h-2.6V71.8L343.9,71.8z M355.1,70.2h2.6v168h-2.6V70.2L355.1,70.2z M366.3,66.1h2.6
	v172.1h-2.6V66.1L366.3,66.1z M377.6,59.9h2.6v178.3h-2.6V59.9L377.6,59.9z M388.8,55.8h2.6v182.4h-2.6V55.8L388.8,55.8z M400,50.9
	h2.6v187.3H400V50.9L400,50.9z M411.2,51.1h2.6v187.1h-2.6V51.1L411.2,51.1z M422.5,51.4h2.6v186.8h-2.6V51.4L422.5,51.4z M433.7,50
	h2.6v188.2h-2.6V50L433.7,50z M445,46.8h2.6v191.4H445V46.8L445,46.8z M456.2,46.6h2.6v191.6h-2.6V46.6L456.2,46.6z M467.5,44h2.6
	v194.2h-2.6V44L467.5,44z M478.7,41h2.6v197.2h-2.6V41L478.7,41z M489.9,43.7h2.6v194.4h-2.6V43.7L489.9,43.7z M501.1,43.3h2.6
	v194.9h-2.6V43.3L501.1,43.3z M512.4,40.7h2.6v197.5h-2.6V40.7L512.4,40.7z M523.6,41.4h2.6v196.8h-2.6V41.4L523.6,41.4z
	 M534.9,40.3h2.6v197.9h-2.6V40.3L534.9,40.3z M546.1,41.8h2.6v196.4h-2.6V41.8L546.1,41.8z"/>
<path class="st0" d="M55,81.6h2.5v156.6H55V81.6L55,81.6z M66.2,78.8h2.6v159.4h-2.6V78.8L66.2,78.8z M77.4,75.2h2.6v163h-2.6V75.2
	L77.4,75.2z M88.7,68.5h2.6v169.7h-2.6V68.5L88.7,68.5z M100,70.1h2.5v168.1H100V70.1L100,70.1z M111.2,78h2.6v160.2h-2.6V78
	L111.2,78z M122.4,82.1h2.6v156.1h-2.6V82.1L122.4,82.1z M133.6,80.8h2.6v157.4h-2.6V80.8L133.6,80.8z M144.9,81.8h2.5v156.4h-2.5
	V81.8L144.9,81.8z M156.1,83.1h2.6v155.1h-2.6V83.1L156.1,83.1z M167.3,88.1h2.6v150.1h-2.6V88.1L167.3,88.1z M178.6,93.2h2.6v145
	h-2.6V93.2L178.6,93.2z M189.9,92.6h2.5v145.6h-2.5V92.6L189.9,92.6z M201.1,90h2.6v148.2h-2.6V90L201.1,90z M212.3,88.8h2.6v149.4
	h-2.6V88.8L212.3,88.8z M223.5,86.7h2.6v151.5h-2.6V86.7L223.5,86.7z M234.8,83.8h2.5v154.4h-2.5V83.8L234.8,83.8z M246,79.1h2.6
	v159.1H246V79.1L246,79.1z M257.2,78h2.6v160.2h-2.6V78L257.2,78z M268.5,75.3h2.6v162.9h-2.6V75.3L268.5,75.3z M279.8,75.9h2.5
	v162.3h-2.5V75.9L279.8,75.9z M291,77.2h2.6v161H291V77.2L291,77.2z M302.2,77.9h2.6v160.3h-2.6V77.9L302.2,77.9z M313.4,74.9h2.6
	v163.3h-2.6V74.9L313.4,74.9z M324.7,77.7h2.5v160.5h-2.5V77.7L324.7,77.7z M335.9,76.1h2.6v162.1h-2.6V76.1L335.9,76.1z
	 M347.1,77.5h2.6v160.7h-2.6V77.5L347.1,77.5z M358.3,76.8h2.6v161.4h-2.6V76.8L358.3,76.8z M369.7,71.8h2.5v166.4h-2.5V71.8
	L369.7,71.8z M380.9,65.3h2.6v172.9h-2.6V65.3L380.9,65.3z M392.1,56.3h2.6v181.9h-2.6V56.3L392.1,56.3z M403.3,48h2.6v190.2h-2.6
	V48L403.3,48z M414.6,47.6h2.5v190.6h-2.5V47.6L414.6,47.6z M425.8,46.5h2.6v191.7h-2.6V46.5L425.8,46.5z M437,44.4h2.6v193.8H437
	V44.4L437,44.4z M448.2,38.7h2.6v199.5h-2.6V38.7L448.2,38.7z M459.6,38.1h2.5v200.1h-2.5V38.1L459.6,38.1z M470.8,34.7h2.6v203.5
	h-2.6V34.7L470.8,34.7z M482,31.4h2.6v206.8H482V31.4L482,31.4z M493.2,32.3h2.6v205.9h-2.6V32.3L493.2,32.3z M504.5,30h2.5v208.2
	h-2.5V30L504.5,30z M515.7,26.1h2.6v212.1h-2.6V26.1L515.7,26.1z M526.9,25.8h2.6v212.4h-2.6V25.8L526.9,25.8z M538.1,23.9h2.6
	v214.3h-2.6V23.9L538.1,23.9z M549.5,26.4h2.5v211.8h-2.5V26.4L549.5,26.4z"/>
<line class="st7" x1="49" y1="238.2" x2="554.7" y2="238.2"/>
<path class="st7" d="M49,236.4v3.7 M105.2,236.4v3.7 M161.3,236.4v3.7 M217.6,236.4v3.7 M273.8,236.4v3.7 M329.9,236.4v3.7
	 M386.1,236.4v3.7 M442.3,236.4v3.7 M498.5,236.4v3.7 M554.7,236.4v3.7"/>
<g>
	<text transform="matrix(1 0 0 1 29.3418 241.8144)" class="st3 st8 st4">$0</text>
</g>
<g>
	<text transform="matrix(1 0 0 1 23.542 203.9365)" class="st3 st8 st4">$10</text>
</g>
<g>
	<text transform="matrix(1 0 0 1 23.542 166.0478)" class="st3 st8 st4">$20</text>
</g>
<g>
	<text transform="matrix(1 0 0 1 23.542 128.165)" class="st3 st8 st4">$30</text>
</g>
<g>
	<text transform="matrix(1 0 0 1 23.542 90.2822)" class="st3 st8 st4">$40</text>
</g>
<g>
	<text transform="matrix(1 0 0 1 23.542 52.3994)" class="st3 st8 st4">$50</text>
</g>
<g>
	<text transform="matrix(1 0 0 1 23.542 14.5156)" class="st3 st8 st4">$60</text>
</g>
<g>
	<text transform="matrix(1 0 0 1 37.2822 252)" class="st3 st8 st4">1969</text>
</g>
<g>
	<text transform="matrix(1 0 0 1 93.4678 252)" class="st3 st8 st4">1974</text>
</g>
<g>
	<text transform="matrix(1 0 0 1 149.6533 252)" class="st3 st8 st4">1979</text>
</g>
<g>
	<text transform="matrix(1 0 0 1 205.8389 252)" class="st3 st8 st4">1984</text>
</g>
<g>
	<text transform="matrix(1 0 0 1 262.0244 252)" class="st3 st8 st4">1989</text>
</g>
<g>
	<text transform="matrix(1 0 0 1 318.21 252)" class="st3 st8 st4">1994</text>
</g>
<g>
	<text transform="matrix(1 0 0 1 374.3896 252)" class="st3 st8 st4">1999</text>
</g>
<g>
	<text transform="matrix(1 0 0 1 430.5811 252)" class="st3 st8 st4">2004</text>
</g>
<g>
	<text transform="matrix(1 0 0 1 486.7666 252)" class="st3 st8 st4">2009</text>
</g>
</svg>
