<?xml version="1.0" encoding="utf-8"?>
<!-- Generator: Adobe Illustrator 19.1.0, SVG Export Plug-In . SVG Version: 6.00 Build 0)  -->
<svg version="1.1" id="Layer_1" xmlns="http://www.w3.org/2000/svg" xmlns:xlink="http://www.w3.org/1999/xlink" x="0px" y="0px"
	 viewBox="0 0 561 252" style="enable-background:new 0 0 561 252;" xml:space="preserve">
<style type="text/css">
	.st0{fill:none;stroke:#D9D9D8;stroke-width:0.72;stroke-linejoin:round;stroke-miterlimit:10;}
	.st1{fill:none;stroke:#414042;stroke-width:0.5;stroke-linejoin:round;stroke-miterlimit:10;}
	.st2{fill:#414042;}
	.st3{font-family:'Lato-Regular';}
	.st4{font-size:9.6767px;}
	.st5{fill:#E47278;}
	.st6{fill:#FCB763;}
	.st7{fill:#00A7B4;}
	.st8{font-family:'Lato-Bold';}
	.st9{font-size:10px;}
	.st10{fill:#808285;}
	.st11{font-family:'Lato-Heavy';}
	.st12{font-size:7.2777px;}
	.st13{font-size:12px;}
</style>
<path class="st0" d="M33.4,190.9h521.5 M33.4,170.5h521.5 M33.4,150.1h521.5 M33.4,129.5h521.5 M33.4,109.1h521.5 M33.4,88.7h521.5
	 M33.4,68.2h521.5 M33.4,47.8h521.5 M33.4,27.4h521.5 M33.4,6.9h521.5"/>
<line class="st1" x1="33.4" y1="211.4" x2="554.9" y2="211.4"/>
<g>
	<text transform="matrix(1 0 0 1 18.7065 214.0127)"><tspan x="0" y="0" class="st2 st3 st4">0</tspan><tspan x="5.6" y="-1" class="st2 st3 st4">¢</tspan></text>
</g>
<g>
	<text transform="matrix(1 0 0 1 18.7065 193.6661)"><tspan x="0" y="0" class="st2 st3 st4">2</tspan><tspan x="5.6" y="-1" class="st2 st3 st4">¢</tspan></text>
</g>
<g>
	<text transform="matrix(1 0 0 1 18.7065 173.3195)"><tspan x="0" y="0" class="st2 st3 st4">4</tspan><tspan x="5.6" y="-1" class="st2 st3 st4">¢</tspan></text>
</g>
<g>
	<text transform="matrix(1 0 0 1 18.7065 152.9729)"><tspan x="0" y="0" class="st2 st3 st4">6</tspan><tspan x="5.6" y="-1" class="st2 st3 st4">¢</tspan></text>
</g>
<g>
	<text transform="matrix(1 0 0 1 18.7065 132.6266)"><tspan x="0" y="0" class="st2 st3 st4">8</tspan><tspan x="5.6" y="-1" class="st2 st3 st4">¢</tspan></text>
</g>
<g>
	<text transform="matrix(1 0 0 1 13.123 112.2798)"><tspan x="0" y="0" class="st2 st3 st4">1</tspan><tspan x="5.6" y="0" class="st2 st3 st4">0</tspan><tspan x="11.2" y="-1" class="st2 st3 st4">¢</tspan></text>
</g>
<g>
	<text transform="matrix(1 0 0 1 13.123 91.9332)"><tspan x="0" y="0" class="st2 st3 st4">1</tspan><tspan x="5.6" y="0" class="st2 st3 st4">2</tspan><tspan x="11.2" y="-1" class="st2 st3 st4">¢</tspan></text>
</g>
<g>
	<text transform="matrix(1 0 0 1 13.123 71.5866)"><tspan x="0" y="0" class="st2 st3 st4">1</tspan><tspan x="5.6" y="0" class="st2 st3 st4">4</tspan><tspan x="11.2" y="-1" class="st2 st3 st4">¢</tspan></text>
</g>
<g>
	<text transform="matrix(1 0 0 1 13.123 51.24)"><tspan x="0" y="0" class="st2 st3 st4">1</tspan><tspan x="5.6" y="0" class="st2 st3 st4">6</tspan><tspan x="11.2" y="-1" class="st2 st3 st4">¢</tspan></text>
</g>
<g>
	<text transform="matrix(1 0 0 1 13.123 30.8935)"><tspan x="0" y="0" class="st2 st3 st4">1</tspan><tspan x="5.6" y="0" class="st2 st3 st4">8</tspan><tspan x="11.2" y="-1" class="st2 st3 st4">¢</tspan></text>
</g>
<g>
	<text transform="matrix(1 0 0 1 13.123 10.5469)"><tspan x="0" y="0" class="st2 st3 st4">2</tspan><tspan x="5.6" y="0" class="st2 st3 st4">0</tspan><tspan x="11.2" y="-1" class="st2 st3 st4">¢</tspan></text>
</g>
<g>
	<polygon class="st5" points="285.3,33.7 303.5,33.7 303.5,211.2 285.3,211.2 285.3,33.7 	"/>
	<polygon class="st6" points="262.3,45.9 280.4,45.9 280.4,211.2 262.3,211.2 262.3,45.9 	"/>
	<polygon class="st7" points="308.2,77.3 326.4,77.3 326.4,211.2 308.2,211.2 308.2,77.3 	"/>
	<g>
		<text transform="matrix(1 0 0 1 269.4781 222.737)"><tspan x="0" y="0" class="st2 st8 st9">S</tspan><tspan x="5.5" y="0" class="st2 st8 st9">a</tspan><tspan x="10.5" y="0" class="st2 st8 st9">n</tspan><tspan x="16.1" y="0" class="st2 st8 st9"> </tspan><tspan x="18.6" y="0" class="st2 st8 st9">Di</tspan><tspan x="28.7" y="0" class="st2 st8 st9">e</tspan><tspan x="34" y="0" class="st2 st8 st9">g</tspan><tspan x="39.3" y="0" class="st2 st8 st9">o</tspan></text>
	</g>
	<g>
		<text transform="matrix(1 0 0 1 267.524 232.2546)"><tspan x="0" y="0" class="st10 st11 st12">S</tspan><tspan x="4" y="0" class="st10 st11 st12">a</tspan><tspan x="7.7" y="0" class="st10 st11 st12">n</tspan><tspan x="11.8" y="0" class="st10 st11 st12"> </tspan><tspan x="13.5" y="0" class="st10 st11 st12">D</tspan><tspan x="19" y="0" class="st10 st11 st12">i</tspan><tspan x="20.9" y="0" class="st10 st11 st12">e</tspan><tspan x="24.8" y="0" class="st10 st11 st12">g</tspan><tspan x="28.7" y="0" class="st10 st11 st12">o</tspan><tspan x="32.9" y="0" class="st10 st11 st12"> </tspan><tspan x="34.5" y="0" class="st10 st11 st12">G</tspan><tspan x="39.9" y="0" class="st10 st11 st12">a</tspan><tspan x="43.6" y="0" class="st10 st11 st12">s</tspan><tspan x="46.8" y="0" class="st10 st11 st12"> </tspan><tspan x="48.4" y="0" class="st10 st11 st12">&amp;</tspan><tspan x="53.8" y="0" class="st10 st11 st12"> </tspan></text>
		<text transform="matrix(1 0 0 1 276.1675 240.2116)"><tspan x="0" y="0" class="st10 st11 st12">E</tspan><tspan x="4.1" y="0" class="st10 st11 st12">l</tspan><tspan x="6" y="0" class="st10 st11 st12">e</tspan><tspan x="9.9" y="0" class="st10 st11 st12">c</tspan><tspan x="13.4" y="0" class="st10 st11 st12">t</tspan><tspan x="16.1" y="0" class="st10 st11 st12">r</tspan><tspan x="18.8" y="0" class="st10 st11 st12">i</tspan><tspan x="20.7" y="0" class="st10 st11 st12">c</tspan></text>
		<text transform="matrix(1 0 0 1 302.6265 240.2116)"><tspan x="0" y="0" class="st10 st11 st12">C</tspan><tspan x="4.8" y="0" class="st10 st11 st12">o</tspan><tspan x="9" y="0" class="st10 st11 st12">.</tspan></text>
	</g>
</g>
<g>
	<g>
		<polygon class="st5" points="498.7,38.2 516.9,38.2 516.9,211.1 498.7,211.1 498.7,38.2 		"/>
		<polygon class="st6" points="475.7,114 493.9,114 493.9,211.1 475.7,211.1 475.7,114 		"/>
		<polygon class="st7" points="521.6,154.2 539.8,154.2 539.8,211.1 521.6,211.1 521.6,154.2 		"/>
	</g>
	<g>
		<text transform="matrix(1 0 0 1 477.6557 222.7276)"><tspan x="0" y="0" class="st2 st3 st9">S</tspan><tspan x="5.4" y="0" class="st2 st3 st9">a</tspan><tspan x="10.3" y="0" class="st2 st3 st9">n</tspan><tspan x="15.9" y="0" class="st2 st3 st9"> </tspan><tspan x="18.5" y="0" class="st2 st3 st9">F</tspan><tspan x="24.1" y="0" class="st2 st3 st9">r</tspan><tspan x="27.7" y="0" class="st2 st3 st9">a</tspan><tspan x="32.7" y="0" class="st2 st3 st9">n</tspan><tspan x="38.3" y="0" class="st2 st3 st9">ci</tspan><tspan x="45.4" y="0" class="st2 st3 st9">s</tspan><tspan x="49.7" y="0" class="st2 st3 st9">co</tspan></text>
	</g>
	<g>
		<text transform="matrix(1 0 0 1 479.7534 232.2452)"><tspan x="0" y="0" class="st10 st11 st12">C</tspan><tspan x="4.8" y="0" class="st10 st11 st12">i</tspan><tspan x="6.6" y="0" class="st10 st11 st12">t</tspan><tspan x="9.3" y="0" class="st10 st11 st12">y</tspan><tspan x="13.3" y="0" class="st10 st11 st12"> </tspan><tspan x="15" y="0" class="st10 st11 st12">&amp;</tspan><tspan x="20.3" y="0" class="st10 st11 st12"> </tspan><tspan x="21.9" y="0" class="st10 st11 st12">C</tspan><tspan x="26.7" y="0" class="st10 st11 st12">o</tspan><tspan x="31" y="0" class="st10 st11 st12">un</tspan><tspan x="39.2" y="0" class="st10 st11 st12">t</tspan><tspan x="41.9" y="0" class="st10 st11 st12">y</tspan><tspan x="45.8" y="0" class="st10 st11 st12"> </tspan><tspan x="47.4" y="0" class="st10 st11 st12">o</tspan><tspan x="51.6" y="0" class="st10 st11 st12">f</tspan><tspan x="54.2" y="0" class="st10 st11 st12"> </tspan></text>
		<text transform="matrix(1 0 0 1 484.7417 240.211)"><tspan x="0" y="0" class="st10 st11 st12">S</tspan><tspan x="4" y="0" class="st10 st11 st12">a</tspan><tspan x="7.7" y="0" class="st10 st11 st12">n</tspan><tspan x="11.8" y="0" class="st10 st11 st12"> </tspan><tspan x="13.5" y="0" class="st10 st11 st12">F</tspan><tspan x="17.6" y="0" class="st10 st11 st12">r</tspan><tspan x="20.3" y="0" class="st10 st11 st12">a</tspan><tspan x="24" y="0" class="st10 st11 st12">n</tspan><tspan x="28.1" y="0" class="st10 st11 st12">ci</tspan><tspan x="33.5" y="0" class="st10 st11 st12">s</tspan><tspan x="36.7" y="0" class="st10 st11 st12">c</tspan><tspan x="40.2" y="0" class="st10 st11 st12">o</tspan></text>
	</g>
</g>
<g>
	<g>
		<polygon class="st5" points="72,38.2 90.1,38.2 90.1,211.1 72,211.1 72,38.2 		"/>
		<polygon class="st6" points="48.9,44.1 67.2,44.1 67.2,211.1 48.9,211.1 48.9,44.1 		"/>
		<polygon class="st7" points="94.8,85.9 113.1,85.9 113.1,211.1 94.8,211.1 94.8,85.9 		"/>
	</g>
	<g>
		<text transform="matrix(1 0 0 1 65.9195 222.6882)"><tspan x="0" y="0" class="st2 st3 st9">F</tspan><tspan x="5.7" y="0" class="st2 st3 st9">r</tspan><tspan x="9.2" y="0" class="st2 st3 st9">e</tspan><tspan x="14.6" y="0" class="st2 st3 st9">s</tspan><tspan x="18.8" y="0" class="st2 st3 st9">n</tspan><tspan x="24.5" y="0" class="st2 st3 st9">o</tspan></text>
	</g>
	<g>
		<text transform="matrix(1 0 0 1 96.4473 232.2058)"><tspan x="0" y="0" class="st10 st11 st12">&amp;</tspan><tspan x="5.3" y="0" class="st10 st11 st12"> </tspan></text>
		<g>
			<text transform="matrix(1 0 0 1 58.4678 232.2058)"><tspan x="0" y="0" class="st10 st11 st12">P</tspan><tspan x="4.6" y="0" class="st10 st11 st12">a</tspan><tspan x="8.3" y="0" class="st10 st11 st12">cific</tspan><tspan x="21.5" y="0" class="st10 st11 st12"> </tspan><tspan x="23.3" y="0" class="st10 st11 st12">G</tspan><tspan x="28.6" y="0" class="st10 st11 st12">a</tspan><tspan x="32.3" y="0" class="st10 st11 st12">s</tspan></text>
			<text transform="matrix(1 0 0 1 61.46 240.1765)"><tspan x="0" y="0" class="st10 st11 st12">E</tspan><tspan x="4.1" y="0" class="st10 st11 st12">l</tspan><tspan x="6" y="0" class="st10 st11 st12">e</tspan><tspan x="9.9" y="0" class="st10 st11 st12">c</tspan><tspan x="13.4" y="0" class="st10 st11 st12">t</tspan><tspan x="16.1" y="0" class="st10 st11 st12">r</tspan><tspan x="18.8" y="0" class="st10 st11 st12">ic</tspan><tspan x="24.1" y="0" class="st10 st11 st12"> </tspan><tspan x="26" y="0" class="st10 st11 st12">C</tspan><tspan x="30.8" y="0" class="st10 st11 st12">o</tspan><tspan x="35" y="0" class="st10 st11 st12">.</tspan></text>
		</g>
	</g>
</g>
<g>
	<g>
		<polygon class="st5" points="392,66.7 410.2,66.7 410.2,211.1 392,211.1 392,66.7 		"/>
		<polygon class="st6" points="369,69.8 387.2,69.8 387.2,211.1 369,211.1 369,69.8 		"/>
		<polygon class="st7" points="414.9,82 433.1,82 433.1,211.1 414.9,211.1 414.9,82 		"/>
	</g>
	<g>
		<text transform="matrix(1 0 0 1 374.8433 222.6909)"><tspan x="0" y="0" class="st2 st3 st9">L</tspan><tspan x="5.1" y="0" class="st2 st3 st9">o</tspan><tspan x="10.8" y="0" class="st2 st3 st9">s</tspan><tspan x="15.1" y="0" class="st2 st3 st9"> </tspan><tspan x="17.6" y="0" class="st2 st3 st9">An</tspan><tspan x="29.9" y="0" class="st2 st3 st9">g</tspan><tspan x="35.1" y="0" class="st2 st3 st9">e</tspan><tspan x="40.4" y="0" class="st2 st3 st9">l</tspan><tspan x="42.7" y="0" class="st2 st3 st9">e</tspan><tspan x="48.1" y="0" class="st2 st3 st9">s</tspan></text>
	</g>
	<text transform="matrix(1 0 0 1 380.7091 232.208)"><tspan x="0" y="0" class="st10 st11 st12">Los Angeles  </tspan><tspan x="-4.7" y="8.7" class="st10 st11 st12">Department of  </tspan><tspan x="-5.1" y="17.5" class="st10 st11 st12">Water &amp; Power</tspan></text>
</g>
<g>
	<g>
		<polygon class="st5" points="178.7,38.2 196.8,38.2 196.8,211.1 178.7,211.1 178.7,38.2 		"/>
		<polygon class="st6" points="155.6,44.1 173.8,44.1 173.8,211.1 155.6,211.1 155.6,44.1 		"/>
		<polygon class="st7" points="201.5,85.8 219.7,85.8 219.7,211.1 201.5,211.1 201.5,85.8 		"/>
	</g>
	<g>
		<text transform="matrix(1 0 0 1 168.7219 222.6638)"><tspan x="0" y="0" class="st2 st3 st9">S</tspan><tspan x="5.4" y="0" class="st2 st3 st9">a</tspan><tspan x="10.3" y="0" class="st2 st3 st9">n</tspan><tspan x="15.9" y="0" class="st2 st3 st9"> </tspan><tspan x="18.5" y="0" class="st2 st3 st9">J</tspan><tspan x="22.7" y="0" class="st2 st3 st9">o</tspan><tspan x="28.4" y="0" class="st2 st3 st9">s</tspan><tspan x="32.6" y="0" class="st2 st3 st9">e</tspan></text>
	</g>
	<g>
		<text transform="matrix(1 -1.280000e-03 1.280000e-03 1 165.155 232.239)"><tspan x="0" y="0" class="st10 st11 st12">P</tspan><tspan x="4.6" y="0" class="st10 st11 st12">a</tspan><tspan x="8.3" y="0" class="st10 st11 st12">cific</tspan><tspan x="21.5" y="0" class="st10 st11 st12"> </tspan><tspan x="23.3" y="0" class="st10 st11 st12">G</tspan><tspan x="28.6" y="0" class="st10 st11 st12">a</tspan><tspan x="32.3" y="0" class="st10 st11 st12">s</tspan></text>
		<text transform="matrix(1 -1.280000e-03 1.280000e-03 1 203.1341 232.1904)"><tspan x="0" y="0" class="st10 st11 st12">&amp;</tspan><tspan x="5.3" y="0" class="st10 st11 st12"> </tspan></text>
		<text transform="matrix(1 -1.280000e-03 1.280000e-03 1 168.1495 240.2009)"><tspan x="0" y="0" class="st10 st11 st12">E</tspan><tspan x="4.1" y="0" class="st10 st11 st12">l</tspan><tspan x="6" y="0" class="st10 st11 st12">e</tspan><tspan x="9.9" y="0" class="st10 st11 st12">c</tspan><tspan x="13.4" y="0" class="st10 st11 st12">t</tspan><tspan x="16.1" y="0" class="st10 st11 st12">r</tspan><tspan x="18.8" y="0" class="st10 st11 st12">ic</tspan><tspan x="24.1" y="0" class="st10 st11 st12"> </tspan><tspan x="26" y="0" class="st10 st11 st12">C</tspan><tspan x="30.8" y="0" class="st10 st11 st12">o</tspan><tspan x="35" y="0" class="st10 st11 st12">.</tspan></text>
	</g>
</g>
<text transform="matrix(1.1124 0 0 1 378.1992 20.4092)"><tspan x="0" y="0" class="st5 st11 st13">R</tspan><tspan x="7.8" y="0" class="st5 st11 st13">e</tspan><tspan x="14.3" y="0" class="st5 st11 st13">s</tspan><tspan x="19.6" y="0" class="st5 st11 st13">id</tspan><tspan x="29.5" y="0" class="st5 st11 st13">e</tspan><tspan x="36" y="0" class="st5 st11 st13">n</tspan><tspan x="42.9" y="0" class="st5 st11 st13">ti</tspan><tspan x="50.7" y="0" class="st5 st11 st13">a</tspan><tspan x="56.8" y="0" class="st5 st11 st13">l</tspan></text>
<text transform="matrix(1.1124 0 0 1 453.1514 20.4092)"><tspan x="0" y="0" class="st7 st11 st13">I</tspan><tspan x="3.6" y="0" class="st7 st11 st13">n</tspan><tspan x="10.5" y="0" class="st7 st11 st13">d</tspan><tspan x="17.3" y="0" class="st7 st11 st13">u</tspan><tspan x="24.1" y="0" class="st7 st11 st13">s</tspan><tspan x="29.4" y="0" class="st7 st11 st13">t</tspan><tspan x="34" y="0" class="st7 st11 st13">r</tspan><tspan x="38.5" y="0" class="st7 st11 st13">i</tspan><tspan x="41.7" y="0" class="st7 st11 st13">a</tspan><tspan x="47.8" y="0" class="st7 st11 st13">l</tspan></text>
<text transform="matrix(1.1124 0 0 1 298.2013 20.4092)"><tspan x="0" y="0" class="st6 st11 st13">C</tspan><tspan x="7.9" y="0" class="st6 st11 st13">o</tspan><tspan x="14.9" y="0" class="st6 st11 st13">mm</tspan><tspan x="35" y="0" class="st6 st11 st13">e</tspan><tspan x="41.5" y="0" class="st6 st11 st13">r</tspan><tspan x="46.1" y="0" class="st6 st11 st13">c</tspan><tspan x="51.9" y="0" class="st6 st11 st13">i</tspan><tspan x="55" y="0" class="st6 st11 st13">a</tspan><tspan x="61.1" y="0" class="st6 st11 st13">l</tspan></text>
</svg>
