<svg id="Layer_1" xmlns="http://www.w3.org/2000/svg" viewBox="0 0 561 252"><style>.st0{fill:none;stroke:#D9D9D8;stroke-width:0.72;stroke-linejoin:round;stroke-miterlimit:10;} .st1{fill:none;stroke:#414042;stroke-width:0.5;stroke-linejoin:round;stroke-miterlimit:10;} .st2{fill:#414042;} .st3{font-family:&apos;Lato&apos;;font-weight:400;} .st4{font-size:9.6767px;} .st5{fill:#E47278;} .st6{fill:#FCB763;} .st7{fill:#00A7B4;} .st8{font-family:&apos;Lato&apos;;font-weight:700;} .st9{font-size:10px;} .st10{fill:#808285;} .st11{font-family:&apos;Lato&apos;;font-weight:700;} .st12{font-size:7.2777px;} .st13{font-size:12px;}</style><path class="st0" d="M33.4 190.9h521.5M33.4 170.5h521.5M33.4 150.1h521.5M33.4 129.5h521.5M33.4 109.1h521.5M33.4 88.7h521.5M33.4 68.2h521.5M33.4 47.8h521.5M33.4 27.4h521.5M33.4 6.9h521.5"/><path class="st1" d="M33.4 211.4h521.5"/><text transform="translate(18.706 214.013)"><tspan x="0" y="0" class="st2 st3 st4">0¢</tspan></text><text transform="translate(18.706 193.666)"><tspan x="0" y="0" class="st2 st3 st4">2¢</tspan></text><text transform="translate(18.706 173.32)"><tspan x="0" y="0" class="st2 st3 st4">4¢</tspan></text><text transform="translate(18.706 152.973)"><tspan x="0" y="0" class="st2 st3 st4">6¢</tspan></text><text transform="translate(18.706 132.627)"><tspan x="0" y="0" class="st2 st3 st4">8¢</tspan></text><text transform="translate(13.123 112.28)"><tspan x="0" y="0" class="st2 st3 st4">10¢</tspan></text><text transform="translate(13.123 91.933)"><tspan x="0" y="0" class="st2 st3 st4">12¢</tspan></text><text transform="translate(13.123 71.587)"><tspan x="0" y="0" class="st2 st3 st4">14¢</tspan></text><text transform="translate(13.123 51.24)"><tspan x="0" y="0" class="st2 st3 st4">16¢</tspan></text><text transform="translate(13.123 30.893)"><tspan x="0" y="0" class="st2 st3 st4">18¢</tspan></text><text transform="translate(13.123 10.547)"><tspan x="0" y="0" class="st2 st3 st4">20¢</tspan></text><path class="st5" d="M285.3 33.7h18.2v177.5h-18.2V33.7z"/><path class="st6" d="M262.3 45.9h18.1v165.3h-18.1V45.9z"/><path class="st7" d="M308.2 77.3h18.2v133.9h-18.2V77.3z"/><text transform="translate(269.478 222.737)"><tspan x="0" y="0" class="st2 st8 st9">San Diego</tspan></text><text transform="translate(267.524 232.255)"><tspan x="0" y="0" class="st10 st11 st12">San Diego Gas &amp;</tspan></text><text transform="translate(276.168 240.212)"><tspan x="0" y="0" class="st10 st11 st12">Electric Co.</tspan></text><path class="st5" d="M498.7 38.2h18.2v172.9h-18.2V38.2z"/><path class="st6" d="M475.7 114h18.2v97.1h-18.2V114z"/><path class="st7" d="M521.6 154.2h18.2v56.9h-18.2v-56.9z"/><g><text transform="translate(477.656 222.728)"><tspan x="0" y="0" class="st2 st3 st9">San Francisco</tspan></text></g><g><text transform="translate(479.753 232.245)"><tspan x="0" y="0" class="st10 st11 st12">City &amp; County of</tspan></text><text transform="translate(484.742 240.21)"><tspan x="0" y="0" class="st10 st11 st12">San Francisco</tspan></text></g><g><path class="st5" d="M72 38.2h18.1v172.9H72V38.2z"/><path class="st6" d="M48.9 44.1h18.3v167H48.9v-167z"/><path class="st7" d="M94.8 85.9h18.3v125.2H94.8V85.9z"/><g><text transform="translate(65.92 222.688)"><tspan x="0" y="0" class="st2 st3 st9">Fresno</tspan></text></g><g><text transform="translate(58.468 232.206)"><tspan x="0" y="0" class="st10 st11 st12">Pacific Gas &amp;</tspan></text><text transform="translate(61.46 240.177)"><tspan x="0" y="0" class="st10 st11 st12">Electric Co.</tspan></text></g></g><g><path class="st5" d="M392 66.7h18.2v144.4H392V66.7z"/><path class="st6" d="M369 69.8h18.2v141.3H369V69.8z"/><path class="st7" d="M414.9 82h18.2v129.1h-18.2V82z"/><g><text transform="translate(374.843 222.69)"><tspan x="0" y="0" class="st2 st3 st9">Los Angeles</tspan></text></g><text transform="translate(380.71 232.208)"><tspan x="0" y="0" class="st10 st11 st12">Los Angeles</tspan><tspan x="-4.7" y="8.7" class="st10 st11 st12">Department of</tspan><tspan x="-5.1" y="17.5" class="st10 st11 st12">Water &amp; Power</tspan></text></g><g><path class="st5" d="M178.7 38.2h18.1v172.9h-18.1V38.2z"/><path class="st6" d="M155.6 44.1h18.2v167h-18.2v-167z"/><path class="st7" d="M201.5 85.8h18.2v125.3h-18.2V85.8z"/><g><text transform="translate(168.722 222.664)"><tspan x="0" y="0" class="st2 st3 st9">San Jose</tspan></text></g><g><text transform="translate(165.155 232.24)"><tspan x="0" y="0" class="st10 st11 st12">Pacific Gas &amp;</tspan></text><text transform="translate(168.15 240.2)"><tspan x="0" y="0" class="st10 st11 st12">Electric Co.</tspan></text></g></g><text transform="matrix(1.1124 0 0 1 378.2 20.41)"><tspan x="0" y="0" class="st5 st11 st13">Residential</tspan></text><text transform="matrix(1.1124 0 0 1 453.15 20.41)"><tspan x="0" y="0" class="st7 st11 st13">Industrial</tspan></text><text transform="matrix(1.1124 0 0 1 298.2 20.41)"><tspan x="0" y="0" class="st6 st11 st13">Commercial</tspan></text></svg>