<?xml version="1.0" encoding="utf-8"?>
<!-- Generator: Adobe Illustrator 19.1.0, SVG Export Plug-In . SVG Version: 6.00 Build 0)  -->
<svg version="1.1" id="Layer_1" xmlns="http://www.w3.org/2000/svg" xmlns:xlink="http://www.w3.org/1999/xlink" x="0px" y="0px"
	 viewBox="0 0 375 367" style="enable-background:new 0 0 375 367;" xml:space="preserve">
<style type="text/css">
	.st0{fill:none;stroke:#D9D9D8;stroke-width:0.72;stroke-linejoin:round;stroke-miterlimit:10;}
	.st1{fill:#009688;}
	.st2{fill:#E81F64;}
	.st3{fill:#5A5A5A;}
	.st4{font-family:'Lato-Heavy';}
	.st5{font-size:10px;}
	.st6{font-family:'Lato-Regular';}
	.st7{font-family:'Lato-Bold';}
	.st8{fill:none;stroke:#808080;stroke-width:0.5;stroke-miterlimit:8;}
	.st9{fill-rule:evenodd;clip-rule:evenodd;fill:#808080;}
	.st10{fill:#FFFFFF;}
</style>
<path class="st0" d="M56,289.9h312 M56,234.7h312 M56,179.5h312 M56,124.3h312 M56,69.1h312 M56,13.9h312"/>
<path class="st1" d="M73.5,221.3h42.9v123.8H73.5V221.3L73.5,221.3z M151.6,129.4h42.9v215.8h-42.9V129.4L151.6,129.4z M229.6,115.9
	h42.8v229.2h-42.8V115.9L229.6,115.9z M307.6,110.7h42.9v234.5h-42.9V110.7L307.6,110.7z"/>
<path class="st2" d="M73.5,219.6h42.9v1.7H73.5V219.6L73.5,219.6z M151.6,121.6h42.9v7.8h-42.9V121.6L151.6,121.6z M229.6,92.3h42.8
	v23.6h-42.8V92.3L229.6,92.3z M307.6,47.4h42.9v63.2h-42.9V47.4L307.6,47.4z"/>
<line class="st0" x1="56" y1="345.1" x2="368" y2="345.1"/>
<text transform="matrix(1 0 0 1 83.385 210.4932)"><tspan x="0" y="0" class="st3 st4 st5">$45</tspan><tspan x="17.4" y="0" class="st3 st4 st5">5</tspan></text>
<text transform="matrix(1 0 0 1 161.7989 112.4463)"><tspan x="0" y="0" class="st3 st4 st5">$81</tspan><tspan x="17.4" y="0" class="st3 st4 st5">0</tspan></text>
<text transform="matrix(1 0 0 1 239.1645 83.126)"><tspan x="0" y="0" class="st3 st4 st5">$91</tspan><tspan x="17.4" y="0" class="st3 st4 st5">6</tspan></text>
<text transform="matrix(1 0 0 1 314.3581 38.3135)"><tspan x="0" y="0" class="st3 st4 st5">$1</tspan><tspan x="11.6" y="0" class="st3 st4 st5">,</tspan><tspan x="14" y="0" class="st3 st4 st5">07</tspan><tspan x="25.6" y="0" class="st3 st4 st5">9</tspan></text>
<text transform="matrix(1 0 0 1 41.3496 348.7117)"><tspan x="0" y="0" class="st3 st6 st5">$</tspan><tspan x="5.8" y="0" class="st3 st6 st5">0</tspan></text>
<text transform="matrix(1 0 0 1 29.7202 293.5646)"><tspan x="0" y="0" class="st3 st6 st5">$2</tspan><tspan x="11.5" y="0" class="st3 st6 st5">0</tspan><tspan x="17.4" y="0" class="st3 st6 st5">0</tspan></text>
<text transform="matrix(1 0 0 1 29.7202 238.4175)"><tspan x="0" y="0" class="st3 st6 st5">$4</tspan><tspan x="11.5" y="0" class="st3 st6 st5">0</tspan><tspan x="17.4" y="0" class="st3 st6 st5">0</tspan></text>
<text transform="matrix(1 0 0 1 29.7202 183.2703)"><tspan x="0" y="0" class="st3 st6 st5">$6</tspan><tspan x="11.5" y="0" class="st3 st6 st5">0</tspan><tspan x="17.4" y="0" class="st3 st6 st5">0</tspan></text>
<text transform="matrix(1 0 0 1 29.7202 128.1232)"><tspan x="0" y="0" class="st3 st6 st5">$8</tspan><tspan x="11.5" y="0" class="st3 st6 st5">0</tspan><tspan x="17.4" y="0" class="st3 st6 st5">0</tspan></text>
<text transform="matrix(1 0 0 1 21.7602 72.9761)"><tspan x="0" y="0" class="st3 st6 st5">$1</tspan><tspan x="11.5" y="0" class="st3 st6 st5">,</tspan><tspan x="13.8" y="0" class="st3 st6 st5">00</tspan><tspan x="25.4" y="0" class="st3 st6 st5">0</tspan></text>
<text transform="matrix(1 0 0 1 21.7602 17.8289)"><tspan x="0" y="0" class="st3 st6 st5">$1</tspan><tspan x="11.5" y="0" class="st3 st6 st5">,</tspan><tspan x="13.8" y="0" class="st3 st6 st5">20</tspan><tspan x="25.4" y="0" class="st3 st6 st5">0</tspan></text>
<g>
	<text transform="matrix(1 0 0 1 79.9074 357.5479)"><tspan x="0" y="0" class="st3 st6 st5">F</tspan><tspan x="5.7" y="0" class="st3 st6 st5">r</tspan><tspan x="9.2" y="0" class="st3 st6 st5">e</tspan><tspan x="14.6" y="0" class="st3 st6 st5">s</tspan><tspan x="18.8" y="0" class="st3 st6 st5">n</tspan><tspan x="24.5" y="0" class="st3 st6 st5">o</tspan></text>
</g>
<g>
	<text transform="matrix(1 0 0 1 154.4388 357.5479)"><tspan x="0" y="0" class="st3 st6 st5">S</tspan><tspan x="5.4" y="0" class="st3 st6 st5">a</tspan><tspan x="10.3" y="0" class="st3 st6 st5">n</tspan><tspan x="15.9" y="0" class="st3 st6 st5"> </tspan><tspan x="18.5" y="0" class="st3 st6 st5">J</tspan><tspan x="22.7" y="0" class="st3 st6 st5">o</tspan><tspan x="28.4" y="0" class="st3 st6 st5">s</tspan><tspan x="32.6" y="0" class="st3 st6 st5">e</tspan></text>
</g>
<g>
	<text transform="matrix(1 0 0 1 228.4599 357.5479)"><tspan x="0" y="0" class="st3 st7 st5">S</tspan><tspan x="5.5" y="0" class="st3 st7 st5">a</tspan><tspan x="10.5" y="0" class="st3 st7 st5">n</tspan><tspan x="16.1" y="0" class="st3 st7 st5"> </tspan><tspan x="18.6" y="0" class="st3 st7 st5">Di</tspan><tspan x="28.7" y="0" class="st3 st7 st5">e</tspan><tspan x="34" y="0" class="st3 st7 st5">g</tspan><tspan x="39.3" y="0" class="st3 st7 st5">o</tspan></text>
</g>
<g>
	<text transform="matrix(1 0 0 1 303.8478 357.5479)"><tspan x="0" y="0" class="st3 st6 st5">L</tspan><tspan x="5.1" y="0" class="st3 st6 st5">o</tspan><tspan x="10.8" y="0" class="st3 st6 st5">s</tspan><tspan x="15.1" y="0" class="st3 st6 st5"> </tspan><tspan x="17.6" y="0" class="st3 st6 st5">An</tspan><tspan x="29.9" y="0" class="st3 st6 st5">g</tspan><tspan x="35.1" y="0" class="st3 st6 st5">e</tspan><tspan x="40.4" y="0" class="st3 st6 st5">l</tspan><tspan x="42.7" y="0" class="st3 st6 st5">e</tspan><tspan x="48.1" y="0" class="st3 st6 st5">s</tspan></text>
</g>
<text transform="matrix(1 0 0 1 64.8047 51.9619)"><tspan x="0" y="0" class="st1 st4 st5">T</tspan><tspan x="6.1" y="0" class="st1 st4 st5">a</tspan><tspan x="11.2" y="0" class="st1 st4 st5">x</tspan><tspan x="16.5" y="0" class="st1 st4 st5"> </tspan><tspan x="18.8" y="0" class="st1 st4 st5">C</tspan><tspan x="25.4" y="0" class="st1 st4 st5">o</tspan><tspan x="31.2" y="0" class="st1 st4 st5">lle</tspan><tspan x="41.5" y="0" class="st1 st4 st5">c</tspan><tspan x="46.4" y="0" class="st1 st4 st5">ti</tspan><tspan x="53" y="0" class="st1 st4 st5">on</tspan><tspan x="64.4" y="0" class="st1 st4 st5">s</tspan><tspan x="68.9" y="0" class="st1 st4 st5"> </tspan></text>
<text transform="matrix(1 0 0 1 64.8047 65.165)"><tspan x="0" y="0" class="st1 st4 st5">p</tspan><tspan x="5.7" y="0" class="st1 st4 st5">e</tspan><tspan x="11" y="0" class="st1 st4 st5">r</tspan><tspan x="14.8" y="0" class="st1 st4 st5"> </tspan><tspan x="17.1" y="0" class="st1 st4 st5">C</tspan><tspan x="23.8" y="0" class="st1 st4 st5">a</tspan><tspan x="28.9" y="0" class="st1 st4 st5">p</tspan><tspan x="34.6" y="0" class="st1 st4 st5">i</tspan><tspan x="37.2" y="0" class="st1 st4 st5">t</tspan><tspan x="41" y="0" class="st1 st4 st5">a</tspan></text>
<text transform="matrix(1 0 0 1 64.8048 78.8367)"><tspan x="0" y="0" class="st2 st4 st5">O</tspan><tspan x="8.1" y="0" class="st2 st4 st5">t</tspan><tspan x="11.9" y="0" class="st2 st4 st5">h</tspan><tspan x="17.6" y="0" class="st2 st4 st5">e</tspan><tspan x="22.9" y="0" class="st2 st4 st5">r</tspan><tspan x="26.7" y="0" class="st2 st4 st5"> </tspan><tspan x="28.9" y="0" class="st2 st4 st5">G</tspan><tspan x="36.2" y="0" class="st2 st4 st5">e</tspan><tspan x="41.5" y="0" class="st2 st4 st5">n</tspan><tspan x="47.2" y="0" class="st2 st4 st5">e</tspan><tspan x="52.5" y="0" class="st2 st4 st5">r</tspan><tspan x="56.3" y="0" class="st2 st4 st5">a</tspan><tspan x="61.4" y="0" class="st2 st4 st5">l</tspan><tspan x="63.9" y="0" class="st2 st4 st5"> </tspan></text>
<text transform="matrix(1 0 0 1 64.8048 92.032)"><tspan x="0" y="0" class="st2 st4 st5">R</tspan><tspan x="6.5" y="0" class="st2 st4 st5">e</tspan><tspan x="11.8" y="0" class="st2 st4 st5">v</tspan><tspan x="17.2" y="0" class="st2 st4 st5">e</tspan><tspan x="22.5" y="0" class="st2 st4 st5">nu</tspan><tspan x="33.8" y="0" class="st2 st4 st5">e</tspan><tspan x="39.1" y="0" class="st2 st4 st5"> </tspan><tspan x="41.4" y="0" class="st2 st4 st5">p</tspan><tspan x="47.1" y="0" class="st2 st4 st5">e</tspan><tspan x="52.5" y="0" class="st2 st4 st5">r</tspan><tspan x="56.3" y="0" class="st2 st4 st5"> </tspan><tspan x="58.6" y="0" class="st2 st4 st5">C</tspan><tspan x="65.2" y="0" class="st2 st4 st5">a</tspan><tspan x="70.3" y="0" class="st2 st4 st5">p</tspan><tspan x="76.1" y="0" class="st2 st4 st5">i</tspan><tspan x="78.7" y="0" class="st2 st4 st5">t</tspan><tspan x="82.5" y="0" class="st2 st4 st5">a</tspan></text>
<text transform="matrix(1 0 0 1 123.6329 251.1729)"><tspan x="0" y="0" class="st2 st4 st5">$</tspan><tspan x="5.8" y="0" class="st2 st4 st5">6</tspan></text>
<path class="st8" d="M121.6,223 M121.6,223c2.4,2.7,5,8.7,6.8,16.2c0.2,0.7,0.3,1.3,0.5,2"/>
<polygon class="st9" points="121.7,226.1 118.3,221.6 122.8,220.4 121.7,226.1 "/>
<text transform="matrix(1 0 0 1 83.4148 253.665)"><tspan x="0" y="0" class="st10 st4 st5">$44</tspan><tspan x="17.3" y="0" class="st10 st4 st5">9</tspan></text>
<text transform="matrix(1 0 0 1 200.2803 155.1729)"><tspan x="0" y="0" class="st2 st4 st5">$2</tspan><tspan x="11.5" y="0" class="st2 st4 st5">8</tspan></text>
<text transform="matrix(1 0 0 1 242.0795 108.4307)"><tspan x="0" y="0" class="st10 st4 st5">$8</tspan><tspan x="11.5" y="0" class="st10 st4 st5">6</tspan></text>
<text transform="matrix(1 0 0 1 318.4855 139.6025)"><tspan x="0" y="0" class="st10 st4 st5">$85</tspan><tspan x="17.3" y="0" class="st10 st4 st5">0</tspan></text>
<text transform="matrix(1 0 0 1 239.1948 144.2041)"><tspan x="0" y="0" class="st10 st4 st5">$83</tspan><tspan x="17.3" y="0" class="st10 st4 st5">0</tspan></text>
<text transform="matrix(1 0 0 1 161.8289 158.3604)"><tspan x="0" y="0" class="st10 st4 st5">$78</tspan><tspan x="17.3" y="0" class="st10 st4 st5">2</tspan></text>
<text transform="matrix(1 0 0 1 318.4855 84.1729)"><tspan x="0" y="0" class="st10 st4 st5">$22</tspan><tspan x="17.3" y="0" class="st10 st4 st5">9</tspan></text>
<path class="st8" d="M199.6,127.3 M199.6,127.3c2.4,2.7,5,8.7,6.8,16.2c0.2,0.7,0.3,1.3,0.5,2"/>
<polygon class="st9" points="199.7,130.5 196.4,125.9 200.9,124.7 199.7,130.5 "/>
</svg>
