<?xml version="1.0" encoding="utf-8"?>
<!-- Generator: Adobe Illustrator 19.1.0, SVG Export Plug-In . SVG Version: 6.00 Build 0)  -->
<svg version="1.1" id="Layer_1" xmlns="http://www.w3.org/2000/svg" xmlns:xlink="http://www.w3.org/1999/xlink" x="0px" y="0px"
	 viewBox="0 0 375 367" style="enable-background:new 0 0 375 367;" xml:space="preserve">
<style type="text/css">
	.st0{fill:none;stroke:#D9D9D8;stroke-width:0.72;stroke-linejoin:round;stroke-miterlimit:10;}
	.st1{fill:#009688;}
	.st2{fill:#E81F64;}
	.st3{fill:#5A5A5A;}
	.st4{font-family:'Lato';font-weight:700;}
	.st5{font-size:10px;}
	.st6{font-family:'Lato';font-weight:400;}
	.st7{font-family:'Lato';font-weight:700;}
	.st8{fill:none;stroke:#808080;stroke-width:0.5;stroke-miterlimit:8;}
	.st9{fill-rule:evenodd;clip-rule:evenodd;fill:#808080;}
	.st10{fill:#FFFFFF;}
</style>
<path class="st0" d="M56,289.9h312 M56,234.7h312 M56,179.5h312 M56,124.3h312 M56,69.1h312 M56,13.9h312"/>
<path class="st1" d="M73.5,221.3h42.9v123.8H73.5V221.3L73.5,221.3z M151.6,129.4h42.9v215.8h-42.9V129.4L151.6,129.4z M229.6,115.9
	h42.8v229.2h-42.8V115.9L229.6,115.9z M307.6,110.7h42.9v234.5h-42.9V110.7L307.6,110.7z"/>
<path class="st2" d="M73.5,219.6h42.9v1.7H73.5V219.6L73.5,219.6z M151.6,121.6h42.9v7.8h-42.9V121.6L151.6,121.6z M229.6,92.3h42.8
	v23.6h-42.8V92.3L229.6,92.3z M307.6,47.4h42.9v63.2h-42.9V47.4L307.6,47.4z"/>
<line class="st0" x1="56" y1="345.1" x2="368" y2="345.1"/>
<text transform="matrix(1 0 0 1 83.385 210.4932)"><tspan x="0" y="0" class="st3 st4 st5">$455</tspan></text>
<text transform="matrix(1 0 0 1 161.7989 112.4463)"><tspan x="0" y="0" class="st3 st4 st5">$810</tspan></text>
<text transform="matrix(1 0 0 1 239.1645 83.126)"><tspan x="0" y="0" class="st3 st4 st5">$916</tspan></text>
<text transform="matrix(1 0 0 1 314.3581 38.3135)"><tspan x="0" y="0" class="st3 st4 st5">$1,079</tspan></text>
<text transform="matrix(1 0 0 1 41.3496 348.7117)"><tspan x="0" y="0" class="st3 st6 st5">$0</tspan></text>
<text transform="matrix(1 0 0 1 29.7202 293.5646)"><tspan x="0" y="0" class="st3 st6 st5">$200</tspan></text>
<text transform="matrix(1 0 0 1 29.7202 238.4175)"><tspan x="0" y="0" class="st3 st6 st5">$400</tspan></text>
<text transform="matrix(1 0 0 1 29.7202 183.2703)"><tspan x="0" y="0" class="st3 st6 st5">$600</tspan></text>
<text transform="matrix(1 0 0 1 29.7202 128.1232)"><tspan x="0" y="0" class="st3 st6 st5">$800</tspan></text>
<text transform="matrix(1 0 0 1 21.7602 72.9761)"><tspan x="0" y="0" class="st3 st6 st5">$1,000</tspan></text>
<text transform="matrix(1 0 0 1 21.7602 17.8289)"><tspan x="0" y="0" class="st3 st6 st5">$1,200</tspan></text>
<g>
	<text transform="matrix(1 0 0 1 79.9074 357.5479)"><tspan x="0" y="0" class="st3 st6 st5">Fresno</tspan></text>
</g>
<g>
	<text transform="matrix(1 0 0 1 154.4388 357.5479)"><tspan x="0" y="0" class="st3 st6 st5">San Jose</tspan></text>
</g>
<g>
	<text transform="matrix(1 0 0 1 228.4599 357.5479)"><tspan x="0" y="0" class="st3 st7 st5">San Diego</tspan></text>
</g>
<g>
	<text transform="matrix(1 0 0 1 303.8478 357.5479)"><tspan x="0" y="0" class="st3 st6 st5">Los Angeles</tspan></text>
</g>
<text transform="matrix(1 0 0 1 64.8047 51.9619)"><tspan x="0" y="0" class="st1 st4 st5">Tax Collections</tspan></text>
<text transform="matrix(1 0 0 1 64.8047 65.165)"><tspan x="0" y="0" class="st1 st4 st5">per Capita</tspan></text>
<text transform="matrix(1 0 0 1 64.8048 78.8367)"><tspan x="0" y="0" class="st2 st4 st5">Other General</tspan></text>
<text transform="matrix(1 0 0 1 64.8048 92.032)"><tspan x="0" y="0" class="st2 st4 st5">Revenue per Capita</tspan></text>
<text transform="matrix(1 0 0 1 123.6329 251.1729)"><tspan x="0" y="0" class="st2 st4 st5">$6</tspan></text>
<path class="st8" d="M121.6,223 M121.6,223c2.4,2.7,5,8.7,6.8,16.2c0.2,0.7,0.3,1.3,0.5,2"/>
<polygon class="st9" points="121.7,226.1 118.3,221.6 122.8,220.4 121.7,226.1 "/>
<text transform="matrix(1 0 0 1 83.4148 253.665)"><tspan x="0" y="0" class="st10 st4 st5">$449</tspan></text>
<text transform="matrix(1 0 0 1 200.2803 155.1729)"><tspan x="0" y="0" class="st2 st4 st5">$28</tspan></text>
<text transform="matrix(1 0 0 1 242.0795 108.4307)"><tspan x="0" y="0" class="st10 st4 st5">$86</tspan></text>
<text transform="matrix(1 0 0 1 318.4855 139.6025)"><tspan x="0" y="0" class="st10 st4 st5">$850</tspan></text>
<text transform="matrix(1 0 0 1 239.1948 144.2041)"><tspan x="0" y="0" class="st10 st4 st5">$830</tspan></text>
<text transform="matrix(1 0 0 1 161.8289 158.3604)"><tspan x="0" y="0" class="st10 st4 st5">$782</tspan></text>
<text transform="matrix(1 0 0 1 318.4855 84.1729)"><tspan x="0" y="0" class="st10 st4 st5">$229</tspan></text>
<path class="st8" d="M199.6,127.3 M199.6,127.3c2.4,2.7,5,8.7,6.8,16.2c0.2,0.7,0.3,1.3,0.5,2"/>
<polygon class="st9" points="199.7,130.5 196.4,125.9 200.9,124.7 199.7,130.5 "/>
</svg>
