<svg id="Layer_1" xmlns="http://www.w3.org/2000/svg" viewBox="0 0 375 367"><style>.st0{fill:none;stroke:#D9D9D8;stroke-width:0.72;stroke-linejoin:round;stroke-miterlimit:10;} .st1{fill:#009688;} .st2{fill:#E81F64;} .st3{fill:#5A5A5A;} .st4{font-family:&apos;Lato&apos;;font-weight:700;} .st5{font-size:10px;} .st6{font-family:&apos;Lato&apos;;font-weight:400;} .st7{font-family:&apos;Lato&apos;;font-weight:700;} .st8{fill:none;stroke:#808080;stroke-width:0.5;stroke-miterlimit:8;} .st9{fill-rule:evenodd;clip-rule:evenodd;fill:#808080;} .st10{fill:#FFFFFF;}</style><path class="st0" d="M56 289.9h312M56 234.7h312M56 179.5h312M56 124.3h312M56 69.1h312M56 13.9h312"/><path class="st1" d="M73.5 221.3h42.9v123.8H73.5V221.3zm78.1-91.9h42.9v215.8h-42.9V129.4zm78-13.5h42.8v229.2h-42.8V115.9zm78-5.2h42.9v234.5h-42.9V110.7z"/><path class="st2" d="M73.5 219.6h42.9v1.7H73.5v-1.7zm78.1-98h42.9v7.8h-42.9v-7.8zm78-29.3h42.8v23.6h-42.8V92.3zm78-44.9h42.9v63.2h-42.9V47.4z"/><path class="st0" d="M56 345.1h312"/><text transform="translate(83.385 210.493)"><tspan x="0" y="0" class="st3 st4 st5">$455</tspan></text><text transform="translate(161.8 112.446)"><tspan x="0" y="0" class="st3 st4 st5">$810</tspan></text><text transform="translate(239.165 83.126)"><tspan x="0" y="0" class="st3 st4 st5">$916</tspan></text><text transform="translate(314.358 38.313)"><tspan x="0" y="0" class="st3 st4 st5">$1,079</tspan></text><text transform="translate(41.35 348.712)"><tspan x="0" y="0" class="st3 st6 st5">$0</tspan></text><text transform="translate(29.72 293.565)"><tspan x="0" y="0" class="st3 st6 st5">$200</tspan></text><text transform="translate(29.72 238.417)"><tspan x="0" y="0" class="st3 st6 st5">$400</tspan></text><text transform="translate(29.72 183.27)"><tspan x="0" y="0" class="st3 st6 st5">$600</tspan></text><text transform="translate(29.72 128.123)"><tspan x="0" y="0" class="st3 st6 st5">$800</tspan></text><text transform="translate(21.76 72.976)"><tspan x="0" y="0" class="st3 st6 st5">$1,000</tspan></text><text transform="translate(21.76 17.83)"><tspan x="0" y="0" class="st3 st6 st5">$1,200</tspan></text><text transform="translate(79.907 357.548)"><tspan x="0" y="0" class="st3 st6 st5">Fresno</tspan></text><text transform="translate(154.44 357.548)"><tspan x="0" y="0" class="st3 st6 st5">San Jose</tspan></text><text transform="translate(228.46 357.548)"><tspan x="0" y="0" class="st3 st7 st5">San Diego</tspan></text><text transform="translate(303.848 357.548)"><tspan x="0" y="0" class="st3 st6 st5">Los Angeles</tspan></text><text transform="translate(64.805 51.962)"><tspan x="0" y="0" class="st1 st4 st5">Tax Collections</tspan></text><text transform="translate(64.805 65.165)"><tspan x="0" y="0" class="st1 st4 st5">per Capita</tspan></text><text transform="translate(64.805 78.837)"><tspan x="0" y="0" class="st2 st4 st5">Other General</tspan></text><text transform="translate(64.805 92.032)"><tspan x="0" y="0" class="st2 st4 st5">Revenue per Capita</tspan></text><text transform="translate(123.633 251.173)"><tspan x="0" y="0" class="st2 st4 st5">$6</tspan></text><path class="st8" d="M121.6 223c2.4 2.7 5 8.7 6.8 16.2.2.7.3 1.3.5 2"/><path class="st9" d="M121.7 226.1l-3.4-4.5 4.5-1.2-1.1 5.7z"/><text transform="translate(83.415 253.665)"><tspan x="0" y="0" class="st10 st4 st5">$449</tspan></text><text transform="translate(200.28 155.173)"><tspan x="0" y="0" class="st2 st4 st5">$28</tspan></text><text transform="translate(242.08 108.43)"><tspan x="0" y="0" class="st10 st4 st5">$86</tspan></text><text transform="translate(318.486 139.602)"><tspan x="0" y="0" class="st10 st4 st5">$850</tspan></text><text transform="translate(239.195 144.204)"><tspan x="0" y="0" class="st10 st4 st5">$830</tspan></text><text transform="translate(161.83 158.36)"><tspan x="0" y="0" class="st10 st4 st5">$782</tspan></text><text transform="translate(318.486 84.173)"><tspan x="0" y="0" class="st10 st4 st5">$229</tspan></text><path class="st8" d="M199.6 127.3c2.4 2.7 5 8.7 6.8 16.2.2.7.3 1.3.5 2"/><path class="st9" d="M199.7 130.5l-3.3-4.6 4.5-1.2-1.2 5.8z"/></svg>