<svg id="Layer_1" xmlns="http://www.w3.org/2000/svg" viewBox="0 0 375 367"><style>.st0{fill:none;stroke:#D9D9D8;stroke-width:0.72;stroke-linejoin:round;stroke-miterlimit:10;} .st1{fill:#DB7278;} .st2{fill:#FFFFFF;} .st3{font-family:&apos;Lato&apos;;font-weight:700;} .st4{font-size:8px;} .st5{fill:#6E635E;} .st6{fill:#46C3D3;} .st7{fill:#FCB763;} .st8{fill:#34B88C;} .st9{fill:#414042;} .st10{font-family:&apos;Lato&apos;;font-weight:700;} .st11{font-size:10px;} .st12{font-family:&apos;Lato&apos;;font-weight:400;}</style><path class="st0" d="M93.6 43.8V360m29.1-316.2V360m29.1-316.2V360M181 43.8V360m29.1-316.2V360m29.1-316.2V360m29.1-316.2V360m29.1-316.2V360m29.1-316.2V360m29.1-316.2V360"/><path class="st1" d="M64.5 51.2h114.7v27.5H64.5V51.2z"/><path class="st0" d="M64.5 43.8V360"/><text transform="translate(115.865 68.132)"><tspan x="0" y="0" class="st2 st3 st4">39%</tspan></text><path class="st1" d="M64.5 120h94.4v27.5H64.5V120z"/><text transform="translate(105.72 136.908)"><tspan x="0" y="0" class="st2 st3 st4">32%</tspan></text><path class="st1" d="M64.5 188.7h69.8v27.5H64.5v-27.5z"/><text transform="translate(93.415 205.69)"><tspan x="0" y="0" class="st2 st3 st4">24%</tspan></text><path class="st1" d="M64.5 257.5h101.8V285H64.5v-27.5z"/><text transform="translate(109.444 274.468)"><tspan x="0" y="0" class="st2 st3 st4">35%</tspan></text><path class="st1" d="M64.5 326.3h131v27.5h-131v-27.5z"/><text transform="translate(124.006 343.237)"><tspan x="0" y="0" class="st2 st3 st4">45%</tspan></text><path class="st5" d="M329.5 51.2h26.1v27.5h-26.1V51.2z"/><text transform="translate(338.363 68.132)"><tspan x="0" y="0" class="st2 st3 st4">9%</tspan></text><path class="st5" d="M291.2 120h64.4v27.5h-64.4V120z"/><text transform="translate(317.447 136.908)"><tspan x="0" y="0" class="st2 st3 st4">22%</tspan></text><path class="st5" d="M327.8 188.7h27.8v27.5h-27.8v-27.5z"/><text transform="translate(335.76 205.69)"><tspan x="0" y="0" class="st2 st3 st4">10%</tspan></text><path class="st5" d="M293.6 257.5h62V285h-62v-27.5z"/><text transform="translate(318.64 274.468)"><tspan x="0" y="0" class="st2 st3 st4">21%</tspan></text><path class="st5" d="M330.4 326.3h25.2v27.5h-25.2v-27.5z"/><text transform="translate(338.79 343.237)"><tspan x="0" y="0" class="st2 st3 st4">9%</tspan></text><path class="st6" d="M179.2 51.2h96.2v27.5h-96.2V51.2z"/><text transform="translate(221.327 68.132)"><tspan x="0" y="0" class="st2 st3 st4">33%</tspan></text><path class="st6" d="M158.9 120h100.2v27.5H158.9V120z"/><text transform="translate(203.074 136.908)"><tspan x="0" y="0" class="st2 st3 st4">34%</tspan></text><path class="st6" d="M134.3 188.7h137.6v27.5H134.3v-27.5z"/><text transform="translate(197.075 205.69)"><tspan x="0" y="0" class="st2 st3 st4">47%</tspan></text><path class="st6" d="M166.3 257.5h101.9V285H166.3v-27.5z"/><text transform="translate(211.272 274.468)"><tspan x="0" y="0" class="st2 st3 st4">35%</tspan></text><path class="st6" d="M195.5 326.3h68.3v27.5h-68.3v-27.5z"/><text transform="translate(223.643 343.237)"><tspan x="0" y="0" class="st2 st3 st4">23%</tspan></text><path class="st7" d="M275.4 51.2h42.3v27.5h-42.3V51.2z"/><text transform="translate(290.574 68.132)"><tspan x="0" y="0" class="st2 st3 st4">15%</tspan></text><path class="st7" d="M259.1 120h30.8v27.5h-30.8V120z"/><text transform="translate(268.567 136.908)"><tspan x="0" y="0" class="st2 st3 st4">11%</tspan></text><path class="st7" d="M271.9 188.7H309v27.5h-37.1v-27.5z"/><text transform="translate(284.448 205.69)"><tspan x="0" y="0" class="st2 st3 st4">13%</tspan></text><g><path class="st7" d="M268.2 257.5h18.7V285h-18.7v-27.5z"/><text transform="translate(273.32 274.468)"><tspan x="0" y="0" class="st2 st3 st4">6%</tspan></text></g><g><path class="st7" d="M263.8 326.3h61.9v27.5h-61.9v-27.5z"/><text transform="translate(288.75 343.237)"><tspan x="0" y="0" class="st2 st3 st4">21%</tspan></text></g><g><path class="st8" d="M317.7 51.2h11.8v27.5h-11.8V51.2z"/><text transform="translate(318.733 90.335)"><tspan x="0" y="0" class="st8 st3 st4">4%</tspan></text></g><g><path class="st8" d="M289.9 120h1.3v27.5h-1.3V120z"/><text transform="translate(285.055 159.11)"><tspan x="0" y="0" class="st8 st3 st4">0%</tspan></text></g><g><path class="st8" d="M309 188.7h18.8v27.5H309v-27.5z"/><text transform="translate(314.175 205.69)"><tspan x="0" y="0" class="st2 st3 st4">6%</tspan></text></g><g><path class="st8" d="M286.9 257.5h6.7V285h-6.7v-27.5z"/><text transform="translate(284.7 294.813)"><tspan x="0" y="0" class="st8 st3 st4">2%</tspan></text></g><g><path class="st8" d="M325.7 326.3h4.7v27.5h-4.7v-27.5z"/><text transform="translate(322.546 364.508)"><tspan x="0" y="0" class="st8 st3 st4">2%</tspan></text></g><g><text transform="translate(16.907 68.522)"><tspan x="0" y="0" class="st9 st10 st11">San Diego</tspan></text></g><g><text transform="translate(31.662 137.298)"><tspan x="0" y="0" class="st9 st12 st11">Fresno</tspan></text></g><g><text transform="translate(9.652 206.074)"><tspan x="0" y="0" class="st9 st12 st11">Los Angeles</tspan></text></g><g><text transform="translate(2.007 274.844)"><tspan x="0" y="0" class="st9 st12 st11">San Francisco</tspan></text></g><g><text transform="translate(23.997 343.62)"><tspan x="0" y="0" class="st9 st12 st11">San Jose</tspan></text></g><text transform="translate(27.83 16.125)"><tspan x="0" y="0" class="st1 st3 st11">Taxes</tspan></text><text transform="translate(150.004 27.875)"><tspan x="0" y="0" class="st8 st3 st11">Misc. General Revenue</tspan></text><text transform="translate(272.17 16.125)"><tspan x="0" y="0" class="st5 st3 st11">Intergovernmental</tspan><tspan x="0" y="12" class="st5 st3 st11">Revenue</tspan></text><text transform="translate(150.004 16.126)"><tspan x="0" y="0" class="st7 st3 st11">Other Program Charges</tspan></text><text transform="translate(27.83 27.875)"><tspan x="0" y="0" class="st6 st3 st11">City-Owned Enterprises</tspan></text></svg>