<?xml version="1.0" encoding="utf-8"?>
<!-- Generator: Adobe Illustrator 19.1.0, SVG Export Plug-In . SVG Version: 6.00 Build 0)  -->
<svg version="1.1" id="Layer_1" xmlns="http://www.w3.org/2000/svg" xmlns:xlink="http://www.w3.org/1999/xlink" x="0px" y="0px"
	 viewBox="0 0 375 367" style="enable-background:new 0 0 375 367;" xml:space="preserve">
<style type="text/css">
	.st0{fill:none;stroke:#D9D9D8;stroke-width:0.72;stroke-linejoin:round;stroke-miterlimit:10;}
	.st1{fill:#DB7278;}
	.st2{fill:#FFFFFF;}
	.st3{font-family:'Lato-Heavy';}
	.st4{font-size:8px;}
	.st5{fill:#6E635E;}
	.st6{fill:#46C3D3;}
	.st7{fill:#FCB763;}
	.st8{fill:#34B88C;}
	.st9{fill:#414042;}
	.st10{font-family:'Lato-Bold';}
	.st11{font-size:10px;}
	.st12{font-family:'Lato-Regular';}
</style>
<path class="st0" d="M93.6,43.8V360 M122.7,43.8V360 M151.8,43.8V360 M181,43.8V360 M210.1,43.8V360 M239.2,43.8V360 M268.3,43.8
	V360 M297.4,43.8V360 M326.5,43.8V360 M355.6,43.8V360"/>
<polygon class="st1" points="64.5,51.2 179.2,51.2 179.2,78.7 64.5,78.7 64.5,51.2 "/>
<line class="st0" x1="64.5" y1="43.8" x2="64.5" y2="360"/>
<text transform="matrix(1 0 0 1 115.8652 68.1318)"><tspan x="0" y="0" class="st2 st3 st4">39</tspan><tspan x="9.4" y="0" class="st2 st3 st4">%</tspan></text>
<g>
	<polygon class="st1" points="64.5,120 158.9,120 158.9,147.5 64.5,147.5 64.5,120 	"/>
	<text transform="matrix(1 0 0 1 105.7197 136.9082)"><tspan x="0" y="0" class="st2 st3 st4">32</tspan><tspan x="9.4" y="0" class="st2 st3 st4">%</tspan></text>
</g>
<g>
	<polygon class="st1" points="64.5,188.7 134.3,188.7 134.3,216.2 64.5,216.2 64.5,188.7 	"/>
	<text transform="matrix(1 0 0 1 93.415 205.6914)"><tspan x="0" y="0" class="st2 st3 st4">24</tspan><tspan x="9.4" y="0" class="st2 st3 st4">%</tspan></text>
</g>
<g>
	<polygon class="st1" points="64.5,257.5 166.3,257.5 166.3,285 64.5,285 64.5,257.5 	"/>
	<text transform="matrix(1 0 0 1 109.4439 274.4678)"><tspan x="0" y="0" class="st2 st3 st4">35</tspan><tspan x="9.4" y="0" class="st2 st3 st4">%</tspan></text>
</g>
<g>
	<polygon class="st1" points="64.5,326.3 195.5,326.3 195.5,353.8 64.5,353.8 64.5,326.3 	"/>
	<text transform="matrix(1 0 0 1 124.0064 343.2373)"><tspan x="0" y="0" class="st2 st3 st4">45</tspan><tspan x="9.4" y="0" class="st2 st3 st4">%</tspan></text>
</g>
<g>
	<polygon class="st5" points="329.5,51.2 355.6,51.2 355.6,78.7 329.5,78.7 329.5,51.2 	"/>
	<text transform="matrix(1 0 0 1 338.3625 68.1318)"><tspan x="0" y="0" class="st2 st3 st4">9</tspan><tspan x="4.7" y="0" class="st2 st3 st4">%</tspan></text>
</g>
<g>
	<polygon class="st5" points="291.2,120 355.6,120 355.6,147.5 291.2,147.5 291.2,120 	"/>
	<text transform="matrix(1 0 0 1 317.4468 136.9082)"><tspan x="0" y="0" class="st2 st3 st4">22</tspan><tspan x="9.4" y="0" class="st2 st3 st4">%</tspan></text>
</g>
<g>
	<polygon class="st5" points="327.8,188.7 355.6,188.7 355.6,216.2 327.8,216.2 327.8,188.7 	"/>
	<text transform="matrix(1 0 0 1 335.7595 205.6914)"><tspan x="0" y="0" class="st2 st3 st4">10</tspan><tspan x="9.4" y="0" class="st2 st3 st4">%</tspan></text>
</g>
<g>
	<polygon class="st5" points="293.6,257.5 355.6,257.5 355.6,285 293.6,285 293.6,257.5 	"/>
	<text transform="matrix(1 0 0 1 318.6394 274.4678)"><tspan x="0" y="0" class="st2 st3 st4">21</tspan><tspan x="9.4" y="0" class="st2 st3 st4">%</tspan></text>
</g>
<g>
	<polygon class="st5" points="330.4,326.3 355.6,326.3 355.6,353.8 330.4,353.8 330.4,326.3 	"/>
	<text transform="matrix(1 0 0 1 338.7886 343.2373)"><tspan x="0" y="0" class="st2 st3 st4">9</tspan><tspan x="4.7" y="0" class="st2 st3 st4">%</tspan></text>
</g>
<g>
	<polygon class="st6" points="179.2,51.2 275.4,51.2 275.4,78.7 179.2,78.7 179.2,51.2 	"/>
	<text transform="matrix(1 0 0 1 221.3274 68.1318)"><tspan x="0" y="0" class="st2 st3 st4">33</tspan><tspan x="9.4" y="0" class="st2 st3 st4">%</tspan></text>
</g>
<g>
	<polygon class="st6" points="158.9,120 259.1,120 259.1,147.5 158.9,147.5 158.9,120 	"/>
	<text transform="matrix(1 0 0 1 203.0743 136.9082)"><tspan x="0" y="0" class="st2 st3 st4">34</tspan><tspan x="9.4" y="0" class="st2 st3 st4">%</tspan></text>
</g>
<g>
	<polygon class="st6" points="134.3,188.7 271.9,188.7 271.9,216.2 134.3,216.2 134.3,188.7 	"/>
	<text transform="matrix(1 0 0 1 197.0753 205.6914)"><tspan x="0" y="0" class="st2 st3 st4">47</tspan><tspan x="9.4" y="0" class="st2 st3 st4">%</tspan></text>
</g>
<g>
	<polygon class="st6" points="166.3,257.5 268.2,257.5 268.2,285 166.3,285 166.3,257.5 	"/>
	<text transform="matrix(1 0 0 1 211.2722 274.4678)"><tspan x="0" y="0" class="st2 st3 st4">35</tspan><tspan x="9.4" y="0" class="st2 st3 st4">%</tspan></text>
</g>
<g>
	<polygon class="st6" points="195.5,326.3 263.8,326.3 263.8,353.8 195.5,353.8 195.5,326.3 	"/>
	<text transform="matrix(1 0 0 1 223.6428 343.2373)"><tspan x="0" y="0" class="st2 st3 st4">23</tspan><tspan x="9.4" y="0" class="st2 st3 st4">%</tspan></text>
</g>
<g>
	<polygon class="st7" points="275.4,51.2 317.7,51.2 317.7,78.7 275.4,78.7 275.4,51.2 	"/>
	<text transform="matrix(1 0 0 1 290.5744 68.1318)"><tspan x="0" y="0" class="st2 st3 st4">15</tspan><tspan x="9.4" y="0" class="st2 st3 st4">%</tspan></text>
</g>
<g>
	<polygon class="st7" points="259.1,120 289.9,120 289.9,147.5 259.1,147.5 259.1,120 	"/>
	<text transform="matrix(1 0 0 1 268.5674 136.9082)"><tspan x="0" y="0" class="st2 st3 st4">11</tspan><tspan x="9.4" y="0" class="st2 st3 st4">%</tspan></text>
</g>
<g>
	<polygon class="st7" points="271.9,188.7 309,188.7 309,216.2 271.9,216.2 271.9,188.7 	"/>
	<text transform="matrix(1 0 0 1 284.4484 205.6914)"><tspan x="0" y="0" class="st2 st3 st4">13</tspan><tspan x="9.4" y="0" class="st2 st3 st4">%</tspan></text>
</g>
<g>
	<polygon class="st7" points="268.2,257.5 286.9,257.5 286.9,285 268.2,285 268.2,257.5 	"/>
	<text transform="matrix(1 0 0 1 273.3201 274.4678)"><tspan x="0" y="0" class="st2 st3 st4">6</tspan><tspan x="4.7" y="0" class="st2 st3 st4">%</tspan></text>
</g>
<g>
	<polygon class="st7" points="263.8,326.3 325.7,326.3 325.7,353.8 263.8,353.8 263.8,326.3 	"/>
	<text transform="matrix(1 0 0 1 288.7512 343.2373)"><tspan x="0" y="0" class="st2 st3 st4">21</tspan><tspan x="9.4" y="0" class="st2 st3 st4">%</tspan></text>
</g>
<g>
	<polygon class="st8" points="317.7,51.2 329.5,51.2 329.5,78.7 317.7,78.7 317.7,51.2 	"/>
	<text transform="matrix(1 0 0 1 318.7326 90.335)"><tspan x="0" y="0" class="st8 st3 st4">4</tspan><tspan x="4.7" y="0" class="st8 st3 st4">%</tspan></text>
</g>
<g>
	<polygon class="st8" points="289.9,120 291.2,120 291.2,147.5 289.9,147.5 289.9,120 	"/>
	<text transform="matrix(1 0 0 1 285.0547 159.1104)"><tspan x="0" y="0" class="st8 st3 st4">0</tspan><tspan x="4.7" y="0" class="st8 st3 st4">%</tspan></text>
</g>
<g>
	<polygon class="st8" points="309,188.7 327.8,188.7 327.8,216.2 309,216.2 309,188.7 	"/>
	<text transform="matrix(1 0 0 1 314.175 205.6914)"><tspan x="0" y="0" class="st2 st3 st4">6</tspan><tspan x="4.7" y="0" class="st2 st3 st4">%</tspan></text>
</g>
<g>
	<polygon class="st8" points="286.9,257.5 293.6,257.5 293.6,285 286.9,285 286.9,257.5 	"/>
	<text transform="matrix(1 0 0 1 284.699 294.8125)"><tspan x="0" y="0" class="st8 st3 st4">2</tspan><tspan x="4.7" y="0" class="st8 st3 st4">%</tspan></text>
</g>
<g>
	<polygon class="st8" points="325.7,326.3 330.4,326.3 330.4,353.8 325.7,353.8 325.7,326.3 	"/>
	<text transform="matrix(1 0 0 1 322.5461 364.5078)"><tspan x="0" y="0" class="st8 st3 st4">2</tspan><tspan x="4.7" y="0" class="st8 st3 st4">%</tspan></text>
</g>
<g>
	<text transform="matrix(1 0 0 1 16.9072 68.5224)"><tspan x="0" y="0" class="st9 st10 st11">S</tspan><tspan x="5.4" y="0" class="st9 st10 st11">a</tspan><tspan x="10.4" y="0" class="st9 st10 st11">n</tspan><tspan x="15.9" y="0" class="st9 st10 st11"> </tspan><tspan x="18.4" y="0" class="st9 st10 st11">Di</tspan><tspan x="28.4" y="0" class="st9 st10 st11">e</tspan><tspan x="33.6" y="0" class="st9 st10 st11">g</tspan><tspan x="38.9" y="0" class="st9 st10 st11">o</tspan></text>
</g>
<g>
	<text transform="matrix(1 0 0 1 31.6616 137.2978)"><tspan x="0" y="0" class="st9 st12 st11">F</tspan><tspan x="5.6" y="0" class="st9 st12 st11">r</tspan><tspan x="9.1" y="0" class="st9 st12 st11">e</tspan><tspan x="14.4" y="0" class="st9 st12 st11">s</tspan><tspan x="18.6" y="0" class="st9 st12 st11">n</tspan><tspan x="24.2" y="0" class="st9 st12 st11">o</tspan></text>
</g>
<g>
	<text transform="matrix(1 0 0 1 9.6519 206.0741)"><tspan x="0" y="0" class="st9 st12 st11">L</tspan><tspan x="5.1" y="0" class="st9 st12 st11">o</tspan><tspan x="10.7" y="0" class="st9 st12 st11">s</tspan><tspan x="15" y="0" class="st9 st12 st11"> </tspan><tspan x="17.4" y="0" class="st9 st12 st11">An</tspan><tspan x="29.6" y="0" class="st9 st12 st11">g</tspan><tspan x="34.8" y="0" class="st9 st12 st11">e</tspan><tspan x="40" y="0" class="st9 st12 st11">l</tspan><tspan x="42.3" y="0" class="st9 st12 st11">e</tspan><tspan x="47.6" y="0" class="st9 st12 st11">s</tspan></text>
</g>
<g>
	<text transform="matrix(1 0 0 1 2.0068 274.8437)"><tspan x="0" y="0" class="st9 st12 st11">S</tspan><tspan x="5.4" y="0" class="st9 st12 st11">a</tspan><tspan x="10.2" y="0" class="st9 st12 st11">n</tspan><tspan x="15.7" y="0" class="st9 st12 st11"> </tspan><tspan x="18.3" y="0" class="st9 st12 st11">F</tspan><tspan x="23.9" y="0" class="st9 st12 st11">r</tspan><tspan x="27.4" y="0" class="st9 st12 st11">a</tspan><tspan x="32.4" y="0" class="st9 st12 st11">n</tspan><tspan x="37.9" y="0" class="st9 st12 st11">ci</tspan><tspan x="44.9" y="0" class="st9 st12 st11">s</tspan><tspan x="49.1" y="0" class="st9 st12 st11">co</tspan></text>
</g>
<g>
	<text transform="matrix(1 0 0 1 23.9966 343.6201)"><tspan x="0" y="0" class="st9 st12 st11">S</tspan><tspan x="5.4" y="0" class="st9 st12 st11">a</tspan><tspan x="10.2" y="0" class="st9 st12 st11">n</tspan><tspan x="15.7" y="0" class="st9 st12 st11"> </tspan><tspan x="18.3" y="0" class="st9 st12 st11">J</tspan><tspan x="22.5" y="0" class="st9 st12 st11">o</tspan><tspan x="28.1" y="0" class="st9 st12 st11">s</tspan><tspan x="32.3" y="0" class="st9 st12 st11">e</tspan></text>
</g>
<text transform="matrix(1 0 0 1 27.8295 16.1255)"><tspan x="0" y="0" class="st1 st3 st11">T</tspan><tspan x="6.1" y="0" class="st1 st3 st11">a</tspan><tspan x="11.2" y="0" class="st1 st3 st11">x</tspan><tspan x="16.5" y="0" class="st1 st3 st11">e</tspan><tspan x="21.8" y="0" class="st1 st3 st11">s</tspan></text>
<text transform="matrix(1 0 0 1 150.0039 27.8752)"><tspan x="0" y="0" class="st8 st3 st11">M</tspan><tspan x="9.6" y="0" class="st8 st3 st11">i</tspan><tspan x="12.2" y="0" class="st8 st3 st11">s</tspan><tspan x="16.6" y="0" class="st8 st3 st11">c</tspan><tspan x="21.5" y="0" class="st8 st3 st11">.</tspan><tspan x="23.9" y="0" class="st8 st3 st11"> </tspan><tspan x="26.1" y="0" class="st8 st3 st11">G</tspan><tspan x="33.3" y="0" class="st8 st3 st11">e</tspan><tspan x="38.7" y="0" class="st8 st3 st11">n</tspan><tspan x="44.3" y="0" class="st8 st3 st11">e</tspan><tspan x="49.7" y="0" class="st8 st3 st11">r</tspan><tspan x="53.5" y="0" class="st8 st3 st11">a</tspan><tspan x="58.6" y="0" class="st8 st3 st11">l</tspan><tspan x="61.1" y="0" class="st8 st3 st11"> Revenue</tspan></text>
<text transform="matrix(1 0 0 1 272.1691 16.1252)"><tspan x="0" y="0" class="st5 st3 st11">I</tspan><tspan x="3" y="0" class="st5 st3 st11">n</tspan><tspan x="8.7" y="0" class="st5 st3 st11">t</tspan><tspan x="12.5" y="0" class="st5 st3 st11">e</tspan><tspan x="17.8" y="0" class="st5 st3 st11">r</tspan><tspan x="21.6" y="0" class="st5 st3 st11">g</tspan><tspan x="26.9" y="0" class="st5 st3 st11">o</tspan><tspan x="32.7" y="0" class="st5 st3 st11">v</tspan><tspan x="38" y="0" class="st5 st3 st11">e</tspan><tspan x="43.4" y="0" class="st5 st3 st11">r</tspan><tspan x="47.2" y="0" class="st5 st3 st11">n</tspan><tspan x="52.8" y="0" class="st5 st3 st11">m</tspan><tspan x="61.3" y="0" class="st5 st3 st11">e</tspan><tspan x="66.6" y="0" class="st5 st3 st11">n</tspan><tspan x="72.3" y="0" class="st5 st3 st11">t</tspan><tspan x="76.1" y="0" class="st5 st3 st11">a</tspan><tspan x="81.2" y="0" class="st5 st3 st11">l  </tspan><tspan x="0" y="12" class="st5 st3 st11">Revenue</tspan></text>
<text transform="matrix(1 0 0 1 150.0041 16.1257)"><tspan x="0" y="0" class="st7 st3 st11">O</tspan><tspan x="8.1" y="0" class="st7 st3 st11">t</tspan><tspan x="11.9" y="0" class="st7 st3 st11">h</tspan><tspan x="17.6" y="0" class="st7 st3 st11">e</tspan><tspan x="22.9" y="0" class="st7 st3 st11">r</tspan><tspan x="26.7" y="0" class="st7 st3 st11"> </tspan><tspan x="28.9" y="0" class="st7 st3 st11">Pr</tspan><tspan x="39" y="0" class="st7 st3 st11">o</tspan><tspan x="44.8" y="0" class="st7 st3 st11">g</tspan><tspan x="50.1" y="0" class="st7 st3 st11">r</tspan><tspan x="53.9" y="0" class="st7 st3 st11">a</tspan><tspan x="59" y="0" class="st7 st3 st11">m</tspan><tspan x="67.5" y="0" class="st7 st3 st11"> Charges </tspan></text>
<text transform="matrix(1 0 0 1 27.8294 27.8754)"><tspan x="0" y="0" class="st6 st3 st11">City-</tspan><tspan x="22" y="0" class="st6 st3 st11">O</tspan><tspan x="30.2" y="0" class="st6 st3 st11">w</tspan><tspan x="38.2" y="0" class="st6 st3 st11">n</tspan><tspan x="43.9" y="0" class="st6 st3 st11">e</tspan><tspan x="49.2" y="0" class="st6 st3 st11">d</tspan><tspan x="55" y="0" class="st6 st3 st11"> Enterprises </tspan></text>
</svg>
