<?xml version="1.0" encoding="utf-8"?>
<!DOCTYPE svg PUBLIC "-//W3C//DTD SVG 1.1//EN" "http://www.w3.org/Graphics/SVG/1.1/DTD/svg11.dtd">
<svg version="1.1" id="Layer_1" xmlns="http://www.w3.org/2000/svg" xmlns:xlink="http://www.w3.org/1999/xlink" x="0px" y="0px"
	 width="1024px" height="467px" viewBox="0 281.5 1024 467" enable-background="new 0 281.5 1024 467" xml:space="preserve">
<path fill="none" stroke="#D1D3D4" stroke-width="0.5" stroke-linejoin="round" stroke-miterlimit="10" d="M83.599,646.525h932.917
	 M83.599,576.068h932.917 M83.599,505.794h932.917 M83.599,435.52h932.917 M83.599,365.245h932.917 M83.599,294.788h932.917"/>
<polyline fill="#58B78D" points="83.417,518.938 122.296,520.031 161.175,517.476 200.054,522.404 238.933,520.762 277.813,517.293
	316.691,519.666 355.57,513.095 394.45,498.857 433.329,497.945 472.208,489.549 511.087,473.668 549.967,466.367 588.846,463.629
	627.725,437.162 666.604,420.734 705.483,372.546 744.362,357.213 783.241,353.928 822.12,353.38 861,386.054 899.879,394.085
	938.758,400.656 977.637,430.408 1016.518,414.894 1016.518,716.982 83.417,716.982 83.417,518.938 "/>
<polyline fill="#F06392" points="83.417,594.139 122.296,601.44 161.175,595.417 200.054,598.702 238.933,598.52 277.813,592.496
	316.691,593.592 355.57,586.473 394.45,572.418 433.329,573.695 472.208,568.768 511.087,557.998 549.967,558.181 588.846,562.744
	627.725,544.49 666.604,541.205 705.483,534.451 744.362,534.269 783.241,542.482 822.12,553.435 861,570.41 899.879,566.941
	938.758,554.895 977.637,557.268 1016.518,551.063 1016.518,716.982 83.417,714.063 83.417,594.139 "/>
<polyline fill="#70B2E2" points="588.846,643.24 627.725,628.09 666.604,624.257 705.483,623.709 744.362,618.051 783.241,624.257
	822.12,623.344 861,626.813 899.879,632.653 938.758,627.907 977.637,629.55 1016.518,623.709 1016.518,714.063 588.343,714.063
	588.846,643.24 "/>
<polyline fill="#2B66B1" points="83.417,661.676 122.296,666.786 161.175,657.843 200.054,662.223 238.933,662.953 277.813,659.485
	316.691,646.708 355.57,646.343 394.45,648.716 433.329,648.898 472.208,648.351 511.087,642.875 549.967,641.05 588.846,643.24
	627.725,667.882 666.604,665.326 705.483,668.43 744.362,666.786 783.241,672.445 822.12,665.509 861,663.136 899.879,672.08
	938.758,668.977 977.637,672.263 1016.518,668.247 1016.518,716.982 977.637,716.982 938.758,716.982 899.879,716.982 861,716.982
	822.12,716.982 783.241,716.982 744.362,716.982 705.483,716.982 666.604,716.982 627.725,716.982 588.846,716.982 549.967,716.982
	511.087,716.982 472.208,716.982 433.329,716.982 394.45,716.982 355.57,716.982 316.691,716.982 277.813,716.982 238.933,716.982
	200.054,716.982 161.175,716.982 122.296,716.982 83.417,716.982 83.417,661.676 "/>
<line fill="none" stroke="#58595B" stroke-width="0.5" stroke-linejoin="round" stroke-miterlimit="10" x1="83.599" y1="716.982" x2="1016.518" y2="716.982"/>
<path fill="#414042" stroke="#58595B" stroke-width="0.5" stroke-linejoin="round" stroke-miterlimit="10" d="M83.599,714.063v5.658
	 M277.813,714.063v5.658 M472.208,714.063v5.658 M666.604,714.063v5.658 M861,714.063v5.658"/>
<g>
	<text transform="matrix(1 0 0 1 41.5859 723.3994)" fill="#414042" style="font-family:'Lato';font-weight:400;" font-size="18.2531">$0</text>
</g>
<g>
	<text transform="matrix(1 0 0 1 20.4131 653.043)" fill="#414042" style="font-family:'Lato';font-weight:400;" font-size="18.2531">$200</text>
</g>
<g>
	<text transform="matrix(1 0 0 1 20.4131 582.6836)" fill="#414042" style="font-family:'Lato';font-weight:400;" font-size="18.2531">$400</text>
</g>
<g>
	<text transform="matrix(1 0 0 1 20.4131 512.3271)" fill="#414042" style="font-family:'Lato';font-weight:400;" font-size="18.2531">$600</text>
</g>
<g>
	<text transform="matrix(1 0 0 1 20.4131 441.9688)" fill="#414042" style="font-family:'Lato';font-weight:400;" font-size="18.2531">$800</text>
</g>
<g>
	<text transform="matrix(1 0 0 1 5.6279 371.6123)" fill="#414042" style="font-family:'Lato';font-weight:400;" font-size="18.2531">$1,000</text>
</g>
<g>
	<text transform="matrix(1 0 0 1 5.6279 301.2627)" fill="#414042" style="font-family:'Lato';font-weight:400;" font-size="18.2531">$1,200</text>
</g>
<g>
	<text transform="matrix(1 0 0 1 60.6699 740.1641)" fill="#414042" style="font-family:'Lato';font-weight:400;" font-size="18.2531">1990</text>
</g>
<g>
	<text transform="matrix(1 0 0 1 255.0596 740.1641)" fill="#414042" style="font-family:'Lato';font-weight:400;" font-size="18.2531">1995</text>
</g>
<g>
	<text transform="matrix(1 0 0 1 449.4727 740.1641)" fill="#414042" style="font-family:'Lato';font-weight:400;" font-size="18.2531">2000</text>
</g>
<g>
	<text transform="matrix(1 0 0 1 643.8838 740.1641)" fill="#414042" style="font-family:'Lato';font-weight:400;" font-size="18.2531">2005</text>
</g>
<g>
	<text transform="matrix(1 0 0 1 838.2852 740.1641)" fill="#414042" style="font-family:'Lato';font-weight:400;" font-size="18.2531">2010</text>
</g>
<text transform="matrix(1 0 0 1 360.1138 691.8516)" fill="#FFFFFF" style="font-family:'Lato';font-weight:700;" font-size="18.2531">Other Taxes</text>
<text transform="matrix(1 0 0 1 749.4473 652.3027)" fill="#FFFFFF" style="font-family:'Lato';font-weight:700;" font-size="18.2531">Hotel Taxes</text>
<text transform="matrix(1 0 0 1 184.7471 628.8799)" fill="#FFFFFF" style="font-family:'Lato';font-weight:700;" font-size="18.2531">Sales Taxes</text>
<text transform="matrix(1 0 0 1 595.9824 511.0371)" fill="#FFFFFF" style="font-family:'Lato';font-weight:700;" font-size="18.2531">Property Taxes</text>
</svg>
