<?xml version="1.0" encoding="utf-8"?>
<!-- Generator: Adobe Illustrator 19.1.0, SVG Export Plug-In . SVG Version: 6.00 Build 0)  -->
<svg version="1.1" id="Layer_1" xmlns="http://www.w3.org/2000/svg" xmlns:xlink="http://www.w3.org/1999/xlink" x="0px" y="0px"
	 viewBox="0 0 561 252" style="enable-background:new 0 0 561 252;" xml:space="preserve">
<style type="text/css">
	.st0{fill:none;stroke:#D1D3D4;stroke-width:0.5;stroke-linejoin:round;stroke-miterlimit:10;}
	.st1{fill-rule:evenodd;clip-rule:evenodd;fill:#2B66B1;}
	.st2{fill-rule:evenodd;clip-rule:evenodd;fill:#70B2E2;}
	.st3{fill-rule:evenodd;clip-rule:evenodd;fill:#F06392;}
	.st4{fill-rule:evenodd;clip-rule:evenodd;fill:#58B78D;}
	.st5{fill:#414042;stroke:#58595B;stroke-width:0.5;stroke-linejoin:round;stroke-miterlimit:10;}
	.st6{fill:#414042;}
	.st7{font-family:'Lato-Regular';}
	.st8{font-size:10px;}
	.st9{fill:#FFFFFF;}
	.st10{font-family:'Lato-Heavy';}
</style>
<path class="st0" d="M45.8,199.7h511.1 M45.8,161.1h511.1 M45.8,122.6h511.1 M45.8,84.1h511.1 M45.8,45.6h511.1 M45.8,7h511.1"/>
<polyline class="st1" points="45.7,208 67,210.8 88.3,205.9 109.6,208.3 130.9,208.7 152.2,206.8 173.5,199.8 194.8,199.6 
	216.1,200.9 237.4,201 258.7,200.7 280,197.7 301.3,196.7 322.6,197.9 343.9,211.4 365.2,210 386.5,211.7 407.8,210.8 429.1,213.9 
	450.4,210.1 471.7,208.8 493,213.7 514.3,212 535.6,213.8 556.9,211.6 556.9,238.3 535.6,238.3 514.3,238.3 493,238.3 471.7,238.3 
	450.4,238.3 429.1,238.3 407.8,238.3 386.5,238.3 365.2,238.3 343.9,238.3 322.6,238.3 301.3,238.3 280,238.3 258.7,238.3 
	237.4,238.3 216.1,238.3 194.8,238.3 173.5,238.3 152.2,238.3 130.9,238.3 109.6,238.3 88.3,238.3 67,238.3 45.7,238.3 45.7,208 "/>
<polyline class="st2" points="45.7,208 67,210.8 88.3,205.9 109.6,208.3 130.9,208.7 152.2,206.8 173.5,199.8 194.8,199.6 
	216.1,200.9 237.4,201 258.7,200.7 280,197.7 301.3,196.7 322.6,197.9 343.9,189.6 365.2,187.5 386.5,187.2 407.8,184.1 
	429.1,187.5 450.4,187 471.7,188.9 493,192.1 514.3,189.5 535.6,190.4 556.9,187.2 556.9,211.6 535.6,213.8 514.3,212 493,213.7 
	471.7,208.8 450.4,210.1 429.1,213.9 407.8,210.8 386.5,211.7 365.2,210 343.9,211.4 322.6,197.9 301.3,196.7 280,197.7 
	258.7,200.7 237.4,201 216.1,200.9 194.8,199.6 173.5,199.8 152.2,206.8 130.9,208.7 109.6,208.3 88.3,205.9 67,210.8 45.7,208 
	45.7,208 "/>
<polyline class="st3" points="45.7,171 67,175 88.3,171.7 109.6,173.5 130.9,173.4 152.2,170.1 173.5,170.7 194.8,166.8 
	216.1,159.1 237.4,159.8 258.7,157.1 280,151.2 301.3,151.3 322.6,153.8 343.9,143.8 365.2,142 386.5,138.3 407.8,138.2 
	429.1,142.7 450.4,148.7 471.7,158 493,156.1 514.3,149.5 535.6,150.8 556.9,147.4 556.9,187.2 535.6,190.4 514.3,189.5 493,192.1 
	471.7,188.9 450.4,187 429.1,187.5 407.8,184.1 386.5,187.2 365.2,187.5 343.9,189.6 322.6,197.9 301.3,196.7 280,197.7 
	258.7,200.7 237.4,201 216.1,200.9 194.8,199.6 173.5,199.8 152.2,206.8 130.9,208.7 109.6,208.3 88.3,205.9 67,210.8 45.7,208 
	45.7,171 "/>
<polyline class="st4" points="45.7,129.8 67,130.4 88.3,129 109.6,131.7 130.9,130.8 152.2,128.9 173.5,130.2 194.8,126.6 
	216.1,118.8 237.4,118.3 258.7,113.7 280,105 301.3,101 322.6,99.5 343.9,85 365.2,76 386.5,49.6 407.8,41.2 429.1,39.4 450.4,39.1 
	471.7,57 493,61.4 514.3,65 535.6,81.3 556.9,72.8 556.9,147.4 535.6,150.8 514.3,149.5 493,156.1 471.7,158 450.4,148.7 
	429.1,142.7 407.8,138.2 386.5,138.3 365.2,142 343.9,143.8 322.6,153.8 301.3,151.3 280,151.2 258.7,157.1 237.4,159.8 
	216.1,159.1 194.8,166.8 173.5,170.7 152.2,170.1 130.9,173.4 109.6,173.5 88.3,171.7 67,175 45.7,171 45.7,129.8 "/>
<line class="st5" x1="45.8" y1="238.3" x2="556.9" y2="238.3"/>
<path class="st5" d="M45.8,236.7v3.1 M152.2,236.7v3.1 M258.7,236.7v3.1 M365.2,236.7v3.1 M471.7,236.7v3.1"/>
<g>
	<text transform="matrix(1 0 0 1 22.7827 241.8153)" class="st6 st7 st8">$0</text>
</g>
<g>
	<text transform="matrix(1 0 0 1 11.1831 203.2704)" class="st6 st7 st8">$200</text>
</g>
<g>
	<text transform="matrix(1 0 0 1 11.1831 164.7245)" class="st6 st7 st8">$400</text>
</g>
<g>
	<text transform="matrix(1 0 0 1 11.1831 126.1795)" class="st6 st7 st8">$600</text>
</g>
<g>
	<text transform="matrix(1 0 0 1 11.1831 87.6336)" class="st6 st7 st8">$800</text>
</g>
<g>
	<text transform="matrix(1 0 0 1 3.083 49.0887)"><tspan x="0" y="0" class="st6 st7 st8">$1</tspan><tspan x="11.6" y="0" class="st6 st7 st8">,</tspan><tspan x="13.9" y="0" class="st6 st7 st8">000</tspan></text>
</g>
<g>
	<text transform="matrix(1 0 0 1 3.083 10.5477)"><tspan x="0" y="0" class="st6 st7 st8">$1</tspan><tspan x="11.6" y="0" class="st6 st7 st8">,</tspan><tspan x="13.9" y="0" class="st6 st7 st8">200</tspan></text>
</g>
<g>
	<text transform="matrix(1 0 0 1 33.2382 250.9998)" class="st6 st7 st8">1990</text>
</g>
<g>
	<text transform="matrix(1 0 0 1 139.7348 250.9998)" class="st6 st7 st8">1995</text>
</g>
<g>
	<text transform="matrix(1 0 0 1 246.2441 250.9998)" class="st6 st7 st8">2000</text>
</g>
<g>
	<text transform="matrix(1 0 0 1 352.7529 250.9998)" class="st6 st7 st8">2005</text>
</g>
<g>
	<text transform="matrix(1 0 0 1 459.2558 250.9998)" class="st6 st7 st8">2010</text>
</g>
<text transform="matrix(1 0 0 1 197.2894 224.5322)"><tspan x="0" y="0" class="st9 st10 st8">Other</tspan><tspan x="26.7" y="0" class="st9 st10 st8"> </tspan><tspan x="28.8" y="0" class="st9 st10 st8">T</tspan><tspan x="33.9" y="0" class="st9 st10 st8">a</tspan><tspan x="39" y="0" class="st9 st10 st8">x</tspan><tspan x="44.3" y="0" class="st9 st10 st8">es </tspan></text>
<text transform="matrix(1 0 0 1 410.5858 202.8652)"><tspan x="0" y="0" class="st9 st10 st8">Hotel</tspan><tspan x="25.2" y="0" class="st9 st10 st8"> </tspan><tspan x="27.3" y="0" class="st9 st10 st8">T</tspan><tspan x="32.4" y="0" class="st9 st10 st8">a</tspan><tspan x="37.5" y="0" class="st9 st10 st8">x</tspan><tspan x="42.8" y="0" class="st9 st10 st8">es </tspan></text>
<g>
	<text transform="matrix(1 0 0 1 101.2142 190.0327)" class="st9 st10 st8">Sales Taxes </text>
</g>
<g>
	<text transform="matrix(1 0 0 1 326.5101 125.4726)" class="st9 st10 st8">Property Taxes </text>
</g>
</svg>
