<svg xmlns="http://www.w3.org/2000/svg" width="1024" height="467" viewBox="0 281.5 1024 467"><path fill="none" stroke="#D1D3D4" stroke-width=".5" stroke-linejoin="round" stroke-miterlimit="10" d="M83.6 646.525h932.916M83.6 576.068h932.916M83.6 505.794h932.916M83.6 435.52h932.916M83.6 365.245h932.916M83.6 294.788h932.916"/><path fill="#58B78D" d="M83.417 518.938l38.88 1.093 38.878-2.554 38.88 4.928 38.878-1.642 38.88-3.47 38.878 2.374 38.88-6.57 38.88-14.24 38.88-.91 38.878-8.397 38.88-15.882 38.88-7.3 38.878-2.74 38.88-26.466 38.878-16.428 38.88-48.188 38.878-15.333 38.88-3.285 38.878-.548L861 386.054l38.88 8.03 38.878 6.572 38.88 29.752 38.88-15.514v302.088h-933.1V518.938"/><path fill="#F06392" d="M83.417 594.14l38.88 7.3 38.878-6.023 38.88 3.285 38.878-.182 38.88-6.024 38.878 1.096 38.88-7.12 38.88-14.054 38.88 1.277 38.878-4.927 38.88-10.77 38.88.183 38.878 4.564 38.88-18.254 38.878-3.285 38.88-6.754 38.878-.18 38.88 8.212 38.878 10.953L861 570.41l38.88-3.47 38.878-12.045 38.88 2.373 38.88-6.205v165.92l-933.1-2.92V594.14"/><path fill="#70B2E2" d="M588.846 643.24l38.88-15.15 38.878-3.833 38.88-.548 38.878-5.66 38.88 6.207 38.878-.913 38.88 3.47 38.88 5.84 38.878-4.747 38.88 1.643 38.88-5.84v90.353H588.343l.503-70.823"/><path fill="#2B66B1" d="M83.417 661.676l38.88 5.11 38.878-8.943 38.88 4.38 38.878.73 38.88-3.468 38.878-12.777 38.88-.365 38.88 2.373 38.88.182 38.878-.547 38.88-5.475 38.88-1.825 38.878 2.19 38.88 24.642 38.878-2.556 38.88 3.104 38.878-1.644 38.88 5.66 38.878-6.937 38.88-2.374 38.88 8.944 38.878-3.103 38.88 3.286 38.88-4.016v48.735H83.417v-55.306"/><path fill="none" stroke="#58595B" stroke-width=".5" stroke-linejoin="round" stroke-miterlimit="10" d="M83.6 716.982h932.918"/><path fill="#414042" stroke="#58595B" stroke-width=".5" stroke-linejoin="round" stroke-miterlimit="10" d="M83.6 714.063v5.658m194.213-5.657v5.658m194.395-5.657v5.658m194.396-5.657v5.658M861 714.064v5.658"/><text transform="translate(41.586 723.4)" fill="#414042" font-size="18.253" font-family="Lato" font-weight="400">$0</text><text transform="translate(20.413 653.043)" fill="#414042" font-size="18.253" font-family="Lato" font-weight="400">$200</text><text transform="translate(20.413 582.684)" fill="#414042" font-size="18.253" font-family="Lato" font-weight="400">$400</text><text transform="translate(20.413 512.327)" fill="#414042" font-size="18.253" font-family="Lato" font-weight="400">$600</text><text transform="translate(20.413 441.97)" fill="#414042" font-size="18.253" font-family="Lato" font-weight="400">$800</text><text transform="translate(5.628 371.612)" fill="#414042" font-size="18.253" font-family="Lato" font-weight="400">$1,000</text><text transform="translate(5.628 301.263)" fill="#414042" font-size="18.253" font-family="Lato" font-weight="400">$1,200</text><text transform="translate(60.67 740.164)" fill="#414042" font-size="18.253" font-family="Lato" font-weight="400">1990</text><text transform="translate(255.06 740.164)" fill="#414042" font-size="18.253" font-family="Lato" font-weight="400">1995</text><text transform="translate(449.473 740.164)" fill="#414042" font-size="18.253" font-family="Lato" font-weight="400">2000</text><text transform="translate(643.884 740.164)" fill="#414042" font-size="18.253" font-family="Lato" font-weight="400">2005</text><text transform="translate(838.285 740.164)" fill="#414042" font-size="18.253" font-family="Lato" font-weight="400">2010</text><text transform="translate(360.114 691.852)" fill="#FFF" font-size="18.253" font-family="Lato" font-weight="700">Other Taxes</text><text transform="translate(749.447 652.303)" fill="#FFF" font-size="18.253" font-family="Lato" font-weight="700">Hotel Taxes</text><text transform="translate(184.747 628.88)" fill="#FFF" font-size="18.253" font-family="Lato" font-weight="700">Sales Taxes</text><text transform="translate(595.982 511.037)" fill="#FFF" font-size="18.253" font-family="Lato" font-weight="700">Property Taxes</text></svg>