<svg id="Layer_1" xmlns="http://www.w3.org/2000/svg" viewBox="0 0 375 367"><style>.st0{fill:none;stroke:#D9D9D8;stroke-width:0.72;stroke-linejoin:round;stroke-miterlimit:10;} .st1{fill:#FCB763;} .st2{fill:#DB7278;} .st3{fill:#6E635E;} .st4{fill:#5194D0;} .st5{fill:#34B88C;} .st6{fill:#414042;stroke:#58595B;stroke-width:0.72;stroke-linejoin:round;stroke-miterlimit:10;} .st7{fill:#FFFFFF;} .st8{font-family:&apos;Lato&apos;;font-weight:700;} .st9{font-size:8px;} .st10{fill:#5A5A5A;} .st11{font-family:&apos;Lato&apos;;font-weight:400;} .st12{font-size:10px;} .st13{font-family:&apos;Lato&apos;;font-weight:700;} .st14{font-size:10.2387px;} .st15{fill-rule:evenodd;clip-rule:evenodd;fill:#34B88C;} .st16{fill-rule:evenodd;clip-rule:evenodd;fill:#6E635E;} .st17{fill-rule:evenodd;clip-rule:evenodd;fill:#FCB763;} .st18{fill-rule:evenodd;clip-rule:evenodd;fill:#DB7278;}</style><path class="st0" d="M28.9 312.5h344m-344-30.8h344M28.9 251h344m-344-30.8h344m-344-30.7h344m-344-30.8h344M28.9 128h344m-344-30.7h344m-344-30.8h344m-344-30.8h344"/><path class="st1" d="M39.4 294.8h47.8v48.4H39.4v-48.4zm68.8-62.4H156v110.8h-47.8V232.4zm68.7 63.4h47.9v47.4h-47.9v-47.4zm68.9-11.8h47.8v59.2h-47.8V284zm68.8 13.8h47.8v45.4h-47.8v-45.4z"/><path class="st2" d="M39.4 221.6h47.8v73.2H39.4v-73.2zm137.5 51.6h47.9v22.6h-47.9v-22.6zm68.9-68.4h47.8V284h-47.8v-79.2zm68.8 24.3h47.8v68.7h-47.8v-68.7z"/><path class="st3" d="M39.4 202.9h47.8v18.7H39.4v-18.7zm68.8-13.6H156v43.1h-47.8v-43.1zm68.7 28h47.9v55.9h-47.9v-55.9zm68.9-37.8h47.8v25.3h-47.8v-25.3zm68.8 13.6h47.8v36.1h-47.8v-36.1z"/><path class="st4" d="M39.4 157.9h47.8v45H39.4v-45zm137.5 28.7h47.9v30.7h-47.9v-30.7zm137.7-5.2h47.8v11.7h-47.8v-11.7z"/><path class="st5" d="M39.4 35.7h47.8v122.2H39.4V35.7zm68.8 0H156v153.6h-47.8V35.7zm68.7 0h47.9v150.9h-47.9V35.7zm68.9 0h47.8v143.8h-47.8V35.7zm68.8 0h47.8v145.7h-47.8V35.7z"/><path class="st6" d="M28.9 343.2h344"/><text transform="translate(55.472 322.213)"><tspan x="0" y="0" class="st7 st8 st9">16%</tspan></text><text transform="translate(124.29 291.028)"><tspan x="0" y="0" class="st7 st8 st9">36%</tspan></text><text transform="translate(193.11 322.706)"><tspan x="0" y="0" class="st7 st8 st9">15%</tspan></text><text transform="translate(261.922 316.837)"><tspan x="0" y="0" class="st7 st8 st9">19%</tspan></text><text transform="translate(330.734 323.706)"><tspan x="0" y="0" class="st7 st8 st9">15%</tspan></text><text transform="translate(55.472 261.38)"><tspan x="0" y="0" class="st7 st8 st9">24%</tspan></text><text transform="translate(195.39 287.702)"><tspan x="0" y="0" class="st7 st8 st9">7%</tspan></text><text transform="translate(261.922 247.628)"><tspan x="0" y="0" class="st7 st8 st9">26%</tspan></text><text transform="translate(330.734 266.69)"><tspan x="0" y="0" class="st7 st8 st9">22%</tspan></text><text transform="translate(57.758 215.43)"><tspan x="0" y="0" class="st7 st8 st9">6%</tspan></text><text transform="translate(124.29 214.097)"><tspan x="0" y="0" class="st7 st8 st9">14%</tspan></text><text transform="translate(193.11 248.482)"><tspan x="0" y="0" class="st7 st8 st9">18%</tspan></text><text transform="translate(264.207 195.39)"><tspan x="0" y="0" class="st7 st8 st9">8%</tspan></text><text transform="translate(330.734 214.37)"><tspan x="0" y="0" class="st7 st8 st9">12%</tspan></text><text transform="translate(55.472 183.614)"><tspan x="0" y="0" class="st7 st8 st9">15%</tspan></text><text transform="translate(193.11 205.2)"><tspan x="0" y="0" class="st7 st8 st9">10%</tspan></text><text transform="translate(333.025 190.462)"><tspan x="0" y="0" class="st7 st8 st9">4%</tspan></text><text transform="translate(55.472 100.052)"><tspan x="0" y="0" class="st7 st8 st9">40%</tspan></text><text transform="translate(124.29 115.768)"><tspan x="0" y="0" class="st7 st8 st9">50%</tspan></text><text transform="translate(193.11 114.398)"><tspan x="0" y="0" class="st7 st8 st9">49%</tspan></text><text transform="translate(261.922 110.877)"><tspan x="0" y="0" class="st7 st8 st9">47%</tspan></text><text transform="translate(330.734 111.783)"><tspan x="0" y="0" class="st7 st8 st9">47%</tspan></text><text transform="translate(10.04 347.39)"><tspan x="0" y="0" class="st10 st11 st12">0%</tspan></text><text transform="translate(5.023 316.608)"><tspan x="0" y="0" class="st10 st11 st12">10%</tspan></text><text transform="translate(5.023 285.827)"><tspan x="0" y="0" class="st10 st11 st12">20%</tspan></text><text transform="translate(5.023 255.045)"><tspan x="0" y="0" class="st10 st11 st12">30%</tspan></text><text transform="translate(5.023 224.263)"><tspan x="0" y="0" class="st10 st11 st12">40%</tspan></text><text transform="translate(5.023 193.482)"><tspan x="0" y="0" class="st10 st11 st12">50%</tspan></text><text transform="translate(5.023 162.7)"><tspan x="0" y="0" class="st10 st11 st12">60%</tspan></text><text transform="translate(5.023 131.92)"><tspan x="0" y="0" class="st10 st11 st12">70%</tspan></text><text transform="translate(5.023 101.137)"><tspan x="0" y="0" class="st10 st11 st12">80%</tspan></text><text transform="translate(5.023 70.355)"><tspan x="0" y="0" class="st10 st11 st12">90%</tspan></text><text transform="translate(0 39.574)"><tspan x="0" y="0" class="st10 st11 st12">100%</tspan></text><text transform="translate(40.763 360.273)"><tspan x="0" y="0" class="st10 st13 st12">San Diego</tspan></text><text transform="translate(117.707 360.273)"><tspan x="0" y="0" class="st10 st11 st12">Fresno</tspan></text><text transform="translate(175.892 360.273)"><tspan x="0" y="0" class="st10 st11 st12">Los Angeles</tspan></text><text transform="translate(240.98 360.273)"><tspan x="0" y="0" class="st10 st11 st12">San Francisco</tspan></text><text transform="translate(320.403 360.273)"><tspan x="0" y="0" class="st10 st11 st12">San Jose</tspan></text><text transform="translate(40.113 15.39)"><tspan x="0" y="0" class="st5 st8 st14">Property Taxes</tspan></text><text transform="translate(255.905 15.39)"><tspan x="0" y="0" class="st1 st8 st14">Other Taxes</tspan></text><text transform="translate(39.925 28.206)"><tspan x="0" y="0" class="st4 st8 st14">Hotel Excise Tax</tspan></text><text transform="translate(124.29 27.525)"><tspan x="0" y="0" class="st2 st8 st14">Sales Tax</tspan></text><text transform="translate(124.29 15.39)"><tspan x="0" y="0" class="st3 st8 st14">Business or Franchise Tax</tspan></text><path class="st15" d="M156 35.4v134h-47.8v-134H156z"/><path class="st16" d="M156 169.4v36.5h-47.8v-36.5H156z"/><path class="st17" d="M156 245.5v97.4h-47.8v-97.4H156z"/><path class="st18" d="M156 205.9v39.6h-47.8v-39.6H156z"/><text transform="translate(124.208 101.137)" class="st7 st8 st9">44%</text><text transform="translate(124.208 228.63)" class="st7 st8 st9">13%</text><text transform="translate(124.208 190.462)" class="st7 st8 st9">12%</text><text transform="translate(124.208 299.462)" class="st7 st8 st9">31%</text></svg>