<svg id="Layer_1" xmlns="http://www.w3.org/2000/svg" viewBox="0 0 375 367"><style>.st0{fill:none;stroke:#D9D9D8;stroke-width:0.72;stroke-linejoin:round;stroke-miterlimit:10;} .st1{fill:#D9D9D8;stroke:#58595B;stroke-width:0.72;stroke-linejoin:round;stroke-miterlimit:10;} .st2{fill:#5A5A5A;} .st3{font-family:&apos;Lato&apos;;font-weight:400;} .st4{font-size:10px;} .st5{fill:#488FCC;} .st6{fill:#F8981D;} .st7{fill:#FFFFFF;} .st8{font-family:&apos;Lato&apos;;font-weight:700;} .st9{font-size:8.6634px;} .st10{font-family:&apos;Lato&apos;;font-weight:700;} .st11{font-size:11.5512px;}</style><path class="st0" d="M97 30.5v328.3m29.1-328.3v328.3m29.1-328.3v328.3m29-328.3v328.3m29.1-328.3v328.3m29-328.3v328.3m29.1-328.3v328.3m29.1-328.3v328.3m29-328.3v328.3m29.1-328.3v328.3"/><path class="st1" d="M68 30.5v328.3"/><text transform="translate(60.812 21.016)"><tspan x="0" y="0" class="st2 st3 st4">0%</tspan></text><text transform="translate(89.85 21.016)"><tspan x="0" y="0" class="st2 st3 st4">1%</tspan></text><text transform="translate(118.89 21.016)"><tspan x="0" y="0" class="st2 st3 st4">2%</tspan></text><text transform="translate(147.93 21.016)"><tspan x="0" y="0" class="st2 st3 st4">3%</tspan></text><text transform="translate(176.968 21.016)"><tspan x="0" y="0" class="st2 st3 st4">4%</tspan></text><text transform="translate(206.007 21.016)"><tspan x="0" y="0" class="st2 st3 st4">5%</tspan></text><text transform="translate(235.046 21.016)"><tspan x="0" y="0" class="st2 st3 st4">6%</tspan></text><text transform="translate(264.085 21.016)"><tspan x="0" y="0" class="st2 st3 st4">7%</tspan></text><text transform="translate(293.124 21.016)"><tspan x="0" y="0" class="st2 st3 st4">8%</tspan></text><text transform="translate(322.163 21.016)"><tspan x="0" y="0" class="st2 st3 st4">9%</tspan></text><text transform="translate(348.317 21.016)"><tspan x="0" y="0" class="st2 st3 st4">10%</tspan></text><path class="st5" d="M68 37.1h188.9v36.4H68V37.1z"/><path class="st6" d="M256.9 37.1h43.6v36.4h-43.6V37.1z"/><text transform="translate(268.982 58.657)"><tspan x="0" y="0" class="st7 st8 st9">1.5%</tspan></text><text transform="matrix(1.039 0 0 1 16.154 58.163)"><tspan x="0" y="0" class="st2 st10 st4">San Diego</tspan></text><path class="st5" d="M68 106.4h188.9v36.5H68v-36.5z"/><path class="st6" d="M256.9 106.4H307v36.5h-50.1v-36.5z"/><text transform="translate(267.174 128.035)"><tspan x="0" y="0" class="st7 st8 st9">1.725</tspan><tspan x="22.4" y="0" class="st7 st8 st9">%</tspan></text><text transform="matrix(1.039 0 0 1 31.17 127.64)"><tspan x="0" y="0" class="st2 st3 st4">Fresno</tspan></text><g><path class="st5" d="M68 314.7h188.9v36.5H68v-36.5z"/><path class="st6" d="M256.9 314.7h72.6v36.5h-72.6v-36.5z"/><text transform="translate(283.505 336.283)"><tspan x="0" y="0" class="st7 st8 st9">2.5%</tspan></text><text transform="matrix(1.039 0 0 1 0 336.283)"><tspan x="0" y="0" class="st2 st3 st4">San Francisco</tspan></text></g><g><path class="st5" d="M68 175.9h188.9v36.4H68v-36.4z"/><path class="st6" d="M256.9 175.9h65.4v36.4h-65.4v-36.4z"/><text transform="translate(277.36 196.575)"><tspan x="0" y="0" class="st7 st8 st9">2.25%</tspan></text><text transform="matrix(1.039 0 0 1 23.104 197.05)"><tspan x="0" y="0" class="st2 st3 st4">San Jose</tspan></text></g><g><path class="st5" d="M68 245.3h188.9v36.4H68v-36.4z"/><path class="st6" d="M256.8 245.3h72.6v36.4h-72.6v-36.4z"/><text transform="translate(283.426 265.985)"><tspan x="0" y="0" class="st7 st8 st9">2.5%</tspan></text><text transform="matrix(1.039 0 0 1 8.046 266.46)"><tspan x="0" y="0" class="st2 st3 st4">Los Angeles</tspan></text></g><text transform="translate(313.087 80.98)"><tspan x="0" y="0" class="st5 st8 st11">State Rate</tspan></text><text transform="translate(313.087 95.35)"><tspan x="0" y="0" class="st6 st8 st11">Local Rate</tspan></text></svg>