<?xml version="1.0" encoding="utf-8"?>
<!-- Generator: Adobe Illustrator 19.1.0, SVG Export Plug-In . SVG Version: 6.00 Build 0)  -->
<svg version="1.1" id="Layer_1" xmlns="http://www.w3.org/2000/svg" xmlns:xlink="http://www.w3.org/1999/xlink" x="0px" y="0px"
	 viewBox="0 0 561 252" style="enable-background:new 0 0 561 252;" xml:space="preserve">
<style type="text/css">
	.st0{fill:none;stroke:#D9D9D8;stroke-width:0.72;stroke-linejoin:round;stroke-miterlimit:10;}
	.st1{fill:#3FC7F4;}
	.st2{fill:#27679D;}
	.st3{fill:#04897B;}
	.st4{fill:#34B88C;}
	.st5{fill:#F3CC41;}
	.st6{fill:#854C5C;}
	.st7{fill:#C0BFBF;}
	.st8{fill:#DB7278;}
	.st9{fill:#FCB763;}
	.st10{fill:#D9D9D8;stroke:#58595B;stroke-width:0.72;stroke-linejoin:round;stroke-miterlimit:10;}
	.st11{fill:#414042;}
	.st12{font-family:'Lato-Regular';}
	.st13{font-size:10px;}
	.st14{font-family:'Lato-Bold';}
	.st15{font-family:'Lato-Heavy';}
	.st16{fill:#FFFFFF;}
	.st17{font-size:8px;}
</style>
<path class="st0" d="M47.8,215.4h311 M47.8,192.6h311 M47.8,169.8h311 M47.8,147h311 M47.8,124.2h311 M47.8,101.4h311 M47.8,78.6
	h311 M47.8,55.8h311 M47.8,33h311 M47.8,10.2h311"/>
<polygon class="st1" points="58.9,145.5 98.7,145.5 98.7,237.9 58.9,237.9 58.9,145.5 "/>
<polygon class="st1" points="121.1,113.8 161.1,113.8 161.1,238 121.1,238 121.1,113.8 "/>
<polygon class="st1" points="183.4,146.2 223.2,146.2 223.2,238.1 183.4,238.1 183.4,146.2 "/>
<polygon class="st1" points="245.5,179.5 285.4,179.5 285.4,238 245.5,238 245.5,179.5 "/>
<polygon class="st1" points="307.8,151.9 347.6,151.9 347.6,237.9 307.8,237.9 307.8,151.9 "/>
<polygon class="st2" points="58.9,104.5 98.7,104.5 98.7,145.5 58.9,145.5 58.9,104.5 "/>
<polygon class="st2" points="121.2,105.9 161.1,105.9 161.1,113.8 121.2,113.8 121.2,105.9 "/>
<polygon class="st2" points="183.4,105.6 223.2,105.6 223.2,146.2 183.4,146.2 183.4,105.6 "/>
<polygon class="st2" points="245.5,163.5 285.4,163.5 285.4,179.5 245.5,179.5 245.5,163.5 "/>
<polygon class="st2" points="307.8,103.5 347.6,103.5 347.6,152.2 307.8,152.2 307.8,103.5 "/>
<polygon class="st3" points="58.9,60.1 98.7,60.1 98.7,74.9 58.9,74.9 58.9,60.1 "/>
<polygon class="st3" points="183.4,66.6 223.2,66.6 223.2,91.3 183.4,91.3 183.4,66.6 "/>
<polygon class="st3" points="245.5,135.4 285.4,135.4 285.4,146.9 245.5,146.9 245.5,135.4 "/>
<polygon class="st4" points="58.9,74.9 98.7,74.9 98.7,104.5 58.9,104.5 58.9,74.9 "/>
<polygon class="st4" points="121.1,96.7 161.1,96.7 161.1,106.2 121.1,106.2 121.1,96.7 "/>
<polygon class="st4" points="183.4,91.3 223.2,91.3 223.2,105.7 183.4,105.7 183.4,91.3 "/>
<polygon class="st4" points="245.5,146.9 285.4,146.9 285.4,163.5 245.5,163.5 245.5,146.9 "/>
<polygon class="st5" points="58.9,18.5 98.7,18.5 98.7,29.9 58.9,29.9 58.9,18.5 "/>
<polygon class="st5" points="183.4,21.2 223.2,21.2 223.2,37 183.4,37 183.4,21.2 "/>
<polygon class="st5" points="245.5,59.7 285.4,59.7 285.4,97.6 245.5,97.6 245.5,59.7 "/>
<polygon class="st5" points="307.8,43.1 347.6,43.1 347.6,69.5 307.8,69.5 307.8,43.1 "/>
<polygon class="st6" points="58.9,9.8 98.7,9.8 98.7,18.5 58.9,18.5 58.9,9.8 "/>
<polygon class="st6" points="121.1,10.2 161.1,10.2 161.1,26 121.1,26 121.1,10.2 "/>
<polygon class="st6" points="183.4,10.3 223.2,10.3 223.2,21.2 183.4,21.2 183.4,10.3 "/>
<polygon class="st6" points="245.5,9.8 285.4,9.8 285.4,59.4 245.5,59.4 245.5,9.8 "/>
<polygon class="st7" points="121.1,70.5 161.1,70.5 161.1,96.7 121.1,96.7 121.1,70.5 "/>
<polygon class="st7" points="307.8,10.1 347.6,10.1 347.6,43 307.8,43 307.8,10.1 "/>
<polygon class="st8" points="58.9,43.9 98.7,43.9 98.7,60 58.9,60 58.9,43.9 "/>
<polygon class="st8" points="121.1,51.5 161.1,51.5 161.1,70.5 121.1,70.5 121.1,51.5 "/>
<polygon class="st8" points="183.4,55.7 223.2,55.7 223.2,66.7 183.4,66.7 183.4,55.7 "/>
<polygon class="st8" points="245.5,113.1 285.4,113.1 285.4,135.6 245.5,135.6 245.5,113.1 "/>
<polygon class="st8" points="307.8,72.1 347.6,72.1 347.6,103.5 307.8,103.5 307.8,72.1 "/>
<polygon class="st9" points="58.9,29.9 98.7,29.9 98.7,43.9 58.9,43.9 58.9,29.9 "/>
<polygon class="st9" points="121.1,26 161.1,26 161.1,51.5 121.1,51.5 121.1,26 "/>
<polygon class="st9" points="183.4,37 223.2,37 223.2,55.7 183.4,55.7 183.4,37 "/>
<polygon class="st9" points="245.5,97.6 285.4,97.6 285.4,113.1 245.5,113.1 245.5,97.6 "/>
<polygon class="st9" points="307.8,69.5 347.6,69.5 347.6,90.6 307.8,90.6 307.8,69.5 "/>
<line class="st10" x1="47.8" y1="238.3" x2="358.8" y2="238.3"/>
<g>
	<text transform="matrix(1 0 0 1 24.2274 241.5129)"><tspan x="0" y="0" class="st11 st12 st13">0</tspan><tspan x="5.8" y="0" class="st11 st12 st13">%</tspan></text>
</g>
<g>
	<text transform="matrix(1 0 0 1 18.4575 218.744)"><tspan x="0" y="0" class="st11 st12 st13">10</tspan><tspan x="11.5" y="0" class="st11 st12 st13">%</tspan></text>
</g>
<g>
	<text transform="matrix(1 0 0 1 18.4575 195.9758)"><tspan x="0" y="0" class="st11 st12 st13">20</tspan><tspan x="11.5" y="0" class="st11 st12 st13">%</tspan></text>
</g>
<g>
	<text transform="matrix(1 0 0 1 18.4575 173.2076)"><tspan x="0" y="0" class="st11 st12 st13">30</tspan><tspan x="11.5" y="0" class="st11 st12 st13">%</tspan></text>
</g>
<g>
	<text transform="matrix(1 0 0 1 18.4575 150.4394)"><tspan x="0" y="0" class="st11 st12 st13">40</tspan><tspan x="11.5" y="0" class="st11 st12 st13">%</tspan></text>
</g>
<g>
	<text transform="matrix(1 0 0 1 18.4575 127.6717)"><tspan x="0" y="0" class="st11 st12 st13">50</tspan><tspan x="11.5" y="0" class="st11 st12 st13">%</tspan></text>
</g>
<g>
	<text transform="matrix(1 0 0 1 18.4575 104.9034)"><tspan x="0" y="0" class="st11 st12 st13">60</tspan><tspan x="11.5" y="0" class="st11 st12 st13">%</tspan></text>
</g>
<g>
	<text transform="matrix(1 0 0 1 18.4575 82.1352)"><tspan x="0" y="0" class="st11 st12 st13">70</tspan><tspan x="11.5" y="0" class="st11 st12 st13">%</tspan></text>
</g>
<g>
	<text transform="matrix(1 0 0 1 18.4575 59.367)"><tspan x="0" y="0" class="st11 st12 st13">80</tspan><tspan x="11.5" y="0" class="st11 st12 st13">%</tspan></text>
</g>
<g>
	<text transform="matrix(1 0 0 1 18.4575 36.5988)"><tspan x="0" y="0" class="st11 st12 st13">90</tspan><tspan x="11.5" y="0" class="st11 st12 st13">%</tspan></text>
</g>
<g>
	<text transform="matrix(1 0 0 1 12.5976 13.8306)"><tspan x="0" y="0" class="st11 st12 st13">10</tspan><tspan x="11.5" y="0" class="st11 st12 st13">0</tspan><tspan x="17.4" y="0" class="st11 st12 st13">%</tspan></text>
</g>
<g>
	<text transform="matrix(1 0 0 1 56.3994 249.4609)"><tspan x="0" y="0" class="st11 st14 st13">S</tspan><tspan x="5.5" y="0" class="st11 st14 st13">a</tspan><tspan x="10.5" y="0" class="st11 st14 st13">n</tspan><tspan x="16.1" y="0" class="st11 st14 st13"> </tspan><tspan x="18.6" y="0" class="st11 st14 st13">Di</tspan><tspan x="28.7" y="0" class="st11 st14 st13">e</tspan><tspan x="34" y="0" class="st11 st14 st13">g</tspan><tspan x="39.3" y="0" class="st11 st14 st13">o</tspan></text>
</g>
<g>
	<text transform="matrix(1 0 0 1 125.1396 249.4609)"><tspan x="0" y="0" class="st11 st12 st13">F</tspan><tspan x="5.7" y="0" class="st11 st12 st13">r</tspan><tspan x="9.2" y="0" class="st11 st12 st13">e</tspan><tspan x="14.6" y="0" class="st11 st12 st13">s</tspan><tspan x="18.8" y="0" class="st11 st12 st13">n</tspan><tspan x="24.5" y="0" class="st11 st12 st13">o</tspan></text>
</g>
<g>
	<text transform="matrix(1 0 0 1 176.914 249.4609)"><tspan x="0" y="0" class="st11 st12 st13">L</tspan><tspan x="5.1" y="0" class="st11 st12 st13">o</tspan><tspan x="10.8" y="0" class="st11 st12 st13">s</tspan><tspan x="15.1" y="0" class="st11 st12 st13"> </tspan><tspan x="17.6" y="0" class="st11 st12 st13">An</tspan><tspan x="29.9" y="0" class="st11 st12 st13">g</tspan><tspan x="35.1" y="0" class="st11 st12 st13">e</tspan><tspan x="40.4" y="0" class="st11 st12 st13">l</tspan><tspan x="42.7" y="0" class="st11 st12 st13">e</tspan><tspan x="48.1" y="0" class="st11 st12 st13">s</tspan></text>
</g>
<g>
	<text transform="matrix(1 0 0 1 235.1995 249.4609)"><tspan x="0" y="0" class="st11 st12 st13">S</tspan><tspan x="5.4" y="0" class="st11 st12 st13">a</tspan><tspan x="10.3" y="0" class="st11 st12 st13">n</tspan><tspan x="15.9" y="0" class="st11 st12 st13"> </tspan><tspan x="18.5" y="0" class="st11 st12 st13">F</tspan><tspan x="24.1" y="0" class="st11 st12 st13">r</tspan><tspan x="27.7" y="0" class="st11 st12 st13">a</tspan><tspan x="32.7" y="0" class="st11 st12 st13">n</tspan><tspan x="38.3" y="0" class="st11 st12 st13">ci</tspan><tspan x="45.4" y="0" class="st11 st12 st13">s</tspan><tspan x="49.7" y="0" class="st11 st12 st13">co</tspan></text>
</g>
<g>
	<text transform="matrix(1 0 0 1 308.768 249.4609)"><tspan x="0" y="0" class="st11 st12 st13">S</tspan><tspan x="5.4" y="0" class="st11 st12 st13">a</tspan><tspan x="10.3" y="0" class="st11 st12 st13">n</tspan><tspan x="15.9" y="0" class="st11 st12 st13"> </tspan><tspan x="18.5" y="0" class="st11 st12 st13">J</tspan><tspan x="22.7" y="0" class="st11 st12 st13">o</tspan><tspan x="28.4" y="0" class="st11 st12 st13">s</tspan><tspan x="32.6" y="0" class="st11 st12 st13">e</tspan></text>
</g>
<text transform="matrix(1 0 0 1 370.1553 105.3727)"><tspan x="0" y="0" class="st2 st15 st13">G</tspan><tspan x="7.3" y="0" class="st2 st15 st13">e</tspan><tspan x="12.6" y="0" class="st2 st15 st13">n</tspan><tspan x="18.3" y="0" class="st2 st15 st13">e</tspan><tspan x="23.6" y="0" class="st2 st15 st13">r</tspan><tspan x="27.4" y="0" class="st2 st15 st13">a</tspan><tspan x="32.5" y="0" class="st2 st15 st13">l</tspan><tspan x="35" y="0" class="st2 st15 st13"> </tspan><tspan x="37.3" y="0" class="st2 st15 st13">G</tspan><tspan x="44.6" y="0" class="st2 st15 st13">o</tspan><tspan x="50.3" y="0" class="st2 st15 st13">v</tspan><tspan x="55.7" y="0" class="st2 st15 st13">e</tspan><tspan x="61" y="0" class="st2 st15 st13">r</tspan><tspan x="64.8" y="0" class="st2 st15 st13">n</tspan><tspan x="70.5" y="0" class="st2 st15 st13">m</tspan><tspan x="78.9" y="0" class="st2 st15 st13">e</tspan><tspan x="84.3" y="0" class="st2 st15 st13">n</tspan><tspan x="89.9" y="0" class="st2 st15 st13">t</tspan></text>
<text transform="matrix(1 0 0 1 370.1557 118.7312)"><tspan x="0" y="0" class="st1 st15 st13">P</tspan><tspan x="6.3" y="0" class="st1 st15 st13">u</tspan><tspan x="12" y="0" class="st1 st15 st13">b</tspan><tspan x="17.7" y="0" class="st1 st15 st13">l</tspan><tspan x="20.2" y="0" class="st1 st15 st13">i</tspan><tspan x="22.8" y="0" class="st1 st15 st13">c</tspan><tspan x="27.7" y="0" class="st1 st15 st13"> </tspan><tspan x="29.9" y="0" class="st1 st15 st13">S</tspan><tspan x="35.4" y="0" class="st1 st15 st13">a</tspan><tspan x="40.5" y="0" class="st1 st15 st13">fe</tspan><tspan x="49.5" y="0" class="st1 st15 st13">t</tspan><tspan x="53.3" y="0" class="st1 st15 st13">y</tspan></text>
<text transform="matrix(1 0 0 1 370.1512 78.6564)"><tspan x="0" y="0" class="st3 st15 st13">T</tspan><tspan x="6.1" y="0" class="st3 st15 st13">r</tspan><tspan x="9.9" y="0" class="st3 st15 st13">an</tspan><tspan x="20.6" y="0" class="st3 st15 st13">s</tspan><tspan x="25.1" y="0" class="st3 st15 st13">p</tspan><tspan x="30.9" y="0" class="st3 st15 st13">o</tspan><tspan x="36.6" y="0" class="st3 st15 st13">r</tspan><tspan x="40.4" y="0" class="st3 st15 st13">t</tspan><tspan x="44.2" y="0" class="st3 st15 st13">a</tspan><tspan x="49.3" y="0" class="st3 st15 st13">ti</tspan><tspan x="55.9" y="0" class="st3 st15 st13">on</tspan><tspan x="67.3" y="0" class="st3 st15 st13"> </tspan><tspan x="69.4" y="0" class="st3 st15 st13">&amp;</tspan><tspan x="76.7" y="0" class="st3 st15 st13"> </tspan><tspan x="78.9" y="0" class="st3 st15 st13">P</tspan><tspan x="85.2" y="0" class="st3 st15 st13">u</tspan><tspan x="90.9" y="0" class="st3 st15 st13">b</tspan><tspan x="96.7" y="0" class="st3 st15 st13">l</tspan><tspan x="99.2" y="0" class="st3 st15 st13">i</tspan><tspan x="101.8" y="0" class="st3 st15 st13">c</tspan><tspan x="106.7" y="0" class="st3 st15 st13"> </tspan><tspan x="108.8" y="0" class="st3 st15 st13">W</tspan><tspan x="119.4" y="0" class="st3 st15 st13">o</tspan><tspan x="125.1" y="0" class="st3 st15 st13">r</tspan><tspan x="128.9" y="0" class="st3 st15 st13">k</tspan><tspan x="134.4" y="0" class="st3 st15 st13">s</tspan></text>
<text transform="matrix(1 0 0 1 370.1514 92.0146)"><tspan x="0" y="0" class="st4 st15 st13">P</tspan><tspan x="6.3" y="0" class="st4 st15 st13">a</tspan><tspan x="11.4" y="0" class="st4 st15 st13">r</tspan><tspan x="15.2" y="0" class="st4 st15 st13">k</tspan><tspan x="20.6" y="0" class="st4 st15 st13">s</tspan><tspan x="25.1" y="0" class="st4 st15 st13">,</tspan><tspan x="27.5" y="0" class="st4 st15 st13"> </tspan><tspan x="29.7" y="0" class="st4 st15 st13">R</tspan><tspan x="36.2" y="0" class="st4 st15 st13">e</tspan><tspan x="41.5" y="0" class="st4 st15 st13">c</tspan><tspan x="46.4" y="0" class="st4 st15 st13">r</tspan><tspan x="50.2" y="0" class="st4 st15 st13">e</tspan><tspan x="55.5" y="0" class="st4 st15 st13">a</tspan><tspan x="60.6" y="0" class="st4 st15 st13">ti</tspan><tspan x="67.2" y="0" class="st4 st15 st13">on</tspan><tspan x="78.6" y="0" class="st4 st15 st13">, Culture, &amp; Leisure</tspan></text>
<text transform="matrix(1 0 0 1 370.1516 38.5818)"><tspan x="0" y="0" class="st5 st15 st13">S</tspan><tspan x="5.5" y="0" class="st5 st15 st13">an</tspan><tspan x="16.3" y="0" class="st5 st15 st13">i</tspan><tspan x="18.9" y="0" class="st5 st15 st13">t</tspan><tspan x="22.7" y="0" class="st5 st15 st13">a</tspan><tspan x="27.8" y="0" class="st5 st15 st13">ti</tspan><tspan x="34.4" y="0" class="st5 st15 st13">on</tspan><tspan x="45.8" y="0" class="st5 st15 st13"> </tspan><tspan x="48" y="0" class="st5 st15 st13">&amp;</tspan><tspan x="55.2" y="0" class="st5 st15 st13"> </tspan><tspan x="57.5" y="0" class="st5 st15 st13">H</tspan><tspan x="65.3" y="0" class="st5 st15 st13">e</tspan><tspan x="70.6" y="0" class="st5 st15 st13">a</tspan><tspan x="75.7" y="0" class="st5 st15 st13">l</tspan><tspan x="78.2" y="0" class="st5 st15 st13">t</tspan><tspan x="82" y="0" class="st5 st15 st13">h</tspan></text>
<text transform="matrix(1 3.300000e-04 -3.300000e-04 1 370.1557 17.7448)"><tspan x="0" y="0" class="st6 st15 st13">C</tspan><tspan x="6.6" y="0" class="st6 st15 st13">o</tspan><tspan x="12.4" y="0" class="st6 st15 st13">mm</tspan><tspan x="29.3" y="0" class="st6 st15 st13">un</tspan><tspan x="40.7" y="0" class="st6 st15 st13">i</tspan><tspan x="43.3" y="0" class="st6 st15 st13">t</tspan><tspan x="47.1" y="0" class="st6 st15 st13">y</tspan><tspan x="52.4" y="0" class="st6 st15 st13"> </tspan><tspan x="54.4" y="0" class="st6 st15 st13">D</tspan><tspan x="62.1" y="0" class="st6 st15 st13">e</tspan><tspan x="67.4" y="0" class="st6 st15 st13">v</tspan><tspan x="72.7" y="0" class="st6 st15 st13">el</tspan><tspan x="80.6" y="0" class="st6 st15 st13">o</tspan><tspan x="86.3" y="0" class="st6 st15 st13">p</tspan><tspan x="92.1" y="0" class="st6 st15 st13">m</tspan><tspan x="100.6" y="0" class="st6 st15 st13">e</tspan><tspan x="105.9" y="0" class="st6 st15 st13">n</tspan><tspan x="111.5" y="0" class="st6 st15 st13">t</tspan><tspan x="115.3" y="0" class="st6 st15 st13"> </tspan><tspan x="117.5" y="0" class="st6 st15 st13"> </tspan><tspan x="0" y="10" class="st6 st15 st13">&amp; Neighborhood Services </tspan></text>
<text transform="matrix(1 0 0 1 370.1509 65.2982)"><tspan x="0" y="0" class="st8 st15 st13">C</tspan><tspan x="6.6" y="0" class="st8 st15 st13">a</tspan><tspan x="11.7" y="0" class="st8 st15 st13">p</tspan><tspan x="17.5" y="0" class="st8 st15 st13">i</tspan><tspan x="20.1" y="0" class="st8 st15 st13">t</tspan><tspan x="23.9" y="0" class="st8 st15 st13">a</tspan><tspan x="29" y="0" class="st8 st15 st13">l</tspan><tspan x="31.5" y="0" class="st8 st15 st13"> </tspan><tspan x="33.7" y="0" class="st8 st15 st13">O</tspan><tspan x="41.8" y="0" class="st8 st15 st13">u</tspan><tspan x="47.5" y="0" class="st8 st15 st13">t</tspan><tspan x="51.3" y="0" class="st8 st15 st13">l</tspan><tspan x="53.8" y="0" class="st8 st15 st13">a</tspan><tspan x="58.9" y="0" class="st8 st15 st13">ys</tspan></text>
<text transform="matrix(1 0 0 1 370.151 51.9399)"><tspan x="0" y="0" class="st9 st15 st13">D</tspan><tspan x="7.6" y="0" class="st9 st15 st13">e</tspan><tspan x="12.9" y="0" class="st9 st15 st13">b</tspan><tspan x="18.7" y="0" class="st9 st15 st13">t</tspan><tspan x="22.5" y="0" class="st9 st15 st13"> </tspan><tspan x="24.8" y="0" class="st9 st15 st13">P</tspan><tspan x="31.1" y="0" class="st9 st15 st13">a</tspan><tspan x="36.2" y="0" class="st9 st15 st13">y</tspan><tspan x="41.5" y="0" class="st9 st15 st13">m</tspan><tspan x="50" y="0" class="st9 st15 st13">e</tspan><tspan x="55.3" y="0" class="st9 st15 st13">n</tspan><tspan x="61" y="0" class="st9 st15 st13">t</tspan><tspan x="64.8" y="0" class="st9 st15 st13">s</tspan></text>
<g>
	<text transform="matrix(1 0 0 1 133.6774 81.8423)"><tspan x="0" y="0" class="st16 st15 st17">S</tspan><tspan x="4.4" y="0" class="st16 st15 st17">ee</tspan><tspan x="13" y="0" class="st16 st15 st17"> </tspan></text>
	<text transform="matrix(1 0 0 1 132.0495 89.8969)"><tspan x="0" y="0" class="st16 st15 st17">No</tspan><tspan x="10.8" y="0" class="st16 st15 st17">t</tspan><tspan x="13.8" y="0" class="st16 st15 st17">e</tspan></text>
</g>
<g>
	<text transform="matrix(1 0 0 1 320.2479 24.0928)"><tspan x="0" y="0" class="st16 st15 st17">S</tspan><tspan x="4.4" y="0" class="st16 st15 st17">ee</tspan><tspan x="13" y="0" class="st16 st15 st17"> </tspan></text>
	<text transform="matrix(1 0 0 1 318.6195 32.1524)"><tspan x="0" y="0" class="st16 st15 st17">No</tspan><tspan x="10.8" y="0" class="st16 st15 st17">t</tspan><tspan x="13.8" y="0" class="st16 st15 st17">e</tspan></text>
</g>
</svg>
