<svg id="Layer_1" xmlns="http://www.w3.org/2000/svg" viewBox="0 0 561 252"><style>.st0{fill:none;stroke:#D9D9D8;stroke-width:0.72;stroke-linejoin:round;stroke-miterlimit:10;} .st1{fill:#3FC7F4;} .st2{fill:#27679D;} .st3{fill:#04897B;} .st4{fill:#34B88C;} .st5{fill:#F3CC41;} .st6{fill:#854C5C;} .st7{fill:#C0BFBF;} .st8{fill:#DB7278;} .st9{fill:#FCB763;} .st10{fill:#D9D9D8;stroke:#58595B;stroke-width:0.72;stroke-linejoin:round;stroke-miterlimit:10;} .st11{fill:#414042;} .st12{font-family:&apos;Lato&apos;;font-weight:400;} .st13{font-size:10px;} .st14{font-family:&apos;Lato&apos;;font-weight:700;} .st15{font-family:&apos;Lato&apos;;font-weight:700;} .st16{fill:#FFFFFF;} .st17{font-size:8px;}</style><path class="st0" d="M47.8 215.4h311m-311-22.8h311m-311-22.8h311M47.8 147h311m-311-22.8h311m-311-22.8h311m-311-22.8h311m-311-22.8h311M47.8 33h311m-311-22.8h311"/><path class="st1" d="M58.9 145.5h39.8v92.4H58.9v-92.4zM121.1 113.8h40V238h-40V113.8zM183.4 146.2h39.8v91.9h-39.8v-91.9zM245.5 179.5h39.9V238h-39.9v-58.5zM307.8 151.9h39.8v86h-39.8v-86z"/><path class="st2" d="M58.9 104.5h39.8v41H58.9v-41zM121.2 105.9h39.9v7.9h-39.9v-7.9zM183.4 105.6h39.8v40.6h-39.8v-40.6zM245.5 163.5h39.9v16h-39.9v-16zM307.8 103.5h39.8v48.7h-39.8v-48.7z"/><path class="st3" d="M58.9 60.1h39.8v14.8H58.9V60.1zM183.4 66.6h39.8v24.7h-39.8V66.6zM245.5 135.4h39.9v11.5h-39.9v-11.5z"/><path class="st4" d="M58.9 74.9h39.8v29.6H58.9V74.9zM121.1 96.7h40v9.5h-40v-9.5zM183.4 91.3h39.8v14.4h-39.8V91.3zM245.5 146.9h39.9v16.6h-39.9v-16.6z"/><path class="st5" d="M58.9 18.5h39.8v11.4H58.9V18.5zM183.4 21.2h39.8V37h-39.8V21.2zM245.5 59.7h39.9v37.9h-39.9V59.7zM307.8 43.1h39.8v26.4h-39.8V43.1z"/><path class="st6" d="M58.9 9.8h39.8v8.7H58.9V9.8zM121.1 10.2h40V26h-40V10.2zM183.4 10.3h39.8v10.9h-39.8V10.3zM245.5 9.8h39.9v49.6h-39.9V9.8z"/><path class="st7" d="M121.1 70.5h40v26.2h-40V70.5zM307.8 10.1h39.8V43h-39.8V10.1z"/><path class="st8" d="M58.9 43.9h39.8V60H58.9V43.9zM121.1 51.5h40v19h-40v-19zM183.4 55.7h39.8v11h-39.8v-11zM245.5 113.1h39.9v22.5h-39.9v-22.5zM307.8 72.1h39.8v31.4h-39.8V72.1z"/><path class="st9" d="M58.9 29.9h39.8v14H58.9v-14zM121.1 26h40v25.5h-40V26zM183.4 37h39.8v18.7h-39.8V37zM245.5 97.6h39.9v15.5h-39.9V97.6zM307.8 69.5h39.8v21.1h-39.8V69.5z"/><path class="st10" d="M47.8 238.3h311"/><text transform="translate(24.227 241.513)"><tspan x="0" y="0" class="st11 st12 st13">0</tspan></text><text transform="translate(18.457 218.744)"><tspan x="0" y="0" class="st11 st12 st13">10%</tspan></text><text transform="translate(18.457 195.976)"><tspan x="0" y="0" class="st11 st12 st13">20%</tspan></text><text transform="translate(18.457 173.208)"><tspan x="0" y="0" class="st11 st12 st13">30%</tspan></text><text transform="translate(18.457 150.44)"><tspan x="0" y="0" class="st11 st12 st13">40%</tspan></text><text transform="translate(18.457 127.672)"><tspan x="0" y="0" class="st11 st12 st13">50%</tspan></text><text transform="translate(18.457 104.903)"><tspan x="0" y="0" class="st11 st12 st13">60%</tspan></text><text transform="translate(18.457 82.135)"><tspan x="0" y="0" class="st11 st12 st13">70%</tspan></text><text transform="translate(18.457 59.367)"><tspan x="0" y="0" class="st11 st12 st13">80%</tspan></text><text transform="translate(18.457 36.6)"><tspan x="0" y="0" class="st11 st12 st13">90%</tspan></text><text transform="translate(12.598 13.83)"><tspan x="0" y="0" class="st11 st12 st13">100</tspan><tspan x="17.4" y="0" class="st11 st12 st13">%</tspan></text><text transform="translate(56.4 249.46)"><tspan x="0" y="0" class="st11 st14 st13">San Diego</tspan></text><text transform="translate(125.14 249.46)"><tspan x="0" y="0" class="st11 st12 st13">Fresno</tspan></text><text transform="translate(176.914 249.46)"><tspan x="0" y="0" class="st11 st12 st13">Los Angeles</tspan></text><text transform="translate(235.2 249.46)"><tspan x="0" y="0" class="st11 st12 st13">San Francisco</tspan></text><text transform="translate(308.768 249.46)"><tspan x="0" y="0" class="st11 st12 st13">San Jose</tspan></text><text transform="translate(370.155 105.373)"><tspan x="0" y="0" class="st2 st15 st13">General Government</tspan></text><text transform="translate(370.156 118.73)"><tspan x="0" y="0" class="st1 st15 st13">Public Safety</tspan></text><text transform="translate(370.15 78.656)"><tspan x="0" y="0" class="st3 st15 st13">Transportation &amp; Public Works</tspan></text><text transform="translate(370.15 92.015)"><tspan x="0" y="0" class="st4 st15 st13">Parks, Recreation, Culture, &amp; Leisure</tspan></text><text transform="translate(370.152 38.582)"><tspan x="0" y="0" class="st5 st15 st13">Sanitation &amp; Health</tspan></text><text transform="translate(370.156 17.745)"><tspan x="0" y="0" class="st6 st15 st13">Community</tspan><tspan x="0" y="10" class="st6 st15 st13">&amp; Neighborhood Services</tspan></text><text transform="translate(370.15 65.298)"><tspan x="0" y="0" class="st8 st15 st13">Capital Outlays</tspan></text><text transform="translate(370.15 51.94)"><tspan x="0" y="0" class="st9 st15 st13">Debt Payments</tspan></text><text transform="translate(133.677 81.842)"><tspan x="0" y="0" class="st16 st15 st17">See</tspan></text><text transform="translate(132.05 89.897)"><tspan x="0" y="0" class="st16 st15 st17">Note</tspan></text><g><text transform="translate(320.248 24.093)"><tspan x="0" y="0" class="st16 st15 st17">See</tspan></text><text transform="translate(318.62 32.152)"><tspan x="0" y="0" class="st16 st15 st17">Note</tspan></text></g></svg>