<?xml version="1.0" encoding="utf-8"?>
<svg version="1.1" id="Layer_1" xmlns="http://www.w3.org/2000/svg" xmlns:xlink="http://www.w3.org/1999/xlink" x="0px" y="0px"
	 viewBox="0 0 561 252" style="enable-background:new 0 0 561 252;" xml:space="preserve">
<style type="text/css">
	.st0{fill:none;stroke:#D9D9D8;stroke-width:0.72;stroke-linejoin:round;stroke-miterlimit:10;}
	.st1{fill:#3FC7F4;}
	.st2{fill:#27679D;}
	.st3{fill:#04897B;}
	.st4{fill:#34B88C;}
	.st5{fill:#F3CC41;}
	.st6{fill:#854C5C;}
	.st7{fill:#C0BFBF;}
	.st8{fill:#DB7278;}
	.st9{fill:#FCB763;}
	.st10{fill:#D9D9D8;stroke:#58595B;stroke-width:0.72;stroke-linejoin:round;stroke-miterlimit:10;}
	.st11{fill:#414042;}
	.st12{font-family:'Lato';font-weight:400;}
	.st13{font-size:10px;}
	.st14{font-family:'Lato';font-weight:700;}
	.st15{font-family:'Lato';font-weight:700;}
	.st16{fill:#FFFFFF;}
	.st17{font-size:8px;}
</style>
<path class="st0" d="M47.8,215.4h311 M47.8,192.6h311 M47.8,169.8h311 M47.8,147h311 M47.8,124.2h311 M47.8,101.4h311 M47.8,78.6
	h311 M47.8,55.8h311 M47.8,33h311 M47.8,10.2h311"/>
<polygon class="st1" points="58.9,145.5 98.7,145.5 98.7,237.9 58.9,237.9 58.9,145.5 "/>
<polygon class="st1" points="121.1,113.8 161.1,113.8 161.1,238 121.1,238 121.1,113.8 "/>
<polygon class="st1" points="183.4,146.2 223.2,146.2 223.2,238.1 183.4,238.1 183.4,146.2 "/>
<polygon class="st1" points="245.5,179.5 285.4,179.5 285.4,238 245.5,238 245.5,179.5 "/>
<polygon class="st1" points="307.8,151.9 347.6,151.9 347.6,237.9 307.8,237.9 307.8,151.9 "/>
<polygon class="st2" points="58.9,104.5 98.7,104.5 98.7,145.5 58.9,145.5 58.9,104.5 "/>
<polygon class="st2" points="121.2,105.9 161.1,105.9 161.1,113.8 121.2,113.8 121.2,105.9 "/>
<polygon class="st2" points="183.4,105.6 223.2,105.6 223.2,146.2 183.4,146.2 183.4,105.6 "/>
<polygon class="st2" points="245.5,163.5 285.4,163.5 285.4,179.5 245.5,179.5 245.5,163.5 "/>
<polygon class="st2" points="307.8,103.5 347.6,103.5 347.6,152.2 307.8,152.2 307.8,103.5 "/>
<polygon class="st3" points="58.9,60.1 98.7,60.1 98.7,74.9 58.9,74.9 58.9,60.1 "/>
<polygon class="st3" points="183.4,66.6 223.2,66.6 223.2,91.3 183.4,91.3 183.4,66.6 "/>
<polygon class="st3" points="245.5,135.4 285.4,135.4 285.4,146.9 245.5,146.9 245.5,135.4 "/>
<polygon class="st4" points="58.9,74.9 98.7,74.9 98.7,104.5 58.9,104.5 58.9,74.9 "/>
<polygon class="st4" points="121.1,96.7 161.1,96.7 161.1,106.2 121.1,106.2 121.1,96.7 "/>
<polygon class="st4" points="183.4,91.3 223.2,91.3 223.2,105.7 183.4,105.7 183.4,91.3 "/>
<polygon class="st4" points="245.5,146.9 285.4,146.9 285.4,163.5 245.5,163.5 245.5,146.9 "/>
<polygon class="st5" points="58.9,18.5 98.7,18.5 98.7,29.9 58.9,29.9 58.9,18.5 "/>
<polygon class="st5" points="183.4,21.2 223.2,21.2 223.2,37 183.4,37 183.4,21.2 "/>
<polygon class="st5" points="245.5,59.7 285.4,59.7 285.4,97.6 245.5,97.6 245.5,59.7 "/>
<polygon class="st5" points="307.8,43.1 347.6,43.1 347.6,69.5 307.8,69.5 307.8,43.1 "/>
<polygon class="st6" points="58.9,9.8 98.7,9.8 98.7,18.5 58.9,18.5 58.9,9.8 "/>
<polygon class="st6" points="121.1,10.2 161.1,10.2 161.1,26 121.1,26 121.1,10.2 "/>
<polygon class="st6" points="183.4,10.3 223.2,10.3 223.2,21.2 183.4,21.2 183.4,10.3 "/>
<polygon class="st6" points="245.5,9.8 285.4,9.8 285.4,59.4 245.5,59.4 245.5,9.8 "/>
<polygon class="st7" points="121.1,70.5 161.1,70.5 161.1,96.7 121.1,96.7 121.1,70.5 "/>
<polygon class="st7" points="307.8,10.1 347.6,10.1 347.6,43 307.8,43 307.8,10.1 "/>
<polygon class="st8" points="58.9,43.9 98.7,43.9 98.7,60 58.9,60 58.9,43.9 "/>
<polygon class="st8" points="121.1,51.5 161.1,51.5 161.1,70.5 121.1,70.5 121.1,51.5 "/>
<polygon class="st8" points="183.4,55.7 223.2,55.7 223.2,66.7 183.4,66.7 183.4,55.7 "/>
<polygon class="st8" points="245.5,113.1 285.4,113.1 285.4,135.6 245.5,135.6 245.5,113.1 "/>
<polygon class="st8" points="307.8,72.1 347.6,72.1 347.6,103.5 307.8,103.5 307.8,72.1 "/>
<polygon class="st9" points="58.9,29.9 98.7,29.9 98.7,43.9 58.9,43.9 58.9,29.9 "/>
<polygon class="st9" points="121.1,26 161.1,26 161.1,51.5 121.1,51.5 121.1,26 "/>
<polygon class="st9" points="183.4,37 223.2,37 223.2,55.7 183.4,55.7 183.4,37 "/>
<polygon class="st9" points="245.5,97.6 285.4,97.6 285.4,113.1 245.5,113.1 245.5,97.6 "/>
<polygon class="st9" points="307.8,69.5 347.6,69.5 347.6,90.6 307.8,90.6 307.8,69.5 "/>
<line class="st10" x1="47.8" y1="238.3" x2="358.8" y2="238.3"/>
<g>
	<text transform="matrix(1 0 0 1 24.2274 241.5129)"><tspan x="0" y="0" class="st11 st12 st13">0</tspan></text>
</g>
<g>
	<text transform="matrix(1 0 0 1 18.4575 218.744)"><tspan x="0" y="0" class="st11 st12 st13">10%</tspan></text>
</g>
<g>
	<text transform="matrix(1 0 0 1 18.4575 195.9758)"><tspan x="0" y="0" class="st11 st12 st13">20%</tspan></text>
</g>
<g>
	<text transform="matrix(1 0 0 1 18.4575 173.2076)"><tspan x="0" y="0" class="st11 st12 st13">30%</tspan></text>
</g>
<g>
	<text transform="matrix(1 0 0 1 18.4575 150.4394)"><tspan x="0" y="0" class="st11 st12 st13">40%</tspan></text>
</g>
<g>
	<text transform="matrix(1 0 0 1 18.4575 127.6717)"><tspan x="0" y="0" class="st11 st12 st13">50%</tspan></text>
</g>
<g>
	<text transform="matrix(1 0 0 1 18.4575 104.9034)"><tspan x="0" y="0" class="st11 st12 st13">60%</tspan></text>
</g>
<g>
	<text transform="matrix(1 0 0 1 18.4575 82.1352)"><tspan x="0" y="0" class="st11 st12 st13">70%</tspan></text>
</g>
<g>
	<text transform="matrix(1 0 0 1 18.4575 59.367)"><tspan x="0" y="0" class="st11 st12 st13">80%</tspan></text>
</g>
<g>
	<text transform="matrix(1 0 0 1 18.4575 36.5988)"><tspan x="0" y="0" class="st11 st12 st13">90%</tspan></text>
</g>
<g>
	<text transform="matrix(1 0 0 1 12.5976 13.8306)"><tspan x="0" y="0" class="st11 st12 st13">100</tspan><tspan x="17.4" y="0" class="st11 st12 st13">%</tspan></text>
</g>
<g>
	<text transform="matrix(1 0 0 1 56.3994 249.4609)"><tspan x="0" y="0" class="st11 st14 st13">San Diego</tspan></text>
</g>
<g>
	<text transform="matrix(1 0 0 1 125.1396 249.4609)"><tspan x="0" y="0" class="st11 st12 st13">Fresno</tspan></text>
</g>
<g>
	<text transform="matrix(1 0 0 1 176.914 249.4609)"><tspan x="0" y="0" class="st11 st12 st13">Los Angeles</tspan></text>
</g>
<g>
	<text transform="matrix(1 0 0 1 235.1995 249.4609)"><tspan x="0" y="0" class="st11 st12 st13">San Francisco</tspan></text>
</g>
<g>
	<text transform="matrix(1 0 0 1 308.768 249.4609)"><tspan x="0" y="0" class="st11 st12 st13">San Jose</tspan></text>
</g>
<text transform="matrix(1 0 0 1 370.1553 105.3727)"><tspan x="0" y="0" class="st2 st15 st13">General Government</tspan></text>
<text transform="matrix(1 0 0 1 370.1557 118.7312)"><tspan x="0" y="0" class="st1 st15 st13">Public Safety</tspan></text>
<text transform="matrix(1 0 0 1 370.1512 78.6564)"><tspan x="0" y="0" class="st3 st15 st13">Transportation &amp; Public Works</tspan></text>
<text transform="matrix(1 0 0 1 370.1514 92.0146)"><tspan x="0" y="0" class="st4 st15 st13">Parks, Recreation, Culture, &amp; Leisure</tspan></text>
<text transform="matrix(1 0 0 1 370.1516 38.5818)"><tspan x="0" y="0" class="st5 st15 st13">Sanitation &amp; Health</tspan></text>
<text transform="matrix(1 0 0 1 370.1557 17.7448)"><tspan x="0" y="0" class="st6 st15 st13">Community</tspan><tspan x="0" y="10" class="st6 st15 st13">&amp; Neighborhood Services</tspan></text>
<text transform="matrix(1 0 0 1 370.1509 65.2982)"><tspan x="0" y="0" class="st8 st15 st13">Capital Outlays</tspan></text>
<text transform="matrix(1 0 0 1 370.151 51.9399)"><tspan x="0" y="0" class="st9 st15 st13">Debt Payments</tspan></text>
<g>
	<text transform="matrix(1 0 0 1 133.6774 81.8423)"><tspan x="0" y="0" class="st16 st15 st17">See</tspan></text>
	<text transform="matrix(1 0 0 1 132.0495 89.8969)"><tspan x="0" y="0" class="st16 st15 st17">Note</tspan></text>
</g>
<g>
	<text transform="matrix(1 0 0 1 320.2479 24.0928)"><tspan x="0" y="0" class="st16 st15 st17">See</tspan></text>
	<text transform="matrix(1 0 0 1 318.6195 32.1524)"><tspan x="0" y="0" class="st16 st15 st17">Note</tspan></text>
</g>
</svg>
