<svg xmlns="http://www.w3.org/2000/svg" width="1030.5" height="465" viewBox="-6.5 281.5 1030.5 465"><path fill="none" stroke="#D9D9D8" stroke-width=".72" stroke-linejoin="round" stroke-miterlimit="10" d="M75.203 662.953h946.607m-946.607-40.52h946.607m-946.607-40.34h946.607M75.203 541.57h946.607M75.203 501.048h946.607M75.203 460.526h946.607m-946.607-40.34h946.607m-946.607-40.52h946.607m-946.607-40.34h946.607M75.203 298.62h946.607"/><path fill="#81C784" d="M75.203 627.542l18.618-3.103 18.62-5.84 18.618-9.676 18.435-4.564 18.618-8.03 18.62-1.278 18.435-16.976 18.618-7.666 18.618-.548 18.437-6.388 18.618-16.61 18.618-2.556 18.436 8.944 18.617-8.58 18.618-10.586 18.436-13.69 18.62-11.864 18.618 41.252 18.617-2.738 18.437 4.016 18.618-3.833 18.618-.732 18.436-15.332 18.618-14.968 18.618-10.22 18.435-18.62 18.62-.547 18.617-10.77 18.435-8.213 18.618-.912 18.62-7.667 18.434 3.104 18.617 4.198 18.62-10.587 18.617-7.85 18.435-6.57 18.617-19.35 18.62-11.498 18.434-31.213 18.62 323.994h37.053l18.62-329.652 18.617-19.348 18.436-42.895 18.618-10.95 18.618 1.46 18.618 30.664 18.436-2.19 18.618-15.333 18.618 16.612v368.45l-167.2 3.184H817.74l-742.537-3.834v-72.1"/><path fill="#09BCD4" d="M75.203 662.405l18.618-1.642 18.62-3.285 18.618-4.747 18.435-2.19 18.618-4.927 18.62-2.008 18.435-3.286 18.618-3.468 18.618-1.096 18.437-7.118 18.618-6.937 18.618-.91 18.436 7.665 18.617-1.278 18.618-5.293 18.436-4.93 18.62-1.46 18.618 38.88 18.617 1.825 18.437-.365 18.618-3.65 18.618-1.827 18.436-4.563 18.618-4.563 18.618-4.38 18.435-2.92 18.62-5.477 18.617 2.008 18.435-8.214 18.618-2.19 18.62-2.01 18.434 3.286 18.617 1.096 18.62-4.016 18.617.73 18.435.73 18.617-4.746 18.62-2.556 18.434-6.935 18.62 97.836 18.617-110.25 18.436 110.25 18.62-118.83 18.617 4.017 18.436-20.443 18.618-10.405 18.618-2.555 18.618-3.65 18.436 7.3 18.618 2.556 18.618 3.468v138.542H75.202v-41.07"/><text transform="translate(44.07 710.65)" fill="#5A5A5A" font-size="18.253" font-family="Lato" font-weight="400">$0</text><text transform="translate(34.912 670.09)" fill="#5A5A5A" font-size="18.253" font-family="Lato" font-weight="400">$20</text><text transform="translate(34.912 629.53)" fill="#5A5A5A" font-size="18.253" font-family="Lato" font-weight="400">$40</text><text transform="translate(34.912 588.973)" fill="#5A5A5A" font-size="18.253" font-family="Lato" font-weight="400">$60</text><text transform="translate(34.912 548.413)" fill="#5A5A5A" font-size="18.253" font-family="Lato" font-weight="400">$80</text><text transform="translate(25.757 507.853)" fill="#5A5A5A" font-size="18.253" font-family="Lato" font-weight="400">$100</text><text transform="translate(25.757 467.294)" fill="#5A5A5A" font-size="18.253" font-family="Lato" font-weight="400">$120</text><text transform="translate(25.757 426.734)" fill="#5A5A5A" font-size="18.253" font-family="Lato" font-weight="400">$140</text><text transform="translate(25.757 386.175)" fill="#5A5A5A" font-size="18.253" font-family="Lato" font-weight="400">$160</text><text transform="translate(25.757 345.616)" fill="#5A5A5A" font-size="18.253" font-family="Lato" font-weight="400">$180</text><text transform="translate(25.756 305.056)" fill="#5A5A5A" font-size="18.253" font-family="Lato" font-weight="400">$200</text><text transform="translate(53.654 732.59)" fill="#5A5A5A" font-size="18.253" font-family="Lato" font-weight="400">1961</text><text transform="translate(146.506 732.59)" fill="#5A5A5A" font-size="18.253" font-family="Lato" font-weight="400">1966</text><text transform="translate(239.356 732.59)" fill="#5A5A5A" font-size="18.253" font-family="Lato" font-weight="400">1971</text><text transform="translate(332.207 732.59)" fill="#5A5A5A" font-size="18.253" font-family="Lato" font-weight="400">1976</text><text transform="translate(425.058 732.59)" fill="#5A5A5A" font-size="18.253" font-family="Lato" font-weight="400">1981</text><text transform="translate(517.908 732.59)" fill="#5A5A5A" font-size="18.253" font-family="Lato" font-weight="400">1986</text><text transform="translate(610.76 732.59)" fill="#5A5A5A" font-size="18.253" font-family="Lato" font-weight="400">1991</text><text transform="translate(703.61 732.59)" fill="#5A5A5A" font-size="18.253" font-family="Lato" font-weight="400">1996</text><text transform="translate(796.46 732.59)" fill="#5A5A5A" font-size="18.253" font-family="Lato" font-weight="400">2001</text><text transform="translate(889.312 732.59)" fill="#5A5A5A" font-size="18.253" font-family="Lato" font-weight="400">2006</text><text transform="translate(982.162 732.59)" fill="#5A5A5A" font-size="18.253" font-family="Lato" font-weight="400">2011</text><text transform="rotate(-90 268.258 253.78)" fill="#414042" font-size="18.253" font-family="Lato" font-weight="700">Billions</text><text transform="translate(586.097 549.678)" fill="#FFF" font-size="18.253" font-family="Lato" font-weight="700">State Tax Collections</text><text transform="translate(593.784 663.4)" fill="#FFF" font-size="18.253" font-family="Lato" font-weight="700">Local Tax Collections</text><path fill="#A5D5A7" d="M873.412 703.476h-74.29V379.482l38.15 12.23 36.14-17.888"/><path fill="#89D3E2" d="M873.412 703.476h-74.29V605.64l37.418-11.684 36.872-9.31"/><path fill="none" stroke="#414042" stroke-width=".5" stroke-linejoin="round" stroke-miterlimit="10" d="M75.203 703.293h946.607"/><path fill="#58595B" stroke="#414042" stroke-width=".5" stroke-linejoin="round" stroke-miterlimit="10" d="M75.203 699.642v7.85m92.908-7.85v7.85m92.91-7.85v7.85m92.725-7.85v7.85m92.727-7.85v7.85m92.908-7.85v7.85m92.725-7.85v7.85m92.726-7.85v7.85m92.91-7.85v7.85m92.726-7.85v7.85m92.908-7.85v7.85"/></svg>