<?xml version="1.0" encoding="utf-8"?>
<!-- Generator: Adobe Illustrator 19.1.0, SVG Export Plug-In . SVG Version: 6.00 Build 0)  -->
<svg version="1.1" id="Layer_1" xmlns="http://www.w3.org/2000/svg" xmlns:xlink="http://www.w3.org/1999/xlink" x="0px" y="0px"
	 viewBox="0 0 561 252" style="enable-background:new 0 0 561 252;" xml:space="preserve">
<style type="text/css">
	.st0{fill:none;stroke:#D9D9D8;stroke-width:0.72;stroke-linejoin:round;stroke-miterlimit:10;}
	.st1{fill-rule:evenodd;clip-rule:evenodd;fill:#09BCD4;}
	.st2{fill-rule:evenodd;clip-rule:evenodd;fill:#81C784;}
	.st3{fill:#5A5A5A;}
	.st4{font-family:'Lato-Regular';}
	.st5{font-size:10px;}
	.st6{fill:#414042;}
	.st7{font-family:'Lato-Semibold';}
	.st8{fill:#FFFFFF;}
	.st9{font-family:'Lato-Heavy';}
	.st10{fill:#A5D5A7;}
	.st11{fill:#89D3E2;}
	.st12{fill:#58595B;stroke:#414042;stroke-width:0.5;stroke-linejoin:round;stroke-miterlimit:10;}
</style>
<path class="st0" d="M41.2,208.7h518.6 M41.2,186.5h518.6 M41.2,164.4h518.6 M41.2,142.2h518.6 M41.2,120h518.6 M41.2,97.8h518.6
	 M41.2,75.7h518.6 M41.2,53.5h518.6 M41.2,31.4h518.6 M41.2,9.1h518.6"/>
<polyline class="st1" points="41.2,208.4 51.4,207.5 61.6,205.7 71.8,203.1 81.9,201.9 92.1,199.2 102.3,198.1 112.4,196.3 
	122.6,194.4 132.8,193.8 142.9,189.9 153.1,186.1 163.3,185.6 173.4,189.8 183.6,189.1 193.8,186.2 203.9,183.5 214.1,182.7 
	224.3,204 234.5,205 244.6,204.8 254.8,202.8 265,201.8 275.1,199.3 285.3,196.8 295.5,194.4 305.6,192.8 315.8,189.8 326,190.9 
	336.1,186.4 346.3,185.2 356.5,184.1 366.6,185.9 376.8,186.5 387,184.3 397.2,184.7 407.3,185.1 417.5,182.5 427.7,181.1 
	437.8,177.3 448,230.9 458.2,170.5 468.3,230.9 478.5,165.8 488.7,168 498.8,156.8 509,151.1 519.2,149.7 529.4,147.7 539.5,151.7 
	549.7,153.1 559.9,155 559.9,230.9 549.7,230.9 539.5,230.9 529.4,230.9 519.2,230.9 509,230.9 498.8,230.9 488.7,230.9 
	478.5,230.9 468.3,230.9 458.2,230.9 448,230.9 437.8,230.9 427.7,230.9 417.5,230.9 407.3,230.9 397.2,230.9 387,230.9 
	376.8,230.9 366.6,230.9 356.5,230.9 346.3,230.9 336.1,230.9 326,230.9 315.8,230.9 305.6,230.9 295.5,230.9 285.3,230.9 
	275.1,230.9 265,230.9 254.8,230.9 244.6,230.9 234.5,230.9 224.3,230.9 214.1,230.9 203.9,230.9 193.8,230.9 183.6,230.9 
	173.4,230.9 163.3,230.9 153.1,230.9 142.9,230.9 132.8,230.9 122.6,230.9 112.4,230.9 102.3,230.9 92.1,230.9 81.9,230.9 
	71.8,230.9 61.6,230.9 51.4,230.9 41.2,230.9 41.2,208.4 "/>
<polyline class="st2" points="41.2,189.3 51.4,187.6 61.6,184.4 71.8,179.1 81.9,176.6 92.1,172.2 102.3,171.5 112.4,162.2 
	122.6,158 132.8,157.7 142.9,154.2 153.1,145.1 163.3,143.7 173.4,148.6 183.6,143.9 193.8,138.1 203.9,130.6 214.1,124.1 
	224.3,146.7 234.5,145.2 244.6,147.4 254.8,145.3 265,144.9 275.1,136.5 285.3,128.3 295.5,122.7 305.6,112.5 315.8,112.2 
	326,106.3 336.1,101.8 346.3,101.3 356.5,97.1 366.6,98.8 376.8,101.1 387,95.3 397.2,91 407.3,87.4 417.5,76.8 427.7,70.5 
	437.8,53.4 448,230.9 458.2,60.5 468.3,230.9 478.5,50.3 488.7,39.7 498.8,16.2 509,10.2 519.2,11 529.4,27.8 539.5,26.6 
	549.7,18.2 559.9,27.3 559.9,155 549.7,153.1 539.5,151.7 529.4,147.7 519.2,149.7 509,151.1 498.8,156.8 488.7,168 478.5,165.8 
	468.3,230.9 458.2,170.5 448,230.9 437.8,177.3 427.7,181.1 417.5,182.5 407.3,185.1 397.2,184.7 387,184.3 376.8,186.5 
	366.6,185.9 356.5,184.1 346.3,185.2 336.1,186.4 326,190.9 315.8,189.8 305.6,192.8 295.5,194.4 285.3,196.8 275.1,199.3 
	265,201.8 254.8,202.8 244.6,204.8 234.5,205 224.3,204 214.1,182.7 203.9,183.5 193.8,186.2 183.6,189.1 173.4,189.8 163.3,185.6 
	153.1,186.1 142.9,189.9 132.8,193.8 122.6,194.4 112.4,196.3 102.3,198.1 92.1,199.2 81.9,201.9 71.8,203.1 61.6,205.7 51.4,207.5 
	41.2,208.4 41.2,189.3 "/>
<text transform="matrix(1 0 0 1 24.1432 234.8307)" class="st3 st4 st5">$0</text>
<text transform="matrix(1 0 0 1 19.1268 212.6104)"><tspan x="0" y="0" class="st3 st4 st5">$</tspan><tspan x="5.8" y="0" class="st3 st4 st5">2</tspan><tspan x="11.6" y="0" class="st3 st4 st5">0</tspan></text>
<text transform="matrix(1 0 0 1 19.1268 190.3899)"><tspan x="0" y="0" class="st3 st4 st5">$</tspan><tspan x="5.8" y="0" class="st3 st4 st5">4</tspan><tspan x="11.6" y="0" class="st3 st4 st5">0</tspan></text>
<text transform="matrix(1 0 0 1 19.1268 168.1693)"><tspan x="0" y="0" class="st3 st4 st5">$</tspan><tspan x="5.8" y="0" class="st3 st4 st5">6</tspan><tspan x="11.6" y="0" class="st3 st4 st5">0</tspan></text>
<text transform="matrix(1 0 0 1 19.1268 145.9488)"><tspan x="0" y="0" class="st3 st4 st5">$</tspan><tspan x="5.8" y="0" class="st3 st4 st5">8</tspan><tspan x="11.6" y="0" class="st3 st4 st5">0</tspan></text>
<text transform="matrix(1 0 0 1 14.1107 123.7285)"><tspan x="0" y="0" class="st3 st4 st5">$</tspan><tspan x="5.8" y="0" class="st3 st4 st5">10</tspan><tspan x="17.3" y="0" class="st3 st4 st5">0</tspan></text>
<text transform="matrix(1 0 0 1 14.1107 101.5077)"><tspan x="0" y="0" class="st3 st4 st5">$</tspan><tspan x="5.8" y="0" class="st3 st4 st5">12</tspan><tspan x="17.3" y="0" class="st3 st4 st5">0</tspan></text>
<text transform="matrix(1 0 0 1 14.1107 79.2871)"><tspan x="0" y="0" class="st3 st4 st5">$</tspan><tspan x="5.8" y="0" class="st3 st4 st5">14</tspan><tspan x="17.3" y="0" class="st3 st4 st5">0</tspan></text>
<text transform="matrix(1 0 0 1 14.1107 57.0665)"><tspan x="0" y="0" class="st3 st4 st5">$</tspan><tspan x="5.8" y="0" class="st3 st4 st5">16</tspan><tspan x="17.3" y="0" class="st3 st4 st5">0</tspan></text>
<text transform="matrix(1 0 0 1 14.1107 34.846)"><tspan x="0" y="0" class="st3 st4 st5">$</tspan><tspan x="5.8" y="0" class="st3 st4 st5">18</tspan><tspan x="17.3" y="0" class="st3 st4 st5">0</tspan></text>
<text transform="matrix(1 0 0 1 14.1106 12.6256)"><tspan x="0" y="0" class="st3 st4 st5">$</tspan><tspan x="5.8" y="0" class="st3 st4 st5">20</tspan><tspan x="17.3" y="0" class="st3 st4 st5">0</tspan></text>
<text transform="matrix(1 0 0 1 29.3948 246.8504)"><tspan x="0" y="0" class="st3 st4 st5">19</tspan><tspan x="11.5" y="0" class="st3 st4 st5">6</tspan><tspan x="17.4" y="0" class="st3 st4 st5">1</tspan></text>
<text transform="matrix(1 0 0 1 80.2635 246.8505)"><tspan x="0" y="0" class="st3 st4 st5">19</tspan><tspan x="11.5" y="0" class="st3 st4 st5">6</tspan><tspan x="17.4" y="0" class="st3 st4 st5">6</tspan></text>
<text transform="matrix(1 0 0 1 131.1319 246.8505)"><tspan x="0" y="0" class="st3 st4 st5">19</tspan><tspan x="11.5" y="0" class="st3 st4 st5">7</tspan><tspan x="17.4" y="0" class="st3 st4 st5">1</tspan></text>
<text transform="matrix(1 0 0 1 182 246.8505)"><tspan x="0" y="0" class="st3 st4 st5">19</tspan><tspan x="11.5" y="0" class="st3 st4 st5">7</tspan><tspan x="17.4" y="0" class="st3 st4 st5">6</tspan></text>
<text transform="matrix(1 0 0 1 232.8686 246.8505)"><tspan x="0" y="0" class="st3 st4 st5">19</tspan><tspan x="11.5" y="0" class="st3 st4 st5">8</tspan><tspan x="17.4" y="0" class="st3 st4 st5">1</tspan></text>
<text transform="matrix(1 0 0 1 283.737 246.8505)"><tspan x="0" y="0" class="st3 st4 st5">19</tspan><tspan x="11.5" y="0" class="st3 st4 st5">8</tspan><tspan x="17.4" y="0" class="st3 st4 st5">6</tspan></text>
<text transform="matrix(1 0 0 1 334.6054 246.8505)"><tspan x="0" y="0" class="st3 st4 st5">19</tspan><tspan x="11.5" y="0" class="st3 st4 st5">9</tspan><tspan x="17.4" y="0" class="st3 st4 st5">1</tspan></text>
<text transform="matrix(1 0 0 1 385.4738 246.8505)"><tspan x="0" y="0" class="st3 st4 st5">19</tspan><tspan x="11.5" y="0" class="st3 st4 st5">9</tspan><tspan x="17.4" y="0" class="st3 st4 st5">6</tspan></text>
<text transform="matrix(1 0 0 1 436.3422 246.8505)"><tspan x="0" y="0" class="st3 st4 st5">20</tspan><tspan x="11.5" y="0" class="st3 st4 st5">0</tspan><tspan x="17.4" y="0" class="st3 st4 st5">1</tspan></text>
<text transform="matrix(1 0 0 1 487.2105 246.8505)"><tspan x="0" y="0" class="st3 st4 st5">20</tspan><tspan x="11.5" y="0" class="st3 st4 st5">0</tspan><tspan x="17.4" y="0" class="st3 st4 st5">6</tspan></text>
<text transform="matrix(1 0 0 1 538.079 246.8503)"><tspan x="0" y="0" class="st3 st4 st5">20</tspan><tspan x="11.5" y="0" class="st3 st4 st5">1</tspan><tspan x="17.4" y="0" class="st3 st4 st5">1</tspan></text>
<g>
	<text transform="matrix(0 -1 1 0 7.9316 131.4992)"><tspan x="0" y="0" class="st6 st7 st5">B</tspan><tspan x="6.5" y="0" class="st6 st7 st5">i</tspan><tspan x="9" y="0" class="st6 st7 st5">ll</tspan><tspan x="13.9" y="0" class="st6 st7 st5">i</tspan><tspan x="16.3" y="0" class="st6 st7 st5">o</tspan><tspan x="22" y="0" class="st6 st7 st5">n</tspan><tspan x="27.6" y="0" class="st6 st7 st5">s</tspan></text>
</g>
<g>
	<text transform="matrix(1 0 0 1 321.0941 146.6415)"><tspan x="0" y="0" class="st8 st9 st5">S</tspan><tspan x="5.5" y="0" class="st8 st9 st5">t</tspan><tspan x="9.3" y="0" class="st8 st9 st5">a</tspan><tspan x="14.4" y="0" class="st8 st9 st5">t</tspan><tspan x="18.2" y="0" class="st8 st9 st5">e</tspan><tspan x="23.6" y="0" class="st8 st9 st5"> </tspan><tspan x="25.9" y="0" class="st8 st9 st5">T</tspan><tspan x="31.9" y="0" class="st8 st9 st5">a</tspan><tspan x="37" y="0" class="st8 st9 st5">x Collections</tspan></text>
</g>
<g>
	<text transform="matrix(1 0 0 1 325.3055 208.9453)"><tspan x="0" y="0" class="st8 st9 st5">L</tspan><tspan x="5.2" y="0" class="st8 st9 st5">o</tspan><tspan x="11" y="0" class="st8 st9 st5">c</tspan><tspan x="15.9" y="0" class="st8 st9 st5">a</tspan><tspan x="21" y="0" class="st8 st9 st5">l</tspan><tspan x="23.5" y="0" class="st8 st9 st5"> </tspan><tspan x="25.8" y="0" class="st8 st9 st5">T</tspan><tspan x="31.9" y="0" class="st8 st9 st5">a</tspan><tspan x="37" y="0" class="st8 st9 st5">x Collections</tspan></text>
</g>
<polygon class="st10" points="478.5,230.9 437.8,230.9 437.8,53.4 458.7,60.1 478.5,50.3 "/>
<polygon class="st11" points="478.5,230.9 437.8,230.9 437.8,177.3 458.3,170.9 478.5,165.8 "/>
<line class="st12" x1="41.2" y1="230.8" x2="559.8" y2="230.8"/>
<path class="st12" d="M41.2,228.8v4.3 M92.1,228.8v4.3 M143,228.8v4.3 M193.8,228.8v4.3 M244.6,228.8v4.3 M295.5,228.8v4.3
	 M346.3,228.8v4.3 M397.1,228.8v4.3 M448,228.8v4.3 M498.8,228.8v4.3 M549.7,228.8v4.3"/>
</svg>
