<svg id="Layer_1" xmlns="http://www.w3.org/2000/svg" viewBox="0 0 561 252"><style>.st0{fill:none;stroke:#D1D3D4;stroke-width:0.5;stroke-linejoin:round;stroke-miterlimit:10;} .st1{fill:none;stroke:#414042;stroke-width:0.5;stroke-linejoin:round;stroke-miterlimit:10;} .st2{fill:#B5B5B5;stroke:#065296;stroke-width:2.25;stroke-linecap:round;stroke-linejoin:round;stroke-miterlimit:10;} .st3{fill:none;stroke:#21B573;stroke-width:2.25;stroke-linecap:round;stroke-linejoin:round;stroke-miterlimit:10;} .st4{fill:#414042;} .st5{font-family:&apos;Lato&apos;;font-weight:400;} .st6{font-size:10px;} .st7{fill:#065296;} .st8{font-family:&apos;Lato&apos;;font-weight:700;} .st9{fill:#21B573;}</style><path class="st0" d="M42.7 8.5h513.6M42.7 33.9h513.6M42.7 58.6h513.6M42.7 84.1h513.6M42.7 108.8h513.6M42.7 134.2h513.6M42.7 158.9h513.6M42.7 184.4h513.6M42.7 209.1h513.6"/><path class="st1" d="M42.7 234.2h513.6"/><path class="st2" d="M526.5 123.6l15 20.5m-29.1-15.5l14.1-4.9m-29.1 10.5l15-5.7m-29.1 5.7h14.1m-29.2 5l15-4.9m-30 9.8l15-4.9m-29.1 4.9h14.1m-29.1 0h15M410 154l14.1-9.9M395 154h15m-30.1 4.9l15-4.9m-29.1 0l14.1 4.9m-29.1-14.8l15 9.9m-30-14.8l15 4.9m-29.1-15.5l14.1 10.6m-29.1-20.5l15 9.9m-29.1-14.9l14.1 4.9m-29.2-4.9h15m-30 5l15-4.9m-29.1 14.8l14.1-9.9m-29.1 15.5l15-5.7m-29.1 10.7l14.1-4.9m-29.1-.1l15 4.9m-30.1.1l15-4.9m-29 9.8l14.1-4.9m-29.2 4.9h15m-29.1 0h14.1M131 154l15-9.9m-30 19.8l15-9.9m-29.1 9.9H116M86.9 154l15 9.9m-29.1-19.8l14.1 9.9m-29.2-35.3l15 25.4m-30-35.3l15 9.9"/><path class="st3" d="M526.5 53.7l15 9.9m-29.1 9.9l14.1-19.8m-29.1 14.8l15 4.9m-29.1.1l14.1-4.9M468.2 94l15-20.5m-30 40.2l15-19.8m-29.1 19.8h14.1m-29.1 5l15-4.9m-29.1 4.9h14.1M395 94l15 24.7m-30.1-9.9L395 94m-29.2 29.6l14.1-14.8m-29.1 0l15 14.8m-30-14.8h15m-29.1-9.9l14.1 9.9m-29.1-9.9h15m-29.1 0h14.1M277.5 89l15 9.9m-30-9.9h15m-29.1 9.9l14.1-9.9m-29.1 9.9h15m-29.1 9.9l14.1-9.9m-29.1 19.8l15-9.9m-30.1-5l15 14.8m-29 .1l14.1-14.8m-29.2 9.8l15 4.9m-29.1.1l14.1-4.9M131 128.6l15-9.9m-30 4.9l15 4.9m-29.1.1l14.1-4.9m-29.1-19.9l15 24.7m-29.1-9.8l14.1-14.8M57.7 23.3l15 95.4m-30-84.8l15-10.6"/><text transform="translate(14.963 237.3)" class="st4 st5 st6">8.0%</text><text transform="translate(14.963 212.28)" class="st4 st5 st6">8.5%</text><text transform="translate(14.963 187.262)" class="st4 st5 st6">9.0%</text><text transform="translate(14.963 162.244)" class="st4 st5 st6">9.5%</text><text transform="translate(9.515 137.225)" class="st4 st5 st6">10.0%</text><text transform="translate(9.515 112.207)" class="st4 st5 st6">10.5%</text><text transform="translate(9.515 87.188)" class="st4 st5 st6">11.0%</text><text transform="translate(9.515 62.17)" class="st4 st5 st6">11.5%</text><text transform="translate(9.515 37.15)" class="st4 st5 st6">12.0%</text><text transform="translate(9.515 12.133)" class="st4 st5 st6">12.5%</text><text transform="translate(298.13 154.072)"><tspan x="0" y="0" class="st7 st8 st6">U.S. Average</tspan></text><text transform="translate(256.09 81.964)" class="st9 st8 st6">California</text><path class="st1" d="M43.1 231.4v6.1m60.4-6.1v6.1m60.3-6.1v6.1m60.4-6.1v6.1m60.4-6.1v6.1m60.4-6.1v6.1m60.4-6.1v6.1m60.3-6.1v6.1m60.4-6.1v6.1"/><text transform="translate(30.886 249.504)"><tspan x="0" y="0" class="st4 st5 st6">1977</tspan></text><text transform="translate(91.258 249.504)"><tspan x="0" y="0" class="st4 st5 st6">1981</tspan></text><text transform="translate(151.64 249.504)"><tspan x="0" y="0" class="st4 st5 st6">1985</tspan></text><text transform="translate(212.002 249.504)"><tspan x="0" y="0" class="st4 st5 st6">1989</tspan></text><text transform="translate(272.383 249.504)"><tspan x="0" y="0" class="st4 st5 st6">1993</tspan></text><text transform="translate(332.755 249.504)"><tspan x="0" y="0" class="st4 st5 st6">1997</tspan></text><text transform="translate(393.128 249.504)"><tspan x="0" y="0" class="st4 st5 st6">2001</tspan></text><text transform="translate(453.5 249.504)"><tspan x="0" y="0" class="st4 st5 st6">2005</tspan></text><text transform="translate(513.88 249.504)"><tspan x="0" y="0" class="st4 st5 st6">2009</tspan></text></svg>