<svg id="Layer_1" xmlns="http://www.w3.org/2000/svg" viewBox="0 0 561 252"><style>.st0{fill:none;stroke:#D1D3D4;stroke-width:0.5;stroke-linejoin:round;stroke-miterlimit:10;} .st1{fill:#27679D;} .st2{fill-rule:evenodd;clip-rule:evenodd;fill:none;} .st3{fill:#00A7B4;} .st4{fill:#81C784;} .st5{fill:#DB7278;} .st6{fill:#808285;} .st7{font-family:&apos;Lato&apos;;font-weight:700;} .st8{font-size:8px;} .st9{fill:#5A5A5A;} .st10{font-family:&apos;Lato&apos;;font-weight:400;} .st11{font-size:10px;} .st12{font-size:12px;} .st13{fill:#58595B;}</style><path class="st0" d="M44.5 213.1h507m-507-25.2h507m-507-25.4h507m-507-25.2h507m-507-25.4h507m-507-25.2h507m-507-25.2h507m-507-25.4h507m-507-25.2h507"/><path class="st1" d="M45.6 163.9h23.1v49.3H45.6v-49.3zm25.4.3h23.1v48.9H71v-48.9zm50.7 40.3h23.1v8.6h-23.1v-8.6zm25.3-2.4h23.1v11.1H147v-11.1zm50.7-32.6h23.1v43.6h-23.1v-43.6zm25.3 4.4h23.1v39.2H223v-39.2zm50.8 34.5h23v4.7h-23v-4.7zm25.3.4h23v4.3h-23v-4.3zm126.7-51.4h23.1v55.7h-23.1v-55.7zm25.4 36.5h23.1v19.2h-23.1v-19.2zm50.6-25.8h23.1v45h-23.1v-45zm25.4 8.5h23.1v36.5h-23.1v-36.5z"/><path class="st2" d="M44.5 213.6h507.4V10.9H44.5v202.7z"/><path class="st3" d="M45.6 160h23.1v3.9H45.6V160zm25.4-.4h23.1v4.6H71v-4.6zm50.7 41.2h23.1v3.7h-23.1v-3.7zm25.3-3.5h23.1v4.7H147v-4.7zm50.7-32.8h23.1v5h-23.1v-5zm25.3.3h23.1v9.1H223v-9.1zm50.8 25h23v18.6h-23v-18.6zm25.3-5.7h23v24.7h-23v-24.7zm50.7 25.2h23v3.8h-23v-3.8zm25.4-1.1h23v4.9h-23v-4.9zm50.6-51.6h23.1v.9h-23.1v-.9zm25.4 36.4h23.1v.9h-23.1v-.9zm50.6-26.8h23.1v1.9h-23.1v-1.9zm25.4 8h23.1v2.5h-23.1v-2.5z"/><path class="st2" d="M44.5 213.6h507.4V10.9H44.5v202.7z"/><path class="st4" d="M45.6 137.5h23.1V160H45.6v-22.5zM71 124.4h23.1v35.2H71v-35.2zm50.7 65h23.1v11.4h-23.1v-11.4zm25.3-14.9h23.1v22.8H147v-22.8zm50.7-25.1h23.1v15.1h-23.1v-15.1zm25.3-39h23.1v54.4H223v-54.4zm50.8 66.3h23v13h-23v-13zm25.3-22.5h23v29.9h-23v-29.9zm50.7 38.2h23v16.9h-23v-16.9zm25.4-23.5h23v39.3h-23v-39.3zm50.6-20.5h23.1v8.1h-23.1v-8.1zm25.4 20.6h23.1v24h-23.1v-24zm50.6-15h23.1v12.2h-23.1V154zm25.4-1.8h23.1v21.9h-23.1v-21.9z"/><path class="st2" d="M44.5 213.6h507.4V10.9H44.5v202.7z"/><path class="st5" d="M45.6 128.1h23.1v9.4H45.6v-9.4zM71 107.5h23.1v16.9H71v-16.9zm50.7 65.2h23.1v16.6h-23.1v-16.6zm25.3-27.3h23.1v29.1H147v-29.1zm50.7-13.6h23.1v17.6h-23.1v-17.6zM223 60.7h23.1v49.7H223V60.7zm50.8 94.8h23v21.2h-23v-21.2zm25.3-39.4h23v38.1h-23v-38.1zm50.7 20.2h23v56.1h-23v-56.1zM375.2 80h23v88.9h-23V80zm50.6 51h23.1v17.4h-23.1V131zm25.4-7.2h23.1V169h-23.1v-45.2zm50.6 22.8h23.1v7.5h-23.1v-7.5zm25.4-15.8h23.1v21.5h-23.1v-21.5z"/><path class="st2" d="M44.5 213.6h507.4V10.9H44.5v202.7z"/><text transform="translate(45.442 121.52)"><tspan x="0" y="0" class="st6 st7 st8">16.8%</tspan></text><text transform="translate(71.086 105.035)"><tspan x="0" y="0" class="st6 st7 st8">20.9%</tspan></text><text transform="translate(123.73 165.23)"><tspan x="0" y="0" class="st6 st7 st8">8.0%</tspan></text><text transform="translate(147 143.326)"><tspan x="0" y="0" class="st6 st7 st8">13.4%</tspan></text><text transform="translate(197.756 124.448)"><tspan x="0" y="0" class="st6 st7 st8">16.1%</tspan></text><text transform="translate(224.122 57.59)"><tspan x="0" y="0" class="st6 st7 st8">29.9%</tspan></text><text transform="translate(273.815 151.438)"><tspan x="0" y="0" class="st6 st7 st8">11.4%</tspan></text><text transform="translate(299.215 109.926)"><tspan x="0" y="0" class="st6 st7 st8">19.2%</tspan></text><text transform="translate(350.703 131.085)"><tspan x="0" y="0" class="st6 st7 st8">15.2%</tspan></text><text transform="translate(374.85 76.01)"><tspan x="0" y="0" class="st6 st7 st8">26.3%</tspan></text><text transform="translate(425.398 126)"><tspan x="0" y="0" class="st6 st7 st8">16.2%</tspan></text><text transform="translate(451.563 120.065)"><tspan x="0" y="0" class="st6 st7 st8">17.7%</tspan></text><text transform="translate(501.37 143.326)"><tspan x="0" y="0" class="st6 st7 st8">13.2%</tspan></text><text transform="translate(527.19 128.116)"><tspan x="0" y="0" class="st6 st7 st8">16.3%</tspan></text><text transform="translate(24.18 216.783)"><tspan x="0" y="0" class="st9 st10 st11">0%</tspan></text><text transform="translate(24.18 191.507)"><tspan x="0" y="0" class="st9 st10 st11">5%</tspan></text><text transform="translate(18.41 166.23)"><tspan x="0" y="0" class="st9 st10 st11">10%</tspan></text><text transform="translate(18.41 140.952)"><tspan x="0" y="0" class="st9 st10 st11">15%</tspan></text><text transform="translate(18.41 115.676)"><tspan x="0" y="0" class="st9 st10 st11">20%</tspan></text><text transform="translate(18.41 90.4)"><tspan x="0" y="0" class="st9 st10 st11">25%</tspan></text><text transform="translate(18.41 65.122)"><tspan x="0" y="0" class="st9 st10 st11">30%</tspan></text><text transform="translate(18.41 39.845)"><tspan x="0" y="0" class="st9 st10 st11">35%</tspan></text><text transform="translate(18.41 14.568)"><tspan x="0" y="0" class="st9 st10 st11">40%</tspan></text><text transform="translate(42.256 18.28)"><tspan x="0" y="0" class="st5 st7 st12">Property Taxes</tspan></text><text transform="translate(42.256 33.143)"><tspan x="0" y="0" class="st4 st7 st12">Sales Taxes</tspan></text><text transform="translate(42.256 48.008)" class="st3 st7 st12">Unemployment Insurance Tax</text><text transform="translate(42.256 62.872)"><tspan x="0" y="0" class="st1 st7 st12">Corporate Income Tax</tspan></text><text transform="translate(47.028 235.053)"><tspan x="0" y="0" class="st9 st10 st11">Corporate</tspan></text><text transform="translate(39.957 246.37)"><tspan x="0" y="0" class="st9 st10 st11">Headquarters</tspan></text><text transform="translate(412.918 235.482)"><tspan x="0" y="0" class="st9 st10 st11">Capital-Intensive</tspan></text><text transform="translate(416.75 246.8)"><tspan x="0" y="0" class="st9 st10 st11">Manufacturing</tspan></text><text transform="translate(344.965 235.053)"><tspan x="0" y="0" class="st9 st10 st11">Distribution</tspan></text><text transform="translate(354.985 246.37)"><tspan x="0" y="0" class="st9 st10 st11">Center</tspan></text><text transform="translate(288.573 235.482)"><tspan x="0" y="0" class="st9 st10 st11">Call</tspan></text><text transform="translate(282.384 246.8)"><tspan x="0" y="0" class="st9 st10 st11">Center</tspan></text><text transform="translate(209.972 235.053)"><tspan x="0" y="0" class="st9 st10 st11">Retail</tspan></text><text transform="translate(210.656 246.37)"><tspan x="0" y="0" class="st9 st10 st11">Store</tspan></text><text transform="translate(134.56 235.482)"><tspan x="0" y="0" class="st9 st10 st11">R&amp;D</tspan></text><text transform="translate(129.943 246.8)"><tspan x="0" y="0" class="st9 st10 st11">Facility</tspan></text><text transform="translate(491.248 235.053)"><tspan x="0" y="0" class="st9 st10 st11">Labor-Intensive</tspan></text><text transform="translate(492.623 246.372)"><tspan x="0" y="0" class="st9 st10 st11">Manufacturing</tspan></text><text transform="translate(43.492 221.768)"><tspan x="0" y="0" class="st13 st7 st8">Mature</tspan></text><text transform="translate(499.42 221.506)"><tspan x="0" y="0" class="st13 st7 st8">Mature</tspan></text><text transform="translate(423.447 221.9)"><tspan x="0" y="0" class="st13 st7 st8">Mature</tspan></text><text transform="translate(347.753 221.9)"><tspan x="0" y="0" class="st13 st7 st8">Mature</tspan></text><text transform="translate(272.65 221.506)"><tspan x="0" y="0" class="st13 st7 st8">Mature</tspan></text><text transform="translate(195.806 221.9)"><tspan x="0" y="0" class="st13 st7 st8">Mature</tspan></text><text transform="translate(119.148 221.9)"><tspan x="0" y="0" class="st13 st7 st8">Mature</tspan></text><text transform="translate(73.898 221.768)"><tspan x="0" y="0" class="st13 st7 st8">New</tspan></text><text transform="translate(530.347 221.506)"><tspan x="0" y="0" class="st13 st7 st8">New</tspan></text><text transform="translate(454.375 221.9)"><tspan x="0" y="0" class="st13 st7 st8">New</tspan></text><text transform="translate(377.66 221.866)"><tspan x="0" y="0" class="st13 st7 st8">New</tspan></text><text transform="translate(302.027 221.506)"><tspan x="0" y="0" class="st13 st7 st8">New</tspan></text><text transform="translate(226.483 221.9)"><tspan x="0" y="0" class="st13 st7 st8">New</tspan></text><text transform="translate(149.81 221.9)"><tspan x="0" y="0" class="st13 st7 st8">New</tspan></text></svg>