<?xml version="1.0" encoding="utf-8"?>
<!-- Generator: Adobe Illustrator 19.1.0, SVG Export Plug-In . SVG Version: 6.00 Build 0)  -->
<svg version="1.1" id="Layer_1" xmlns="http://www.w3.org/2000/svg" xmlns:xlink="http://www.w3.org/1999/xlink" x="0px" y="0px"
	 viewBox="0 0 561 252" style="enable-background:new 0 0 561 252;" xml:space="preserve">
<style type="text/css">
	.st0{fill:none;stroke:#D1D3D4;stroke-width:0.5;stroke-linejoin:round;stroke-miterlimit:10;}
	.st1{fill:#27679D;}
	.st2{fill-rule:evenodd;clip-rule:evenodd;fill:none;}
	.st3{fill:#00A7B4;}
	.st4{fill:#81C784;}
	.st5{fill:#DB7278;}
	.st6{fill:#808285;}
	.st7{font-family:'Lato-Heavy';}
	.st8{font-size:8px;}
	.st9{fill:#5A5A5A;}
	.st10{font-family:'Lato-Regular';}
	.st11{font-size:10px;}
	.st12{font-size:12px;}
	.st13{fill:#58595B;}
</style>
<path class="st0" d="M44.5,213.1h507 M44.5,187.9h507 M44.5,162.5h507 M44.5,137.3h507 M44.5,111.9h507 M44.5,86.7h507 M44.5,61.5
	h507 M44.5,36.1h507 M44.5,10.9h507"/>
<path class="st1" d="M45.6,163.9h23.1v49.3H45.6V163.9L45.6,163.9z M71,164.2h23.1v48.9H71V164.2L71,164.2z M121.7,204.5h23.1v8.6
	h-23.1V204.5L121.7,204.5z M147,202.1h23.1v11.1H147V202.1L147,202.1z M197.7,169.5h23.1v43.6h-23.1V169.5L197.7,169.5z M223,173.9
	h23.1v39.2H223V173.9L223,173.9z M273.8,208.4h23v4.7h-23V208.4L273.8,208.4z M299.1,208.8h23v4.3h-23V208.8L299.1,208.8z
	 M425.8,157.4h23.1v55.7h-23.1V157.4L425.8,157.4z M451.2,193.9h23.1v19.2h-23.1V193.9L451.2,193.9z M501.8,168.1h23.1v45h-23.1
	V168.1L501.8,168.1z M527.2,176.6h23.1v36.5h-23.1V176.6L527.2,176.6z"/>
<polygon class="st2" points="44.5,213.6 551.9,213.6 551.9,10.9 44.5,10.9 44.5,213.6 "/>
<path class="st3" d="M45.6,160h23.1v3.9H45.6V160L45.6,160z M71,159.6h23.1v4.6H71V159.6L71,159.6z M121.7,200.8h23.1v3.7h-23.1
	V200.8L121.7,200.8z M147,197.3h23.1v4.7H147V197.3L147,197.3z M197.7,164.5h23.1v5h-23.1V164.5L197.7,164.5z M223,164.8h23.1v9.1
	H223V164.8L223,164.8z M273.8,189.8h23v18.6h-23V189.8L273.8,189.8z M299.1,184.1h23v24.7h-23V184.1L299.1,184.1z M349.8,209.3h23
	v3.8h-23V209.3L349.8,209.3z M375.2,208.2h23v4.9h-23V208.2L375.2,208.2z M425.8,156.6h23.1v0.9h-23.1V156.6L425.8,156.6z
	 M451.2,193h23.1v0.9h-23.1V193L451.2,193z M501.8,166.2h23.1v1.9h-23.1V166.2L501.8,166.2z M527.2,174.2h23.1v2.5h-23.1V174.2
	L527.2,174.2z"/>
<polygon class="st2" points="44.5,213.6 551.9,213.6 551.9,10.9 44.5,10.9 44.5,213.6 "/>
<path class="st4" d="M45.6,137.5h23.1V160H45.6V137.5L45.6,137.5z M71,124.4h23.1v35.2H71V124.4L71,124.4z M121.7,189.4h23.1v11.4
	h-23.1V189.4L121.7,189.4z M147,174.5h23.1v22.8H147V174.5L147,174.5z M197.7,149.4h23.1v15.1h-23.1V149.4L197.7,149.4z M223,110.4
	h23.1v54.4H223V110.4L223,110.4z M273.8,176.7h23v13h-23V176.7L273.8,176.7z M299.1,154.2h23v29.9h-23V154.2L299.1,154.2z
	 M349.8,192.4h23v16.9h-23V192.4L349.8,192.4z M375.2,168.9h23v39.3h-23V168.9L375.2,168.9z M425.8,148.4h23.1v8.1h-23.1V148.4
	L425.8,148.4z M451.2,169h23.1v24h-23.1V169L451.2,169z M501.8,154h23.1v12.2h-23.1V154L501.8,154z M527.2,152.2h23.1v21.9h-23.1
	V152.2L527.2,152.2z"/>
<polygon class="st2" points="44.5,213.6 551.9,213.6 551.9,10.9 44.5,10.9 44.5,213.6 "/>
<path class="st5" d="M45.6,128.1h23.1v9.4H45.6V128.1L45.6,128.1z M71,107.5h23.1v16.9H71V107.5L71,107.5z M121.7,172.7h23.1v16.6
	h-23.1V172.7L121.7,172.7z M147,145.4h23.1v29.1H147V145.4L147,145.4z M197.7,131.8h23.1v17.6h-23.1V131.8L197.7,131.8z M223,60.7
	h23.1v49.7H223V60.7L223,60.7z M273.8,155.5h23v21.2h-23V155.5L273.8,155.5z M299.1,116.1h23v38.1h-23V116.1L299.1,116.1z
	 M349.8,136.3h23v56.1h-23V136.3L349.8,136.3z M375.2,80h23v88.9h-23V80L375.2,80z M425.8,131h23.1v17.4h-23.1V131L425.8,131z
	 M451.2,123.8h23.1V169h-23.1V123.8L451.2,123.8z M501.8,146.6h23.1v7.5h-23.1V146.6L501.8,146.6z M527.2,130.8h23.1v21.5h-23.1
	V130.8L527.2,130.8z"/>
<polygon class="st2" points="44.5,213.6 551.9,213.6 551.9,10.9 44.5,10.9 44.5,213.6 "/>
<text transform="matrix(1 0 0 1 45.4423 121.5204)"><tspan x="0" y="0" class="st6 st7 st8">16</tspan><tspan x="9.4" y="0" class="st6 st7 st8">.</tspan><tspan x="11.3" y="0" class="st6 st7 st8">8</tspan><tspan x="16" y="0" class="st6 st7 st8">%</tspan></text>
<text transform="matrix(1 0 0 1 71.0864 105.0354)"><tspan x="0" y="0" class="st6 st7 st8">20</tspan><tspan x="9.4" y="0" class="st6 st7 st8">.</tspan><tspan x="11.3" y="0" class="st6 st7 st8">9</tspan><tspan x="16" y="0" class="st6 st7 st8">%</tspan></text>
<text transform="matrix(1 0 0 1 123.7309 165.2289)"><tspan x="0" y="0" class="st6 st7 st8">8</tspan><tspan x="4.7" y="0" class="st6 st7 st8">.</tspan><tspan x="6.6" y="0" class="st6 st7 st8">0</tspan><tspan x="11.3" y="0" class="st6 st7 st8">%</tspan></text>
<text transform="matrix(1 0 0 1 146.9989 143.3256)"><tspan x="0" y="0" class="st6 st7 st8">13</tspan><tspan x="9.4" y="0" class="st6 st7 st8">.</tspan><tspan x="11.3" y="0" class="st6 st7 st8">4</tspan><tspan x="16" y="0" class="st6 st7 st8">%</tspan></text>
<text transform="matrix(1 0 0 1 197.7565 124.4475)"><tspan x="0" y="0" class="st6 st7 st8">16</tspan><tspan x="9.4" y="0" class="st6 st7 st8">.</tspan><tspan x="11.3" y="0" class="st6 st7 st8">1</tspan><tspan x="16" y="0" class="st6 st7 st8">%</tspan></text>
<text transform="matrix(1 0 0 1 224.1222 57.5886)"><tspan x="0" y="0" class="st6 st7 st8">29</tspan><tspan x="9.4" y="0" class="st6 st7 st8">.</tspan><tspan x="11.3" y="0" class="st6 st7 st8">9</tspan><tspan x="16" y="0" class="st6 st7 st8">%</tspan></text>
<text transform="matrix(1 0 0 1 273.8146 151.4377)"><tspan x="0" y="0" class="st6 st7 st8">11</tspan><tspan x="9.4" y="0" class="st6 st7 st8">.</tspan><tspan x="11.3" y="0" class="st6 st7 st8">4</tspan><tspan x="16" y="0" class="st6 st7 st8">%</tspan></text>
<text transform="matrix(1 0 0 1 299.2149 109.9264)"><tspan x="0" y="0" class="st6 st7 st8">19</tspan><tspan x="9.4" y="0" class="st6 st7 st8">.</tspan><tspan x="11.3" y="0" class="st6 st7 st8">2</tspan><tspan x="16" y="0" class="st6 st7 st8">%</tspan></text>
<text transform="matrix(1 0 0 1 350.7029 131.0854)"><tspan x="0" y="0" class="st6 st7 st8">15</tspan><tspan x="9.4" y="0" class="st6 st7 st8">.</tspan><tspan x="11.3" y="0" class="st6 st7 st8">2</tspan><tspan x="16" y="0" class="st6 st7 st8">%</tspan></text>
<text transform="matrix(1 0 0 1 374.8494 76.0094)"><tspan x="0" y="0" class="st6 st7 st8">26</tspan><tspan x="9.4" y="0" class="st6 st7 st8">.</tspan><tspan x="11.3" y="0" class="st6 st7 st8">3</tspan><tspan x="16" y="0" class="st6 st7 st8">%</tspan></text>
<text transform="matrix(1 0 0 1 425.3977 126.0002)"><tspan x="0" y="0" class="st6 st7 st8">16</tspan><tspan x="9.4" y="0" class="st6 st7 st8">.</tspan><tspan x="11.3" y="0" class="st6 st7 st8">2</tspan><tspan x="16" y="0" class="st6 st7 st8">%</tspan></text>
<text transform="matrix(1 0 0 1 451.5629 120.0647)"><tspan x="0" y="0" class="st6 st7 st8">17</tspan><tspan x="9.4" y="0" class="st6 st7 st8">.</tspan><tspan x="11.3" y="0" class="st6 st7 st8">7</tspan><tspan x="16" y="0" class="st6 st7 st8">%</tspan></text>
<text transform="matrix(1 0 0 1 501.3694 143.3258)"><tspan x="0" y="0" class="st6 st7 st8">13</tspan><tspan x="9.4" y="0" class="st6 st7 st8">.</tspan><tspan x="11.3" y="0" class="st6 st7 st8">2</tspan><tspan x="16" y="0" class="st6 st7 st8">%</tspan></text>
<text transform="matrix(1 0 0 1 527.1889 128.1156)"><tspan x="0" y="0" class="st6 st7 st8">16</tspan><tspan x="9.4" y="0" class="st6 st7 st8">.</tspan><tspan x="11.3" y="0" class="st6 st7 st8">3</tspan><tspan x="16" y="0" class="st6 st7 st8">%</tspan></text>
<text transform="matrix(1 0 0 1 24.1797 216.7834)"><tspan x="0" y="0" class="st9 st10 st11">0</tspan><tspan x="5.8" y="0" class="st9 st10 st11">%</tspan></text>
<text transform="matrix(1 0 0 1 24.1798 191.5066)"><tspan x="0" y="0" class="st9 st10 st11">5</tspan><tspan x="5.8" y="0" class="st9 st10 st11">%</tspan></text>
<text transform="matrix(1 0 0 1 18.4098 166.2289)"><tspan x="0" y="0" class="st9 st10 st11">10</tspan><tspan x="11.5" y="0" class="st9 st10 st11">%</tspan></text>
<text transform="matrix(1 0 0 1 18.4098 140.9521)"><tspan x="0" y="0" class="st9 st10 st11">15</tspan><tspan x="11.5" y="0" class="st9 st10 st11">%</tspan></text>
<text transform="matrix(1 0 0 1 18.4098 115.6756)"><tspan x="0" y="0" class="st9 st10 st11">20</tspan><tspan x="11.5" y="0" class="st9 st10 st11">%</tspan></text>
<text transform="matrix(1 0 0 1 18.4098 90.3986)"><tspan x="0" y="0" class="st9 st10 st11">25</tspan><tspan x="11.5" y="0" class="st9 st10 st11">%</tspan></text>
<text transform="matrix(1 0 0 1 18.4098 65.1218)"><tspan x="0" y="0" class="st9 st10 st11">30</tspan><tspan x="11.5" y="0" class="st9 st10 st11">%</tspan></text>
<text transform="matrix(1 0 0 1 18.4098 39.8446)"><tspan x="0" y="0" class="st9 st10 st11">35</tspan><tspan x="11.5" y="0" class="st9 st10 st11">%</tspan></text>
<text transform="matrix(1 0 0 1 18.4094 14.5678)"><tspan x="0" y="0" class="st9 st10 st11">40</tspan><tspan x="11.5" y="0" class="st9 st10 st11">%</tspan></text>
<text transform="matrix(1 0 0 1 42.2563 18.2787)"><tspan x="0" y="0" class="st5 st7 st12">Pr</tspan><tspan x="12.1" y="0" class="st5 st7 st12">o</tspan><tspan x="19.1" y="0" class="st5 st7 st12">p</tspan><tspan x="25.9" y="0" class="st5 st7 st12">e</tspan><tspan x="32.4" y="0" class="st5 st7 st12">r</tspan><tspan x="37" y="0" class="st5 st7 st12">t</tspan><tspan x="41.5" y="0" class="st5 st7 st12">y</tspan><tspan x="47.9" y="0" class="st5 st7 st12"> </tspan><tspan x="50.5" y="0" class="st5 st7 st12">T</tspan><tspan x="57.7" y="0" class="st5 st7 st12">ax</tspan><tspan x="70.3" y="0" class="st5 st7 st12">e</tspan><tspan x="76.7" y="0" class="st5 st7 st12">s</tspan></text>
<text transform="matrix(1 0 0 1 42.2563 33.1434)"><tspan x="0" y="0" class="st4 st7 st12">S</tspan><tspan x="6.6" y="0" class="st4 st7 st12">a</tspan><tspan x="12.7" y="0" class="st4 st7 st12">l</tspan><tspan x="15.8" y="0" class="st4 st7 st12">e</tspan><tspan x="22.2" y="0" class="st4 st7 st12">s</tspan><tspan x="27.5" y="0" class="st4 st7 st12"> </tspan><tspan x="30.4" y="0" class="st4 st7 st12">T</tspan><tspan x="37.6" y="0" class="st4 st7 st12">ax</tspan><tspan x="50.1" y="0" class="st4 st7 st12">e</tspan><tspan x="56.6" y="0" class="st4 st7 st12">s</tspan></text>
<text transform="matrix(1 0 0 1 42.2563 48.0082)" class="st3 st7 st12">Unemployment Insurance Tax</text>
<text transform="matrix(1 0 0 1 42.2563 62.8724)"><tspan x="0" y="0" class="st1 st7 st12">C</tspan><tspan x="7.9" y="0" class="st1 st7 st12">o</tspan><tspan x="14.9" y="0" class="st1 st7 st12">r</tspan><tspan x="19.4" y="0" class="st1 st7 st12">p</tspan><tspan x="26.3" y="0" class="st1 st7 st12">o</tspan><tspan x="33.2" y="0" class="st1 st7 st12">r</tspan><tspan x="37.8" y="0" class="st1 st7 st12">a</tspan><tspan x="43.9" y="0" class="st1 st7 st12">t</tspan><tspan x="48.5" y="0" class="st1 st7 st12">e</tspan><tspan x="55" y="0" class="st1 st7 st12"> </tspan><tspan x="57.6" y="0" class="st1 st7 st12">I</tspan><tspan x="61.2" y="0" class="st1 st7 st12">n</tspan><tspan x="68.1" y="0" class="st1 st7 st12">c</tspan><tspan x="73.8" y="0" class="st1 st7 st12">o</tspan><tspan x="80.8" y="0" class="st1 st7 st12">m</tspan><tspan x="90.9" y="0" class="st1 st7 st12">e</tspan><tspan x="97.4" y="0" class="st1 st7 st12"> </tspan><tspan x="100.2" y="0" class="st1 st7 st12">T</tspan><tspan x="107.4" y="0" class="st1 st7 st12">a</tspan><tspan x="113.6" y="0" class="st1 st7 st12">x</tspan></text>
<g>
	<text transform="matrix(1 0 0 1 47.0281 235.0532)"><tspan x="0" y="0" class="st9 st10 st11">C</tspan><tspan x="6.6" y="0" class="st9 st10 st11">o</tspan><tspan x="12.3" y="0" class="st9 st10 st11">r</tspan><tspan x="15.9" y="0" class="st9 st10 st11">p</tspan><tspan x="21.5" y="0" class="st9 st10 st11">o</tspan><tspan x="27.2" y="0" class="st9 st10 st11">r</tspan><tspan x="30.8" y="0" class="st9 st10 st11">a</tspan><tspan x="35.8" y="0" class="st9 st10 st11">t</tspan><tspan x="39.4" y="0" class="st9 st10 st11">e</tspan><tspan x="44.7" y="0" class="st9 st10 st11"> </tspan></text>
</g>
<g>
	<text transform="matrix(1 0 0 1 39.9568 246.3715)"><tspan x="0" y="0" class="st9 st10 st11">H</tspan><tspan x="7.6" y="0" class="st9 st10 st11">e</tspan><tspan x="12.9" y="0" class="st9 st10 st11">a</tspan><tspan x="17.9" y="0" class="st9 st10 st11">dq</tspan><tspan x="29.2" y="0" class="st9 st10 st11">u</tspan><tspan x="34.8" y="0" class="st9 st10 st11">a</tspan><tspan x="39.8" y="0" class="st9 st10 st11">r</tspan><tspan x="43.4" y="0" class="st9 st10 st11">t</tspan><tspan x="47" y="0" class="st9 st10 st11">e</tspan><tspan x="52.3" y="0" class="st9 st10 st11">r</tspan><tspan x="55.9" y="0" class="st9 st10 st11">s</tspan></text>
</g>
<g>
	<text transform="matrix(1 0 0 1 412.9185 235.4817)"><tspan x="0" y="0" class="st9 st10 st11">C</tspan><tspan x="6.6" y="0" class="st9 st10 st11">a</tspan><tspan x="11.6" y="0" class="st9 st10 st11">p</tspan><tspan x="17.3" y="0" class="st9 st10 st11">it</tspan><tspan x="23.3" y="0" class="st9 st10 st11">al</tspan><tspan x="30.7" y="0" class="st9 st10 st11"> </tspan><tspan x="33.1" y="0" class="st9 st10 st11">I</tspan><tspan x="35.9" y="0" class="st9 st10 st11">n</tspan><tspan x="41.4" y="0" class="st9 st10 st11">t</tspan><tspan x="45" y="0" class="st9 st10 st11">e</tspan><tspan x="50.3" y="0" class="st9 st10 st11">n</tspan><tspan x="55.9" y="0" class="st9 st10 st11">s</tspan><tspan x="60.2" y="0" class="st9 st10 st11">i</tspan><tspan x="62.6" y="0" class="st9 st10 st11">v</tspan><tspan x="67.7" y="0" class="st9 st10 st11">e</tspan><tspan x="73.1" y="0" class="st9 st10 st11"> </tspan></text>
</g>
<g>
	<text transform="matrix(1 0 0 1 416.7486 246.7991)"><tspan x="0" y="0" class="st9 st10 st11">M</tspan><tspan x="9.2" y="0" class="st9 st10 st11">a</tspan><tspan x="14.2" y="0" class="st9 st10 st11">nu</tspan><tspan x="25.3" y="0" class="st9 st10 st11">f</tspan><tspan x="28.8" y="0" class="st9 st10 st11">a</tspan><tspan x="33.8" y="0" class="st9 st10 st11">ct</tspan><tspan x="42.2" y="0" class="st9 st10 st11">u</tspan><tspan x="47.7" y="0" class="st9 st10 st11">r</tspan><tspan x="51.3" y="0" class="st9 st10 st11">i</tspan><tspan x="53.7" y="0" class="st9 st10 st11">n</tspan><tspan x="59.3" y="0" class="st9 st10 st11">g</tspan><tspan x="64.5" y="0" class="st9 st10 st11"> </tspan></text>
</g>
<g>
	<text transform="matrix(1 0 0 1 344.965 235.0529)"><tspan x="0" y="0" class="st9 st10 st11">Di</tspan><tspan x="10" y="0" class="st9 st10 st11">s</tspan><tspan x="14.3" y="0" class="st9 st10 st11">t</tspan><tspan x="17.9" y="0" class="st9 st10 st11">r</tspan><tspan x="21.5" y="0" class="st9 st10 st11">i</tspan><tspan x="23.9" y="0" class="st9 st10 st11">b</tspan><tspan x="29.6" y="0" class="st9 st10 st11">u</tspan><tspan x="35.1" y="0" class="st9 st10 st11">ti</tspan><tspan x="41.3" y="0" class="st9 st10 st11">o</tspan><tspan x="46.9" y="0" class="st9 st10 st11">n</tspan></text>
</g>
<g>
	<text transform="matrix(1 0 0 1 354.9845 246.3713)"><tspan x="0" y="0" class="st9 st10 st11">C</tspan><tspan x="6.6" y="0" class="st9 st10 st11">e</tspan><tspan x="12" y="0" class="st9 st10 st11">n</tspan><tspan x="17.5" y="0" class="st9 st10 st11">t</tspan><tspan x="21.1" y="0" class="st9 st10 st11">e</tspan><tspan x="26.4" y="0" class="st9 st10 st11">r</tspan></text>
</g>
<g>
	<text transform="matrix(1 0 0 1 288.5734 235.4819)"><tspan x="0" y="0" class="st9 st10 st11">C</tspan><tspan x="6.6" y="0" class="st9 st10 st11">all</tspan><tspan x="16.4" y="0" class="st9 st10 st11"> </tspan></text>
</g>
<g>
	<text transform="matrix(1 0 0 1 282.3839 246.7993)"><tspan x="0" y="0" class="st9 st10 st11">C</tspan><tspan x="6.6" y="0" class="st9 st10 st11">e</tspan><tspan x="12" y="0" class="st9 st10 st11">n</tspan><tspan x="17.5" y="0" class="st9 st10 st11">t</tspan><tspan x="21.1" y="0" class="st9 st10 st11">e</tspan><tspan x="26.4" y="0" class="st9 st10 st11">r</tspan></text>
</g>
<g>
	<text transform="matrix(1 0 0 1 209.9718 235.0532)"><tspan x="0" y="0" class="st9 st10 st11">R</tspan><tspan x="6.3" y="0" class="st9 st10 st11">e</tspan><tspan x="11.6" y="0" class="st9 st10 st11">t</tspan><tspan x="15.2" y="0" class="st9 st10 st11">a</tspan><tspan x="20.2" y="0" class="st9 st10 st11">il</tspan></text>
</g>
<g>
	<text transform="matrix(1 0 0 1 210.6564 246.3715)"><tspan x="0" y="0" class="st9 st10 st11">St</tspan><tspan x="9" y="0" class="st9 st10 st11">o</tspan><tspan x="14.7" y="0" class="st9 st10 st11">r</tspan><tspan x="18.3" y="0" class="st9 st10 st11">e</tspan></text>
</g>
<g>
	<text transform="matrix(1 0 0 1 134.5589 235.4819)"><tspan x="0" y="0" class="st9 st10 st11">R</tspan><tspan x="6.3" y="0" class="st9 st10 st11">&amp;</tspan><tspan x="13.5" y="0" class="st9 st10 st11">D </tspan></text>
</g>
<g>
	<text transform="matrix(1 0 0 1 129.9426 246.8002)"><tspan x="0" y="0" class="st9 st10 st11">F</tspan><tspan x="5.7" y="0" class="st9 st10 st11">a</tspan><tspan x="10.7" y="0" class="st9 st10 st11">ci</tspan><tspan x="17.8" y="0" class="st9 st10 st11">l</tspan><tspan x="20.2" y="0" class="st9 st10 st11">ity</tspan></text>
</g>
<g>
	<text transform="matrix(1 0 0 1 491.2476 235.0534)"><tspan x="0" y="0" class="st9 st10 st11">L</tspan><tspan x="5.1" y="0" class="st9 st10 st11">a</tspan><tspan x="10.1" y="0" class="st9 st10 st11">b</tspan><tspan x="15.8" y="0" class="st9 st10 st11">o</tspan><tspan x="21.4" y="0" class="st9 st10 st11">r </tspan><tspan x="27.5" y="0" class="st9 st10 st11">I</tspan><tspan x="30.3" y="0" class="st9 st10 st11">n</tspan><tspan x="35.9" y="0" class="st9 st10 st11">t</tspan><tspan x="39.5" y="0" class="st9 st10 st11">e</tspan><tspan x="44.8" y="0" class="st9 st10 st11">n</tspan><tspan x="50.3" y="0" class="st9 st10 st11">s</tspan><tspan x="54.7" y="0" class="st9 st10 st11">i</tspan><tspan x="57.1" y="0" class="st9 st10 st11">v</tspan><tspan x="62.2" y="0" class="st9 st10 st11">e</tspan><tspan x="67.5" y="0" class="st9 st10 st11"> </tspan></text>
</g>
<g>
	<text transform="matrix(1 0 0 1 492.6226 246.3717)"><tspan x="0" y="0" class="st9 st10 st11">M</tspan><tspan x="9.2" y="0" class="st9 st10 st11">a</tspan><tspan x="14.2" y="0" class="st9 st10 st11">nu</tspan><tspan x="25.3" y="0" class="st9 st10 st11">f</tspan><tspan x="28.8" y="0" class="st9 st10 st11">a</tspan><tspan x="33.8" y="0" class="st9 st10 st11">ct</tspan><tspan x="42.2" y="0" class="st9 st10 st11">u</tspan><tspan x="47.7" y="0" class="st9 st10 st11">r</tspan><tspan x="51.3" y="0" class="st9 st10 st11">i</tspan><tspan x="53.7" y="0" class="st9 st10 st11">n</tspan><tspan x="59.3" y="0" class="st9 st10 st11">g</tspan></text>
</g>
<text transform="matrix(1 0 0 1 43.4923 221.7684)"><tspan x="0" y="0" class="st13 st7 st8">M</tspan><tspan x="7.6" y="0" class="st13 st7 st8">at</tspan><tspan x="14.7" y="0" class="st13 st7 st8">u</tspan><tspan x="19.2" y="0" class="st13 st7 st8">r</tspan><tspan x="22.2" y="0" class="st13 st7 st8">e</tspan></text>
<text transform="matrix(1 0 0 1 499.4196 221.5061)"><tspan x="0" y="0" class="st13 st7 st8">M</tspan><tspan x="7.6" y="0" class="st13 st7 st8">at</tspan><tspan x="14.7" y="0" class="st13 st7 st8">u</tspan><tspan x="19.2" y="0" class="st13 st7 st8">r</tspan><tspan x="22.2" y="0" class="st13 st7 st8">e</tspan></text>
<text transform="matrix(1 0 0 1 423.4474 221.9006)"><tspan x="0" y="0" class="st13 st7 st8">M</tspan><tspan x="7.6" y="0" class="st13 st7 st8">at</tspan><tspan x="14.7" y="0" class="st13 st7 st8">u</tspan><tspan x="19.2" y="0" class="st13 st7 st8">r</tspan><tspan x="22.2" y="0" class="st13 st7 st8">e</tspan></text>
<text transform="matrix(1 0 0 1 347.7527 221.9008)"><tspan x="0" y="0" class="st13 st7 st8">M</tspan><tspan x="7.6" y="0" class="st13 st7 st8">at</tspan><tspan x="14.7" y="0" class="st13 st7 st8">u</tspan><tspan x="19.2" y="0" class="st13 st7 st8">r</tspan><tspan x="22.2" y="0" class="st13 st7 st8">e</tspan></text>
<text transform="matrix(1 0 0 1 272.6486 221.5061)"><tspan x="0" y="0" class="st13 st7 st8">M</tspan><tspan x="7.6" y="0" class="st13 st7 st8">at</tspan><tspan x="14.7" y="0" class="st13 st7 st8">u</tspan><tspan x="19.2" y="0" class="st13 st7 st8">r</tspan><tspan x="22.2" y="0" class="st13 st7 st8">e</tspan></text>
<text transform="matrix(1 0 0 1 195.8063 221.9007)"><tspan x="0" y="0" class="st13 st7 st8">M</tspan><tspan x="7.6" y="0" class="st13 st7 st8">at</tspan><tspan x="14.7" y="0" class="st13 st7 st8">u</tspan><tspan x="19.2" y="0" class="st13 st7 st8">r</tspan><tspan x="22.2" y="0" class="st13 st7 st8">e</tspan></text>
<text transform="matrix(1 0 0 1 119.1479 221.9008)"><tspan x="0" y="0" class="st13 st7 st8">M</tspan><tspan x="7.6" y="0" class="st13 st7 st8">at</tspan><tspan x="14.7" y="0" class="st13 st7 st8">u</tspan><tspan x="19.2" y="0" class="st13 st7 st8">r</tspan><tspan x="22.2" y="0" class="st13 st7 st8">e</tspan></text>
<text transform="matrix(1 0 0 1 73.8982 221.7678)"><tspan x="0" y="0" class="st13 st7 st8">N</tspan><tspan x="6.2" y="0" class="st13 st7 st8">e</tspan><tspan x="10.5" y="0" class="st13 st7 st8">w</tspan></text>
<text transform="matrix(1 0 0 1 530.347 221.5061)"><tspan x="0" y="0" class="st13 st7 st8">N</tspan><tspan x="6.2" y="0" class="st13 st7 st8">e</tspan><tspan x="10.5" y="0" class="st13 st7 st8">w</tspan></text>
<text transform="matrix(1 0 0 1 454.3749 221.9006)"><tspan x="0" y="0" class="st13 st7 st8">N</tspan><tspan x="6.2" y="0" class="st13 st7 st8">e</tspan><tspan x="10.5" y="0" class="st13 st7 st8">w</tspan></text>
<text transform="matrix(1 0 0 1 377.6614 221.8663)"><tspan x="0" y="0" class="st13 st7 st8">N</tspan><tspan x="6.2" y="0" class="st13 st7 st8">e</tspan><tspan x="10.5" y="0" class="st13 st7 st8">w</tspan></text>
<text transform="matrix(1 0 0 1 302.0269 221.5065)"><tspan x="0" y="0" class="st13 st7 st8">N</tspan><tspan x="6.2" y="0" class="st13 st7 st8">e</tspan><tspan x="10.5" y="0" class="st13 st7 st8">w</tspan></text>
<text transform="matrix(1 0 0 1 226.4826 221.9006)"><tspan x="0" y="0" class="st13 st7 st8">N</tspan><tspan x="6.2" y="0" class="st13 st7 st8">e</tspan><tspan x="10.5" y="0" class="st13 st7 st8">w</tspan></text>
<text transform="matrix(1 0 0 1 149.8106 221.9008)"><tspan x="0" y="0" class="st13 st7 st8">N</tspan><tspan x="6.2" y="0" class="st13 st7 st8">e</tspan><tspan x="10.5" y="0" class="st13 st7 st8">w</tspan></text>
</svg>
