<svg id="Layer_1" xmlns="http://www.w3.org/2000/svg" viewBox="0 0 561 252"><style>.st0{fill:none;stroke:#E0E1E0;stroke-width:0.5;stroke-linejoin:round;stroke-miterlimit:10;} .st1{fill:none;stroke:#414042;stroke-width:0.5;stroke-linejoin:round;stroke-miterlimit:10;} .st2{fill:none;stroke:#CC333F;stroke-width:2.25;stroke-linecap:round;stroke-linejoin:round;stroke-miterlimit:10;} .st3{fill:#414042;} .st4{font-family:&apos;Lato&apos;;font-weight:400;} .st5{font-size:10px;} .st6{fill:none;stroke:#6D6E71;stroke-width:0.5;} .st7{fill:#6D6E71;} .st8{fill:none;} .st9{font-family:&apos;Lato&apos;;font-weight:700;} .st10{font-size:8px;}</style><path class="st0" d="M22.7 10.9h527.5M22.7 38.1h527.5m-527.5 28h527.5M22.7 93.3h527.5m-527.5 28h527.5M22.7 148.6h527.5m-527.5 28h527.5M22.7 203.8h527.5"/><path class="st1" d="M22.8 231.5h528.6M518.2 228.7v5.4m33.2-5.3v5.4m-66.4-5.5v5.4m-33.2-5.4v5.4m-32.3-5.4v5.4m-33.2-5.4v5.4m-33.2-5.4v5.4m-33.3-5.4v5.4m-33.2-5.4v5.4m-32.3-5.4v5.4m-33.2-5.4v5.4m-33.2-5.4v5.4m-33.2-5.4v5.4m-32.3-5.4v5.4m-33.3-5.4v5.4m-33.2-5.4v5.4m-33.2-5.4v5.4"/><path class="st2" d="M543.1 48.2h7.1m-13.7 41.2l6.5-41.2m-13 41.2h6.5m-13-3.1l6.5 3.1m-13.1-3.1h6.5m-13 3.1l6.5-3.1M503 89.4h7.5m-14.1 0h6.5m-13 0h6.5m-13 14l6.5-14m-13.1 14h6.5m-13 0h6.5m-13 0h6.5m-14 0h7.5m-14 0h6.5m-13 0h6.5m-13.1 0h6.5m-13 0h6.5m-13-23.3l6.5 23.3m-14-23.3h7.5m-14 0h6.5m-13 0h6.5m-13.1 0h6.5m-13 23.3l6.5-23.3m-13 23.3h6.5m-13 0h6.5m-14 0h7.5m-14-23.3l6.5 23.3m-13.1-23.3h6.5m-13 0h6.5m-13 0h6.5m-13 0h6.5m-14 0h7.5m-14 0h6.5m-13.1 0h6.5m-13 0h6.5m-13 0h6.5m-13 0h6.5m-14 0h7.5m-14 0h6.5m-13.1 0h6.5m-13 13.2l6.5-13.2m-13 13.2h6.5m-13 0h6.5m-13.1 0h6.5m-13.9 0h7.5m-14.1 0h6.5m-13 42l6.5-42m-13 42h6.5m-13 0h6.5m-13.1 0h6.5m-13.9 0h7.5m-14.1 0h6.5m-13 0h6.5m-13 0h6.5m-13 13.3l6.5-13.2M170 148.6h6.5m-13.9 0h7.5m-14.1 0h6.5m-13 0h6.5m-13 0h6.5m-13 0h6.5m-13.1 0h6.5m-13 0h6.5m-14 0h7.5m-14 0h6.5m-13 0h6.5m-13 0h6.5m-13.1 0h6.5m-13 0h6.5m-14 0h7.5m-14-123.7l6.5 123.7m-13-123.7h6.5m-13 0h6.5m-13.1 0h6.5m-13 0h6.5m-14 0h7.5m-14 0h6.5m-13 0h6.5"/><text transform="translate(5.418 234.69)" class="st3 st4 st5">0%</text><text transform="translate(5.418 207.125)" class="st3 st4 st5">2%</text><text transform="translate(5.418 179.56)" class="st3 st4 st5">4%</text><text transform="translate(5.418 151.994)" class="st3 st4 st5">6%</text><text transform="translate(5.418 124.43)" class="st3 st4 st5">8%</text><text transform="translate(0 96.863)" class="st3 st4 st5">10%</text><text transform="translate(0 69.298)" class="st3 st4 st5">12%</text><text transform="translate(0 41.732)" class="st3 st4 st5">14%</text><text transform="translate(0 14.167)" class="st3 st4 st5">16%</text><text transform="translate(11.085 245.565)" class="st3 st4 st5">1935</text><text transform="translate(43.708 245.565)" class="st3 st4 st5">1940</text><text transform="translate(77.33 245.565)" class="st3 st4 st5">1945</text><text transform="translate(110.95 245.565)" class="st3 st4 st5">1950</text><text transform="translate(143.573 245.565)" class="st3 st4 st5">1955</text><text transform="translate(176.195 245.565)" class="st3 st4 st5">1960</text><text transform="translate(209.817 245.565)" class="st3 st4 st5">1965</text><text transform="translate(242.44 245.565)" class="st3 st4 st5">1970</text><text transform="translate(275.06 245.565)" class="st3 st4 st5">1975</text><text transform="translate(308.14 245.565)" class="st3 st4 st5">1980</text><text transform="translate(341.462 245.564)" class="st3 st4 st5">1985</text><text transform="translate(374.685 245.565)" class="st3 st4 st5">1990</text><text transform="translate(407.906 245.565)" class="st3 st4 st5">1995</text><text transform="translate(440.206 245.565)" class="st3 st4 st5">2000</text><text transform="translate(473.428 245.564)" class="st3 st4 st5">2005</text><text transform="translate(506.616 245.565)" class="st3 st4 st5">2010</text><text transform="translate(538.536 245.252)" class="st3 st4 st5">2015</text><path class="st6" d="M78 93.8c1.7-6.6 5.7-20.7 11.5-27.7 10.4-12.7 20.7-12.4 20.7-12.4"/><path class="st7" d="M80.6 93.7l-3.5 3.6-1.4-4.8z"/><path class="st8" d="M112.3 50.2h107v73h-107z"/><text transform="translate(112.32 56.194)"><tspan x="0" y="0" class="st7 st9 st10">In 1943, Governor Earl </tspan><tspan x="0" y="9.6" class="st7 st9 st10">Warren cut the top marginal </tspan><tspan x="0" y="19.2" class="st7 st9 st10">tax rate from 15 percent to 6 </tspan><tspan x="0" y="28.8" class="st7 st9 st10">percent.</tspan></text></svg>