<?xml version="1.0" encoding="utf-8"?>
<!-- Generator: Adobe Illustrator 16.0.3, SVG Export Plug-In . SVG Version: 6.00 Build 0)  -->
<!DOCTYPE svg PUBLIC "-//W3C//DTD SVG 1.1//EN" "http://www.w3.org/Graphics/SVG/1.1/DTD/svg11.dtd">
<svg version="1.1" id="Layer_1" xmlns="http://www.w3.org/2000/svg" xmlns:xlink="http://www.w3.org/1999/xlink" x="0px" y="0px"
	 width="423.3px" height="515.8px" viewBox="0 0 423.3 515.8" enable-background="new 0 0 423.3 515.8" xml:space="preserve">
<g>
	<path fill="#FFFFFF" d="M48,43.9v1.7h-2.9v-1.8c0-10.8-4-19.9-15.9-19.9c-12,0-16,9-16,19.8c0,23.3,34.8,22.6,34.8,47.3
		c0,12.6-5.2,22.6-19.1,22.6c-13.8,0-19-10-19-22.6v-4.4h2.7v4.6c0,11.1,4.3,19.8,16.3,19.8s16.3-8.7,16.3-19.8
		c0-23-34.8-22.2-34.8-47.3c0-13.3,5.6-22.4,18.7-22.5C42.9,21.2,48,31.4,48,43.9z"/>
	<path fill="#FFFFFF" d="M70.4,91.5l-5.3,21.5h-2.6l22-91.1h4l22.5,91.1h-2.9l-5.3-21.5H70.4z M71,88.9h31.3L86.4,25.1L71,88.9z"/>
	<path fill="#FFFFFF" d="M128.4,112.9h-2.7v-91h4l32,85.2V21.9h2.7v91h-3.5l-32.5-86.8V112.9z"/>
	<path fill="#FFFFFF" d="M223.2,21.9c13.9,0,19.8,9.8,19.8,22.8v45.6c0,12.9-5.8,22.6-19.6,22.6h-19.1v-91H223.2z M223.2,110.2
		c12.2,0,16.9-8.5,16.9-19.8V44.5c0-11.4-4.8-19.9-16.9-19.9h-16.1v85.5H223.2z"/>
	<path fill="#FFFFFF" d="M260.6,21.9v91h-2.9v-91H260.6z"/>
	<path fill="#FFFFFF" d="M305.3,65.4V68h-26.8v42.1h31.9v2.7h-34.7v-91h34.7v2.7h-31.9v40.8H305.3z"/>
	<path fill="#FFFFFF" d="M363.2,44.3v6h-2.9v-6.1c0-11.1-4.2-20.3-16.1-20.3c-12.1,0-16.3,9.2-16.3,20.3v46.5
		c0,11.1,4.2,20.2,16.3,20.2c12,0,16.1-9.1,16.1-20.2V70h-14.2v-2.6h17v23.1c0,12.6-5.2,23-19.1,23c-13.8,0-19-10.4-19-23V44.3
		c0-12.6,5.2-23,19-23C358,21.2,363.2,31.6,363.2,44.3z"/>
	<path fill="#FFFFFF" d="M378,44.3c0-15.1,6.6-23,19.2-23c12.9,0,19.5,7.9,19.5,23v46.3c0,15.1-6.6,23-19.5,23
		c-12.6,0-19.2-7.9-19.2-23V44.3z M380.9,90.7c0,13.4,5.6,20.3,16.4,20.3c10.9,0,16.6-6.9,16.6-20.3V44.1c0-13.4-5.7-20.3-16.6-20.3
		c-10.8,0-16.4,6.9-16.4,20.3V90.7z"/>
</g>
<g>
	<path fill="#FFFFFF" d="M95.7,127.6v32.4h-3.5v-32.4H95.7z M93.5,128.9v29.7h0.9v-29.7H93.5z"/>
	<path fill="#FFFFFF" d="M110.1,127.6v28.9h7.3v3.5h-10.8v-32.4H110.1z M108.8,128.9H108v29.7h8.2v-0.8h-7.3V128.9z"/>
	<path fill="#FFFFFF" d="M131.6,127.6v28.9h7.3v3.5h-10.8v-32.4H131.6z M130.3,128.9h-0.9v29.7h8.2v-0.8h-7.3V128.9z"/>
	<path fill="#FFFFFF" d="M163.9,151.7c0,5-2.7,8.5-8,8.5c-5.2,0-7.9-3.5-8-8.5v-24.2h3.6v24c0,3,1.4,5.2,4.4,5.2
		c3.1,0,4.5-2.3,4.5-5.2v-24h3.6V151.7z M149.3,151.7c0,4.2,2.2,7.2,6.6,7.2c4.4,0,6.7-2.9,6.7-7.2v-22.9h-0.9v22.6
		c0,3.7-1.8,6.6-5.8,6.6c-3.9,0-5.8-2.8-5.8-6.6v-22.6h-0.8V151.7z"/>
	<path fill="#FFFFFF" d="M182.1,142.5c3.1,2.8,6.2,5.7,6.2,9.6c0,5.1-2.5,8.1-7.7,8.1c-6,0-7.5-3.9-7.5-11.3h3.5
		c0,4.5,0.5,7.8,4,7.8c2.8,0,4.2-1.7,4.2-4.5c0-2.5-2.5-4.9-4.6-6.6l0,0c-3.2-2.3-6.9-6-6.9-10.5c0-4.5,2.8-7.9,7.5-7.9
		c6.5,0,7.2,4.8,7.2,10.9h-3.5c0-3.7-0.2-7.4-3.6-7.4c-2.6,0-4,2.1-4,4.7C176.9,138,179.5,140.2,182.1,142.5L182.1,142.5z
		 M174.5,150.2c0,5.3,1.4,8.6,6.2,8.6c4.3,0,6.4-2.4,6.4-6.7c0-7-11.5-10.2-11.5-16.8c0-3.3,1.8-6,5.3-6c4.7,0,4.9,4.1,5,7.4h0.8
		c0-5-1-8.3-5.8-8.3c-3.8,0-6.1,2.9-6.1,6.6c0,3.9,3.4,7.2,6.4,9.4h0c2.3,1.9,5.1,4.9,5.1,7.6c0,3.6-1.8,5.9-5.5,5.9
		c-4.8,0-5.3-4.6-5.3-7.8H174.5z"/>
	<path fill="#FFFFFF" d="M206.3,159.9h-3.5V131h-5.4v-3.5h14.3v3.5h-5.4V159.9z M204.1,129.7v28.9h0.9v-28.9h5.4v-0.9h-11.6v0.9
		H204.1z"/>
	<path fill="#FFFFFF" d="M228.7,127.6c6.2,0,7.6,3.7,7.6,9.1c0,2.4-0.4,5.3-2.2,7.1c1.5,1.4,2,3.8,2,6v10.2h-3.5v-10.1
		c0-3-1-4.2-4-4.2h-3.3v14.3h-3.5v-32.4H228.7z M234.9,149.7c0-2.5-0.6-5.2-3.5-5.9c3.2-1,3.6-4.3,3.6-7.2c0-4.6-1.2-7.8-6.3-7.8
		h-5.6v29.7h0.9v-14.3h4.6c4,0,5.3,1.7,5.3,5.6v8.7h0.9V149.7z M228.5,129.8c4.7,0,5.6,2.8,5.6,6.9c0,4.6-1.2,6.8-6,6.8H224v-13.6
		H228.5z M228.1,142.1c3.8,0,4.7-1.8,4.7-5.4c0-3.3-0.7-5.6-4.3-5.6h-3.2v11H228.1z"/>
	<path fill="#FFFFFF" d="M256.9,127.6l7.3,32.4h-3.6l-2-9.3h-6.1l-2.2,9.3h-3.6l7.4-32.4H256.9z M261.7,158.6h0.9l-6.8-29.7h-0.7
		l-6.8,29.7h0.9l2.1-9.2h8.4L261.7,158.6z M255.5,131.1l4,17.4h-8L255.5,131.1z M255.5,136.9l-2.3,10.3h4.6L255.5,136.9z"/>
	<path fill="#FFFFFF" d="M278,159.9h-3.5V131h-5.4v-3.5h14.3v3.5H278V159.9z M275.8,129.7v28.9h0.9v-28.9h5.4v-0.9h-11.6v0.9H275.8z
		"/>
	<path fill="#FFFFFF" d="M303.8,142.1v3.5h-6.3v10.8h9.5v3.5h-13v-32.4h13v3.5h-9.5v11H303.8z M295.4,158.6h10.3v-0.8h-9.5v-13.5
		h6.3v-0.8h-6.3v-13.7h9.5v-0.9h-10.3V158.6z"/>
	<path fill="#FFFFFF" d="M324,127.6c5.9,0,8,4,8,9.2v13.9c0,5.2-2.1,9.2-8,9.2h-6.9v-32.4H324z M324,158.6c4.9,0,6.7-3.4,6.7-7.9
		v-13.9c0-4.4-1.8-7.9-6.7-7.9h-5.6v29.7H324z M323.6,129.7c4.6,0,6.2,3.2,6.2,7.3v13.4c0,4.1-1.6,7.3-6.2,7.3h-4.4v-28H323.6z
		 M323.6,156.4c3.6,0,4.8-2.6,4.8-6V137c0-3.4-1.2-6-4.8-6h-3.1v25.4H323.6z"/>
</g>
<g>
	<path fill="#FFFFFF" d="M98.1,200.9c0-8.3,2.7-11.3,5.2-14c1.8-2.1,3.6-4,3.6-8c0-2-0.7-4.1-2.9-4.1c-2.5,0-2.8,3.5-2.8,6.2h-3.1
		c-0.1-4.4,0.8-9.4,5.8-9.4c4.6,0,6,3.6,6,7.4c0,5-2.2,7.5-4.5,10.1c-1.9,2.2-3.9,4.4-4.3,8.6h8.7v3.1H98.1z M100.1,199
		c0.1-10.6,8.7-10.5,8.7-20c0-3.1-1.2-6.1-4.8-6.1c-4,0-4.8,3.7-4.7,7h0.8c0-2.8,0.4-6.2,4-6.2c3.1,0,4,2.7,4,5.3
		c0,9.4-8.8,8.3-8.8,20.8h9.5V199H100.1z"/>
	<path fill="#FFFFFF" d="M132.4,193.7c0,3.9-1.9,7.4-6.4,7.4c-4.5,0-6.4-3.5-6.4-7.4v-14.7c0-4,1.8-7.4,6.4-7.4
		c4.4,0,6.3,3.5,6.3,7.4V193.7z M120.9,193.7c0,3.2,1.6,6.2,5.2,6.2c3.6,0,5.2-2.9,5.2-6.2v-14.7c0-3.2-1.5-6.1-5.1-6.1
		c-3.7,0-5.2,2.8-5.2,6.1V193.7z M121.6,179.5c0-3,1.1-5.8,4.5-5.8s4.3,3,4.3,5.9v13.6c0,3-0.9,5.9-4.4,5.9s-4.5-3-4.5-6V179.5z
		 M129.3,179.6c0-2.3-0.6-4.7-3.1-4.7c-2.5,0-3.3,2.2-3.3,4.6v13.6c0,2.4,0.7,4.8,3.3,4.8c2.5,0,3.2-2.4,3.2-4.7V179.6z"/>
	<path fill="#FFFFFF" d="M146,200.9v-23.1l-2.1,2.6l-2.1-2.1l1.6-2.3l3.2-4.1h2.6v29H146z M143.8,178.7l3.4-4.3v25.4h0.8v-26.6h-0.9
		l-3.8,5.1L143.8,178.7z"/>
	<path fill="#FFFFFF" d="M161.6,182.9c0.9-0.5,1.8-0.8,2.8-0.8c4.9,0,6,3.7,6,7.6v3.7c0,3.6-1.5,7.6-6,7.6c-4.8,0-5.9-3.8-5.9-7.7
		v-2.1h3.1c0,2.9,0.1,6.6,2.8,6.6c2.2,0,2.8-2.5,2.8-4.6v-3.4c0-2.3-0.3-4.8-2.8-4.8c-1.5,0-2.6,2-3.1,3.9h-2.8v-17.3h11.1v3.1h-8
		V182.9z M159.7,188.1h0.7c0.5-1.9,1.8-3.9,4-3.9c3.5,0,4,3.1,4,5.9v3.4c0,2.6-0.9,5.8-4,5.8c-3.8,0-4-3.7-4-6.7h-0.8v0.9
		c0,3.3,0.9,6.5,4.7,6.5c3.6,0,4.8-3.4,4.8-6.4v-3.7c0-3.3-0.9-6.5-4.8-6.5c-1.6,0-3.2,1-4,2.4v-11.8h8v-0.8h-8.7V188.1z"/>
	<path fill="#FFFFFF" d="M206.1,184.9v3.1h-5.7v9.7h8.5v3.1h-11.6v-29H209v3.1h-8.5v9.9H206.1z M198.6,173.1v26.6h9.2V199h-8.5
		v-12.1h5.7v-0.7h-5.7v-12.3h8.5v-0.8H198.6z"/>
	<path fill="#FFFFFF" d="M224.2,171.9c5.2,0,7.2,3.6,7.2,8.3v12.5c0,4.7-1.9,8.3-7.2,8.3H218v-29H224.2z M224.2,199.7
		c4.4,0,6-3,6-7.1v-12.5c0-4-1.6-7.1-6-7.1h-5v26.6H224.2z M223.9,173.9c4.1,0,5.5,2.8,5.5,6.5v12c0,3.7-1.5,6.5-5.5,6.5h-4v-25.1
		H223.9z M223.9,197.8c3.2,0,4.3-2.3,4.3-5.3v-12c0-3-1.1-5.4-4.3-5.4h-2.8v22.7H223.9z"/>
	<path fill="#FFFFFF" d="M244.7,171.9v29h-3.1v-29H244.7z M242.7,199.7h0.8v-26.6h-0.8V199.7z"/>
	<path fill="#FFFFFF" d="M262,200.9h-3.1V175H254v-3.1h12.8v3.1H262V200.9z M260,173.9v25.8h0.8v-25.8h4.8v-0.8h-10.4v0.8H260z"/>
	<path fill="#FFFFFF" d="M279.2,171.9v29h-3.1v-29H279.2z M277.2,199.7h0.8v-26.6h-0.8V199.7z"/>
	<path fill="#FFFFFF" d="M303.5,193.1c0,4.6-2,8.1-7.1,8.1c-5,0-7.1-3.6-7.1-8.1v-13.3c0-4.4,2.2-8.1,7.1-8.1c4.9,0,7.1,3.7,7.1,8.1
		V193.1z M290.5,193.1c0,3.9,1.8,7,5.9,7c4.3,0,5.9-3,5.9-7v-13.3c0-3.7-1.8-7-5.9-7c-4.1,0-5.9,3.3-5.9,7V193.1z M291.2,180.2
		c0-3.3,1.4-6.5,5.2-6.5c3.9,0,5.1,3.2,5.1,6.6v12.6c0,3.4-1.2,6.4-5.1,6.4s-5.2-3.1-5.2-6.5V180.2z M300.3,180.2
		c0-2.8-0.9-5.4-3.9-5.4c-2.9,0-4,2.6-4,5.3v12.6c0,2.8,1,5.3,4,5.3c3,0,3.9-2.4,3.9-5.2V180.2z"/>
	<path fill="#FFFFFF" d="M312.6,171.9h2.6l7.7,19.2v-19.2h3.1v29h-2.6c-1.7-4-3.6-8.8-7.7-19.2v19.2h-3.1V171.9z M314.5,175.6
		c3.3,8.1,6.4,16.1,9.7,24.2h0.6v-26.6h-0.7v24.2l-9.7-24.2h-0.7v26.6h0.8V175.6z"/>
</g>
<g>
	<path fill="#FFFFFF" d="M122.7,393.6l3.1-20.6h3.7l3.1,20.6h-2.9l-0.6-4.2h-2.9l-0.6,4.2H122.7z M127.8,379.8l-0.1-0.5h-0.2
		l-0.1,0.5l-0.9,6.5h2.1L127.8,379.8z"/>
	<path fill="#FFFFFF" d="M149.5,373.1h2.9l-3.1,20.6h-3l-3.1-20.6h2.9l1.5,11.3l0.1,0.9h0.2l0.1-0.9L149.5,373.1z"/>
	<path fill="#FFFFFF" d="M156.8,373.1h3v20.6h-3V373.1z"/>
	<path fill="#FFFFFF" d="M169.9,378.6c0-0.7,0-1.4-0.2-2c-0.2-0.6-0.5-1-1-1c-0.8,0-1,0.8-1,2c0,0.7,0.3,1.4,0.8,2.2
		c0.4,0.8,1,1.6,1.6,2.5c0.7,1,1.4,2.1,1.9,3.1c0.5,1,0.9,2.1,0.9,3.2c0,1.4-0.2,2.7-0.9,3.6s-1.7,1.6-3.3,1.6c-1.9,0-3-0.7-3.6-1.8
		c-0.6-1.1-0.8-2.6-0.8-4.1l3-0.3c0,0.9,0,1.7,0.3,2.4c0.2,0.7,0.5,1.1,1.2,1.1c0.9,0,1.2-1,1.2-2.3c0-0.7-0.3-1.5-0.8-2.3
		c-0.3-0.4-0.5-0.8-0.8-1.2c-0.6-0.8-1.2-1.8-1.9-2.8c-0.7-1-1.2-2.1-1.5-3.2c-0.2-0.5-0.3-1.1-0.3-1.7c0-1.1,0.3-2.3,0.9-3.2
		c0.6-0.9,1.6-1.5,3.1-1.6c1.8,0,2.9,0.7,3.5,1.8c0.6,1.1,0.8,2.5,0.8,3.6L169.9,378.6z"/>
	<path fill="#FFFFFF" d="M185.4,373.1v16.4c0,0.8-0.2,1.6-0.5,2.2c-0.3,0.6-0.6,1.1-1.2,1.5c-0.6,0.4-1.3,0.7-2.3,0.7
		s-1.8-0.3-2.4-0.7c-0.6-0.4-0.9-1-1.2-1.5c-0.3-0.6-0.5-1.4-0.5-2.2v-16.4h3v16.4c0,0.6,0.1,1,0.4,1.3c0.1,0.1,0.3,0.2,0.6,0.2
		c0.5,0,0.8-0.3,0.9-0.8c0.1-0.2,0.1-0.4,0.1-0.8v-16.4H185.4z"/>
	<path fill="#FFFFFF" d="M189.5,393.6l3.1-20.6h3.7l3.1,20.6h-2.9l-0.6-4.2H193l-0.6,4.2H189.5z M194.6,379.8l-0.1-0.5h-0.2
		l-0.1,0.5l-0.9,6.5h2.1L194.6,379.8z"/>
	<path fill="#FFFFFF" d="M203.7,373.1h3v17.8h4v2.8h-7V373.1z"/>
	<path fill="#FFFFFF" d="M226.9,380.5v-3.2c0-0.6-0.1-1-0.4-1.3c-0.1-0.1-0.4-0.2-0.6-0.2c-0.5,0-0.8,0.4-0.9,0.8
		c-0.1,0.2-0.1,0.5-0.1,0.8v12.4c0,0.6,0.1,1,0.4,1.3c0.1,0.1,0.3,0.2,0.6,0.2c0.5,0,0.8-0.3,0.9-0.8c0.1-0.2,0.1-0.4,0.1-0.8v-3.7
		h-1.2v-2.5h4.2v10.2h-1.8l-0.4-1c-0.6,0.7-1.4,1.2-2.4,1.2c-1,0-1.7-0.3-2.2-0.7c-0.5-0.4-0.8-1-1.1-1.5c-0.3-0.6-0.4-1.4-0.3-2.2
		v-12.1c0-0.8,0.2-1.6,0.5-2.2c0.3-0.6,0.6-1.1,1.2-1.5c0.6-0.4,1.3-0.7,2.4-0.7s1.8,0.3,2.3,0.7c0.6,0.4,1,1,1.2,1.5
		c0.3,0.6,0.5,1.4,0.5,2.2v3.2H226.9z"/>
	<path fill="#FFFFFF" d="M242.7,373.1v16.4c0,0.8-0.2,1.6-0.5,2.2c-0.3,0.6-0.6,1.1-1.2,1.5c-0.6,0.4-1.3,0.7-2.3,0.7
		s-1.8-0.3-2.4-0.7c-0.6-0.4-0.9-1-1.2-1.5c-0.3-0.6-0.5-1.4-0.5-2.2v-16.4h3v16.4c0,0.6,0.1,1,0.4,1.3c0.1,0.1,0.3,0.2,0.6,0.2
		c0.5,0,0.8-0.3,0.9-0.8c0.1-0.2,0.1-0.4,0.1-0.8v-16.4H242.7z"/>
	<path fill="#FFFFFF" d="M247.4,373.1h3v20.6h-3V373.1z"/>
	<path fill="#FFFFFF" d="M255.2,393.6v-20.6h2.4c2.8,0,4.3,0.6,5.1,2.1c0.8,1.6,0.9,4.1,0.9,8.2c0,4-0.1,6.6-0.9,8.1
		c-0.8,1.6-2.3,2.1-5.1,2.1H255.2z M258.3,390.6c1,0,1.6-0.1,1.9-1.1c0.1-0.5,0.3-1.2,0.3-2.2c0-1,0-2.3,0-4c0-1.7,0-3,0-4
		c0-1-0.1-1.7-0.3-2.2c-0.3-1-0.9-1.1-1.9-1.1V390.6z"/>
	<path fill="#FFFFFF" d="M268.3,373.1h6.9v3.1h-3.9v5.4h2.8v3.3h-2.8v5.7h3.9v3.1h-6.9V373.1z"/>
	<path fill="#FFFFFF" d="M285.8,376.2v-3.1h8.7v3.1h-2.9v17.5h-3v-17.5H285.8z"/>
	<path fill="#FFFFFF" d="M306.8,389.4c0,0.8-0.2,1.6-0.5,2.2c-0.3,0.6-0.6,1.1-1.2,1.5c-0.6,0.4-1.3,0.7-2.3,0.7s-1.8-0.3-2.4-0.7
		c-0.6-0.4-0.9-1-1.2-1.5c-0.3-0.6-0.5-1.4-0.5-2.2v-12.1c0-0.8,0.2-1.6,0.5-2.2c0.3-0.6,0.6-1.1,1.2-1.5c0.6-0.4,1.3-0.7,2.4-0.7
		s1.8,0.3,2.3,0.7c0.6,0.4,1,1,1.2,1.5c0.3,0.6,0.5,1.4,0.5,2.2V389.4z M303.7,377.3c0-0.6-0.1-1-0.4-1.3c-0.1-0.1-0.4-0.2-0.6-0.2
		c-0.5,0-0.8,0.4-0.9,0.8c-0.1,0.2-0.1,0.5-0.1,0.8v12.1c0,0.6,0.1,1,0.4,1.3c0.1,0.1,0.3,0.2,0.6,0.2c0.5,0,0.8-0.3,0.9-0.8
		c0.1-0.2,0.1-0.4,0.1-0.8V377.3z"/>
</g>
<g>
	<path fill="#FFFFFF" d="M103.3,405.2v-3.1h8.7v3.1h-2.9v17.5h-3v-17.5H103.3z"/>
	<path fill="#FFFFFF" d="M114.5,422.7l3.1-20.6h3.7l3.1,20.6h-2.9l-0.6-4.2H118l-0.6,4.2H114.5z M119.6,408.8l-0.1-0.5h-0.2
		l-0.1,0.5l-0.9,6.5h2.1L119.6,408.8z"/>
	<path fill="#FFFFFF" d="M131.3,422.7h-3l3.3-10.8l-3.3-9.8h3l1.7,5.2l0.1,0.3h0.1l0.1-0.3l1.7-5.2h3l-3.3,9.8l3.3,10.8h-3l-1.7-6.1
		l-0.1-0.3h-0.1l-0.1,0.3L131.3,422.7z"/>
	<path fill="#FFFFFF" d="M142.3,402.1h6.9v3.1h-3.9v5.4h2.8v3.3h-2.8v5.7h3.9v3.1h-6.9V402.1z"/>
	<path fill="#FFFFFF" d="M159,407.6c0-0.7,0-1.4-0.2-2c-0.2-0.6-0.5-1-1-1c-0.8,0-1,0.8-1,2c0,0.7,0.3,1.4,0.8,2.2
		c0.4,0.8,1,1.6,1.6,2.5c0.7,1,1.4,2.1,1.9,3.1c0.5,1,0.9,2.1,0.9,3.2c0,1.4-0.2,2.7-0.9,3.6s-1.7,1.6-3.3,1.6c-1.9,0-3-0.7-3.6-1.8
		c-0.6-1.1-0.8-2.6-0.8-4.1l3-0.3c0,0.9,0,1.7,0.3,2.4c0.2,0.7,0.5,1.1,1.2,1.1c0.9,0,1.2-1,1.2-2.3c0-0.7-0.3-1.5-0.8-2.3
		c-0.3-0.4-0.5-0.8-0.8-1.2c-0.6-0.8-1.2-1.8-1.9-2.8c-0.7-1-1.2-2.1-1.5-3.2c-0.2-0.5-0.3-1.1-0.3-1.7c0-1.1,0.3-2.3,0.9-3.2
		c0.6-0.9,1.6-1.5,3.1-1.6c1.8,0,2.9,0.7,3.5,1.8c0.6,1.1,0.8,2.5,0.8,3.6L159,407.6z"/>
	<path fill="#FFFFFF" d="M183.6,413.7c0,0.4-0.1,1.2-0.3,2.1c-0.2,0.9-0.5,1.9-1,2.8c0.3,0.3,0.6,0.6,0.8,0.7
		c0.2,0.2,0.4,0.3,0.5,0.3v3.2c-0.1,0-0.2,0-0.4-0.1c-0.4-0.1-0.9-0.5-1.5-1c-0.3-0.2-0.6-0.5-0.9-0.8c-1,1.1-2.2,1.9-3.4,1.9
		c-1.2,0-2.2-0.5-3-1.4c-0.7-0.8-1.2-1.9-1.2-3.2c0-2.3,1.2-4.2,2.3-6c-1-2-1.5-3.9-1.5-6c0-1.7,0.5-2.9,1.5-3.8
		c0.5-0.5,1.2-0.7,2.2-0.7c1.9,0,2.8,1.1,3.2,2.2c0.5,1.3,0.7,3.1-0.4,5.1c-0.5,1-1.2,2-2,3.1c0.9,2,1.5,3.1,2,3.9
		c0.4-1,0.6-2.4,0.6-2.9L183.6,413.7z M179.1,419.1c-0.8-1.2-1.5-2.4-2.4-4c-0.3,0.5-0.5,1-0.6,1.8c-0.1,0.8-0.2,2,0.3,2.8
		c0.3,0.4,0.6,0.6,1,0.6C178.2,420.2,178.6,419.7,179.1,419.1z M178.8,406.2c0-0.7-0.1-1.3-0.4-1.7c-0.1-0.2-0.4-0.3-0.7-0.3
		c-0.6,0-0.9,0.5-1,1c-0.1,0.6-0.1,1.7,0.1,2.7c0.1,0.5,0.3,1.1,0.6,1.7C178.1,408.7,178.8,407.3,178.8,406.2z"/>
	<path fill="#FFFFFF" d="M194.2,405.2v-3.1h8.7v3.1h-2.9v17.5h-3v-17.5H194.2z"/>
	<path fill="#FFFFFF" d="M212.5,413.7h-2.4v9h-3v-20.6h3v8.5h2.4v-8.5h3v20.6h-3V413.7z"/>
	<path fill="#FFFFFF" d="M220.4,402.1h6.9v3.1h-3.9v5.4h2.8v3.3h-2.8v5.7h3.9v3.1h-6.9V402.1z"/>
	<path fill="#FFFFFF" d="M239,402.1h6.9v3.1H242v5.4h2.8v3.3H242v5.7h3.9v3.1H239V402.1z"/>
	<path fill="#FFFFFF" d="M258.4,415.6v2.8c0,0.8-0.2,1.6-0.5,2.2c-0.3,0.6-0.6,1.1-1.2,1.5c-0.6,0.4-1.3,0.7-2.3,0.7
		s-1.8-0.3-2.4-0.7c-0.6-0.4-0.9-1-1.2-1.5c-0.3-0.6-0.5-1.4-0.5-2.2v-12.1c0-0.8,0.2-1.6,0.5-2.2c0.3-0.6,0.6-1.1,1.2-1.5
		c0.6-0.4,1.3-0.7,2.4-0.7s1.8,0.3,2.3,0.7c0.6,0.4,1,1,1.2,1.5c0.3,0.6,0.5,1.4,0.5,2.2v2.8h-2.8v-2.8c0-0.6-0.1-1-0.4-1.3
		c-0.1-0.1-0.4-0.2-0.7-0.2c-0.5,0-0.8,0.4-0.9,0.8c-0.1,0.2-0.1,0.5-0.1,0.8v12.1c0,0.6,0.2,1,0.5,1.3c0.1,0.1,0.3,0.2,0.6,0.2
		c0.6,0,0.9-0.3,1-0.8c0.1-0.2,0.1-0.4,0.1-0.8v-2.8H258.4z"/>
	<path fill="#FFFFFF" d="M270.9,418.4c0,0.8-0.2,1.6-0.5,2.2c-0.3,0.6-0.6,1.1-1.2,1.5c-0.6,0.4-1.3,0.7-2.3,0.7s-1.8-0.3-2.4-0.7
		c-0.6-0.4-0.9-1-1.2-1.5c-0.3-0.6-0.5-1.4-0.5-2.2v-12.1c0-0.8,0.2-1.6,0.5-2.2c0.3-0.6,0.6-1.1,1.2-1.5c0.6-0.4,1.3-0.7,2.4-0.7
		s1.8,0.3,2.3,0.7c0.6,0.4,1,1,1.2,1.5c0.3,0.6,0.5,1.4,0.5,2.2V418.4z M267.8,406.3c0-0.6-0.1-1-0.4-1.3c-0.1-0.1-0.4-0.2-0.6-0.2
		c-0.5,0-0.8,0.4-0.9,0.8c-0.1,0.2-0.1,0.5-0.1,0.8v12.1c0,0.6,0.1,1,0.4,1.3c0.1,0.1,0.3,0.2,0.6,0.2c0.5,0,0.8-0.3,0.9-0.8
		c0.1-0.2,0.1-0.4,0.1-0.8V406.3z"/>
	<path fill="#FFFFFF" d="M278.7,411.9l-0.3-1h-0.2v11.7h-2.8v-20.6h2.7l2.9,10.7l0.3,1h0.2v-11.7h2.8v20.6h-2.7L278.7,411.9z"/>
	<path fill="#FFFFFF" d="M297.1,418.4c0,0.8-0.2,1.6-0.5,2.2c-0.3,0.6-0.6,1.1-1.2,1.5c-0.6,0.4-1.3,0.7-2.3,0.7s-1.8-0.3-2.4-0.7
		c-0.6-0.4-0.9-1-1.2-1.5c-0.3-0.6-0.5-1.4-0.5-2.2v-12.1c0-0.8,0.2-1.6,0.5-2.2c0.3-0.6,0.6-1.1,1.2-1.5c0.6-0.4,1.3-0.7,2.4-0.7
		s1.8,0.3,2.3,0.7c0.6,0.4,1,1,1.2,1.5c0.3,0.6,0.5,1.4,0.5,2.2V418.4z M294.1,406.3c0-0.6-0.1-1-0.4-1.3c-0.1-0.1-0.4-0.2-0.6-0.2
		c-0.5,0-0.8,0.4-0.9,0.8c-0.1,0.2-0.1,0.5-0.1,0.8v12.1c0,0.6,0.1,1,0.4,1.3c0.1,0.1,0.3,0.2,0.6,0.2c0.5,0,0.8-0.3,0.9-0.8
		c0.1-0.2,0.1-0.4,0.1-0.8V406.3z"/>
	<path fill="#FFFFFF" d="M306.8,422.7l-1.9-12.9l-0.1-0.9h-0.2v13.8h-2.8v-20.6h3.7l1.8,9.4l0.1,1.1h0.1l0.1-1.1l1.8-9.4h3.7v20.6
		h-2.8v-13.8h-0.2l-0.1,0.9l-1.9,12.9H306.8z"/>
	<path fill="#FFFFFF" d="M321.9,408.7l0.1,0.2h0.1l0.1-0.2l1.5-6.6h3l-3.1,11.8v8.8h-3v-8.8l-3.1-11.8h3L321.9,408.7z"/>
</g>
<g>
	<path fill="#FFFFFF" d="M139.1,498.7c-0.3-0.1-0.8-0.2-1-0.3c-0.6-0.2-1.6-0.9-2.1-1.4c-0.3-0.5-0.9-1.2-1.1-1.7
		c-0.1-0.2-0.5-1.2-0.6-2c-0.2-1.8,0-3.8,1-5.1c1.1-1.4,2.2-2.1,3.7-2.4c0.6-0.1,1.5-0.1,2-0.1c0.1,0,0.4,0.1,0.6,0.1
		c1.5,0.2,3.1,1.4,3.9,3c0.5,1.1,0.8,2,0.8,3.3c0,1.8-0.4,3.1-1.3,4.3c-0.8,1-1.8,1.8-3,2C141.1,498.8,139.8,498.8,139.1,498.7
		 M141.6,496.8c0.2-0.1,0.2-0.1,0.4-0.1c0.1-0.1,0.2-0.1,0.3-0.2c0.2-0.1,0.4-0.2,0.5-0.4c0.6-0.7,1-1.6,1.2-2.6
		c0.2-0.8,0.1-2.3-0.2-3.2c-0.6-1.9-2-2.9-3.9-2.7c-2,0.1-3.3,1.7-3.5,4.3c-0.2,2.6,1,4.7,3,5.1C140,497,141.2,496.9,141.6,496.8
		 M150.9,498.7c-1.2-0.2-2.2-0.8-2.8-1.5c-0.5-0.6-0.6-0.9-0.8-1.7c-0.2-0.6-0.2-1-0.2-5V486h1.1h1.1l0,4.4c0,1.7-0.1,3.3,0.2,4.9
		c0.2,0.6,0.8,1.2,1.4,1.4c0.5,0.2,1.8,0.2,2.3,0.1c1-0.2,1.5-0.7,1.8-1.8c0.1-0.5,0.2-1,0.2-4.8V486h1.1h1.1v4.4
		c-0.1,2.6,0.4,5.7-1.5,7.3C154.8,498.6,152.8,499,150.9,498.7L150.9,498.7z M210.5,498.7c-0.8-0.1-1.7-0.4-2.4-0.8
		c-0.6-0.4-1.5-1.3-1.9-2c-0.7-1.3-1.1-3.1-0.9-4.6c0.4-3,2.1-5,4.6-5.5c1-0.2,1.6-0.2,2.6,0c2.5,0.5,4.1,2.3,4.6,5.1
		c0.4,2.3-0.3,4.7-1.8,6.2C214.1,498.4,212.4,498.9,210.5,498.7L210.5,498.7z M212.5,496.8c1.6-0.5,2.5-2.2,2.5-4.6
		c0-2.2-0.9-3.8-2.3-4.4c-0.7-0.3-1.8-0.3-2.5-0.1c-1.1,0.3-2,1.1-2.4,2.4c-0.6,1.7-0.4,3.9,0.4,5.3c0.3,0.5,1,1.1,1.5,1.3
		C210.4,497,211.6,497.1,212.5,496.8 M158.8,492.3V486h1.2h1.2l1.1,1.7c0.6,0.9,1.3,2.1,1.7,2.6c0.3,0.5,1.1,1.8,1.7,2.8
		c0.6,1,1.2,1.9,1.2,1.9c0,0,0.1-2,0.1-4.5v-4.5h1h1v6.2v6.2l-1.1,0l-1.1,0l-0.6-1c-0.3-0.5-0.6-1-0.6-1c0,0,0-0.1-0.1-0.1
		c-0.1-0.1-0.5-0.8-1-1.6c-0.5-0.8-1.1-1.7-1.3-2.1s-0.8-1.2-1.2-1.9l-0.8-1.3l0,4.6l0,4.6h-1.1h-1.1V492.3z M170.9,492.3v-6.2
		l3.3,0c3.1,0,3.3,0,3.9,0.2c1.1,0.4,2.2,1.3,2.7,2.3c0.5,1,0.9,2.9,0.8,4.3c-0.1,0.9-0.4,2.3-0.5,2.2c0,0-0.1,0,0,0
		c0.1,0.1-0.3,0.8-0.7,1.4c-0.5,0.6-0.9,1-1.6,1.3c-1,0.5-1.7,0.6-5,0.6h-2.8V492.3z M177,496.5c1-0.3,1.7-1,2.1-2
		c0.3-0.7,0.4-2.1,0.3-3.1c-0.2-1.6-0.6-2.4-1.5-3c-0.7-0.5-1.5-0.6-3.2-0.6h-1.6v4.4v4.4l1.8,0C176.2,496.7,176.7,496.6,177,496.5
		 M181.5,498.4c0-0.1,0.4-1,0.8-2.1c0.4-1.1,0.8-2,0.8-2.1c0.1-0.2,0.1-0.4,0.6-1.6c0.1-0.4,0.4-1,0.6-1.5c0.7-1.8,1.2-3.2,1.6-4.1
		l0.4-1h1.2h1.2l0.6,1.7c0.4,0.9,0.9,2.4,1.3,3.3c0.4,0.9,0.9,2.4,1.3,3.4c0.4,0.9,0.9,2.2,1.1,2.9c0.3,0.7,0.5,1.2,0.5,1.2
		c0,0-0.5,0.1-1.2,0.1H191l-0.2-0.5c-0.1-0.3-0.4-1-0.6-1.7l-0.4-1.2h-2.5h-2.5l-0.2,0.5c-0.1,0.3-0.4,1-0.6,1.7l-0.4,1.2h-1.1
		C181.5,498.6,181.4,498.5,181.5,498.4L181.5,498.4z M189.2,493.5c0-0.1-0.3-0.9-1.5-4.4l-0.3-1l-0.1,0.3c-0.1,0.3-1.6,4.6-1.8,4.9
		c0,0.1,0.1,0.2,1.8,0.2C188.8,493.6,189.2,493.6,189.2,493.5 M195.2,493.2v-5.3h-2h-2v-1v-1h5h5v1v1h-2h-2v5.3v5.3h-1.1h-1.1V493.2
		z M125.6,492.2V486h4.3h4.3v1v1H131h-3.2v1.6v1.6h2.8h2.8v0.9v0.9l-2.8,0l-2.8,0l0,2.8l0,2.8h-1.1h-1.1L125.6,492.2L125.6,492.2z
		 M202.1,492.2v-6.3h1.1h1.1v6.3v6.3h-1.1h-1.1V492.2z M218.2,485.9l2.3,0l5.7,9l0.1-9h2v12.4H226l-5.7-9l-0.1,9.1h-2.1V485.9z
		 M175.4,477.1l-0.8-0.2v7.4l-0.4,0l-0.4,0v-7.5l-0.8-0.1v7.6l-0.7-0.1l0-7.7l-0.8-0.2l0,7.7c-0.1,0-0.2,0-0.4-0.1l-0.3-0.1v-7.7
		L170,476v7.6l-0.2-0.1c-0.1,0-0.4-0.1-0.5-0.2l0-7.2l-1.9,0.7l0,5.8c-0.3-0.1-0.6-0.2-0.9-0.4l0-5.3l-2.6-0.4l-0.1,4.1
		c-0.3-0.1-0.5-0.3-0.7-0.5v-3.7l-2.9,1.1l-0.6-0.6l3.9-1.5l3.5,0.6l2.8-1.1l19.5,4.2c0,0.1-1.4,1.2-1.7,1.3v-0.9l-0.8-0.1l0,1.6
		l-0.2,0.1c-0.2,0.1-0.6,0.3-0.6,0.3l0-2.2l-0.7-0.2v2.8l-0.3,0.2c-0.2,0.1-0.4,0.2-0.4,0.2l0-3.3c0,0-0.3-0.1-0.5-0.1l-0.3-0.1v3.8
		l-0.4,0.1c-0.2,0.1-0.5,0.2-0.5,0.2v-4.3l-0.7-0.2v4.8l-0.3,0.1c-0.2,0.1-0.4,0.1-0.5,0.1l0-5.1l-0.7-0.1l0,5.4
		c0,0-0.3,0.1-0.5,0.1l-0.3,0.1v-5.7c0,0-0.3-0.1-0.4-0.1l-0.3-0.1v3v3l-0.3,0.1c-0.2,0-0.4,0-0.5,0v-6.3l-0.7-0.2v6.6
		c-0.1,0-0.4,0.1-0.5,0.1l-0.2,0v-6.8l-0.7-0.2v7c-0.1,0-0.4,0.1-0.5,0.1l-0.2,0L175.4,477.1z M128.3,479l0-5.3l-3.9,0v-1.8h10v1.8
		l-3.9,0l0,5.3l0,5.3h-2.2L128.3,479z M144.4,484.3l4.2-6.4l-4.1-6l1.3,0l1.3,0l1.4,2.2c0.8,1.2,1.4,2.2,1.4,2.2l3-4.3h2.4l-4.1,6
		l4.5,6.4H153l-3.1-4.6l-3.1,4.6 M141.5,484.3l-1.2-3.2h-5l-1.1,3.3h-2.3l4.7-12.4h2.2l5.2,12.4 M139.6,479.2l-1.8-5.2l-1.8,5.2
		L139.6,479.2z M189.3,478.2c-0.5-0.1-1.1-0.3-1.4-0.3c-0.3-0.1-1.3-0.3-2.3-0.5c-1-0.2-3.4-0.8-5.4-1.2l-10.5-2.4l-2.8,1.2
		l-3.5-0.7l-4.7,1.7c-0.1,0-0.4-0.5-0.3-0.6l5.1-1.9l3.5,0.8l2.8-1.1l11.3,2.7c0.6,0.1,1.6,0.4,2.2,0.5s1.6,0.4,2.2,0.5
		c1.7,0.4,4.4,1,4.7,1.1c0.3,0.1,0.3,0.1,0.2,0.2c-0.1,0.1-0.1,0.1-0.2,0.1C190.2,478.4,189.8,478.4,189.3,478.2 M191.1,477.5
		c0,0-1.8-0.5-5.4-1.3c-0.4-0.1-1-0.2-1.3-0.3c-0.3-0.1-1.2-0.3-2.2-0.5c-3-0.7-5.7-1.3-6.5-1.5l-0.8-0.2V473c0-0.6,0-0.8,0.2-1.1
		c0.3-0.5,0.4-1.3,0.3-1.5c-0.2-0.4-0.6-0.8-1.1-1.2c-0.4-0.4-0.5-0.4-0.5-0.7c0-0.2,0.1-0.4,0.2-0.5c0.4-0.5,0.1-1.4-0.8-2.4
		c-0.4-0.4-0.6-0.7-0.6-0.9c-0.3-1.1-1-2.4-1.8-3.3c-0.4-0.5-0.5-0.6-0.8-0.8c-0.1-0.1-0.5-0.4-0.7-0.5c-0.3-0.2-0.5-0.4-0.5-0.6
		c-0.1-0.1-0.2-0.4-0.4-0.6c-0.3-0.3-0.3-0.4-0.3-0.9c0-0.4,0.1-0.7,0.2-0.9c0.1-0.2,0.2-0.4,0.2-0.5c0-0.1-0.2-0.3-0.4-0.6
		c-0.6-0.7-0.6-0.8-0.7-1.8c-0.1-1-0.2-1.7-0.3-1.7c-0.1,0-0.3,0.9-0.3,1.7c0,0.8-0.1,1.1-0.6,1.6c-0.2,0.2-0.4,0.4-0.4,0.6
		c-0.1,0.2-0.1,0.3,0.1,0.6c0.2,0.3,0.2,0.4,0.2,0.9c0,0.5,0,0.6-0.2,0.9c-0.1,0.2-0.3,0.4-0.4,0.6c-0.1,0.2-0.4,0.5-0.8,0.8
		c-0.7,0.5-1.3,1.2-1.9,1.8c-0.2,0.2-0.3,0.4-0.5,0.6c-0.1,0.2-0.2,0.3-0.4,0.5c-0.1,0.2-0.3,0.5-0.4,0.8c-0.1,0.3-0.2,0.5-0.1,0.6
		c0,0,0.4-0.1,0.8-0.2c1.3-0.5,2.3-0.7,4.1-0.7c2.2-0.1,4.4,0.2,4.7,0.5c0.1,0.2,0.1,0.2-1.2-0.1c-1.4-0.2-3.9-0.3-5.2,0
		c-1.6,0.3-2.8,0.8-3.6,1.5c-0.6,0.6-0.7,0.9-0.1,0.6c0.5-0.3,2-0.7,3.4-1c0.9-0.2,4-0.3,4.7-0.1c0.3,0.1,0.6,0.1,0.7,0.1
		c0.6,0,2.6,0.6,2.9,0.9c0.3,0.2,0,0.2-0.8-0.1c-1.3-0.4-2.4-0.6-4.4-0.6c-3.1,0-5.2,0.5-7,1.7c-0.4,0.3-0.4,0.4-0.1,0.9
		c0.2,0.3,0.2,0.5,0.2,0.7c0,0.3-0.1,0.4-0.4,0.6c-0.4,0.3-0.7,0.6-0.6,0.7c0,0,0.2-0.1,0.4-0.2c0.6-0.4,2.1-1,2.9-1.2
		c1.6-0.4,2.6-0.5,4.3-0.5c2.5,0,4.8,0.4,6.2,1.1c0.3,0.2,0.5,0.3,0.2,0.3c-0.1,0-0.4-0.1-0.9-0.3c-3.1-1-7-1.2-9.9-0.3
		c-1.1,0.3-3,1.2-3.4,1.5c-0.2,0.2-0.5,0.7-0.4,0.7c0,0,0.5-0.2,1.2-0.5c2.1-1.1,3.8-1.5,6.4-1.6c1.8,0,2.8,0.1,4.4,0.4
		c0.9,0.2,1,0.3,0.8,0.8c-0.1,0.3-0.3,0.4-0.6,0.2c-0.1-0.1-0.3-0.1-0.3-0.1c0,0-0.1,0.6-0.1,1.3c0,1.2,0,1.3-0.2,1.3
		c-0.1,0-0.2,0-0.2-0.1c0-0.1,0-0.6,0-1.2c0-1.1,0-1.1-0.2-1.2c-0.1-0.1-0.2-0.1-0.3-0.2c-0.1-0.1-0.2-0.1-0.3-0.1
		c-0.2,0-0.2,0-0.2,1.4c0,1.3-0.1,1.4-0.2,1.4c-0.2,0-0.2-0.1-0.2-1.3c0-1.2,0-1.3-0.2-1.4c-0.1,0-0.2-0.1-0.3-0.2
		c-0.1-0.1-0.2-0.2-0.3-0.1c-0.1,0-0.2,0.2-0.2,1.6c0,1.5-0.1,1.5-0.2,1.5s-0.2-0.1-0.2-1.3c0-1.1,0-1.3-0.2-1.3
		c-0.1,0-0.3-0.1-0.4-0.2c-0.5-0.4-0.5-0.3-0.6,1.3c0,1.5-0.1,1.7-0.3,1.6c-0.1,0-0.1-0.3-0.1-1.3v-1.2L165,470
		c-0.2-0.1-0.4-0.2-0.5-0.2c-0.2,0-0.2,0.1-0.2,1.5c0,1.2,0,1.5-0.1,1.6c-0.3,0.2-0.3,0-0.3-1.4c0-1.4,0-1.5-0.5-1.6
		c-0.4-0.1-0.5,0.1-0.5,1.8c0,1.4,0,1.5-0.2,1.5c-0.2,0-0.2-0.1-0.2-0.9c0-1.7,0-1.8-0.1-2c-0.1-0.1-0.2-0.1-0.4,0l-0.3,0.1l0,1.6
		c0,1.2-0.1,1.6-0.1,1.7c-0.3,0.2-0.3,0-0.3-1.4c0-1.5,0-1.7-0.4-1.6c-0.1,0-0.2,0.1-0.2,0.1c0,0,0,0.8-0.1,1.7
		c0,1.6-0.1,1.7-0.2,1.7c-0.2,0-0.2-0.1-0.2-1.4c0-1.3,0-1.4-0.2-1.4c-0.3,0-0.4,0.2-0.4,1.7c0,0.8,0,1.4,0,1.4c0,0-0.1,0-0.2,0
		c-0.1,0-0.1-0.3-0.2-1.1c0-1,0-1.1-0.2-1.1c-0.2,0-0.2,0.1-0.2,1.3l0,1.3l-0.3,0.1c-0.2,0.1-0.3,0.1-0.3,0.1
		c-0.2-0.2-1.7-2.9-1.7-3c0,0-0.2-0.4-0.3-0.6c-0.5-1.4-1.2-2.9-1.3-4.4c-0.4-4.4-0.3-9.2,1.8-13.2c1.2-2.3,3-5,5.3-6.9
		c0.2-0.2,0.5-0.4,0.7-0.6c2.7-1.8,4.6-3,7.9-3.8c1.9-0.4,3.2-0.6,5.1-0.6c2.7,0,5,0.4,7.7,1.4c0.4,0.2,2.5,1.2,3,1.5
		c0.9,0.5,1.4,0.9,1.3,1c0,0.1,0,0.1,0,0c0.2-0.1,2.2,1.5,3.2,2.6c3.4,3.6,5.5,8.1,5.9,12.8c0.2,2.4,0.2,3.1,0,4.6
		c-0.3,1.6-0.4,2.3-0.7,3.3c-1.1,2.8-2.4,5.6-4.1,7.6C191.1,477.5,191.1,477.5,191.1,477.5L191.1,477.5z M183.2,471.7
		c0.2-0.1,0.4-0.4,0.5-0.5c0.2-0.3,0.2-0.5,0.2-2.3c0-1.8,0-2-0.2-2.3c-0.3-0.6-0.9-0.9-1.8-0.8c-0.4,0-0.5,0.1-0.8,0.4
		c-0.3,0.3-0.4,0.4-0.5,1c-0.2,0.8-0.1,1.6,0.2,2.2c0.1,0.3,0.3,0.4,0.6,0.6c0.5,0.2,1,0.2,1.2-0.1c0.2-0.1,0.2-0.1,0.2,0.3
		c0,0.5-0.1,0.9-0.4,0.9c-0.4,0.1-0.6-0.1-0.6-0.5c0,0-0.2,0-0.6,0c-0.5,0-0.6,0-0.6,0.2c0,0.4,0.2,0.8,0.5,1c0.3,0.2,0.4,0.2,1,0.2
		C182.8,471.8,182.9,471.8,183.2,471.7 M181.9,468.8c-0.1-0.1-0.1-0.4-0.2-1c0-1,0.1-1.3,0.5-1.2c0.4,0,0.5,0.3,0.5,1.3
		c0,0.7-0.1,0.8-0.2,0.9C182.3,469,182,469,181.9,468.8 M187,471.7c0.4-0.2,0.6-0.5,0.8-1c0.3-0.8,0.1-1.8-0.4-2.1l-0.2-0.1l0.2-0.2
		c0.3-0.2,0.4-0.7,0.4-1.3c-0.1-0.9-0.5-1.3-1.6-1.3c-0.5,0-0.7,0-1,0.2c-0.4,0.2-0.6,0.8-0.7,1.2v0.3h0.5h0.5l0.1-0.3
		c0.1-0.8,1-0.7,1,0.1c0,0.5-0.2,0.7-0.7,0.8l-0.4,0.1v0.4v0.4l0.4,0.1c0.7,0.1,0.8,0.2,0.8,1c0,0.5,0,0.7-0.2,0.8
		c-0.1,0.1-0.2,0.2-0.5,0.1c-0.4-0.1-0.4-0.2-0.5-0.7l0-0.5h-0.6h-0.6v0.5c0,0.6,0.3,1.2,0.7,1.4c0.2,0.2,0.4,0.2,1,0.2
		C186.4,471.8,186.8,471.8,187,471.7L187,471.7z M179.5,465.8h-0.4c-0.4,0-0.4,0-0.6,0.3c-0.2,0.3-0.6,0.6-1.2,0.7
		c-0.3,0.1-0.3,0.1-0.3,0.4v0.4h0.7h0.7v4.3h1.1L179.5,465.8z M190.4,471.2c0.1-1.3,0.6-2.9,1.2-4c0.2-0.4,0.3-0.7,0.3-0.9v-0.4
		h-3.5v0.9h2.4l-0.5,1c-0.4,0.9-0.7,2-1,3c-0.1,0.4-0.3,1-0.2,1.1h1.3L190.4,471.2L190.4,471.2z M176.6,464.9c0.9-0.2,1.4-1,1.3-1.9
		c-0.1-0.6-0.3-1-1-1.4l-0.7-0.5c-0.3-0.2-0.7-0.5-0.7-0.7c-0.1-0.5,0.6-0.9,1-0.5c0.1,0.1,0.2,0.3,0.2,0.5v0.3h1.2l0-0.5
		c-0.1-0.9-0.7-1.5-1.6-1.5c-1.2,0-1.9,0.5-1.9,1.6c0,0.3,0.1,0.6,0.1,0.7c0.1,0.2,0.5,0.6,0.8,0.9c0.4,0.4,1.3,0.9,1.4,1.1
		c0.3,0.5,0,1.1-0.5,1.1c-0.4,0-0.6-0.3-0.7-0.9v-0.5h-0.6h-0.6l0.1,0.6c0.1,0.9,0.4,1.4,1.1,1.6C175.7,465,176,465,176.6,464.9
		L176.6,464.9z M187.3,464.6c0.3-0.3,0.4-0.7,0.4-1.3V463h-0.6h-0.6v0.4c0,0.5-0.2,0.7-0.4,0.6c-0.2-0.1-0.3-0.4-0.3-1.5
		c0-1.2,0-1.4,0.3-1.5c0.3-0.1,0.4,0.1,0.4,0.5v0.3h0.6h0.6l0-0.4c0-0.5-0.2-0.8-0.6-1.1c-0.3-0.3-1.3-0.3-1.7,0
		c-0.5,0.4-0.5,0.6-0.5,2.2c0,1.6,0.1,1.8,0.6,2.2c0.2,0.1,0.4,0.2,0.9,0.2C186.9,464.8,187,464.8,187.3,464.6L187.3,464.6z
		 M190.9,464.7c0.2-0.1,0.4-0.3,0.4-0.5c0.2-0.4,0.2-0.7,0.2-1l-1.1,0v0.3c0,0.4-0.1,0.5-0.4,0.5c-0.4,0-0.5-0.1-0.5-0.7l0-0.5h2.1
		l0-0.9c0-0.5-0.1-1-0.2-1.1c-0.3-0.7-1.9-0.9-2.5-0.3c-0.4,0.3-0.4,0.7-0.4,2c0,1.2,0,1.3,0.2,1.7c0.3,0.5,0.6,0.7,1.4,0.7
		C190.5,464.9,190.7,464.8,190.9,464.7L190.9,464.7z M189.4,461.6c0-0.4,0.2-0.7,0.5-0.7c0.3,0,0.4,0.1,0.4,0.6v0.4h-0.5h-0.5V461.6
		z M179.9,460.3h-1.1l0,4.5c0,0,0.4,0,0.6,0h0.5L179.9,460.3z M182,463.3c0-1.5,0-1.4,0.1-1.9c0-0.1,0.2-0.2,0.3-0.3
		c0.4-0.1,0.5,0.1,0.5,2l0,1.7h0.5h0.5v-2c0-1.4,0.1-1.4-0.1-2.1c0-0.2-0.3-0.3-0.4-0.4c-0.5-0.2-0.9-0.2-1.3,0.2
		c-0.2,0.2-0.2,0.2-0.2,0c0-0.2-0.1-0.2-0.5-0.2h-0.5v2.3v2.3h0.5h0.5L182,463.3L182,463.3z M179.9,458.7h-1.1v1.1h1.1L179.9,458.7z
		 M164.7,473.4c0-0.1,0.5-0.3,0.8-0.2c0.1,0,0.2,0,0.2,0c0,0,0.3-0.1,0.7-0.1c0.4,0,0.7,0,0.7,0.1c0,0,0.1,0.1,0.3,0.1
		c0.3,0,0.5,0.1,0.5,0.3c0,0-0.7,0-1.6,0C165,473.5,164.7,473.5,164.7,473.4 M160.5,468.6c0-0.1-0.1-0.4,0-0.7
		c0-0.7,0.2-0.6,0.2,0.1C160.7,468.5,160.6,468.8,160.5,468.6L160.5,468.6z M161.2,468.3c0-0.1,0-0.4,0-0.7c0-0.4,0.1-0.6,0.1-0.6
		c0.2,0,0.2,1.4,0,1.4C161.3,468.4,161.2,468.3,161.2,468.3 M162.1,468c0-0.1,0-0.4,0-0.8c0-0.6,0.1-0.7,0.2-0.7
		c0.2,0,0.2,1.6,0,1.6C162.2,468.1,162.1,468.1,162.1,468L162.1,468z M163,466.9c0-0.7,0-0.8,0.1-0.8c0.2,0,0.2,0.1,0.2,0.9
		c0,0.6-0.1,0.7-0.2,0.7C163,467.8,163,467.6,163,466.9 M164.2,467.5c-0.1-0.1-0.1-1.6,0-1.6c0.2-0.1,0.3,0.2,0.3,0.9
		c0,0.5,0,0.7-0.1,0.8C164.3,467.6,164.2,467.5,164.2,467.5L164.2,467.5z M165.3,467.4c-0.1-0.1-0.1-1.6,0-1.6
		c0.2-0.1,0.2,0,0.2,0.7C165.6,467.2,165.5,467.6,165.3,467.4L165.3,467.4z M166.5,467.3c0-1.1,0-1.6,0.1-1.7c0.1,0,0.2,0.6,0.2,1.2
		c0,0.3-0.1,0.5-0.1,0.5C166.5,467.3,166.5,467.3,166.5,467.3L166.5,467.3z M167.6,467.3c0,0-0.1-0.4-0.1-0.9c0-0.6,0-0.8,0.1-0.8
		c0.1,0,0.1,0.3,0.1,0.8C167.8,467.1,167.7,467.4,167.6,467.3 M168.6,466.5c0-0.7,0-0.8,0.1-0.8c0.1,0,0.1,0.2,0.1,0.8
		c0,0.7,0,0.8-0.1,0.8C168.6,467.3,168.6,467.2,168.6,466.5 M162.2,463.1c0-0.2,0.1-0.2,0.2-0.1c0.1,0.1,0,0.3-0.1,0.3
		C162.2,463.2,162.2,463.2,162.2,463.1 M162.9,462.7c0-0.2,0.2-0.2,0.2,0c0,0.1,0,0.1-0.1,0.1C162.9,462.9,162.9,462.8,162.9,462.7
		L162.9,462.7z M163.7,462.6c-0.1-0.2,0.1-0.4,0.2-0.2c0.1,0.1,0,0.4-0.1,0.4C163.8,462.7,163.7,462.7,163.7,462.6 M164.6,462.3
		c0-0.1,0-0.2,0.1-0.2c0,0,0.1,0.1,0.1,0.1v0.2c0,0,0,0.1-0.1,0.1C164.7,462.5,164.6,462.5,164.6,462.3 M165.5,462.2
		c0-0.1,0-0.2,0-0.2c0.1-0.2,0.2-0.1,0.2,0.1C165.8,462.4,165.6,462.4,165.5,462.2L165.5,462.2z M166.5,462.3
		c-0.1-0.1,0-0.4,0.1-0.4c0,0,0.1,0.1,0.1,0.3C166.7,462.4,166.6,462.4,166.5,462.3L166.5,462.3z M167.5,462.1c0-0.1,0-0.3,0.1-0.3
		c0,0,0.1,0.1,0.1,0.3c0,0.1,0,0.3-0.1,0.3S167.5,462.2,167.5,462.1"/>
	<path fill="#FFFFFF" d="M273.7,461.4c0.9-1.1,1.8-1.9,2.9-2.5c-0.1-0.2-0.2-0.5-0.3-0.7c-0.8-1.5-2-2.8-3.4-3.8
		c-1.4-1-3.5-2.1-6.2-3.3c-2.8-1.2-4.5-2.2-5.1-2.9c-0.6-0.7-0.9-1.4-0.9-2.1c0-0.9,0.4-1.6,1-2.1s1.6-0.8,2.6-0.8
		c1.3,0,2.5,0.5,3.4,1.4c1,0.9,1.6,2.3,1.8,4h6.2v-11.1h-6.2v3c-1.6-2.3-3.8-3.4-6.7-3.4c-2.5,0-4.8,0.9-6.8,2.6s-3,4.2-3,7.4
		c0,2.6,0.8,4.7,2.3,6.3c1.5,1.6,4.4,3.4,8.6,5.4c2,1,3.4,1.8,4.1,2.6c0.8,0.8,1.1,1.7,1.1,2.8c0,1-0.4,2-1.2,2.7
		c-0.8,0.8-1.7,1.2-2.8,1.2c-1.4,0-2.7-0.5-3.8-1.6c-1.1-1.1-1.7-2.7-1.8-5h-6.2v12.4h6.2v-3.1c1.7,2.4,4.2,3.6,7.4,3.6
		c1.3,0,2.5-0.2,3.6-0.5c-0.1-0.8-0.2-1.7-0.2-2.6C270.3,467.3,271.4,464,273.7,461.4"/>
	<path fill="#FFFFFF" d="M298.2,478.6v-32.2h-12.7v6.2h4.2v8.5c-2-2.4-4.6-3.6-7.7-3.6c-2,0-3.8,0.5-5.4,1.5
		c0.6,1.4,0.9,2.9,0.9,4.7c0,3.6-1,6.3-3.1,8.1c-1.2,1-2.4,1.7-3.8,2.2c0.4,2.7,1.4,5.2,3.1,7.2c2.2,2.7,4.9,4.1,8.3,4.1
		c2.8,0,5.4-1.2,7.7-3.6v3.2h12.9v-6.2H298.2z M288.1,476.7c-1.1,1.1-2.3,1.7-3.7,1.7c-1.7,0-3-0.7-3.9-2.1
		c-0.9-1.4-1.4-3.1-1.4-5.1c0-2.1,0.5-3.8,1.4-5.1c0.9-1.3,2.2-1.9,3.9-1.9c1.4,0,2.6,0.5,3.7,1.6c1.1,1.1,1.6,2.9,1.6,5.5
		C289.7,473.8,289.2,475.6,288.1,476.7"/>
	<path fill="#FFFFFF" d="M259.7,496h1.3v2.7h-1.3c-0.4-1-1-1.5-1.9-1.5c-0.7,0-1.3,0.3-1.7,0.8s-0.6,1.1-0.6,1.8
		c0,0.7,0.2,1.3,0.6,1.8c0.4,0.5,0.9,0.7,1.5,0.7c0.5,0,1-0.2,1.3-0.5c0.4-0.3,0.6-0.8,0.8-1.5l1.5,0.7c-0.6,1.8-1.8,2.7-3.8,2.7
		c-1.4,0-2.4-0.4-3.1-1.1c-0.7-0.7-1-1.7-1-2.8c0-0.8,0.2-1.5,0.5-2.1s0.9-1.1,1.5-1.4c0.6-0.3,1.3-0.5,2-0.5c0.9,0,1.7,0.2,2.3,0.7
		V496z"/>
	<path fill="#FFFFFF" d="M261.3,503.6v-1.2h0.9v-5.2h-0.9V496h2.6v2.8c0.5-0.4,1-0.6,1.5-0.6c1.1,0,1.6,0.7,1.6,2v2.3h0.8v1.2h-2.5
		v-3.4c0-0.2,0-0.4-0.1-0.5s-0.2-0.1-0.4-0.1c-0.3,0-0.6,0.1-0.9,0.3v2.5h0.8v1.2H261.3z"/>
	<path fill="#FFFFFF" d="M273.9,502.4v1.2h-2.6v-0.4c-0.5,0.3-0.9,0.5-1.5,0.5c-0.5,0-1-0.2-1.4-0.5c-0.4-0.3-0.6-0.7-0.6-1.2
		c0-0.5,0.2-0.9,0.6-1.3c0.4-0.3,0.9-0.5,1.6-0.5c0.4,0,0.8,0.1,1.2,0.3v-0.3c0-0.3-0.1-0.5-0.3-0.7s-0.4-0.3-0.7-0.3
		c-0.4,0-0.7,0.1-1,0.4l-1.4-0.2c0.4-0.8,1.3-1.3,2.6-1.3c0.5,0,0.9,0.1,1.3,0.2c0.3,0.1,0.6,0.3,0.8,0.4c0.2,0.2,0.3,0.4,0.3,0.6
		c0.1,0.2,0.1,0.6,0.1,1.1v1.9H273.9z M271.4,501.6c-0.4-0.3-0.7-0.4-1-0.4c-0.2,0-0.4,0.1-0.5,0.2c-0.2,0.1-0.2,0.3-0.2,0.5
		c0,0.2,0.1,0.4,0.2,0.5c0.1,0.1,0.3,0.2,0.5,0.2c0.3,0,0.7-0.2,1.1-0.6V501.6z"/>
	<path fill="#FFFFFF" d="M274.2,499.5v-1.2h2.6v0.4c0.6-0.3,1.2-0.5,1.7-0.5c0.7,0,1.2,0.2,1.6,0.7c0.7-0.5,1.4-0.7,2.2-0.7
		c0.4,0,0.8,0.1,1.1,0.2c0.3,0.2,0.5,0.4,0.6,0.7s0.2,0.7,0.2,1.3v2h0.9v1.2h-2.6v-3.1c0-0.6-0.2-0.8-0.7-0.8
		c-0.4,0-0.8,0.1-1.2,0.4v2.4h0.9v1.2h-2.6v-3.1c0-0.6-0.2-0.9-0.7-0.9c-0.4,0-0.8,0.1-1.2,0.4v2.4h0.9v1.2h-3.5v-1.2h0.9v-2.9
		H274.2z"/>
	<path fill="#FFFFFF" d="M287.8,496v2.9c0.4-0.5,0.9-0.7,1.5-0.7c0.7,0,1.2,0.3,1.7,0.8c0.4,0.5,0.6,1.2,0.6,2c0,0.9-0.2,1.5-0.6,2
		c-0.4,0.5-1,0.7-1.6,0.7c-0.6,0-1.1-0.2-1.6-0.7v0.6h-2.6v-1.2h0.9v-5.2h-0.9V496H287.8z M289.9,500.9c0-0.5-0.1-0.8-0.3-1
		c-0.2-0.2-0.4-0.3-0.7-0.3c-0.3,0-0.5,0.1-0.8,0.3s-0.3,0.6-0.3,1.1c0,0.4,0.1,0.8,0.3,1c0.2,0.2,0.4,0.4,0.8,0.4
		c0.3,0,0.5-0.1,0.7-0.4C289.8,501.8,289.9,501.4,289.9,500.9"/>
	<path fill="#FFFFFF" d="M296.1,502l1.3,0.4c-0.6,0.9-1.4,1.3-2.6,1.3c-0.9,0-1.7-0.2-2.2-0.7c-0.5-0.5-0.8-1.1-0.8-2
		c0-0.8,0.3-1.5,0.8-2.1c0.5-0.5,1.2-0.8,2.1-0.8c0.6,0,1.1,0.2,1.6,0.5c0.4,0.3,0.8,0.7,0.9,1.2c0.2,0.5,0.3,1,0.3,1.5h-4
		c0,0.5,0.2,0.8,0.5,1c0.3,0.2,0.6,0.3,0.9,0.3C295.3,502.6,295.7,502.4,296.1,502 M295.8,500.4c0-0.3-0.2-0.6-0.3-0.8
		c-0.2-0.2-0.5-0.3-0.8-0.3c-0.6,0-1,0.4-1.1,1.1H295.8z"/>
	<path fill="#FFFFFF" d="M301.6,502.4v1.2h-3.7v-1.2h1v-2.9H298v-1.2h2.5v1.4c0.1-0.4,0.3-0.7,0.7-1c0.3-0.3,0.7-0.4,1.2-0.4
		c0.1,0,0.2,0,0.3,0v1.6c-0.4,0-0.8,0-1.1,0.1c-0.3,0.1-0.5,0.3-0.7,0.6c-0.2,0.3-0.3,0.7-0.3,1.1v0.7H301.6z"/>
	<path fill="#FFFFFF" d="M261.3,493v1.3H259l-1.7-3.4h-0.9v2.1h1v1.3h-4V493h1.1v-5.1h-1.1v-1.3h4.6c0.9,0,1.5,0.2,1.9,0.7
		s0.6,0.9,0.6,1.5c0,0.9-0.4,1.5-1.3,1.9l1.2,2.3H261.3z M256.4,489.7h0.7c0.8,0,1.3-0.3,1.3-0.9c0-0.3-0.1-0.5-0.3-0.7
		c-0.2-0.1-0.5-0.2-0.8-0.2h-0.9V489.7z"/>
	<path fill="#FFFFFF" d="M265.5,492.7l1.3,0.4c-0.6,0.9-1.4,1.3-2.6,1.3c-0.9,0-1.7-0.2-2.2-0.7c-0.5-0.5-0.8-1.1-0.8-2
		c0-0.8,0.3-1.5,0.8-2.1c0.5-0.6,1.2-0.8,2.1-0.8c0.6,0,1.1,0.2,1.6,0.5c0.4,0.3,0.8,0.7,0.9,1.2c0.2,0.5,0.3,1,0.3,1.5h-4
		c0,0.5,0.2,0.8,0.5,1c0.3,0.2,0.6,0.3,0.9,0.3C264.6,493.3,265,493.1,265.5,492.7 M265.1,491c0-0.3-0.2-0.5-0.3-0.8
		c-0.2-0.2-0.5-0.3-0.8-0.3c-0.6,0-1,0.4-1.1,1.1H265.1z"/>
	<path fill="#FFFFFF" d="M273.5,489v1.2h-0.9v3.9c0,1.8-0.9,2.6-2.8,2.6c-1.1,0-1.9-0.2-2.4-0.6l0.8-1.1c0.4,0.3,0.9,0.4,1.3,0.4
		c0.4,0,0.7-0.1,1-0.3c0.3-0.2,0.4-0.6,0.4-1.1v-0.4c-0.6,0.5-1.1,0.7-1.6,0.7c-0.6,0-1.1-0.3-1.6-0.8c-0.4-0.5-0.7-1.2-0.7-2
		s0.2-1.5,0.7-2c0.4-0.5,1-0.8,1.6-0.8c0.6,0,1.1,0.2,1.5,0.7V489H273.5z M270.9,491.7c0-0.4-0.1-0.8-0.3-1
		c-0.2-0.3-0.5-0.4-0.8-0.4c-0.3,0-0.6,0.1-0.8,0.4c-0.2,0.3-0.3,0.6-0.3,1c0,0.4,0.1,0.7,0.3,1s0.4,0.4,0.8,0.4
		c0.3,0,0.5-0.1,0.8-0.4C270.8,492.4,270.9,492.1,270.9,491.7"/>
	<path fill="#FFFFFF" d="M273.8,490.2V489h2.5v4.1h0.8v1.2h-3.3v-1.2h0.8v-2.9H273.8z M274.5,487.4c0-0.3,0.1-0.5,0.3-0.7
		c0.2-0.2,0.4-0.3,0.7-0.3c0.3,0,0.5,0.1,0.7,0.3c0.2,0.2,0.3,0.4,0.3,0.7c0,0.3-0.1,0.5-0.3,0.7c-0.2,0.2-0.4,0.3-0.7,0.3
		c-0.3,0-0.5-0.1-0.7-0.3C274.6,487.9,274.5,487.7,274.5,487.4"/>
	<path fill="#FFFFFF" d="M279.8,494.4c-0.8,0-1.4-0.2-2-0.7c-0.5-0.5-0.8-1.2-0.8-2s0.3-1.5,0.8-2c0.5-0.5,1.2-0.7,2-0.7
		c0.8,0,1.5,0.2,2,0.7c0.5,0.5,0.8,1.2,0.8,2c0,0.9-0.3,1.5-0.8,2C281.3,494.2,280.6,494.4,279.8,494.4 M279.8,493.1
		c0.3,0,0.6-0.1,0.8-0.4c0.2-0.2,0.3-0.6,0.3-1.1c0-0.5-0.1-0.8-0.3-1.1c-0.2-0.3-0.5-0.4-0.8-0.4c-0.7,0-1.1,0.5-1.1,1.5
		c0,0.4,0.1,0.8,0.3,1C279.2,493,279.4,493.1,279.8,493.1"/>
	<path fill="#FFFFFF" d="M282.6,490.2V489h2.5v0.5c0.5-0.4,1-0.6,1.6-0.6c1.1,0,1.6,0.7,1.6,2.1v2.1h0.8v1.2h-2.5v-3.2
		c0-0.3,0-0.5-0.1-0.6c-0.1-0.1-0.2-0.2-0.4-0.2c-0.3,0-0.6,0.1-1,0.3v2.4h0.8v1.2h-3.3v-1.2h0.8v-2.9H282.6z"/>
	<path fill="#FFFFFF" d="M295.2,493.1v1.2h-2.6v-0.4c-0.5,0.3-0.9,0.5-1.5,0.5c-0.5,0-1-0.2-1.4-0.5c-0.4-0.3-0.6-0.7-0.6-1.2
		c0-0.5,0.2-0.9,0.6-1.3c0.4-0.3,0.9-0.5,1.6-0.5c0.4,0,0.8,0.1,1.2,0.3v-0.3c0-0.3-0.1-0.5-0.3-0.7c-0.2-0.2-0.4-0.3-0.7-0.3
		c-0.4,0-0.7,0.1-1,0.4l-1.4-0.2c0.4-0.8,1.3-1.3,2.6-1.3c0.5,0,0.9,0.1,1.3,0.2s0.6,0.3,0.8,0.4c0.2,0.2,0.3,0.4,0.3,0.6
		s0.1,0.6,0.1,1.1v1.9H295.2z M292.6,492.3c-0.4-0.3-0.7-0.4-1-0.4c-0.2,0-0.4,0.1-0.5,0.2c-0.2,0.1-0.2,0.3-0.2,0.5
		c0,0.2,0.1,0.4,0.2,0.5c0.1,0.1,0.3,0.2,0.5,0.2c0.3,0,0.7-0.2,1.1-0.6V492.3z"/>
	<polygon fill="#FFFFFF" points="295.5,494.3 295.5,493.1 296.3,493.1 296.3,487.9 295.5,487.9 295.5,486.6 298,486.6 298,493.1 
		298.8,493.1 298.8,494.3 	"/>
	<path fill="#FFFFFF" d="M253.2,479.7v-1.5h0.7c0,0.3,0.1,0.5,0.2,0.6c0.1,0.1,0.3,0.2,0.5,0.2c0.1,0,0.2,0,0.3-0.1
		c0.1-0.1,0.1-0.2,0.1-0.3c0-0.1,0-0.2-0.1-0.3c-0.1-0.1-0.3-0.2-0.5-0.3c-0.5-0.2-0.8-0.5-1-0.6s-0.3-0.4-0.3-0.7
		c0-0.4,0.1-0.7,0.4-0.9c0.2-0.2,0.5-0.3,0.8-0.3c0.3,0,0.6,0.1,0.8,0.4v-0.4h0.7v1.3h-0.7c0-0.2-0.1-0.4-0.2-0.5
		c-0.1-0.1-0.3-0.2-0.4-0.2c-0.1,0-0.2,0-0.3,0.1s-0.1,0.1-0.1,0.3c0,0.1,0,0.2,0.1,0.3s0.3,0.2,0.6,0.3c0.3,0.1,0.6,0.3,0.7,0.4
		c0.2,0.1,0.3,0.3,0.4,0.4c0.1,0.2,0.1,0.4,0.1,0.6c0,0.4-0.1,0.8-0.4,1c-0.2,0.2-0.5,0.3-0.9,0.3c-0.4,0-0.7-0.1-0.9-0.4v0.4H253.2
		z"/>
	<path fill="#FFFFFF" d="M259.6,479.1v0.7h-1.4v-0.2c-0.3,0.2-0.5,0.3-0.8,0.3c-0.3,0-0.6-0.1-0.8-0.3c-0.2-0.2-0.3-0.4-0.3-0.7
		c0-0.3,0.1-0.5,0.3-0.7c0.2-0.2,0.5-0.3,0.9-0.3c0.2,0,0.4,0.1,0.7,0.2v-0.2c0-0.2-0.1-0.3-0.2-0.4c-0.1-0.1-0.2-0.1-0.4-0.1
		c-0.2,0-0.4,0.1-0.6,0.2l-0.8-0.1c0.2-0.5,0.7-0.7,1.5-0.7c0.3,0,0.5,0,0.7,0.1c0.2,0.1,0.3,0.1,0.4,0.3c0.1,0.1,0.2,0.2,0.2,0.3
		c0,0.1,0.1,0.3,0.1,0.6v1.1H259.6z M258.2,478.6c-0.2-0.1-0.4-0.2-0.6-0.2c-0.1,0-0.2,0-0.3,0.1c-0.1,0.1-0.1,0.2-0.1,0.3
		c0,0.1,0,0.2,0.1,0.3c0.1,0.1,0.2,0.1,0.3,0.1c0.2,0,0.4-0.1,0.6-0.3V478.6z"/>
	<path fill="#FFFFFF" d="M260,477.4v-0.7h1.4v0.3c0.3-0.2,0.6-0.3,0.9-0.3c0.6,0,0.9,0.4,0.9,1.2v1.2h0.5v0.7h-1.4v-1.8
		c0-0.2,0-0.3-0.1-0.3c0-0.1-0.1-0.1-0.2-0.1c-0.2,0-0.4,0.1-0.5,0.2v1.4h0.5v0.7H260v-0.7h0.5v-1.6H260z"/>
	<path fill="#FFFFFF" d="M253.2,485v-0.7h0.7v-2.9h-0.7v-0.7h2c0.4,0,0.8,0,1,0.1c0.3,0.1,0.5,0.2,0.8,0.4s0.4,0.4,0.6,0.7
		c0.1,0.3,0.2,0.6,0.2,1c0,0.3-0.1,0.6-0.2,0.9c-0.1,0.3-0.2,0.5-0.4,0.7c-0.2,0.2-0.3,0.3-0.5,0.4c-0.2,0.1-0.4,0.2-0.6,0.2
		c-0.2,0-0.4,0-0.8,0H253.2z M255,484.3h0.3c0.3,0,0.6,0,0.8-0.1c0.2-0.1,0.3-0.2,0.5-0.4c0.1-0.2,0.2-0.5,0.2-0.8
		c0-0.3-0.1-0.6-0.2-0.8s-0.3-0.4-0.5-0.5s-0.5-0.1-0.8-0.1H255V484.3z"/>
	<path fill="#FFFFFF" d="M258.2,482.7V482h1.4v2.3h0.4v0.7h-1.9v-0.7h0.5v-1.6H258.2z M258.6,481.2c0-0.1,0.1-0.3,0.2-0.4
		c0.1-0.1,0.2-0.2,0.4-0.2c0.1,0,0.3,0.1,0.4,0.2c0.1,0.1,0.2,0.2,0.2,0.4c0,0.1-0.1,0.3-0.2,0.4c-0.1,0.1-0.2,0.2-0.4,0.2
		c-0.1,0-0.3-0.1-0.4-0.2C258.7,481.4,258.6,481.3,258.6,481.2"/>
	<path fill="#FFFFFF" d="M262.6,484.1l0.7,0.2c-0.3,0.5-0.8,0.7-1.5,0.7c-0.5,0-0.9-0.1-1.2-0.4c-0.3-0.3-0.4-0.6-0.4-1.1
		c0-0.5,0.2-0.9,0.5-1.2c0.3-0.3,0.7-0.5,1.2-0.5c0.3,0,0.6,0.1,0.9,0.3s0.4,0.4,0.5,0.7c0.1,0.3,0.1,0.5,0.1,0.9h-2.2
		c0,0.3,0.1,0.5,0.3,0.6c0.2,0.1,0.3,0.2,0.5,0.2C262.1,484.5,262.3,484.4,262.6,484.1 M262.4,483.2c0-0.2-0.1-0.3-0.2-0.4
		c-0.1-0.1-0.3-0.2-0.4-0.2c-0.4,0-0.6,0.2-0.6,0.6H262.4z"/>
	<path fill="#FFFFFF" d="M267.2,482v0.7h-0.5v2.2c0,1-0.5,1.5-1.6,1.5c-0.6,0-1-0.1-1.3-0.3l0.5-0.6c0.2,0.1,0.5,0.2,0.7,0.2
		c0.2,0,0.4-0.1,0.5-0.2c0.1-0.1,0.2-0.3,0.2-0.6v-0.2c-0.3,0.3-0.6,0.4-0.9,0.4c-0.3,0-0.6-0.1-0.9-0.4c-0.2-0.3-0.4-0.7-0.4-1.1
		c0-0.5,0.1-0.8,0.4-1.1c0.3-0.3,0.6-0.4,0.9-0.4c0.3,0,0.6,0.1,0.9,0.4V482H267.2z M265.8,483.5c0-0.2-0.1-0.4-0.2-0.6
		c-0.1-0.1-0.3-0.2-0.4-0.2c-0.2,0-0.3,0.1-0.4,0.2c-0.1,0.1-0.2,0.3-0.2,0.6c0,0.2,0.1,0.4,0.2,0.6c0.1,0.1,0.2,0.2,0.4,0.2
		c0.2,0,0.3-0.1,0.4-0.2C265.7,484,265.8,483.8,265.8,483.5"/>
	<path fill="#FFFFFF" d="M268.8,485.1c-0.4,0-0.8-0.1-1.1-0.4c-0.3-0.3-0.5-0.7-0.5-1.2c0-0.5,0.2-0.9,0.5-1.2
		c0.3-0.3,0.7-0.4,1.1-0.4c0.4,0,0.8,0.1,1.1,0.4c0.3,0.3,0.5,0.7,0.5,1.2c0,0.5-0.2,0.9-0.5,1.2C269.6,485,269.3,485.1,268.8,485.1
		 M268.8,484.4c0.2,0,0.3-0.1,0.4-0.2c0.1-0.1,0.2-0.4,0.2-0.6c0-0.3-0.1-0.5-0.2-0.6c-0.1-0.1-0.3-0.2-0.4-0.2
		c-0.4,0-0.6,0.3-0.6,0.9c0,0.2,0,0.4,0.1,0.6C268.5,484.3,268.6,484.4,268.8,484.4"/>
</g>
</svg>
